<svg width="1032" height="1000" viewBox="0 0 1032 1000" fill="none" xmlns="http://www.w3.org/2000/svg">
<path d="M515.581 1000C800.329 1000 1031.16 866.728 1031.16 702.328C1031.16 537.928 800.329 404.656 515.581 404.656C230.834 404.656 0 537.928 0 702.328C0 866.728 230.834 1000 515.581 1000Z" fill="#F0F0F0"/>
<path d="M811.685 805.614C777.876 786.095 777.876 754.452 811.685 734.933C845.494 715.413 900.31 715.413 934.119 734.933C967.928 754.452 967.928 786.095 934.119 805.614C900.31 825.134 845.494 825.134 811.685 805.614Z" fill="#E0E0E0"/>
<path d="M124.018 808.326L35.0865 756.989C30.0753 754.101 30.0753 749.396 35.0865 746.507L552.375 447.851C555.186 446.426 558.293 445.684 561.445 445.684C564.597 445.684 567.704 446.426 570.515 447.851L659.469 499.188C664.48 502.076 664.48 506.781 659.469 509.67L142.181 808.326C139.366 809.751 136.255 810.494 133.1 810.494C129.944 810.494 126.833 809.751 124.018 808.326V808.326Z" fill="#E0E0E0"/>
<path d="M443.73 716.812L520.189 672.609C528.066 668.057 532.005 662.105 532.005 656.131C532.005 650.157 532.005 645.496 532.005 645.496L452.702 600.767C450.487 599.335 448.642 597.399 447.318 595.117C445.995 592.835 445.23 590.272 445.087 587.638V493.345L311.602 570.504V664.753C311.755 667.385 312.524 669.943 313.847 672.224C315.17 674.504 317.009 676.442 319.217 677.883L386.703 716.746C402.415 725.915 427.974 725.915 443.73 716.812Z" fill="#FF7250"/>
<g opacity="0.6">
<path d="M443.73 716.812L520.189 672.609C528.066 668.057 532.005 662.105 532.005 656.131C532.005 650.157 532.005 645.496 532.005 645.496L452.702 600.767C450.487 599.335 448.642 597.399 447.318 595.117C445.995 592.835 445.23 590.272 445.087 587.638V493.345L311.602 570.504V664.753C311.755 667.385 312.524 669.943 313.847 672.224C315.17 674.504 317.009 676.442 319.217 677.883L386.703 716.746C402.415 725.915 427.974 725.915 443.73 716.812Z" fill="black"/>
</g>
<path opacity="0.3" d="M343.582 681.452V692.043L319.117 677.929C316.909 676.49 315.072 674.552 313.752 672.271C312.433 669.99 311.67 667.43 311.523 664.799V570.506L336.951 555.823C337.476 562.278 338.045 568.952 338.592 575.517L320.714 585.802V659.438C320.856 662.072 321.62 664.636 322.944 666.918C324.267 669.2 326.113 671.136 328.329 672.568L343.582 681.452Z" fill="black"/>
<path d="M320.781 659.461C320.932 662.094 321.699 664.654 323.022 666.935C324.345 669.216 326.186 671.153 328.396 672.591L386.649 706.159C402.404 715.241 427.963 715.263 443.741 706.159L520.331 661.956C536.108 652.853 536.108 638.104 520.331 629.001L462.035 595.432C459.83 593.991 457.994 592.052 456.675 589.771C455.356 587.491 454.591 584.933 454.442 582.303V508.645L320.956 585.804L320.781 659.461Z" fill="#FF7250"/>
<path opacity="0.3" d="M320.781 659.461C320.932 662.094 321.699 664.654 323.022 666.935C324.345 669.216 326.186 671.153 328.396 672.591L386.649 706.159C402.404 715.241 427.963 715.263 443.741 706.159L520.331 661.956C536.108 652.853 536.108 638.104 520.331 629.001L462.035 595.432C459.83 593.991 457.994 592.052 456.675 589.771C455.356 587.491 454.591 584.933 454.442 582.303V508.645L320.956 585.804L320.781 659.461Z" fill="black"/>
<path opacity="0.5" d="M477.453 604.424L461.938 595.474C459.733 594.032 457.897 592.093 456.578 589.813C455.259 587.532 454.494 584.974 454.345 582.344V508.643L320.859 585.801V659.459C321.01 662.091 321.777 664.652 323.1 666.933C324.423 669.213 326.264 671.151 328.475 672.589L343.793 681.342L477.453 604.424Z" fill="black"/>
<path d="M532.018 645.52V656.155C532.018 662.129 528.057 668.059 520.201 672.633L443.611 716.814C435.23 721.288 425.868 723.612 416.367 723.576V712.985C425.868 713.02 435.23 710.697 443.611 706.223L520.201 661.998C528.057 657.468 532.018 651.494 532.018 645.52Z" fill="#FF7250"/>
<path opacity="0.5" d="M532.018 645.52V656.155C532.018 662.129 528.057 668.059 520.201 672.633L443.611 716.814C435.23 721.288 425.868 723.612 416.367 723.576V712.985C425.868 713.02 435.23 710.697 443.611 706.223L520.201 661.998C528.057 657.468 532.018 651.494 532.018 645.52Z" fill="black"/>
<path d="M106.292 750.995C109.178 752.389 112.351 753.086 115.555 753.028C118.759 752.971 121.905 752.163 124.739 750.667L641.174 452.514C643.943 450.707 646.248 448.274 647.902 445.412C649.556 442.549 650.512 439.337 650.693 436.036V18.2489C650.594 15.0373 649.738 11.8945 648.194 9.07666C646.65 6.2588 644.462 3.84559 641.809 2.03371C638.926 0.63836 635.756 -0.0571643 632.554 0.00367383C629.352 0.0645119 626.21 0.879995 623.383 2.38383L106.949 300.625C104.189 302.442 101.898 304.886 100.263 307.758C98.6279 310.629 97.6945 313.846 97.5391 317.146V734.868C97.6367 738.053 98.4793 741.171 99.9994 743.971C101.519 746.772 103.675 749.178 106.292 750.995Z" fill="#FF7250"/>
<path d="M124.792 750.646L641.227 452.492C644 450.69 646.307 448.258 647.962 445.394C649.616 442.531 650.57 439.317 650.746 436.015V18.2496C650.746 12.1881 646.479 9.71532 641.227 12.757L124.792 310.91C122.022 312.715 119.716 315.148 118.062 318.011C116.409 320.874 115.453 324.087 115.273 327.388V745.153C115.273 751.215 119.541 753.688 124.792 750.646Z" fill="#FF7250"/>
<path opacity="0.5" d="M124.792 750.646L641.227 452.492C644 450.69 646.307 448.258 647.962 445.394C649.616 442.531 650.57 439.317 650.746 436.015V18.2496C650.746 12.1881 646.479 9.71532 641.227 12.757L124.792 310.91C122.022 312.715 119.716 315.148 118.062 318.011C116.409 320.874 115.453 324.087 115.273 327.388V745.153C115.273 751.215 119.541 753.688 124.792 750.646Z" fill="black"/>
<path d="M123.405 761.497C120.696 762.679 117.764 763.26 114.81 763.2C111.856 763.139 108.95 762.439 106.292 761.147C103.669 759.325 101.51 756.913 99.9897 754.104C98.4693 751.295 97.6299 748.168 97.5391 744.976V706.943L115.374 717.272V755.304C115.264 760.841 118.787 763.357 123.405 761.497Z" fill="#FF7250"/>
<path opacity="0.5" d="M123.405 761.497C120.696 762.679 117.764 763.26 114.81 763.2C111.856 763.139 108.95 762.439 106.292 761.147C103.669 759.325 101.51 756.913 99.9897 754.104C98.4693 751.295 97.6299 748.168 97.5391 744.976V706.943L115.374 717.272V755.304C115.264 760.841 118.787 763.357 123.405 761.497Z" fill="black"/>
<path d="M115.273 717.276V755.308C115.273 761.369 119.65 763.82 124.792 760.8L641.227 462.647C643.985 460.849 646.282 458.43 647.936 455.584C649.589 452.737 650.551 449.543 650.746 446.257V408.049L115.273 717.276Z" fill="#FF7250"/>
<path opacity="0.3" d="M115.273 717.188V755.308C115.273 761.369 119.65 763.82 124.792 760.8L641.227 462.647C643.981 460.847 646.274 458.427 647.923 455.58C649.573 452.734 650.532 449.541 650.724 446.257V408.049L115.273 717.188Z" fill="black"/>
<path d="M133.125 669.461V333.319C133.227 331.338 133.795 329.41 134.784 327.691C135.773 325.972 137.154 324.511 138.815 323.428L627.108 41.4238C630.259 39.6075 632.819 41.0736 632.819 44.7062V381.023C632.713 383.005 632.141 384.934 631.148 386.653C630.156 388.372 628.771 389.832 627.108 390.914L138.836 672.853C135.685 674.669 133.125 673.181 133.125 669.461Z" fill="#FF7250"/>
<path d="M133.125 669.461V333.319C133.227 331.338 133.795 329.41 134.784 327.691C135.773 325.972 137.154 324.511 138.815 323.428L627.108 41.4238C630.259 39.6075 632.819 41.0736 632.819 44.7062V381.023C632.713 383.005 632.141 384.934 631.148 386.653C630.156 388.372 628.771 389.832 627.108 390.914L138.836 672.853C135.685 674.669 133.125 673.181 133.125 669.461Z" fill="#263238"/>
<path d="M382.991 574.772C380.391 576.463 378.228 578.743 376.677 581.428C375.125 584.113 374.229 587.126 374.062 590.222C374.062 595.911 378.067 598.231 382.991 595.386C385.593 593.693 387.758 591.41 389.31 588.721C390.861 586.032 391.755 583.015 391.919 579.915C391.919 574.225 387.914 571.928 382.991 574.772Z" fill="#FF7250"/>
<path opacity="0.7" d="M118.087 317.978C116.391 320.829 115.422 324.052 115.264 327.366V717.274L97.5391 706.945V317.146C97.6539 313.822 98.6182 310.583 100.34 307.737L118.087 317.978Z" fill="black"/>
<path opacity="0.3" d="M650.636 16.6715C649.957 11.7697 645.997 10.1066 641.204 12.7545L124.77 310.908C121.97 312.659 119.659 315.091 118.052 317.976L100.195 307.669C101.813 304.785 104.131 302.354 106.935 300.601L623.37 2.46952C626.201 0.965477 629.346 0.149955 632.552 0.0891222C635.757 0.0282894 638.931 0.723859 641.817 2.1194C644.243 3.77233 646.286 5.92691 647.807 8.43746C649.329 10.948 650.293 13.756 650.636 16.6715Z" fill="black"/>
<path d="M678.448 68.0923C677.681 67.7073 676.823 67.5386 675.967 67.6041C675.112 67.6697 674.29 67.967 673.59 68.4643L186.303 349.965C184.381 351.237 182.784 352.944 181.644 354.947C180.503 356.951 179.851 359.195 179.739 361.497V695.582C179.67 696.71 179.894 697.836 180.389 698.852C180.883 699.868 181.632 700.739 182.561 701.381C183.634 701.972 189.367 705.298 191.074 706.217C191.678 706.525 192.352 706.667 193.029 706.628C193.706 706.59 194.36 706.373 194.925 705.999L682.103 424.498C684.025 423.226 685.621 421.519 686.762 419.516C687.902 417.512 688.555 415.268 688.667 412.966V77.1518C688.765 76.3032 688.624 75.4441 688.261 74.671C687.898 73.898 687.326 73.2415 686.61 72.7752C685.516 72.0531 679.673 68.8144 678.448 68.0923Z" fill="#FF7250"/>
<path d="M194.807 354.693L682.116 73.3021C685.792 71.1138 688.68 72.9082 688.68 77.1535V412.967C688.568 415.27 687.916 417.514 686.775 419.517C685.635 421.521 684.038 423.228 682.116 424.5L194.807 706C191.131 708.188 188.242 704.665 188.242 700.42V366.226C188.358 363.924 189.012 361.681 190.152 359.678C191.292 357.675 192.887 355.968 194.807 354.693V354.693Z" fill="#FAFAFA"/>
<path d="M685.092 74.5711C686.383 74.5711 686.58 76.1904 686.58 77.1533V412.967C686.462 414.895 685.896 416.769 684.927 418.441C683.959 420.112 682.614 421.535 681 422.596L193.757 704.096C193.43 704.308 193.052 704.429 192.663 704.446C191.437 704.446 190.474 702.564 190.474 700.42V366.225C190.58 364.298 191.128 362.421 192.077 360.739C193.026 359.058 194.349 357.618 195.945 356.531L683.21 75.1838C683.773 74.82 684.422 74.6089 685.092 74.5711M685.092 72.3828C684.037 72.4277 683.012 72.7443 682.116 73.3019L194.807 354.693C192.887 355.968 191.292 357.675 190.152 359.678C189.012 361.681 188.358 363.924 188.242 366.225V700.42C188.242 703.79 190.124 706.635 192.619 706.635C193.391 706.62 194.146 706.401 194.807 706L682.094 424.499C684.016 423.227 685.613 421.521 686.753 419.517C687.894 417.514 688.546 415.27 688.659 412.967V77.1533C688.659 74.1334 687.171 72.3828 684.982 72.3828H685.092Z" fill="#E0E0E0"/>
<path d="M182.423 701.381C183.145 701.753 188.332 704.707 190.607 706.02C189.79 705.343 189.143 704.483 188.717 703.51C188.292 702.537 188.1 701.479 188.157 700.418V388.041L179.622 383.052V695.582C179.552 696.708 179.772 697.833 180.263 698.849C180.753 699.865 181.498 700.737 182.423 701.381V701.381Z" fill="#F0F0F0"/>
<path d="M688.768 77.089C688.768 72.8875 685.77 71.1806 682.203 73.3032L194.807 354.695C192.887 355.969 191.292 357.676 190.152 359.679C189.012 361.682 188.358 363.925 188.242 366.227V388.11L688.768 98.9718V77.089Z" fill="#FF7250"/>
<g opacity="0.4">
<path d="M682.14 73.3011L194.831 354.67C192.875 355.904 191.264 357.613 190.148 359.638L181.68 354.714C182.794 352.76 184.391 351.125 186.319 349.966L673.606 68.465C674.303 67.9642 675.124 67.663 675.98 67.5936C676.836 67.5242 677.694 67.6893 678.464 68.0711C679.645 68.8151 685.182 71.9443 686.604 72.7102C685.868 72.4374 685.077 72.3486 684.299 72.4516C683.521 72.5545 682.779 72.8462 682.14 73.3011V73.3011Z" fill="white"/>
</g>
<path opacity="0.15" d="M179.609 383.075V361.389C179.699 359.025 180.4 356.726 181.644 354.714L190.135 359.616C188.909 361.593 188.222 363.856 188.144 366.181V388.064L179.609 383.075Z" fill="black"/>
<path d="M586.028 329.005L294.177 497.502C292.758 498.423 291.576 499.666 290.728 501.13C289.88 502.594 289.39 504.238 289.297 505.927V589.607C289.39 591.296 289.88 592.94 290.728 594.404C291.576 595.868 292.758 597.111 294.177 598.032L302.689 602.934C304.202 603.699 305.874 604.098 307.569 604.098C309.264 604.098 310.936 603.699 312.449 602.934L604.256 434.436C605.676 433.51 606.858 432.263 607.706 430.796C608.553 429.328 609.043 427.682 609.136 425.989V342.287C609.044 340.598 608.553 338.955 607.705 337.491C606.857 336.027 605.676 334.783 604.256 333.863L595.722 328.961C594.216 328.208 592.554 327.82 590.87 327.827C589.186 327.835 587.527 328.238 586.028 329.005Z" fill="#FF7250"/>
<path opacity="0.5" d="M609.137 341.545C608.787 339.028 606.752 338.109 604.301 339.532L312.45 508.029C311.011 508.924 309.827 510.175 309.014 511.662L290.742 501.114C291.561 499.651 292.735 498.417 294.156 497.526L586.029 329.028C587.537 328.261 589.206 327.861 590.898 327.861C592.59 327.861 594.258 328.261 595.767 329.028L604.301 333.93C605.602 334.782 606.707 335.902 607.541 337.216C608.375 338.529 608.919 340.005 609.137 341.545Z" fill="white"/>
<path d="M311.617 603.347C310.188 603.911 308.657 604.167 307.122 604.099C305.588 604.031 304.085 603.641 302.711 602.953L294.177 598.052C292.76 597.128 291.58 595.885 290.732 594.421C289.885 592.958 289.393 591.315 289.297 589.627V505.947C289.363 504.239 289.859 502.575 290.741 501.111L309.013 511.658C308.125 513.104 307.628 514.755 307.569 516.451V600.152C307.569 602.932 309.32 604.223 311.617 603.347Z" fill="#263238"/>
<path d="M312.414 508.031L604.265 339.533C606.957 337.979 609.145 339.226 609.145 342.334V426.036C609.053 427.728 608.562 429.374 607.715 430.842C606.867 432.31 605.685 433.557 604.265 434.482L312.458 602.98C309.766 604.534 307.578 603.265 307.578 600.157V516.477C307.666 514.789 308.149 513.145 308.989 511.677C309.829 510.21 311.003 508.961 312.414 508.031V508.031Z" fill="#FF7250"/>
<path d="M508.647 373.689L294.195 497.524C292.774 498.415 291.6 499.649 290.781 501.113L309.053 511.66C309.866 510.173 311.05 508.922 312.489 508.028L526.941 384.215L508.647 373.689Z" fill="#455A64"/>
<path d="M526.871 384.214L312.419 508.027C310.999 508.953 309.818 510.2 308.97 511.667C308.122 513.135 307.632 514.781 307.539 516.474V600.132C307.539 603.239 309.727 604.508 312.419 602.955L526.871 479.142V384.214Z" fill="#37474F"/>
<path d="M361.909 497.832L472.571 433.956C477.144 431.308 480.864 433.19 480.864 438.158C480.66 440.947 479.8 443.65 478.355 446.045C476.91 448.44 474.921 450.461 472.549 451.944L361.909 515.842C357.336 518.489 353.594 516.607 353.594 511.64C353.8 508.848 354.66 506.143 356.105 503.744C357.549 501.346 359.538 499.32 361.909 497.832V497.832Z" fill="#FF7250"/>
<path d="M384.569 518.99C384.589 518.967 384.614 518.948 384.643 518.935C384.671 518.923 384.702 518.916 384.733 518.916C384.764 518.916 384.794 518.923 384.823 518.935C384.851 518.948 384.876 518.967 384.897 518.99C384.995 519.139 385.041 519.316 385.028 519.493V531.945C385.03 533.148 384.927 534.348 384.722 535.533C384.541 536.616 384.232 537.674 383.803 538.685C383.41 539.61 382.895 540.479 382.271 541.267C381.655 541.998 380.914 542.613 380.083 543.083C379.431 543.507 378.672 543.735 377.894 543.74C377.597 543.716 377.308 543.632 377.045 543.493C376.781 543.354 376.549 543.162 376.362 542.93C375.882 542.286 375.567 541.535 375.443 540.742C375.234 539.683 375.139 538.604 375.159 537.525V525.052C375.158 524.833 375.203 524.617 375.29 524.417C375.344 524.237 375.46 524.081 375.618 523.979L376.997 523.17C377.042 523.128 377.1 523.105 377.161 523.105C377.222 523.105 377.281 523.128 377.325 523.17C377.426 523.317 377.473 523.495 377.457 523.673V535.971C377.44 536.648 377.506 537.324 377.654 537.984C377.714 538.407 377.896 538.802 378.179 539.122C378.277 539.24 378.402 539.332 378.542 539.393C378.683 539.454 378.836 539.481 378.988 539.472C379.363 539.448 379.724 539.327 380.039 539.122C380.428 538.89 380.782 538.602 381.089 538.269C381.431 537.875 381.711 537.433 381.921 536.956C382.168 536.395 382.351 535.807 382.468 535.205C382.595 534.483 382.654 533.75 382.643 533.017V520.697C382.65 520.477 382.702 520.261 382.796 520.062C382.85 519.882 382.966 519.727 383.124 519.625L384.569 518.99Z" fill="#FAFAFA"/>
<path d="M393.154 530.765C393.165 530.604 393.127 530.444 393.044 530.305C392.992 530.248 392.927 530.205 392.855 530.178C392.783 530.151 392.705 530.142 392.628 530.152C392.36 530.115 392.087 530.115 391.819 530.152L390.55 530.393C390.14 530.495 389.712 530.495 389.302 530.393C388.981 530.289 388.704 530.081 388.514 529.802C388.3 529.447 388.159 529.052 388.099 528.642C387.885 527.47 387.885 526.269 388.099 525.097C388.263 524.425 388.498 523.772 388.799 523.149C389.099 522.528 389.466 521.941 389.893 521.399C390.307 520.882 390.811 520.445 391.381 520.108C391.841 519.827 392.356 519.648 392.891 519.583C393.279 519.542 393.67 519.627 394.007 519.823C394.328 520.019 394.58 520.31 394.729 520.655C394.906 521.063 395.002 521.501 395.014 521.946C395.036 522.166 394.99 522.388 394.882 522.581C394.829 522.761 394.712 522.916 394.554 523.018L393.241 523.784C393.181 523.819 393.113 523.837 393.044 523.837C392.975 523.837 392.907 523.819 392.847 523.784L392.563 523.565C392.45 523.476 392.313 523.423 392.169 523.412C391.888 523.443 391.618 523.541 391.381 523.697C391.038 523.904 390.734 524.17 390.484 524.484C390.219 524.829 390.08 525.253 390.09 525.688C390.059 525.854 390.059 526.025 390.09 526.191C390.132 526.253 390.187 526.305 390.251 526.342C390.316 526.38 390.388 526.403 390.462 526.41C390.701 526.45 390.945 526.45 391.184 526.41L392.41 526.191C393.438 525.994 394.138 526.191 394.598 526.76C395.081 527.571 395.302 528.511 395.232 529.452C395.227 530.102 395.139 530.749 394.97 531.377C394.797 532.06 394.547 532.72 394.226 533.347C393.904 533.995 393.5 534.598 393.022 535.141C392.569 535.673 392.029 536.124 391.425 536.476C390.944 536.784 390.396 536.971 389.827 537.023C389.416 537.038 389.01 536.923 388.668 536.695C388.33 536.464 388.07 536.136 387.924 535.754C387.747 535.339 387.657 534.892 387.661 534.441C387.641 534.214 387.686 533.986 387.792 533.784C387.846 533.604 387.962 533.449 388.121 533.347L389.434 532.581C389.609 532.581 389.74 532.472 389.827 532.581L390.112 532.887C390.17 532.953 390.241 533.006 390.32 533.043C390.398 533.081 390.484 533.102 390.571 533.106C390.879 533.108 391.179 533.008 391.425 532.822C391.82 532.597 392.175 532.309 392.475 531.968C392.624 531.788 392.749 531.59 392.847 531.377C393.002 531.204 393.107 530.992 393.154 530.765V530.765Z" fill="#FAFAFA"/>
<path d="M397.579 524.835C397.575 523.698 397.67 522.563 397.863 521.443C398.046 520.389 398.332 519.355 398.717 518.357C399.039 517.463 399.48 516.616 400.03 515.841C400.488 515.174 401.086 514.614 401.78 514.199C402.288 513.859 402.906 513.725 403.509 513.827C404.044 513.951 404.512 514.272 404.822 514.725C405.234 515.318 405.524 515.988 405.675 516.694C405.885 517.613 405.988 518.553 405.982 519.495V520.852C405.989 521.08 405.936 521.307 405.829 521.508C405.775 521.689 405.659 521.844 405.5 521.946L399.811 525.25C399.797 525.636 399.849 526.02 399.964 526.388C400.049 526.636 400.2 526.856 400.402 527.023C400.581 527.165 400.808 527.236 401.036 527.22C401.301 527.188 401.555 527.099 401.78 526.957C402.111 526.778 402.408 526.54 402.656 526.257C402.88 526.005 403.071 525.725 403.225 525.425C403.318 525.252 403.42 525.085 403.531 524.922C403.625 524.811 403.736 524.715 403.859 524.638L405.216 523.85C405.262 523.812 405.32 523.792 405.38 523.792C405.44 523.792 405.498 523.812 405.544 523.85C405.602 523.919 405.643 524 405.666 524.087C405.689 524.174 405.692 524.265 405.675 524.353C405.652 524.78 405.563 525.2 405.413 525.6C405.224 526.207 404.975 526.794 404.669 527.351C404.326 527.992 403.916 528.593 403.443 529.145C402.973 529.709 402.41 530.19 401.78 530.568C401.263 530.906 400.644 531.054 400.03 530.984C399.492 530.854 399.022 530.526 398.717 530.064C398.286 529.401 397.996 528.656 397.863 527.876C397.664 526.875 397.569 525.855 397.579 524.835V524.835ZM401.78 517.854C401.444 518.035 401.152 518.289 400.927 518.598C400.684 518.904 400.485 519.243 400.336 519.604C400.183 519.966 400.058 520.339 399.964 520.721C399.887 521.066 399.836 521.417 399.811 521.771L403.662 519.583C403.64 519.281 403.596 518.981 403.531 518.685C403.497 518.421 403.391 518.171 403.225 517.963C403.159 517.869 403.075 517.789 402.977 517.729C402.879 517.668 402.77 517.629 402.656 517.613C402.345 517.587 402.034 517.672 401.78 517.854V517.854Z" fill="#FAFAFA"/>
<path d="M412.871 511.749C412.208 512.127 411.685 512.711 411.383 513.412C411.042 514.336 410.886 515.317 410.923 516.301V524.2C410.926 524.426 410.882 524.65 410.792 524.857C410.738 525.037 410.622 525.192 410.464 525.294L409.173 526.038C409.152 526.062 409.127 526.08 409.098 526.093C409.07 526.106 409.04 526.113 409.008 526.113C408.977 526.113 408.947 526.106 408.918 526.093C408.89 526.08 408.865 526.062 408.844 526.038C408.746 525.89 408.7 525.713 408.713 525.535V511.377C408.714 511.152 408.759 510.929 408.844 510.72C408.906 510.544 409.02 510.391 409.173 510.283L410.464 509.539C410.508 509.497 410.567 509.474 410.628 509.474C410.689 509.474 410.747 509.497 410.792 509.539C410.893 509.678 410.94 509.849 410.923 510.02V510.72C411.184 510.133 411.507 509.576 411.886 509.057C412.232 508.578 412.681 508.182 413.199 507.898L413.987 507.438C414.028 507.398 414.083 507.375 414.14 507.375C414.197 507.375 414.252 507.398 414.293 507.438C414.399 507.584 414.453 507.761 414.446 507.941V509.933C414.443 510.16 414.39 510.384 414.293 510.589C414.238 510.763 414.131 510.915 413.987 511.027L412.871 511.749Z" fill="#FAFAFA"/>
<path d="M429.196 510.698C429.216 510.675 429.241 510.656 429.27 510.644C429.298 510.631 429.329 510.624 429.36 510.624C429.391 510.624 429.421 510.631 429.45 510.644C429.478 510.656 429.503 510.675 429.524 510.698C429.622 510.847 429.668 511.024 429.655 511.202V513.39C429.654 513.615 429.609 513.838 429.524 514.047C429.449 514.209 429.336 514.351 429.196 514.462L421.712 518.839C421.667 518.88 421.608 518.903 421.548 518.903C421.487 518.903 421.428 518.88 421.383 518.839C421.286 518.698 421.239 518.528 421.252 518.357V498.663C421.253 498.438 421.298 498.215 421.383 498.006C421.445 497.836 421.56 497.69 421.712 497.591L423.09 496.781C423.135 496.739 423.193 496.716 423.254 496.716C423.315 496.716 423.374 496.739 423.419 496.781C423.516 496.922 423.563 497.092 423.55 497.262V513.915L429.196 510.698Z" fill="#FAFAFA"/>
<path d="M435.93 494.505C436.422 494.164 437.017 494.001 437.615 494.045C438.127 494.085 438.605 494.32 438.949 494.702C439.357 495.17 439.656 495.723 439.825 496.321C440.059 497.096 440.191 497.897 440.219 498.706C440.219 498.881 440.219 499.122 440.219 499.406V501.091C440.219 501.354 440.219 501.595 440.219 501.792C440.175 502.743 440.044 503.688 439.825 504.614C439.622 505.517 439.329 506.397 438.949 507.24C438.603 508.025 438.154 508.761 437.615 509.429C437.153 510.034 436.581 510.546 435.93 510.939C435.423 511.268 434.826 511.429 434.223 511.398C433.718 511.354 433.248 511.12 432.91 510.742C432.49 510.29 432.189 509.741 432.035 509.144C431.801 508.369 431.668 507.568 431.641 506.759C431.641 506.584 431.641 506.365 431.641 506.081V504.396C431.641 504.111 431.641 503.87 431.641 503.695C431.666 502.737 431.791 501.784 432.013 500.851C432.226 499.941 432.526 499.054 432.91 498.203C433.258 497.423 433.698 496.688 434.223 496.015C434.687 495.404 435.267 494.891 435.93 494.505V494.505ZM437.987 500.15C437.986 499.666 437.904 499.186 437.746 498.728C437.665 498.449 437.496 498.204 437.265 498.028C437.078 497.903 436.853 497.848 436.63 497.875C436.38 497.922 436.142 498.018 435.93 498.159C435.672 498.3 435.437 498.477 435.229 498.684C434.978 498.945 434.765 499.24 434.595 499.559C434.375 499.958 434.213 500.385 434.113 500.829C433.97 501.388 433.882 501.959 433.851 502.536C433.851 502.711 433.851 502.908 433.851 503.148V504.702C433.851 504.943 433.851 505.14 433.851 505.271C433.871 505.755 433.96 506.234 434.113 506.693C434.193 506.973 434.362 507.219 434.595 507.394C434.686 507.458 434.789 507.503 434.898 507.525C435.008 507.548 435.12 507.548 435.229 507.525C435.477 507.483 435.715 507.394 435.93 507.262C436.183 507.116 436.418 506.94 436.63 506.737C436.874 506.47 437.087 506.177 437.265 505.862C437.475 505.459 437.637 505.033 437.746 504.593C437.889 504.034 437.97 503.462 437.987 502.886C438 502.682 438 502.477 437.987 502.273V500.741C437.999 500.544 437.999 500.347 437.987 500.15Z" fill="#FAFAFA"/>
<path d="M446.884 507.307C447.164 507.136 447.415 506.922 447.628 506.673C447.892 506.364 448.119 506.026 448.307 505.666C448.524 505.226 448.693 504.764 448.81 504.287C448.945 503.751 449.011 503.199 449.007 502.646V501.53C449.007 501.749 448.788 502.012 448.635 502.318C448.485 502.638 448.309 502.945 448.11 503.237C447.881 503.545 447.633 503.837 447.366 504.112C447.091 504.4 446.774 504.644 446.425 504.834C446.2 504.988 445.946 505.094 445.679 505.147C445.412 505.2 445.137 505.197 444.871 505.141C444.385 504.989 443.967 504.671 443.689 504.244C443.333 503.678 443.074 503.057 442.924 502.405C442.737 501.579 442.634 500.736 442.617 499.889C442.617 499.604 442.617 499.254 442.617 498.839C442.617 498.423 442.617 498.073 442.617 497.766C442.645 496.804 442.747 495.846 442.924 494.9C443.103 493.968 443.359 493.054 443.689 492.164C443.999 491.392 444.395 490.658 444.871 489.976C445.275 489.373 445.805 488.865 446.425 488.488C446.716 488.313 447.034 488.187 447.366 488.116C447.612 488.07 447.864 488.07 448.11 488.116C448.304 488.171 448.483 488.268 448.635 488.4C448.775 488.507 448.9 488.633 449.007 488.772V488.072C449.008 487.847 449.053 487.624 449.138 487.416C449.199 487.245 449.315 487.099 449.467 487L450.758 486.234C450.802 486.193 450.861 486.169 450.922 486.169C450.983 486.169 451.041 486.193 451.086 486.234C451.192 486.38 451.245 486.557 451.239 486.737V500.961C451.298 503.092 450.903 505.21 450.079 507.176C449.433 508.722 448.315 510.024 446.884 510.896C446.396 511.199 445.839 511.372 445.265 511.399C444.811 511.427 444.36 511.312 443.974 511.071C443.604 510.794 443.304 510.434 443.099 510.021C442.885 509.522 442.767 508.988 442.748 508.445C442.728 508.218 442.774 507.99 442.88 507.789C442.933 507.608 443.05 507.453 443.208 507.351L444.368 506.695C444.394 506.666 444.427 506.643 444.462 506.628C444.498 506.612 444.537 506.604 444.576 506.604C444.615 506.604 444.653 506.612 444.689 506.628C444.725 506.643 444.757 506.666 444.784 506.695C444.891 506.808 444.987 506.933 445.068 507.067C445.201 507.301 445.421 507.474 445.681 507.548C445.943 507.745 446.337 507.526 446.884 507.307ZM444.827 496.694C444.827 497.278 444.827 497.847 444.827 498.401C444.765 499.275 445.013 500.143 445.528 500.852C445.722 501.02 445.971 501.112 446.228 501.112C446.485 501.112 446.733 501.02 446.928 500.852C447.563 500.439 448.059 499.844 448.351 499.145C448.749 498.232 448.972 497.252 449.007 496.256C449.007 495.928 449.007 495.534 449.007 495.075C449.007 494.615 449.007 494.221 449.007 493.937C449.051 493.153 448.819 492.378 448.351 491.749C448.157 491.57 447.903 491.471 447.639 491.471C447.376 491.471 447.122 491.57 446.928 491.749C446.305 492.16 445.818 492.746 445.528 493.434C445.078 494.462 444.84 495.571 444.827 496.694V496.694Z" fill="#FAFAFA"/>
<path d="M456.326 477.26C456.369 477.224 456.423 477.205 456.479 477.205C456.535 477.205 456.589 477.224 456.632 477.26C456.747 477.401 456.802 477.582 456.785 477.763V480.148C456.787 480.376 456.734 480.601 456.632 480.805C456.571 480.969 456.465 481.113 456.326 481.22L454.86 482.074C454.839 482.097 454.814 482.116 454.786 482.129C454.757 482.141 454.727 482.148 454.696 482.148C454.665 482.148 454.634 482.141 454.606 482.129C454.577 482.116 454.552 482.097 454.531 482.074C454.474 482.008 454.431 481.932 454.405 481.849C454.379 481.766 454.369 481.679 454.378 481.592V479.207C454.377 478.979 454.429 478.754 454.531 478.551C454.593 478.38 454.708 478.234 454.86 478.135L456.326 477.26ZM456.698 497.808C456.699 498.026 456.654 498.242 456.567 498.442C456.497 498.614 456.384 498.765 456.238 498.88L454.925 499.624C454.907 499.647 454.884 499.665 454.857 499.678C454.831 499.69 454.802 499.697 454.772 499.697C454.743 499.697 454.714 499.69 454.687 499.678C454.661 499.665 454.637 499.647 454.619 499.624C454.504 499.482 454.449 499.302 454.466 499.121V484.962C454.464 484.735 454.517 484.51 454.619 484.306C454.681 484.136 454.786 483.985 454.925 483.868L456.238 483.124C456.283 483.083 456.342 483.06 456.402 483.06C456.463 483.06 456.522 483.083 456.567 483.124C456.664 483.265 456.711 483.435 456.698 483.606V497.808Z" fill="#FAFAFA"/>
<path d="M468.224 491.133C468.222 491.358 468.178 491.581 468.092 491.79C468.031 491.96 467.916 492.106 467.764 492.205L466.451 492.971C466.41 493.011 466.355 493.034 466.298 493.034C466.241 493.034 466.186 493.011 466.145 492.971C466.03 492.83 465.975 492.649 465.992 492.468V484.765C466.059 483.856 465.893 482.945 465.51 482.117C465.204 481.57 464.722 481.483 464.044 481.877C463.367 482.331 462.866 483.003 462.622 483.78C462.256 484.813 462.078 485.902 462.096 486.997V494.722C462.095 494.947 462.051 495.17 461.965 495.378C461.911 495.559 461.795 495.714 461.637 495.816L460.346 496.56C460.325 496.583 460.3 496.602 460.272 496.615C460.243 496.628 460.213 496.634 460.182 496.634C460.151 496.634 460.12 496.628 460.092 496.615C460.063 496.602 460.038 496.583 460.017 496.56C459.916 496.421 459.869 496.25 459.886 496.079V481.92C459.883 481.695 459.928 481.471 460.017 481.264C460.071 481.084 460.188 480.928 460.346 480.826L461.637 480.082C461.657 480.059 461.683 480.04 461.711 480.028C461.739 480.015 461.77 480.008 461.801 480.008C461.832 480.008 461.863 480.015 461.891 480.028C461.919 480.04 461.945 480.059 461.965 480.082C462.063 480.231 462.109 480.408 462.096 480.586V481.264C462.384 480.597 462.736 479.959 463.147 479.36C463.507 478.808 463.995 478.35 464.569 478.025C465.067 477.661 465.687 477.505 466.298 477.588C466.54 477.649 466.767 477.76 466.963 477.915C467.159 478.069 467.32 478.264 467.436 478.485C467.753 479.077 467.961 479.722 468.048 480.389C468.165 481.259 468.224 482.136 468.224 483.015V491.133Z" fill="#FAFAFA"/>
<path d="M578.608 427.433L557.36 439.687L560.664 409.883C558.104 408.526 556.484 405.222 556.484 400.473C556.484 392.005 561.649 382.179 567.995 378.59C574.341 375.002 579.483 378.809 579.483 387.344C579.352 392.365 577.919 397.266 575.325 401.567L578.608 427.433Z" fill="#455A64"/>
<path d="M578.653 427.434L559.943 416.646L557.383 439.71L578.653 427.434Z" fill="#37474F"/>
<path d="M567.968 378.527C563.34 381.653 559.89 386.236 558.164 391.547L575.298 401.438C577.892 397.137 579.325 392.235 579.456 387.214C579.5 378.746 574.357 374.872 567.968 378.527Z" fill="#37474F"/>
<path d="M464.679 279.286C457.392 275.084 447.348 275.675 436.232 282.087C414.042 294.91 396.055 326.049 396.055 351.674C396.055 364.541 400.606 373.557 407.915 377.715L422.073 385.942C429.338 390.144 439.383 389.531 450.521 383.12C472.71 370.318 490.698 339.157 490.698 313.532C490.698 300.731 486.19 291.649 478.925 287.557" fill="#FF7250"/>
<path d="M450.489 290.337C428.3 303.161 410.312 334.322 410.312 359.925C410.312 385.528 428.3 395.944 450.489 383.12C472.679 370.297 490.688 339.158 490.666 313.533C490.644 287.908 472.657 277.536 450.489 290.337Z" fill="#FF7250"/>
<path d="M472.677 347.189V350.122C467.361 359.61 459.737 367.604 450.51 373.361C441.866 378.329 434.054 378.876 428.32 375.703V369.663C428.614 363.379 430.408 357.257 433.553 351.809C436.697 346.361 441.101 341.746 446.396 338.349L452.238 334.979C457.403 332.003 462.436 331.609 466.375 333.906C470.313 336.204 472.677 341.04 472.677 347.189Z" fill="#FF7250"/>
<path opacity="0.4" d="M464.696 279.286L478.92 287.558C471.655 283.335 461.61 283.925 450.472 290.337C435.942 298.74 423.206 314.999 416.16 332.418L401.914 324.168C408.982 306.662 421.609 290.49 436.226 282.087C447.387 275.697 457.431 275.085 464.696 279.286Z" fill="white"/>
<path opacity="0.2" d="M421.548 385.615L407.915 377.715C400.606 373.558 396.055 364.586 396.055 351.675L410.3 359.947C410.388 372.42 414.589 381.304 421.548 385.615Z" fill="black"/>
<path opacity="0.1" d="M401.949 324.17L416.195 332.42C412.544 341.14 410.584 350.474 410.418 359.926V359.926L396.172 351.655C396.347 342.211 398.308 332.885 401.949 324.17Z" fill="black"/>
<path d="M445.397 333.601C444.04 333.615 442.703 333.268 441.524 332.594C440.104 331.647 438.965 330.334 438.229 328.793C437.494 327.252 437.188 325.541 437.345 323.841C437.53 319.854 438.668 315.97 440.663 312.513C442.658 309.056 445.452 306.127 448.811 303.971V303.971C450.161 302.894 451.804 302.249 453.525 302.121C455.247 301.993 456.968 302.387 458.462 303.252C459.956 304.117 461.154 305.413 461.9 306.971C462.646 308.528 462.904 310.274 462.641 311.98C462.452 315.967 461.312 319.85 459.318 323.306C457.323 326.762 454.531 329.692 451.175 331.85C449.438 332.934 447.444 333.538 445.397 333.601V333.601Z" fill="white"/>
<path d="M466.375 333.887C462.436 331.589 457.403 331.983 452.238 334.959L446.396 338.329C441.098 341.728 436.693 346.347 433.548 351.799C430.403 357.252 428.61 363.378 428.32 369.665V375.727C434.054 378.9 441.866 378.353 450.51 373.385C459.737 367.628 467.361 359.634 472.677 350.146V347.214C472.677 341.043 470.401 336.207 466.375 333.887Z" fill="white"/>
<path d="M916.289 712.457C916.289 712.457 919.2 686.898 931.913 667.05C944.627 647.202 962.09 634.838 978.393 633.547C994.695 632.256 1007.87 647.268 990.428 657.618C972.987 667.969 942.001 678.429 927.734 716.943L916.289 712.457Z" fill="#FF7250"/>
<path opacity="0.1" d="M916.289 712.457C916.289 712.457 919.2 686.898 931.913 667.05C944.627 647.202 962.09 634.838 978.393 633.547C994.695 632.256 1007.87 647.268 990.428 657.618C972.987 667.969 942.001 678.429 927.734 716.943L916.289 712.457Z" fill="black"/>
<path d="M921.111 705.805H920.936C920.721 705.717 920.55 705.548 920.46 705.335C920.37 705.122 920.368 704.881 920.454 704.667C937.654 662.323 970.391 644.62 985.315 641.207C985.427 641.181 985.543 641.177 985.656 641.196C985.77 641.215 985.878 641.256 985.976 641.317C986.074 641.378 986.158 641.458 986.225 641.551C986.292 641.645 986.339 641.751 986.365 641.863C986.391 641.975 986.395 642.091 986.376 642.205C986.357 642.318 986.315 642.427 986.254 642.524C986.193 642.622 986.114 642.706 986.02 642.773C985.927 642.84 985.821 642.888 985.709 642.913C971.091 646.283 938.989 663.658 922.073 705.345C921.989 705.52 921.848 705.66 921.673 705.744C921.498 705.827 921.299 705.849 921.111 705.805V705.805Z" fill="white"/>
<path d="M1008.13 706.306C1006.66 709.632 1003.03 711.383 999.659 712.739C996.29 714.096 992.613 715.562 990.775 718.714C987.099 725.06 993.138 734.031 989.199 740.181C988.272 741.419 987.104 742.456 985.765 743.231C984.426 744.005 982.945 744.501 981.409 744.688C978.893 745.148 976.332 745.148 973.794 745.367C972.578 745.351 971.365 745.256 970.161 745.082C966.625 744.293 962.928 744.685 959.636 746.198C954.581 749.043 953.071 755.411 949.964 760.335C948.065 763.234 945.563 765.688 942.629 767.531C939.694 769.375 936.396 770.562 932.961 771.013C930.772 771.298 926.396 771.714 924.207 770.423C924.036 770.339 923.875 770.236 923.726 770.116V770.116C923.398 769.766 923.004 769.307 922.829 769.066C922.818 769.015 922.818 768.963 922.829 768.913C921.932 765.608 923.398 762.195 923.463 758.781V758.168C923.31 754.207 923.201 750.269 923.113 746.33C922.924 739.035 922.851 731.741 922.895 724.447C922.895 719.72 922.369 714.556 924.383 710.114C926.571 705.212 932.085 705.102 934.164 700.31C934.996 698.384 935.433 696.349 936.243 694.402C937.494 691.57 939.499 689.136 942.037 687.365C944.576 685.594 947.553 684.554 950.642 684.357C960.249 683.876 968.848 691.644 978.455 690.922C980.928 690.725 983.357 689.959 985.808 689.522C993.576 688.056 1002.57 690.266 1006.95 696.853C1007.91 698.209 1008.52 699.782 1008.72 701.431C1008.93 703.08 1008.73 704.755 1008.13 706.306V706.306Z" fill="#FF7250"/>
<path d="M921.846 753.747C921.639 753.686 921.464 753.547 921.358 753.359C921.251 753.171 921.222 752.95 921.277 752.741C934.538 702.979 986.925 695.846 999.245 696.677C999.354 696.683 999.46 696.71 999.557 696.757C999.655 696.804 999.742 696.871 999.814 696.953C999.885 697.034 999.939 697.129 999.973 697.232C1000.01 697.335 1000.02 697.444 1000.01 697.552C999.989 697.765 999.886 697.961 999.723 698.1C999.56 698.238 999.349 698.309 999.136 698.296C987.122 697.443 935.829 704.467 922.852 753.179C922.791 753.385 922.652 753.56 922.464 753.667C922.276 753.773 922.055 753.802 921.846 753.747V753.747Z" fill="white"/>
<path d="M980.143 728.54C979.977 728.517 979.823 728.44 979.705 728.321C974.862 724.123 969.151 721.047 962.982 719.311C956.812 717.574 950.336 717.221 944.014 718.277C943.801 718.297 943.588 718.235 943.418 718.106C943.248 717.976 943.132 717.787 943.095 717.576C943.063 717.362 943.116 717.144 943.243 716.968C943.37 716.792 943.56 716.673 943.773 716.636C950.367 715.538 957.121 715.913 963.552 717.732C969.984 719.552 975.933 722.772 980.974 727.161C981.052 727.237 981.113 727.327 981.155 727.426C981.197 727.526 981.219 727.633 981.219 727.741C981.219 727.849 981.197 727.956 981.155 728.056C981.113 728.155 981.052 728.246 980.974 728.321C980.875 728.439 980.742 728.523 980.593 728.563C980.444 728.602 980.287 728.594 980.143 728.54Z" fill="white"/>
<path d="M795.852 111.447L802.81 114.116V98.7984C802.81 86.6315 812.505 83.7211 823.03 89.8045C833.578 95.888 842.112 110.659 842.112 122.826V125.014C843.579 124.566 845.128 124.455 846.644 124.69C848.16 124.925 849.603 125.5 850.865 126.371C854.862 128.977 858.187 132.489 860.572 136.622C862.956 140.755 864.331 145.393 864.586 150.157V151.164L874.302 156.766C876.93 158.482 879.118 160.792 880.688 163.51C882.258 166.228 883.166 169.278 883.339 172.412C883.339 178.189 879.291 180.531 874.302 177.642L795.852 132.323C793.221 130.611 791.033 128.301 789.466 125.582C787.899 122.862 786.998 119.811 786.836 116.677C786.836 110.921 790.84 108.58 795.852 111.447Z" fill="#E6E6E6"/>
<path d="M889.027 99.3238L901.653 106.611C901.584 106.059 901.548 105.504 901.544 104.948V101.293C901.544 94.7284 906.096 92.1462 911.741 95.4068C914.167 96.8921 916.243 98.8854 917.825 101.249C918.744 93.0653 925.177 90.0236 932.968 94.5096C937.42 97.4062 941.126 101.311 943.788 105.907C946.449 110.504 947.99 115.663 948.286 120.966V126.437C948.342 128.622 947.901 130.793 946.995 132.783L957.498 138.822C959.135 139.908 960.495 141.362 961.468 143.069C962.441 144.775 963 146.686 963.1 148.648C963.1 152.258 960.562 153.724 957.433 151.93L889.027 112.541C887.373 111.463 885.997 110.009 885.012 108.297C884.027 106.586 883.46 104.666 883.359 102.694C883.359 98.9955 885.898 97.5294 889.027 99.3238Z" fill="#E6E6E6"/>
<path d="M840.1 431.44C830.909 446.977 822.069 460.479 815.854 466.956C804.059 472.427 776.355 480.873 765.523 482.274C763.621 482.516 761.694 482.066 760.096 481.005C755.829 478.204 752.525 477.744 748.039 476.19C744.516 474.987 743.028 473.302 742.371 474.002C741.693 474.797 741.352 475.825 741.422 476.868C741.491 477.91 741.966 478.884 742.743 479.582C744.427 481.181 746.292 482.577 748.302 483.74C743.497 484.932 738.485 485.022 733.64 484.003C724.252 481.53 719.832 486.038 726.178 496.235C728.366 499.868 737.382 505.71 755.501 504.135C761.965 503.786 768.402 503.056 774.78 501.947C792.155 498.226 811.477 494.638 823.36 491.005C827.78 489.267 831.735 486.525 834.914 482.996C854.893 460.216 861.523 443.979 870.277 429.23L869.533 405.159C855.352 404.677 847.781 418.442 840.1 431.44Z" fill="#FFA8A7"/>
<path d="M871.978 404.677C867.867 404.099 863.675 404.656 859.857 406.288C856.039 407.919 852.739 410.563 850.314 413.934C840.598 426.385 823.398 456.277 823.398 456.277C823.398 456.277 829.022 471.267 844.209 473.783L868.608 440.828C868.608 440.828 880.162 417.938 871.978 404.677Z" fill="#455A64"/>
<path d="M924.737 740.664H908.828V769.024H924.737V740.664Z" fill="#FFA8A7"/>
<path d="M869.587 739.157L853.7 739.725L852.891 709.702L869.587 709.133V739.157Z" fill="#FFA8A7"/>
<path d="M926.961 495.166C926.961 510.965 924.642 638.257 924.642 638.257C924.992 642.809 929.018 651.212 928.209 668.696C927.005 692.439 925.408 754.849 925.408 754.849C922.677 756.246 919.664 757.004 916.596 757.065C913.529 757.126 910.489 756.488 907.705 755.199C907.705 755.199 894.794 667.668 891.949 644.231C889.454 623.683 883.064 555.672 883.064 555.672L874.465 636.069C876.288 644.695 876.95 653.527 876.434 662.328C875.69 673.27 870.569 729.903 870.569 729.903C867.821 731.524 864.739 732.498 861.559 732.752C858.378 733.007 855.181 732.533 852.21 731.369C852.21 731.369 843.15 646.026 842.975 636.003C842.756 624.624 848.271 495.034 848.271 495.034L926.961 495.166Z" fill="#37474F"/>
<path d="M908.862 760.842V758.479C907.33 759.157 903.807 773.206 897.483 779.202C892.472 783.973 885.645 789.465 883.894 794.783C882.143 800.1 893.413 803.361 898.118 802.507C903.545 801.501 912.998 797.496 915.361 793.754C917.725 790.012 918.841 784.585 920.766 781.872C922.692 779.158 927.134 776.138 928.163 772.987C928.484 770.039 928.178 767.056 927.266 764.234C926.522 761.302 925.734 758.085 924.771 758.37V760.164C922.528 762.005 919.708 762.997 916.806 762.965C914.486 763.162 908.84 762.681 908.862 760.842Z" fill="#263238"/>
<path d="M853.527 734.606C852.696 734.606 852.017 735.853 850.201 737.91C847.5 740.751 844.342 743.118 840.857 744.912C834.905 748.02 823.351 752.79 818.077 755.263C814.795 756.795 814.948 760.909 818.34 763.25C821.732 765.592 829.894 767.277 839.697 765.001C845.037 763.754 851.995 758.611 856.416 758.896C860.836 759.18 869.042 759.093 872.303 756.707C875.563 754.322 874.25 749.377 873.331 745.109C872.325 740.427 871.143 733.14 869.589 733.468V735.109C867.685 738.129 857.816 739.354 853.615 737.144L853.527 734.606Z" fill="#263238"/>
<path d="M883.083 555.668C874.807 552.959 867.241 548.436 860.938 542.429C860.938 542.429 865.314 550.767 877.919 558.535L875.205 630.332L883.083 555.668Z" fill="#263238"/>
<path d="M918.052 406.995C918.052 406.995 931.182 410.015 930.241 433.736L927.506 471.483V528.16C915.82 541.421 864.045 540.458 846.211 527.11C846.211 527.11 848.224 460.039 849.428 434.217C850.281 415.879 854.505 406.645 872.536 404.631L894.703 405.594L918.052 406.995Z" fill="#FF7250"/>
<path d="M901.355 357.716C901.431 360.892 900.877 364.051 899.726 367.012C898.575 369.972 896.849 372.676 894.648 374.967C892.447 377.257 889.814 379.089 886.902 380.358C883.989 381.626 880.855 382.305 877.678 382.356C864.549 382.356 856.846 371.021 854.001 357.716C848.749 333.361 864.592 333.054 877.678 333.054C884.088 333.186 890.183 335.858 894.623 340.483C899.063 345.108 901.484 351.306 901.355 357.716V357.716Z" fill="#263238"/>
<path d="M913.46 367.673C913.46 367.673 909.827 385.442 908.361 388.375C907.439 390.139 905.871 391.48 903.984 392.116L904.247 379.621L913.46 367.673Z" fill="#263238"/>
<path d="M908.877 342.225C908.877 342.225 911.481 341.569 914.261 345.902C916.624 349.6 917.171 357.915 913.451 367.785L906.602 368.616L908.877 342.225Z" fill="#263238"/>
<path d="M911.367 345.835L919.77 345.988C919.828 345.445 919.772 344.896 919.607 344.375C919.443 343.854 919.172 343.373 918.812 342.962C918.453 342.551 918.012 342.219 917.518 341.987C917.024 341.754 916.487 341.626 915.941 341.611C914.792 341.628 913.69 342.068 912.846 342.848C912.001 343.627 911.475 344.691 911.367 345.835Z" fill="#263238"/>
<path d="M912.383 343.843L918.597 337.869C918.239 337.447 917.797 337.104 917.3 336.861C916.802 336.618 916.26 336.481 915.707 336.458C915.154 336.436 914.602 336.528 914.086 336.73C913.57 336.931 913.102 337.237 912.711 337.629C911.887 338.435 911.395 339.521 911.335 340.672C911.274 341.823 911.648 342.955 912.383 343.843V343.843Z" fill="#263238"/>
<path d="M904.526 368.505C905.905 369.358 907.852 366.623 909.559 364.763C911.266 362.903 916.562 361.196 919.319 367.236C922.076 373.275 917.371 379.249 913.432 381.219C906.364 384.72 904.132 379.621 904.132 379.621L903.541 407.763C893.606 423.081 871.067 422.599 879.186 407.019V398.463C875.846 399.018 872.455 399.194 869.076 398.988C863.561 398.112 860.104 393.583 858.419 387.368C855.749 377.389 854.721 369.337 856.996 349.708C859.491 328.219 883.518 327.978 896.386 336.578C909.253 345.178 904.526 368.505 904.526 368.505Z" fill="#FFA8A7"/>
<path d="M874.575 346.36C880.309 345.791 885.976 344.609 891.732 344.171C892.973 344.021 894.23 344.08 895.452 344.346C899.828 345.55 899.303 350.67 900.003 354.237C901.207 360.408 902.192 370.846 904.511 370.89C905.211 370.89 907.837 366.36 909.544 364.741C910.482 363.346 911.013 361.717 911.076 360.036C911.514 357.498 911.733 354.894 911.929 352.312C912.105 350.123 912.323 347.935 912.323 345.747C912.423 343.274 912.225 340.798 911.732 338.372C911.184 336.309 910.131 334.414 908.669 332.858L908.231 332.376C905.347 329.361 901.846 327.002 897.968 325.461C892.389 323.371 886.537 322.096 880.593 321.676C874.658 321.255 868.749 320.525 862.89 319.487C862.554 319.39 862.197 319.39 861.862 319.487C861.624 319.619 861.423 319.808 861.278 320.038C861.133 320.267 861.047 320.529 861.03 320.8C860.79 322.16 860.94 323.56 861.463 324.838C861.986 326.116 862.86 327.22 863.984 328.022C860.023 328.328 855.472 326.271 851.664 325.221C851.356 325.09 851.025 325.023 850.69 325.023C850.356 325.023 850.025 325.09 849.717 325.221C849.335 325.488 849.063 325.884 848.951 326.337C848.674 327.365 848.636 328.443 848.841 329.488C849.19 332.655 850.367 335.674 852.255 338.241C855.204 342.081 859.371 344.805 864.072 345.966C867.532 346.633 871.075 346.766 874.575 346.36V346.36Z" fill="#263238"/>
<path d="M879.219 398.463C879.219 398.463 891.517 395.881 895.806 393.495C898.361 392.098 900.435 389.962 901.758 387.368C901.112 389.975 899.96 392.428 898.366 394.59C895.237 398.791 879.219 401.855 879.219 401.855V398.463Z" fill="#F28F8F"/>
<path d="M882.189 365.288C882.165 365.963 882.41 366.621 882.869 367.117C883.328 367.613 883.965 367.907 884.64 367.935C885.176 367.98 885.713 367.861 886.18 367.594C886.648 367.328 887.024 366.927 887.259 366.443C887.495 365.96 887.578 365.416 887.5 364.884C887.421 364.352 887.183 363.856 886.818 363.461C886.453 363.066 885.977 362.791 885.452 362.672C884.928 362.552 884.379 362.594 883.879 362.791C883.379 362.989 882.949 363.333 882.648 363.778C882.346 364.224 882.186 364.75 882.189 365.288V365.288Z" fill="#263238"/>
<path d="M886.133 354.676L891.407 357.717C891.79 356.967 891.877 356.1 891.65 355.289C891.423 354.478 890.898 353.782 890.181 353.341C889.831 353.144 889.445 353.023 889.046 352.985C888.646 352.946 888.244 352.991 887.863 353.116C887.482 353.242 887.132 353.446 886.834 353.714C886.536 353.982 886.297 354.31 886.133 354.676V354.676Z" fill="#263238"/>
<path d="M880.311 383.035L874.688 385.223C874.801 385.609 874.992 385.967 875.249 386.276C875.507 386.584 875.825 386.837 876.184 387.018C876.543 387.198 876.935 387.303 877.337 387.326C877.738 387.348 878.14 387.288 878.517 387.149C879.283 386.819 879.894 386.21 880.227 385.446C880.56 384.682 880.59 383.82 880.311 383.035V383.035Z" fill="#F28F8F"/>
<path d="M859.564 356.927L864.378 353.076C864.162 352.74 863.878 352.453 863.544 352.234C863.21 352.015 862.834 351.868 862.439 351.804C862.045 351.74 861.642 351.76 861.256 351.862C860.87 351.965 860.509 352.147 860.198 352.398C859.555 352.943 859.135 353.706 859.018 354.542C858.901 355.377 859.095 356.226 859.564 356.927V356.927Z" fill="#263238"/>
<path d="M861.643 364.567C861.681 365.045 861.858 365.503 862.152 365.883C862.446 366.263 862.844 366.549 863.298 366.706C863.752 366.863 864.242 366.885 864.708 366.769C865.174 366.652 865.596 366.402 865.922 366.05C866.248 365.698 866.465 365.258 866.546 364.784C866.626 364.311 866.567 363.824 866.375 363.383C866.184 362.943 865.868 362.568 865.467 362.304C865.066 362.04 864.596 361.898 864.116 361.897C863.778 361.908 863.445 361.986 863.137 362.127C862.829 362.268 862.553 362.468 862.323 362.716C862.093 362.964 861.914 363.256 861.798 363.573C861.681 363.891 861.628 364.229 861.643 364.567V364.567Z" fill="#263238"/>
<path d="M874.867 362.507L874.583 378.066L865.742 376.053L874.867 362.507Z" fill="#F28F8F"/>
<path d="M664.922 492.821L678.642 484.9L684.069 478.313L670.371 486.235L664.922 492.821Z" fill="#FF7250"/>
<path opacity="0.4" d="M664.922 492.821L678.642 484.9L684.069 478.313L670.371 486.235L664.922 492.821Z" fill="black"/>
<path d="M702.227 514.355L715.947 506.433L727.392 496.301L713.693 504.201L702.227 514.355Z" fill="#FF7250"/>
<path opacity="0.4" d="M702.227 514.355L715.947 506.433L727.392 496.301L713.693 504.201L702.227 514.355Z" fill="black"/>
<path d="M818.784 541.685C822.028 546.033 823.991 551.203 824.452 556.609C821.222 552.252 819.26 547.087 818.784 541.685V541.685ZM850.667 542.1C846.05 510.699 829.178 479.647 809.09 468.027C799.44 462.447 790.511 462.25 783.356 466.43L770.445 473.87L769.723 474.308C769.148 474.624 768.592 474.975 768.06 475.358C766.999 476.088 766.003 476.908 765.083 477.809L764.646 478.225C764.252 478.618 763.836 479.078 763.464 479.516C763.092 479.953 762.523 480.632 762.086 481.222C761.157 482.445 760.316 483.732 759.569 485.074C759.175 485.752 758.803 486.474 758.453 487.262L645.691 422.183L631.992 430.082V438.835L633.152 439.492L634.246 440.127V441.877L632.058 443.168V448.245L648.623 483.258L664.991 492.733L670.44 486.168L684.883 494.812L693.177 509.014L702.324 514.287L713.768 504.134L727.817 512.252L732.544 531.75L756.155 545.405C757.322 550.367 758.784 555.256 760.532 560.044C760.685 560.526 760.882 561.029 761.079 561.576C768.913 582.146 781.364 599.762 795.413 607.88C797.097 608.879 798.861 609.735 800.687 610.441C801.652 610.824 802.639 611.153 803.641 611.425C804.516 611.659 805.392 611.856 806.267 612.016C809.031 612.52 811.863 612.52 814.626 612.016L815.764 611.732C816.308 611.622 816.842 611.468 817.362 611.272L818.587 610.791C819.021 610.634 819.438 610.436 819.834 610.2C820.239 610.025 820.633 609.828 821.016 609.609L821.585 609.259C821.688 609.225 821.784 609.173 821.869 609.106C824.999 607.311 832.701 602.847 834.802 601.666C845.218 595.626 851.958 580.352 851.958 558.753C851.941 553.178 851.509 547.612 850.667 542.1V542.1Z" fill="#FF7250"/>
<path d="M814.762 568.186C809.335 565.056 804.959 555.778 804.959 547.462C804.959 539.147 809.335 534.924 814.762 538.031C820.189 541.138 824.544 550.439 824.544 558.776C824.544 567.113 820.167 571.315 814.762 568.186ZM836.93 550.001C832.334 518.621 815.463 487.547 795.352 475.949C786.03 470.566 777.408 470.172 770.406 473.871L769.684 474.308C769.109 474.625 768.553 474.975 768.02 475.359C766.96 476.089 765.964 476.909 765.044 477.809L764.607 478.225C764.213 478.619 763.797 479.079 763.425 479.516C763.053 479.954 762.484 480.632 762.047 481.223C761.118 482.446 760.277 483.733 759.53 485.075C759.136 485.753 758.764 486.475 758.414 487.263C756.374 491.493 754.902 495.974 754.037 500.589L631.953 430.083V438.836L633.113 439.493L634.207 440.127V441.878L632.019 443.169V448.246L648.584 483.258L664.952 492.734L670.401 486.169L684.844 494.812L693.137 509.014L702.285 514.288L713.729 504.135L727.778 512.253L732.505 531.751L756.138 545.406C757.305 550.368 758.767 555.256 760.515 560.045C760.668 560.527 760.865 561.03 761.062 561.577C768.896 582.147 781.347 599.762 795.396 607.881C797.08 608.879 798.844 609.736 800.67 610.441C801.635 610.825 802.621 611.154 803.624 611.426C804.499 611.659 805.374 611.856 806.25 612.017C809.013 612.521 811.845 612.521 814.609 612.017L815.747 611.732C816.291 611.623 816.825 611.469 817.344 611.273L818.57 610.791C819.004 610.635 819.421 610.437 819.817 610.201C820.222 610.026 820.616 609.828 820.999 609.61L821.568 609.26C821.671 609.226 821.767 609.174 821.852 609.106C831.831 602.804 838.242 587.749 838.242 566.676C838.206 561.093 837.767 555.52 836.93 550.001V550.001Z" fill="#FF7250"/>
<path opacity="0.4" d="M824.546 558.753C824.546 567.09 820.17 571.313 814.764 568.184C809.359 565.055 804.961 555.798 804.961 547.461C804.961 539.124 809.338 534.9 814.764 538.03C816.327 538.981 817.688 540.23 818.769 541.706C819.239 547.109 821.202 552.276 824.437 556.63C824.517 557.335 824.553 558.043 824.546 558.753V558.753Z" fill="black"/>
<path opacity="0.4" d="M851.921 558.732C851.921 580.33 845.181 595.604 834.765 601.644C832.577 602.825 824.962 607.29 821.832 609.084C831.811 602.782 838.223 587.726 838.223 566.653C838.199 561.079 837.775 555.514 836.954 550C832.358 518.62 815.486 487.547 795.376 475.949C786.054 470.566 777.432 470.172 770.43 473.87L783.341 466.43C790.496 462.25 799.424 462.447 809.075 468.027C829.185 479.647 846.057 510.699 850.652 542.101C851.486 547.605 851.91 553.164 851.921 558.732V558.732Z" fill="white"/>
<path d="M838.187 566.61C838.187 587.684 831.775 602.739 821.797 609.041C824.926 607.247 832.629 602.783 834.73 601.601C845.146 595.561 851.886 580.287 851.886 558.689C851.886 557.901 851.886 557.091 851.886 556.282L838.187 564.203C838.165 565.057 838.187 565.845 838.187 566.61Z" fill="#FF7250"/>
<path opacity="0.1" d="M838.187 566.61C838.187 587.684 831.775 602.739 821.797 609.041C824.926 607.247 832.629 602.783 834.73 601.601C845.146 595.561 851.886 580.287 851.886 558.689C851.886 557.901 851.886 557.091 851.886 556.282L838.187 564.203C838.165 565.057 838.187 565.845 838.187 566.61Z" fill="black"/>
<path opacity="0.15" d="M754.58 509.539V513.981L631.992 443.212L634.246 441.899V440.061L754.58 509.539Z" fill="black"/>
<path opacity="0.15" d="M754.58 511.377V513.981L631.992 443.212L634.246 441.899V441.877L754.58 511.377Z" fill="black"/>
<path opacity="0.15" d="M807.883 601.621C803.237 601.5 798.706 600.148 794.754 597.704C774.775 586.172 758.516 551.859 758.516 521.223C758.516 503.345 763.921 489.997 773.352 484.548C779.917 480.74 787.685 481.222 795.848 485.926C815.805 497.459 832.064 531.88 832.064 562.516C832.064 580.373 826.659 593.743 817.227 599.17C814.382 600.795 811.159 601.64 807.883 601.621ZM782.827 484.22C779.911 484.203 777.043 484.958 774.512 486.408C765.912 491.375 760.77 504.395 760.77 521.202C760.77 551.137 776.525 584.662 795.913 595.778C803.332 600.155 810.356 600.549 816.199 597.179C824.799 592.211 829.941 579.213 829.941 562.407C829.941 532.449 814.186 498.947 794.819 487.808C791.2 485.606 787.063 484.398 782.827 484.307V484.22Z" fill="black"/>
<path opacity="0.4" d="M758.336 487.221C756.296 491.45 754.824 495.931 753.959 500.547L631.875 430.041L645.574 422.141L758.336 487.221Z" fill="white"/>
<path d="M916.984 494.069C923.373 481.968 930.682 454.789 934.315 441.069C939.479 421.593 931.12 409.339 921.623 408.835C915.693 409.755 896.151 480.808 896.151 480.808C893.963 482.537 864.268 497.614 854.727 501.4C853.021 502.045 851.138 502.045 849.431 501.4C844.858 499.737 841.729 500.043 837.243 499.605C833.719 499.255 831.947 498.008 831.487 498.752C831.07 499.675 831.016 500.722 831.337 501.683C831.657 502.645 832.328 503.45 833.216 503.938C835.148 505.063 837.204 505.959 839.343 506.608C835.508 507.771 831.511 508.311 827.505 508.205C818.314 508.008 815.01 511.991 822.143 521.335C826.52 527.156 833.763 528.994 849.935 523.414C854.574 521.795 860.876 518.665 866.763 516.543C878.886 512.166 882.081 511.641 891.315 508.512C904.773 503.96 914.139 499.452 916.984 494.069Z" fill="#FFA8A7"/>
<path d="M918.063 406.997C923.643 407.763 929.005 409.01 932.309 413.562C935.613 418.114 938.261 424.503 935.023 441.9C932.542 454.135 929.223 466.184 925.088 477.963C925.088 477.963 912.089 483.521 898.281 469.429L907.778 432.709C907.778 432.709 909.31 408.835 918.063 406.997Z" fill="#455A64"/>
</svg>
