<svg width="340" height="254" viewBox="0 0 340 254" fill="none" xmlns="http://www.w3.org/2000/svg">
<path d="M340 222.632H0V222.802H340V222.632Z" fill="#EBEBEB"/>
<path d="M218.634 232.111H196.112V232.281H218.634V232.111Z" fill="#EBEBEB"/>
<path d="M282.724 230.268H276.814V230.438H282.724V230.268Z" fill="#EBEBEB"/>
<path d="M269.681 227.263H222.816V227.433H269.681V227.263Z" fill="#EBEBEB"/>
<path d="M153.095 231.275H132.491V231.445H153.095V231.275Z" fill="#EBEBEB"/>
<path d="M126.439 231.275H113.37V231.445H126.439V231.275Z" fill="#EBEBEB"/>
<path d="M67.524 228.405H35.6728V228.575H67.524V228.405Z" fill="#EBEBEB"/>
<path d="M161.16 192.304H29.8588C28.8302 192.302 27.8444 191.892 27.1177 191.164C26.391 190.436 25.9828 189.45 25.9828 188.421V3.8488C25.9918 2.8261 26.4039 1.84823 27.1296 1.12759C27.8553 0.406952 28.8361 0.00175194 29.8588 0H161.16C162.19 0 163.177 0.40908 163.906 1.13725C164.634 1.86541 165.043 2.85302 165.043 3.8828V188.421C165.043 189.451 164.634 190.439 163.906 191.167C163.177 191.895 162.19 192.304 161.16 192.304ZM29.8588 0.136001C28.8753 0.137802 27.9327 0.529764 27.2379 1.22585C26.543 1.92194 26.1528 2.86528 26.1528 3.8488V188.421C26.1528 189.405 26.543 190.348 27.2379 191.044C27.9327 191.74 28.8753 192.132 29.8588 192.134H161.16C162.144 192.132 163.087 191.74 163.783 191.045C164.479 190.349 164.871 189.405 164.873 188.421V3.8488C164.871 2.86466 164.479 1.92134 163.783 1.22544C163.087 0.529543 162.144 0.137798 161.16 0.136001H29.8588Z" fill="#EBEBEB"/>
<path d="M308.251 192.304H176.943C175.914 192.302 174.927 191.893 174.199 191.165C173.471 190.437 173.062 189.45 173.06 188.421V3.8488C173.071 2.82548 173.484 1.84761 174.211 1.12716C174.938 0.406714 175.919 0.00173284 176.943 0H308.251C309.272 0.00353906 310.251 0.409529 310.976 1.12998C311.7 1.85042 312.111 2.82727 312.12 3.8488V188.421C312.12 189.449 311.713 190.434 310.988 191.162C310.262 191.89 309.278 192.3 308.251 192.304ZM176.943 0.136001C175.959 0.137798 175.015 0.529543 174.319 1.22544C173.624 1.92134 173.232 2.86466 173.23 3.8488V188.421C173.232 189.405 173.624 190.349 174.319 191.045C175.015 191.74 175.959 192.132 176.943 192.134H308.251C309.235 192.132 310.178 191.74 310.874 191.045C311.57 190.349 311.962 189.405 311.964 188.421V3.8488C311.962 2.86466 311.57 1.92134 310.874 1.22544C310.178 0.529543 309.235 0.137798 308.251 0.136001H176.943Z" fill="#EBEBEB"/>
<path d="M298.302 77.5947C298.301 76.8522 298.005 76.1406 297.48 75.6156C296.955 75.0906 296.243 74.7949 295.501 74.7931H208.23C207.487 74.7949 206.776 75.0906 206.251 75.6156C205.726 76.1406 205.43 76.8522 205.428 77.5947V86.6115H298.302V77.5947Z" fill="#E6E6E6"/>
<path d="M277.766 80.7023C277.768 81.1225 277.644 81.5336 277.412 81.8836C277.179 82.2335 276.848 82.5065 276.46 82.6679C276.072 82.8293 275.645 82.8719 275.233 82.7903C274.82 82.7086 274.442 82.5064 274.145 82.2093C273.847 81.9122 273.645 81.5335 273.564 81.1214C273.482 80.7092 273.525 80.282 273.686 79.8941C273.847 79.5061 274.12 79.1749 274.47 78.9422C274.82 78.7096 275.231 78.5862 275.652 78.5875C276.212 78.5893 276.749 78.8127 277.145 79.2089C277.541 79.6051 277.765 80.142 277.766 80.7023Z" fill="white"/>
<path d="M285.274 80.7023C285.275 81.1222 285.152 81.5331 284.919 81.8829C284.687 82.2327 284.356 82.5056 283.969 82.6673C283.581 82.8289 283.154 82.8719 282.742 82.7908C282.33 82.7097 281.952 82.5082 281.654 82.2117C281.357 81.9153 281.154 81.5373 281.072 81.1255C280.989 80.7138 281.031 80.2869 281.191 79.8988C281.352 79.5107 281.624 79.179 281.973 78.9455C282.322 78.7121 282.732 78.5875 283.152 78.5875C283.713 78.5875 284.252 78.8101 284.65 79.2065C285.047 79.6029 285.272 80.1408 285.274 80.7023Z" fill="white"/>
<path d="M290.659 82.824C291.831 82.824 292.781 81.8741 292.781 80.7024C292.781 79.5307 291.831 78.5808 290.659 78.5808C289.487 78.5808 288.538 79.5307 288.538 80.7024C288.538 81.8741 289.487 82.824 290.659 82.824Z" fill="white"/>
<path d="M208.23 147.349H295.501C296.243 147.348 296.955 147.052 297.48 146.527C298.005 146.002 298.301 145.29 298.302 144.548V86.6117H205.428V144.548C205.43 145.29 205.726 146.002 206.251 146.527C206.776 147.052 207.487 147.348 208.23 147.349Z" fill="#F0F0F0"/>
<path d="M305.388 98.8039C305.386 98.0614 305.09 97.3499 304.565 96.8249C304.04 96.2999 303.329 96.0041 302.586 96.0023H215.315C214.573 96.0041 213.861 96.2999 213.336 96.8249C212.811 97.3499 212.515 98.0614 212.514 98.8039V107.821H305.388V98.8039Z" fill="#F0F0F0"/>
<path d="M284.859 101.912C284.859 102.331 284.734 102.741 284.501 103.09C284.268 103.439 283.937 103.711 283.549 103.872C283.161 104.032 282.735 104.074 282.323 103.992C281.912 103.911 281.534 103.709 281.237 103.412C280.94 103.115 280.738 102.737 280.656 102.326C280.574 101.914 280.616 101.487 280.777 101.1C280.938 100.712 281.21 100.381 281.558 100.148C281.907 99.9145 282.318 99.79 282.737 99.79C283.3 99.79 283.839 100.014 284.237 100.411C284.635 100.809 284.859 101.349 284.859 101.912Z" fill="#E6E6E6"/>
<path d="M292.359 101.912C292.359 102.332 292.235 102.742 292.001 103.091C291.768 103.44 291.436 103.712 291.048 103.872C290.66 104.033 290.233 104.074 289.821 103.992C289.409 103.91 289.031 103.707 288.735 103.409C288.439 103.112 288.237 102.733 288.156 102.321C288.075 101.909 288.118 101.483 288.279 101.095C288.441 100.707 288.714 100.377 289.064 100.144C289.414 99.912 289.824 99.7887 290.244 99.79C290.806 99.7918 291.344 100.016 291.74 100.414C292.137 100.812 292.359 101.35 292.359 101.912Z" fill="#E6E6E6"/>
<path d="M299.88 101.912C299.88 102.332 299.755 102.742 299.522 103.091C299.289 103.44 298.957 103.712 298.569 103.872C298.181 104.033 297.754 104.074 297.342 103.992C296.93 103.91 296.552 103.707 296.256 103.409C295.959 103.112 295.758 102.733 295.677 102.321C295.596 101.909 295.639 101.483 295.8 101.095C295.962 100.707 296.235 100.377 296.585 100.144C296.934 99.912 297.345 99.7887 297.765 99.79C298.327 99.7918 298.865 100.016 299.261 100.414C299.657 100.812 299.88 101.35 299.88 101.912Z" fill="#E6E6E6"/>
<path d="M215.315 168.558H302.6C303.342 168.557 304.054 168.261 304.579 167.736C305.104 167.211 305.4 166.499 305.402 165.757V107.821H212.514V165.757C212.515 166.499 212.811 167.211 213.336 167.736C213.861 168.261 214.573 168.557 215.315 168.558Z" fill="#FAFAFA"/>
<path d="M33.7688 12.5188C33.7724 11.8154 34.0539 11.1419 34.5519 10.6451C35.05 10.1484 35.7242 9.86861 36.4276 9.86682H150.96C151.663 9.86861 152.338 10.1484 152.836 10.6451C153.334 11.1419 153.615 11.8154 153.619 12.5188V21.08H33.7688V12.5188Z" fill="#E0E0E0"/>
<path d="M55.2568 17.6799C54.8251 17.6799 54.4031 17.5519 54.0441 17.3121C53.6851 17.0722 53.4054 16.7313 53.2402 16.3325C53.0749 15.9336 53.0317 15.4947 53.1159 15.0713C53.2002 14.6479 53.4081 14.2589 53.7133 13.9537C54.0186 13.6484 54.4075 13.4405 54.8309 13.3563C55.2544 13.272 55.6933 13.3153 56.0921 13.4805C56.491 13.6457 56.8319 13.9255 57.0717 14.2844C57.3116 14.6434 57.4396 15.0654 57.4396 15.4971C57.4396 16.076 57.2096 16.6313 56.8003 17.0406C56.3909 17.45 55.8357 17.6799 55.2568 17.6799ZM55.2568 13.6611C54.8937 13.6611 54.5387 13.7688 54.2368 13.9706C53.9348 14.1723 53.6995 14.459 53.5606 14.7945C53.4216 15.13 53.3852 15.4992 53.4561 15.8553C53.5269 16.2115 53.7018 16.5386 53.9585 16.7954C54.2153 17.0521 54.5425 17.227 54.8986 17.2979C55.2548 17.3687 55.6239 17.3323 55.9594 17.1934C56.2949 17.0544 56.5816 16.8191 56.7834 16.5172C56.9851 16.2152 57.0928 15.8603 57.0928 15.4971C57.0964 15.2537 57.0516 15.0121 56.9609 14.7862C56.8703 14.5603 56.7356 14.3546 56.5648 14.1813C56.3939 14.0079 56.1903 13.8702 55.9657 13.7762C55.7412 13.6823 55.5002 13.6339 55.2568 13.6339V13.6611Z" fill="white"/>
<path d="M48.1372 17.6799C47.7066 17.6799 47.2857 17.5525 46.9274 17.3139C46.569 17.0752 46.2892 16.7359 46.1233 16.3386C45.9573 15.9413 45.9125 15.5039 45.9945 15.0812C46.0766 14.6585 46.2818 14.2696 46.5843 13.9632C46.8869 13.6569 47.2733 13.4469 47.6949 13.3596C48.1165 13.2724 48.5545 13.3117 48.9538 13.4728C49.3531 13.6338 49.6959 13.9094 49.939 14.2647C50.182 14.6201 50.3146 15.0394 50.32 15.4699C50.3236 15.7589 50.2698 16.0456 50.1617 16.3136C50.0536 16.5816 49.8934 16.8254 49.6903 17.031C49.4873 17.2366 49.2454 17.3998 48.9788 17.5112C48.7122 17.6226 48.4261 17.68 48.1372 17.6799ZM48.1372 13.6611C47.774 13.6611 47.4191 13.7688 47.1171 13.9706C46.8152 14.1723 46.5799 14.459 46.4409 14.7945C46.302 15.13 46.2656 15.4992 46.3365 15.8553C46.4073 16.2115 46.5822 16.5386 46.8389 16.7954C47.0957 17.0522 47.4228 17.227 47.779 17.2979C48.1351 17.3687 48.5043 17.3323 48.8398 17.1934C49.1753 17.0544 49.462 16.8191 49.6638 16.5172C49.8655 16.2152 49.9732 15.8603 49.9732 15.4971C49.9768 15.2537 49.932 15.0121 49.8413 14.7862C49.7507 14.5603 49.616 14.3546 49.4451 14.1813C49.2743 14.0079 49.0707 13.8702 48.8461 13.7762C48.6216 13.6823 48.3806 13.6339 48.1372 13.6339V13.6611Z" fill="white"/>
<path d="M41.0176 17.6799C40.5859 17.6799 40.1639 17.5519 39.8049 17.3121C39.4459 17.0722 39.1662 16.7313 39.0009 16.3325C38.8357 15.9336 38.7925 15.4947 38.8767 15.0713C38.961 14.6479 39.1688 14.2589 39.4741 13.9537C39.7794 13.6484 40.1683 13.4405 40.5918 13.3563C41.0152 13.272 41.4541 13.3153 41.8529 13.4805C42.2518 13.6457 42.5927 13.9255 42.8325 14.2844C43.0724 14.6434 43.2004 15.0654 43.2004 15.4971C43.2004 16.076 42.9704 16.6313 42.5611 17.0406C42.1517 17.45 41.5965 17.6799 41.0176 17.6799ZM41.0176 13.6611C40.6545 13.6611 40.2995 13.7688 39.9976 13.9706C39.6956 14.1723 39.4603 14.459 39.3213 14.7945C39.1824 15.13 39.146 15.4992 39.2169 15.8553C39.2877 16.2115 39.4626 16.5386 39.7193 16.7954C39.9761 17.0521 40.3033 17.227 40.6594 17.2979C41.0156 17.3687 41.3847 17.3323 41.7202 17.1934C42.0557 17.0544 42.3424 16.8191 42.5442 16.5172C42.7459 16.2152 42.8536 15.8603 42.8536 15.4971C42.8572 15.2537 42.8124 15.0121 42.7217 14.7862C42.6311 14.5603 42.4964 14.3546 42.3256 14.1813C42.1547 14.0079 41.9511 13.8702 41.7265 13.7762C41.502 13.6823 41.261 13.6339 41.0176 13.6339V13.6611Z" fill="white"/>
<path d="M36.4276 92.1808H150.96C151.665 92.179 152.34 91.8983 152.838 91.4C153.336 90.9018 153.617 90.2266 153.619 89.5219V21.08H33.7688V89.5219C33.7706 90.2266 34.0513 90.9018 34.5495 91.4C35.0478 91.8983 35.723 92.179 36.4276 92.1808Z" fill="#EBEBEB"/>
<path d="M62.4988 30.4707C62.5024 29.7673 62.7839 29.0938 63.2819 28.597C63.7799 28.1003 64.4541 27.8205 65.1576 27.8187H179.67C180.373 27.8205 181.047 28.1003 181.545 28.597C182.043 29.0938 182.325 29.7673 182.328 30.4707V39.0251H62.4988V30.4707Z" fill="#FAFAFA"/>
<path d="M83.9868 35.6047C83.5551 35.6047 83.133 35.4767 82.7741 35.2369C82.4151 34.997 82.1353 34.6561 81.9701 34.2573C81.8049 33.8584 81.7617 33.4195 81.8459 32.9961C81.9301 32.5727 82.138 32.1837 82.4433 31.8785C82.7486 31.5732 83.1375 31.3653 83.5609 31.2811C83.9844 31.1969 84.4232 31.2401 84.8221 31.4053C85.221 31.5705 85.5619 31.8503 85.8017 32.2092C86.0416 32.5682 86.1696 32.9902 86.1696 33.4219C86.1696 34.0009 85.9396 34.5561 85.5303 34.9654C85.1209 35.3748 84.5657 35.6047 83.9868 35.6047ZM83.9868 31.5859C83.6237 31.5859 83.2687 31.6936 82.9668 31.8954C82.6648 32.0971 82.4295 32.3838 82.2905 32.7193C82.1516 33.0548 82.1152 33.424 82.1861 33.7801C82.2569 34.1363 82.4318 34.4634 82.6885 34.7202C82.9453 34.977 83.2724 35.1518 83.6286 35.2227C83.9847 35.2935 84.3539 35.2571 84.6894 35.1182C85.0249 34.9792 85.3116 34.7439 85.5134 34.442C85.7151 34.14 85.8228 33.7851 85.8228 33.4219C85.8228 32.935 85.6293 32.468 85.285 32.1237C84.9407 31.7794 84.4737 31.5859 83.9868 31.5859Z" fill="#E6E6E6"/>
<path d="M76.84 35.6047C76.4083 35.6047 75.9862 35.4767 75.6273 35.2369C75.2683 34.997 74.9886 34.6561 74.8233 34.2573C74.6581 33.8584 74.6149 33.4195 74.6991 32.9961C74.7833 32.5727 74.9912 32.1837 75.2965 31.8785C75.6018 31.5732 75.9907 31.3653 76.4141 31.2811C76.8376 31.1969 77.2765 31.2401 77.6753 31.4053C78.0742 31.5705 78.4151 31.8503 78.6549 32.2092C78.8948 32.5682 79.0228 32.9902 79.0228 33.4219C79.0228 34.0009 78.7928 34.5561 78.3835 34.9654C77.9741 35.3748 77.4189 35.6047 76.84 35.6047ZM76.84 31.5859C76.4769 31.5859 76.1219 31.6936 75.82 31.8954C75.518 32.0971 75.2827 32.3838 75.1437 32.7193C75.0048 33.0548 74.9684 33.424 75.0393 33.7801C75.1101 34.1363 75.285 34.4634 75.5417 34.7202C75.7985 34.977 76.1256 35.1518 76.4818 35.2227C76.8379 35.2935 77.2071 35.2571 77.5426 35.1182C77.8781 34.9792 78.1648 34.7439 78.3666 34.442C78.5683 34.14 78.676 33.7851 78.676 33.4219C78.676 32.935 78.4825 32.468 78.1382 32.1237C77.7939 31.7794 77.3269 31.5859 76.84 31.5859Z" fill="#E6E6E6"/>
<path d="M69.7476 35.6047C69.3159 35.6047 68.8938 35.4767 68.5349 35.2369C68.1759 34.997 67.8961 34.6561 67.7309 34.2573C67.5657 33.8584 67.5225 33.4195 67.6067 32.9961C67.6909 32.5727 67.8988 32.1837 68.2041 31.8785C68.5094 31.5732 68.8983 31.3653 69.3217 31.2811C69.7452 31.1969 70.184 31.2401 70.5829 31.4053C70.9818 31.5705 71.3227 31.8503 71.5625 32.2092C71.8024 32.5682 71.9304 32.9902 71.9304 33.4219C71.9304 34.0009 71.7004 34.5561 71.291 34.9654C70.8817 35.3748 70.3265 35.6047 69.7476 35.6047ZM69.7476 31.5859C69.3844 31.5859 69.0295 31.6936 68.7275 31.8954C68.4256 32.0971 68.1903 32.3838 68.0513 32.7193C67.9124 33.0548 67.876 33.424 67.9469 33.7801C68.0177 34.1363 68.1926 34.4634 68.4493 34.7202C68.7061 34.977 69.0332 35.1518 69.3894 35.2227C69.7455 35.2935 70.1147 35.2571 70.4502 35.1182C70.7857 34.9792 71.0724 34.7439 71.2742 34.442C71.4759 34.14 71.5836 33.7851 71.5836 33.4219C71.5836 32.935 71.3901 32.468 71.0458 32.1237C70.7015 31.7794 70.2345 31.5859 69.7476 31.5859Z" fill="#E6E6E6"/>
<path d="M65.1576 123.631H179.67C180.374 123.629 181.049 123.348 181.548 122.85C182.046 122.352 182.327 121.677 182.328 120.972V39.0251H62.4988V120.972C62.5006 121.677 62.7813 122.352 63.2795 122.85C63.7777 123.348 64.453 123.629 65.1576 123.631Z" fill="#F5F5F5"/>
<path d="M237.388 45.0771H196.996C196.508 45.0771 196.112 45.4729 196.112 45.9611V52.5911C196.112 53.0794 196.508 53.4751 196.996 53.4751H237.388C237.876 53.4751 238.272 53.0794 238.272 52.5911V45.9611C238.272 45.4729 237.876 45.0771 237.388 45.0771Z" fill="#E6E6E6"/>
<path d="M267.403 30.838L196.996 31.28C196.762 31.28 196.537 31.3732 196.371 31.539C196.205 31.7047 196.112 31.9296 196.112 32.164V38.8008C196.116 39.0347 196.211 39.2578 196.378 39.422C196.544 39.5861 196.769 39.6781 197.003 39.678L267.41 39.236C267.643 39.2342 267.866 39.1403 268.031 38.9747C268.195 38.8091 268.287 38.5853 268.287 38.352V31.7152C268.287 31.5995 268.264 31.4848 268.22 31.378C268.175 31.2711 268.11 31.1741 268.028 31.0926C267.946 31.011 267.848 30.9465 267.741 30.9029C267.634 30.8592 267.519 30.8371 267.403 30.838Z" fill="#F0F0F0"/>
<path d="M251.967 17.0341H196.996C196.508 17.0341 196.112 17.4298 196.112 17.9181V24.5481C196.112 25.0363 196.508 25.4321 196.996 25.4321H251.967C252.455 25.4321 252.851 25.0363 252.851 24.5481V17.9181C252.851 17.4298 252.455 17.0341 251.967 17.0341Z" fill="#F0F0F0"/>
<path d="M55.7736 153.075H41.7724C41.5358 153.075 41.344 153.267 41.344 153.503V158.222C41.344 158.459 41.5358 158.651 41.7724 158.651H55.7736C56.0102 158.651 56.202 158.459 56.202 158.222V153.503C56.202 153.267 56.0102 153.075 55.7736 153.075Z" fill="#E6E6E6"/>
<path d="M66.47 143.868L41.6568 144.16C41.48 144.16 41.344 144.425 41.344 144.745V149.151C41.344 149.471 41.4868 149.736 41.6568 149.736L66.4768 149.437C66.6468 149.437 66.7896 149.172 66.7896 148.852V144.446C66.7828 144.16 66.64 143.868 66.47 143.868Z" fill="#F0F0F0"/>
<path d="M60.9144 134.96H41.7724C41.5358 134.96 41.344 135.151 41.344 135.388V140.107C41.344 140.344 41.5358 140.536 41.7724 140.536H60.9144C61.151 140.536 61.3428 140.344 61.3428 140.107V135.388C61.3428 135.151 61.151 134.96 60.9144 134.96Z" fill="#F0F0F0"/>
<path d="M66.47 171.047L41.6568 171.36C41.48 171.36 41.344 171.625 41.344 171.945V176.351C41.344 176.671 41.4868 176.936 41.6568 176.936L66.4768 176.637C66.6468 176.637 66.7896 176.372 66.7896 176.052V171.646C66.7828 171.312 66.64 171.047 66.47 171.047Z" fill="#F0F0F0"/>
<path d="M60.9144 162.139H41.7724C41.5358 162.139 41.344 162.331 41.344 162.568V167.287C41.344 167.523 41.5358 167.715 41.7724 167.715H60.9144C61.151 167.715 61.3428 167.523 61.3428 167.287V162.568C61.3428 162.331 61.151 162.139 60.9144 162.139Z" fill="#F0F0F0"/>
<path d="M170 253.341C242.816 253.341 301.845 249.895 301.845 245.643C301.845 241.392 242.816 237.946 170 237.946C97.1839 237.946 38.1548 241.392 38.1548 245.643C38.1548 249.895 97.1839 253.341 170 253.341Z" fill="#F5F5F5"/>
<path d="M298.792 19.1149H170.367V146.9H298.792V19.1149Z" fill="#FF7250"/>
<path opacity="0.1" d="M212.289 25.4728H170.367V49.5244H212.289V25.4728Z" fill="black"/>
<path opacity="0.2" d="M212.289 73.576H170.367V97.6277H212.289V73.576Z" fill="black"/>
<path opacity="0.1" d="M212.289 97.6276H170.367V121.679H212.289V97.6276Z" fill="black"/>
<path d="M212.289 25.4728H296.664V142.12C296.664 142.946 296.335 143.738 295.751 144.322C295.167 144.906 294.375 145.234 293.549 145.234H215.404C214.578 145.234 213.785 144.906 213.201 144.322C212.617 143.738 212.289 142.946 212.289 142.12V25.4728Z" fill="white"/>
<path opacity="0.3" d="M298.792 19.1149H170.367V25.4729H298.792V19.1149Z" fill="black"/>
<path opacity="0.8" d="M175.372 23.5893C176.086 23.5893 176.664 23.0108 176.664 22.2973C176.664 21.5837 176.086 21.0052 175.372 21.0052C174.658 21.0052 174.08 21.5837 174.08 22.2973C174.08 23.0108 174.658 23.5893 175.372 23.5893Z" fill="#FF7250"/>
<path opacity="0.8" d="M181.268 23.5893C181.981 23.5893 182.56 23.0108 182.56 22.2973C182.56 21.5837 181.981 21.0052 181.268 21.0052C180.554 21.0052 179.976 21.5837 179.976 22.2973C179.976 23.0108 180.554 23.5893 181.268 23.5893Z" fill="#FF7250"/>
<path opacity="0.8" d="M187.156 23.5893C187.87 23.5893 188.448 23.0108 188.448 22.2973C188.448 21.5837 187.87 21.0052 187.156 21.0052C186.443 21.0052 185.864 21.5837 185.864 22.2973C185.864 23.0108 186.443 23.5893 187.156 23.5893Z" fill="#FF7250"/>
<path opacity="0.2" d="M269.912 37.4613H220.742C219.671 37.4613 218.804 38.329 218.804 39.3993V78.0505C218.804 79.1208 219.671 79.9885 220.742 79.9885H269.912C270.983 79.9885 271.85 79.1208 271.85 78.0505V39.3993C271.85 38.329 270.983 37.4613 269.912 37.4613Z" fill="#FF7250"/>
<path opacity="0.2" d="M290.108 34.0817H252.341C251.519 34.0817 250.852 34.7484 250.852 35.5709V65.2597C250.852 66.0821 251.519 66.7489 252.341 66.7489H290.108C290.931 66.7489 291.598 66.0821 291.598 65.2597V35.5709C291.598 34.7484 290.931 34.0817 290.108 34.0817Z" fill="#FF7250"/>
<path opacity="0.2" d="M268.981 93.7108H231.214C230.391 93.7108 229.724 94.3776 229.724 95.2V124.889C229.724 125.711 230.391 126.378 231.214 126.378H268.981C269.803 126.378 270.47 125.711 270.47 124.889V95.2C270.47 94.3776 269.803 93.7108 268.981 93.7108Z" fill="#FF7250"/>
<path opacity="0.7" d="M298.792 19.1149H170.367V146.9H298.792V19.1149Z" fill="white"/>
<path d="M287.001 30.906H158.576V158.692H287.001V30.906Z" fill="#FF7250"/>
<path opacity="0.1" d="M200.498 37.264H158.576V61.3156H200.498V37.264Z" fill="black"/>
<path opacity="0.2" d="M200.498 85.3605H158.576V109.412H200.498V85.3605Z" fill="black"/>
<path opacity="0.1" d="M200.498 109.412H158.576V133.464H200.498V109.412Z" fill="black"/>
<path d="M200.498 37.264H284.872V153.904C284.872 154.73 284.544 155.523 283.96 156.107C283.376 156.691 282.584 157.019 281.758 157.019H203.619C202.793 157.019 202.001 156.691 201.417 156.107C200.833 155.523 200.505 154.73 200.505 153.904V37.264H200.498Z" fill="white"/>
<path opacity="0.3" d="M287.001 30.906H158.576V37.264H287.001V30.906Z" fill="black"/>
<path opacity="0.8" d="M163.581 35.3735C164.294 35.3735 164.873 34.7951 164.873 34.0816C164.873 33.368 164.294 32.7896 163.581 32.7896C162.867 32.7896 162.289 33.368 162.289 34.0816C162.289 34.7951 162.867 35.3735 163.581 35.3735Z" fill="#FF7250"/>
<path opacity="0.8" d="M169.476 35.3735C170.19 35.3735 170.768 34.7951 170.768 34.0816C170.768 33.368 170.19 32.7896 169.476 32.7896C168.763 32.7896 168.184 33.368 168.184 34.0816C168.184 34.7951 168.763 35.3735 169.476 35.3735Z" fill="#FF7250"/>
<path opacity="0.8" d="M175.372 35.3735C176.086 35.3735 176.664 34.7951 176.664 34.0816C176.664 33.368 176.086 32.7896 175.372 32.7896C174.658 32.7896 174.08 33.368 174.08 34.0816C174.08 34.7951 174.658 35.3735 175.372 35.3735Z" fill="#FF7250"/>
<path opacity="0.2" d="M258.128 49.2524H208.957C207.887 49.2524 207.019 50.1201 207.019 51.1904V89.8416C207.019 90.912 207.887 91.7796 208.957 91.7796H258.128C259.198 91.7796 260.066 90.912 260.066 89.8416V51.1904C260.066 50.1201 259.198 49.2524 258.128 49.2524Z" fill="#FF7250"/>
<path opacity="0.2" d="M278.943 82.8512H241.176C240.353 82.8512 239.686 83.5179 239.686 84.3404V114.029C239.686 114.852 240.353 115.518 241.176 115.518H278.943C279.765 115.518 280.432 114.852 280.432 114.029V84.3404C280.432 83.5179 279.765 82.8512 278.943 82.8512Z" fill="#FF7250"/>
<path opacity="0.2" d="M257.196 105.502H219.429C218.607 105.502 217.94 106.169 217.94 106.991V136.68C217.94 137.503 218.607 138.169 219.429 138.169H257.196C258.019 138.169 258.686 137.503 258.686 136.68V106.991C258.686 106.169 258.019 105.502 257.196 105.502Z" fill="#FF7250"/>
<path opacity="0.5" d="M287.001 30.906H158.576V158.692H287.001V30.906Z" fill="white"/>
<path d="M275.216 42.6904H146.792V170.476H275.216V42.6904Z" fill="#FF7250"/>
<path opacity="0.1" d="M188.714 49.0485H146.792V73.1001H188.714V49.0485Z" fill="black"/>
<path opacity="0.2" d="M188.714 97.1516H146.792V121.203H188.714V97.1516Z" fill="black"/>
<path opacity="0.1" d="M188.714 121.203H146.792V145.255H188.714V121.203Z" fill="black"/>
<path d="M188.714 49.0485H273.088V165.696C273.088 166.522 272.76 167.314 272.176 167.898C271.592 168.482 270.8 168.81 269.974 168.81H191.828C191.002 168.81 190.21 168.482 189.626 167.898C189.042 167.314 188.714 166.522 188.714 165.696V49.0485Z" fill="white"/>
<path opacity="0.3" d="M275.216 42.6904H146.792V49.0484H275.216V42.6904Z" fill="black"/>
<path opacity="0.8" d="M151.796 47.1647C152.51 47.1647 153.088 46.5862 153.088 45.8727C153.088 45.1591 152.51 44.5807 151.796 44.5807C151.083 44.5807 150.504 45.1591 150.504 45.8727C150.504 46.5862 151.083 47.1647 151.796 47.1647Z" fill="#FF7250"/>
<path opacity="0.8" d="M158.984 45.8727C158.985 46.1299 158.91 46.3816 158.768 46.5961C158.627 46.8106 158.424 46.9781 158.187 47.0775C157.95 47.1768 157.688 47.2035 157.436 47.1542C157.184 47.1048 156.952 46.9817 156.769 46.8003C156.587 46.6189 156.463 46.3875 156.412 46.1354C156.361 45.8833 156.387 45.6218 156.485 45.3841C156.583 45.1463 156.749 44.9431 156.963 44.8001C157.177 44.6571 157.428 44.5807 157.685 44.5807C157.855 44.5798 158.024 44.6126 158.182 44.6771C158.339 44.7416 158.483 44.8366 158.603 44.9567C158.724 45.0768 158.82 45.2195 158.885 45.3767C158.95 45.5339 158.984 45.7025 158.984 45.8727Z" fill="#FF7250"/>
<path opacity="0.8" d="M163.581 47.1647C164.294 47.1647 164.873 46.5862 164.873 45.8727C164.873 45.1591 164.294 44.5807 163.581 44.5807C162.867 44.5807 162.289 45.1591 162.289 45.8727C162.289 46.5862 162.867 47.1647 163.581 47.1647Z" fill="#FF7250"/>
<path opacity="0.2" d="M216.478 39.5555H142.596C140.989 39.5555 139.686 40.8586 139.686 42.4659V100.545C139.686 102.152 140.989 103.455 142.596 103.455H216.478C218.085 103.455 219.388 102.152 219.388 100.545V42.4659C219.388 40.8586 218.085 39.5555 216.478 39.5555Z" fill="#FF7250"/>
<path opacity="0.2" d="M256.442 70.7744H199.696C198.46 70.7744 197.458 71.776 197.458 73.0116V117.62C197.458 118.855 198.46 119.857 199.696 119.857H256.442C257.677 119.857 258.679 118.855 258.679 117.62V73.0116C258.679 71.776 257.677 70.7744 256.442 70.7744Z" fill="#FF7250"/>
<path opacity="0.2" d="M276.923 131.396H220.177C218.942 131.396 217.94 132.398 217.94 133.634V178.242C217.94 179.477 218.942 180.479 220.177 180.479H276.923C278.159 180.479 279.16 179.477 279.16 178.242V133.634C279.16 132.398 278.159 131.396 276.923 131.396Z" fill="#FF7250"/>
<path d="M109.038 76.9487L104.101 87.3051C102.469 90.7595 100.871 94.2343 99.4501 97.6751L98.9401 98.9603C98.8653 99.1575 98.8449 99.1983 98.7905 99.3683C98.7361 99.5383 98.6953 99.6743 98.6545 99.8647C98.4752 100.677 98.3413 101.499 98.2533 102.326C98.0629 104.101 97.9541 105.978 97.8861 107.862C97.7501 111.636 97.7161 115.505 97.6685 119.333L93.9421 119.748C93.0899 115.883 92.4722 111.971 92.0925 108.032C91.8882 105.998 91.7929 103.955 91.8069 101.912C91.8107 100.806 91.8879 99.702 92.0381 98.6067C92.0721 98.3211 92.1401 97.9947 92.2081 97.6819C92.2761 97.3691 92.3917 96.9543 92.4665 96.6959L92.9357 95.2475C94.2073 91.4191 95.6897 87.7675 97.2469 84.1703C98.8041 80.5731 100.47 77.0439 102.265 73.5283L109.038 76.9487Z" fill="#FFC3BD"/>
<path d="M97.614 118.164L99.3548 121.421L93.7992 122.971C93.7992 122.971 92.7384 120.353 93.9964 118.293L97.614 118.164Z" fill="#FFC3BD"/>
<path d="M101.49 126.12L96.3764 126.521L93.7993 122.971L99.3548 121.421L101.49 126.12Z" fill="#FFC3BD"/>
<path d="M125.678 50.0616C125.759 50.456 126.031 50.7416 126.29 50.6804C126.548 50.6192 126.691 50.2656 126.616 49.8712C126.541 49.4768 126.262 49.1912 126.004 49.2524C125.746 49.3136 125.596 49.64 125.678 50.0616Z" fill="#263238"/>
<path d="M125.997 50.7417C126.713 51.852 127.578 52.8588 128.568 53.7337C128.339 53.9819 128.058 54.1768 127.745 54.3049C127.433 54.4329 127.096 54.491 126.759 54.4749L125.997 50.7417Z" fill="#ED847E"/>
<path d="M123.76 48.1644C123.826 48.1631 123.89 48.1363 123.937 48.0896C124.131 47.8649 124.376 47.6897 124.652 47.5785C124.927 47.4674 125.225 47.4235 125.521 47.4504C125.583 47.4613 125.647 47.4469 125.699 47.4106C125.751 47.3742 125.786 47.3189 125.797 47.2566C125.807 47.1944 125.793 47.1304 125.757 47.0788C125.72 47.0272 125.665 46.9921 125.603 46.9812C125.225 46.9369 124.842 46.9849 124.487 47.1211C124.131 47.2573 123.814 47.4776 123.563 47.7632C123.531 47.7969 123.51 47.839 123.502 47.8844C123.494 47.9299 123.499 47.9768 123.517 48.0193C123.535 48.0618 123.565 48.0982 123.603 48.124C123.642 48.1498 123.687 48.1638 123.733 48.1644H123.76Z" fill="#263238"/>
<path d="M114.43 55.6173C115.144 59.2689 115.865 65.9669 113.308 68.4013C113.308 68.4013 114.308 72.1141 121.094 72.1141C128.574 72.1141 124.664 68.4081 124.664 68.4081C120.584 67.4289 120.693 64.4097 121.4 61.5673L114.43 55.6173Z" fill="#FFC3BD"/>
<path d="M111.608 69.7C111.017 68.6392 110.357 67.4288 111.717 67.0548C113.206 66.6332 121.387 66.2116 124.209 66.9936C127.031 67.7756 126.249 69.9176 126.249 69.9176L111.608 69.7Z" fill="#263238"/>
<path d="M90.5149 235.539C90.9351 235.637 91.3774 235.567 91.7457 235.341C91.8113 235.264 91.8516 235.169 91.8614 235.068C91.8711 234.967 91.8497 234.865 91.8001 234.777C91.769 234.704 91.7226 234.638 91.664 234.584C91.6053 234.53 91.5358 234.489 91.4601 234.464C90.7801 234.213 89.2841 235.008 89.2161 235.042C89.1965 235.053 89.1804 235.068 89.1695 235.088C89.1587 235.107 89.1536 235.129 89.1549 235.151C89.1566 235.174 89.1653 235.196 89.1799 235.215C89.1944 235.233 89.2142 235.246 89.2365 235.253C89.6522 235.39 90.0804 235.486 90.5149 235.539ZM91.2425 234.655L91.3853 234.689C91.4297 234.703 91.4705 234.726 91.5046 234.758C91.5388 234.79 91.5653 234.829 91.5825 234.872C91.6709 235.076 91.5825 235.151 91.5825 235.178C91.3377 235.43 90.3245 235.328 89.5969 235.117C90.1043 234.843 90.6664 234.685 91.2425 234.655Z" fill="#FF7250"/>
<path d="M89.2636 235.28C89.2811 235.287 89.3006 235.287 89.3181 235.28C89.862 235.056 90.9772 234.076 90.9296 233.512C90.9222 233.424 90.8842 233.341 90.8221 233.277C90.76 233.214 90.6778 233.174 90.5896 233.165C90.5018 233.142 90.41 233.139 90.3206 233.155C90.2313 233.172 90.1467 233.208 90.0729 233.26C89.4473 233.668 89.1684 235.09 89.1616 235.151C89.1582 235.171 89.1602 235.192 89.1674 235.211C89.1745 235.23 89.1866 235.247 89.2024 235.26C89.2105 235.267 89.2201 235.273 89.2307 235.277C89.2413 235.28 89.2526 235.281 89.2636 235.28ZM90.3992 233.532H90.4468C90.5964 233.58 90.5964 233.648 90.5964 233.682C90.5964 234.015 89.8212 234.716 89.2364 235.001C89.373 234.449 89.6741 233.951 90.1 233.573C90.1433 233.544 90.1921 233.523 90.2435 233.513C90.2949 233.502 90.3478 233.502 90.3992 233.512V233.532Z" fill="#FF7250"/>
<path d="M126.596 240.298C127.235 240.298 127.854 240.21 128.058 239.918C128.113 239.843 128.143 239.752 128.143 239.659C128.143 239.566 128.113 239.476 128.058 239.401C127.975 239.262 127.84 239.162 127.684 239.122C126.854 238.898 125.106 239.897 125.032 239.938C125.009 239.946 124.99 239.961 124.976 239.98C124.962 240 124.955 240.023 124.955 240.047C124.955 240.071 124.962 240.094 124.976 240.113C124.99 240.133 125.009 240.148 125.032 240.156C125.548 240.249 126.071 240.296 126.596 240.298ZM127.384 239.326C127.461 239.315 127.539 239.315 127.616 239.326C127.663 239.335 127.709 239.355 127.749 239.383C127.788 239.411 127.822 239.447 127.847 239.489C127.928 239.639 127.901 239.714 127.847 239.754C127.616 240.074 126.351 240.081 125.426 239.952C126.034 239.63 126.7 239.429 127.384 239.36V239.326Z" fill="#FF7250"/>
<path d="M125.12 240.156C125.718 239.884 126.915 238.796 126.827 238.238C126.827 238.109 126.711 237.939 126.385 237.905C126.264 237.891 126.141 237.902 126.024 237.937C125.907 237.972 125.799 238.031 125.705 238.109C125.072 238.632 124.936 239.979 124.93 240.033C124.929 240.054 124.933 240.074 124.941 240.093C124.949 240.112 124.962 240.129 124.977 240.142C124.998 240.156 125.022 240.164 125.047 240.166C125.072 240.169 125.097 240.165 125.12 240.156ZM126.337 238.116H126.405C126.623 238.116 126.636 238.224 126.636 238.252C126.691 238.585 125.882 239.435 125.276 239.809C125.34 239.237 125.578 238.698 125.956 238.265C126.057 238.189 126.177 238.141 126.303 238.129L126.337 238.116Z" fill="#FF7250"/>
<path d="M119.592 240.04H124.59L125.086 228.473H120.088L119.592 240.04Z" fill="#FFC3BD"/>
<path d="M83.5856 234.525L88.5496 235.062L92.2964 223.836L87.3324 223.298L83.5856 234.525Z" fill="#FFC3BD"/>
<path d="M88.9645 234.525L83.3885 233.92C83.2897 233.91 83.1905 233.933 83.1066 233.986C83.0227 234.039 82.9591 234.119 82.9261 234.212L81.4709 238.524C81.4354 238.628 81.4241 238.739 81.4379 238.849C81.4517 238.958 81.4902 239.063 81.5505 239.155C81.6107 239.248 81.6912 239.325 81.7858 239.382C81.8804 239.438 81.9866 239.473 82.0965 239.482C84.0481 239.666 85.0069 239.652 87.4617 239.918C88.9713 240.081 92.0653 240.598 94.1529 240.802C96.2405 241.006 96.7301 239 95.9005 238.721C92.1605 237.47 90.8481 236.157 89.7397 234.92C89.5375 234.699 89.2621 234.559 88.9645 234.525Z" fill="#263238"/>
<path d="M124.556 239.462H119.116C119.017 239.461 118.921 239.495 118.844 239.557C118.768 239.619 118.714 239.705 118.694 239.802L117.708 244.242C117.683 244.349 117.683 244.461 117.708 244.568C117.732 244.675 117.781 244.775 117.849 244.861C117.918 244.946 118.005 245.015 118.104 245.063C118.204 245.11 118.312 245.134 118.422 245.133C120.394 245.099 123.236 244.984 125.712 244.984C128.602 244.984 131.097 245.14 134.49 245.14C136.53 245.14 137.108 243.066 136.252 242.876C132.342 242.026 129.152 241.93 125.78 239.85C125.416 239.609 124.992 239.475 124.556 239.462Z" fill="#263238"/>
<path d="M132.002 70.958C133.416 71.4 135 71.8828 136.517 72.318C138.033 72.7532 139.59 73.1272 141.134 73.4604C144.139 74.168 147.199 74.6161 150.28 74.8C151.014 74.8 151.742 74.8476 152.442 74.8H152.871C152.959 74.8 153.109 74.8 153.231 74.766C153.503 74.7252 153.816 74.6572 154.142 74.5756C155.59 74.1775 157.01 73.6846 158.392 73.1C161.316 71.9032 164.315 70.5024 167.28 69.1492L169.354 72.2704C166.777 74.5477 164.005 76.5955 161.072 78.3904C159.522 79.3569 157.891 80.1852 156.196 80.8656C155.712 81.0582 155.217 81.2217 154.714 81.3552C154.428 81.4232 154.17 81.4912 153.85 81.5456L153.394 81.6204L153.041 81.6612C152.089 81.7836 151.157 81.8312 150.232 81.8584C146.668 81.8888 143.111 81.5469 139.618 80.8384C137.911 80.4984 136.218 80.1584 134.552 79.6688C132.886 79.1792 131.267 78.7508 129.533 78.1252L132.002 70.958Z" fill="#FFC3BD"/>
<path d="M104.36 69.5368C99.6813 70.6044 94.9485 84.2996 94.9485 84.2996L104.584 91.2085C104.584 91.2085 107.304 84.8368 109.922 79.2608C112.696 73.44 109.147 68.4352 104.36 69.5368Z" fill="#FF7250"/>
<path opacity="0.3" d="M104.36 69.5368C99.6813 70.6044 94.9485 84.2996 94.9485 84.2996L104.584 91.2085C104.584 91.2085 107.304 84.8368 109.922 79.2608C112.696 73.44 109.147 68.4352 104.36 69.5368Z" fill="black"/>
<path d="M132.348 69.7885C132.348 69.7885 137.666 75.7997 132.641 112.968H105.924C105.74 108.888 108.317 88.8625 104.36 69.5369C107.315 68.9644 110.304 68.585 113.308 68.4013C117.091 68.18 120.882 68.18 124.664 68.4013C127.258 68.6645 129.827 69.1283 132.348 69.7885Z" fill="#FF7250"/>
<path opacity="0.3" d="M132.348 69.7885C132.348 69.7885 137.666 75.7997 132.641 112.968H105.924C105.74 108.888 108.317 88.8625 104.36 69.5369C107.315 68.9644 110.304 68.585 113.308 68.4013C117.091 68.18 120.882 68.18 124.664 68.4013C127.258 68.6645 129.827 69.1283 132.348 69.7885Z" fill="black"/>
<path opacity="0.3" d="M132.348 69.7885C132.348 69.7885 131.75 69.6253 130.778 69.4009C127.84 69.7069 126.412 73.0865 127.201 76.5953C127.786 79.2065 131.58 82.7765 134.803 85.4353C134.728 72.4813 132.348 69.7885 132.348 69.7885Z" fill="black"/>
<path d="M125.8 77.4589C128.187 81.5933 141.236 85.6189 141.236 85.6189L145.615 73.8821C145.615 73.8821 138.135 71.8421 132.335 69.8021C125.161 67.2249 123.196 72.9165 125.8 77.4589Z" fill="#FF7250"/>
<path opacity="0.3" d="M125.8 77.4589C128.187 81.5933 141.236 85.6189 141.236 85.6189L145.615 73.8821C145.615 73.8821 138.135 71.8421 132.335 69.8021C125.161 67.2249 123.196 72.9165 125.8 77.4589Z" fill="black"/>
<path d="M166.43 70.2848L167.26 65.0828L171.87 66.402C171.87 66.402 172.55 71.0328 169.191 72.3996L166.43 70.2848Z" fill="#FFC3BD"/>
<path d="M169.245 60.4928L173.135 63.7636L171.87 66.402L167.26 65.0828L169.245 60.4928Z" fill="#FFC3BD"/>
<path opacity="0.2" d="M125.079 228.473L124.828 234.437H119.83L120.081 228.473H125.079Z" fill="black"/>
<path opacity="0.2" d="M87.3324 223.298L92.2964 223.842L90.3652 229.629L85.3944 229.085L87.3324 223.298Z" fill="black"/>
<path d="M112.336 51.8976C113.621 56.6916 114.131 59.5612 117.096 61.5468C121.543 64.5456 127.078 61.1048 127.248 56.032C127.405 51.4624 125.283 44.3972 120.142 43.4316C119.011 43.2212 117.845 43.3012 116.753 43.6642C115.661 44.0272 114.68 44.6614 113.9 45.5073C113.12 46.3531 112.567 47.3831 112.294 48.5008C112.02 49.6184 112.035 50.7871 112.336 51.8976Z" fill="#FFC3BD"/>
<path d="M123.604 37.4952C123.573 37.8178 123.47 38.1294 123.303 38.4072C123.136 38.6849 122.909 38.9216 122.638 39.1C122.414 36.584 121.414 34.1632 119.177 32.98C119.544 34.0476 118.497 35.7408 116.96 37.468C116.789 36.8355 116.49 36.2452 116.08 35.7339C115.671 35.2225 115.16 34.8013 114.58 34.4964C113.56 38.4472 110.296 39.1 107.705 41.5344C107.144 42.0857 106.762 42.7928 106.608 43.564C106.454 44.3351 106.536 45.1348 106.842 45.8592C106.162 45.5532 105.352 45.628 104.768 47.1512C105.329 46.7962 105.974 46.5968 106.638 46.5732C106.175 47.0084 105.815 47.7632 106.08 49.4632C106.542 52.3396 112.452 60.8872 116.185 60.4588C120.265 59.9896 121.013 55.2636 121.108 51L121.264 50.9184C124.093 49.4156 127.588 41.378 123.604 37.4952Z" fill="#263238"/>
<path d="M119.17 51.9792C119.681 53.1001 120.546 54.0223 121.632 54.604C123.073 55.352 123.876 54.2572 123.556 52.8224C123.264 51.5236 122.196 49.5788 120.68 49.4224C119.163 49.266 118.572 50.6192 119.17 51.9792Z" fill="#FFC3BD"/>
<path d="M123.168 112.969C123.168 112.969 117.497 151.144 114.383 165.451C110.983 181.091 93.0513 229.065 93.0513 229.065L84.0549 227.413C84.0549 227.413 97.4509 182.376 99.3957 166.893C101.51 150.062 105.924 112.996 105.924 112.996L123.168 112.969Z" fill="#FF7250"/>
<path opacity="0.2" d="M119.585 126.568C113.03 127.854 113.723 152.3 114.512 164.873C116.402 155.985 119.17 138.883 121.06 126.745C120.603 126.52 120.083 126.458 119.585 126.568Z" fill="black"/>
<path d="M132.641 112.969C132.641 112.969 133.321 150.321 132.79 165.553C132.226 181.397 126.67 233.281 126.67 233.281H118.225C118.225 233.281 117.912 182.322 117.545 166.763C117.137 149.797 115.083 112.969 115.083 112.969H132.641Z" fill="#FF7250"/>
<path opacity="0.2" d="M125.263 227.154L124.896 227.113C126.385 212.758 129.907 178.024 130.336 165.573C130.791 152.816 130.376 124.311 130.24 115.879L130.608 115.838C130.744 124.27 131.158 152.789 130.703 165.566C130.274 178.038 126.752 212.792 125.263 227.154Z" fill="black"/>
<path d="M95.098 226.018C95.1388 226.018 93.534 229.303 93.534 229.303L83.4088 227.44L84.1636 224.386L95.098 226.018Z" fill="#FF7250"/>
<path opacity="0.5" d="M95.098 226.018C95.1388 226.018 93.534 229.303 93.534 229.303L83.4088 227.44L84.1636 224.386L95.098 226.018Z" fill="black"/>
<path d="M128.316 229.908C128.357 229.908 127.84 233.424 127.84 233.424H117.545L117.266 230.289L128.316 229.908Z" fill="#FF7250"/>
<path opacity="0.5" d="M128.316 229.908C128.357 229.908 127.84 233.424 127.84 233.424H117.545L117.266 230.289L128.316 229.908Z" fill="black"/>
</svg>
