<svg width="343" height="224" viewBox="0 0 343 224" fill="none" xmlns="http://www.w3.org/2000/svg">
<path d="M60.1942 6.16101H56.5065V85.464H60.1942V6.16101Z" fill="#E0E0E0"/>
<path d="M55.8979 6.7749H3.05847C3.02999 6.7749 3.0069 6.79799 3.0069 6.82648V85.5209C3.0069 85.5494 3.02999 85.5725 3.05847 85.5725H55.8979C55.9264 85.5725 55.9495 85.5494 55.9495 85.5209V6.82648C55.9495 6.79799 55.9264 6.7749 55.8979 6.7749Z" fill="#F5F5F5"/>
<path d="M56.5066 86.1863H2.44478C2.43755 86.1864 2.4304 86.1849 2.42378 86.182C2.41716 86.1791 2.41123 86.1748 2.40636 86.1694C2.4015 86.1641 2.39781 86.1578 2.39555 86.1509C2.39328 86.1441 2.39249 86.1368 2.39321 86.1296V6.18703C2.39238 6.18006 2.39314 6.17299 2.39544 6.16636C2.39774 6.15972 2.40151 6.15369 2.40648 6.14873C2.41144 6.14376 2.41747 6.13999 2.42411 6.13769C2.43074 6.13539 2.43781 6.13463 2.44478 6.13546H56.5066C56.5138 6.13473 56.521 6.13553 56.5279 6.1378C56.5348 6.14006 56.5411 6.14375 56.5464 6.14861C56.5518 6.15347 56.5561 6.15941 56.559 6.16603C56.5619 6.17265 56.5634 6.1798 56.5633 6.18703V86.1296C56.5633 86.1446 56.5574 86.1591 56.5467 86.1697C56.5361 86.1803 56.5216 86.1863 56.5066 86.1863ZM3.67229 84.9743H55.2842C55.2993 84.9743 55.3137 84.9683 55.3244 84.9577C55.335 84.947 55.341 84.9326 55.341 84.9176V7.44033C55.341 7.4331 55.3395 7.42594 55.3366 7.41932C55.3337 7.4127 55.3294 7.40677 55.3241 7.4019C55.3187 7.39704 55.3124 7.39336 55.3056 7.39109C55.2987 7.38883 55.2914 7.38803 55.2842 7.38875H3.67229C3.66532 7.38792 3.65825 7.38868 3.65161 7.39098C3.64498 7.39328 3.63895 7.39706 3.63398 7.40202C3.62902 7.40699 3.62524 7.41301 3.62295 7.41965C3.62065 7.42628 3.61988 7.43335 3.62071 7.44033V84.9021C3.6171 84.9103 3.61568 84.9193 3.6166 84.9282C3.61751 84.9371 3.62073 84.9456 3.62593 84.9529C3.63114 84.9602 3.63815 84.966 3.64628 84.9697C3.6544 84.9735 3.66337 84.9751 3.67229 84.9743Z" fill="#EBEBEB"/>
<path d="M50.6578 11.6333H8.38623C8.35775 11.6333 8.33466 11.6564 8.33466 11.6849V80.6057C8.33466 80.6342 8.35775 80.6573 8.38623 80.6573H50.6578C50.6863 80.6573 50.7094 80.6342 50.7094 80.6057V11.6849C50.7094 11.6564 50.6863 11.6333 50.6578 11.6333Z" fill="white"/>
<path d="M41.3432 31.2013H17.6132C17.5961 31.2013 17.5822 31.2152 17.5822 31.2322V59.0574C17.5822 59.0745 17.5961 59.0884 17.6132 59.0884H41.3432C41.3603 59.0884 41.3742 59.0745 41.3742 59.0574V31.2322C41.3742 31.2152 41.3603 31.2013 41.3432 31.2013Z" fill="#EBEBEB"/>
<path d="M39.4917 55.674C39.5226 55.7668 38.3467 56.2825 36.1134 56.0195C34.7363 55.8321 33.4288 55.2999 32.3123 54.4722C30.7935 53.3385 29.7438 51.6868 29.3622 49.8304C29.142 48.6677 29.2351 47.4672 29.6321 46.3524C30.0291 45.2376 30.7156 44.2484 31.6212 43.4866C32.1305 43.0497 32.7092 42.701 33.3335 42.4551C34.0167 42.2017 34.7513 42.1185 35.4739 42.2127C36.268 42.2902 37.0172 42.6169 37.6143 43.1462C37.9483 43.4603 38.1998 43.852 38.3464 44.2865C38.4931 44.721 38.5303 45.185 38.455 45.6373C38.2923 46.4547 37.8817 47.2021 37.279 47.7777C36.7505 48.3032 36.1475 48.7481 35.4894 49.098C34.1762 49.8267 32.7136 50.2449 31.2137 50.3204C29.6276 50.4069 28.0488 50.0497 26.6544 49.2889C25.2178 48.4871 24.0512 47.2774 23.302 45.8126C22.5306 44.3124 22.3168 42.5871 22.6986 40.9439C23.0788 39.3529 23.988 37.9381 25.2773 36.9313C25.9175 36.4346 26.6479 36.0668 27.4281 35.8482C28.2195 35.6369 29.0489 35.6105 29.8521 35.7708C30.6994 35.9341 31.4706 36.3686 32.0493 37.0087C32.6023 37.6679 32.9071 38.5 32.9106 39.3605C32.917 40.1436 32.7197 40.915 32.3381 41.5989C31.9857 42.218 31.5264 42.7698 30.9816 43.2287C29.9958 44.056 28.8463 44.6658 27.6086 45.0184C26.4595 45.3557 25.2525 45.4488 24.0653 45.2917C22.9568 45.141 21.8979 44.7368 20.9708 44.1106C20.1768 43.5862 19.5035 42.8987 18.9957 42.0939C18.488 41.2891 18.1573 40.3855 18.0258 39.443C17.8657 38.019 18.2549 36.5876 19.114 35.4407C19.627 34.7272 20.3265 34.1687 21.1358 33.8264C21.6928 33.615 22.0074 33.6201 22.0229 33.6769C22.0384 33.7336 21.7702 33.8728 21.3215 34.1926C20.688 34.6363 20.1597 35.2138 19.7742 35.8843C19.1549 36.9094 18.9277 38.1241 19.1347 39.3038C19.2915 40.0639 19.6056 40.7829 20.0569 41.4144C20.5081 42.0459 21.0864 42.5761 21.7547 42.9708C22.5636 43.4457 23.4665 43.738 24.4002 43.8271C25.3339 43.9162 26.2758 43.7999 27.1599 43.4866C28.1578 43.1628 29.078 42.636 29.8624 41.9393C30.2474 41.637 30.5604 41.2531 30.7789 40.8152C30.9974 40.3772 31.116 39.8962 31.1261 39.4069C31.1236 38.9597 30.9566 38.5291 30.657 38.1971C30.3573 37.8651 29.946 37.6551 29.5014 37.6069C28.9868 37.5143 28.4579 37.539 27.9541 37.6791C27.4209 37.8424 26.9226 38.1029 26.4842 38.4476C25.5574 39.1979 24.9075 40.2362 24.6378 41.3978C24.3635 42.5936 24.5244 43.848 25.0917 44.9359C25.6713 46.0569 26.5682 46.9825 27.6705 47.5972C28.7474 48.188 29.9659 48.4717 31.1931 48.4172C32.4034 48.3655 33.5864 48.0411 34.6538 47.4682C35.1591 47.2115 35.6246 46.8832 36.0361 46.4934C36.3778 46.1894 36.6219 45.791 36.7375 45.3485C36.772 45.1839 36.7641 45.0133 36.7145 44.8527C36.6649 44.6921 36.5752 44.5468 36.4538 44.4304C36.135 44.1437 35.7348 43.9634 35.3088 43.9147C34.8574 43.8477 34.3966 43.8865 33.9627 44.0281C33.5087 44.1891 33.0837 44.4225 32.7043 44.7192C31.988 45.2896 31.4343 46.0382 31.0984 46.89C30.7626 47.7418 30.6565 48.6668 30.7908 49.5725C31.0479 51.1355 31.85 52.557 33.055 53.5851C34.0021 54.3713 35.1174 54.929 36.3146 55.2149C38.2641 55.7358 39.4762 55.5037 39.4917 55.674Z" fill="#E0E0E0"/>
<path d="M336.342 12.6287H294.225V56.5352H336.342V12.6287Z" fill="#E0E0E0"/>
<path d="M333.489 12.6287H291.373V56.5352H333.489V12.6287Z" fill="#FAFAFA"/>
<path d="M333.505 56.5507H291.362V12.6184H333.505V56.5507ZM291.388 56.5198H333.479V12.6442H291.388V56.5198Z" fill="#E0E0E0"/>
<path d="M327.832 18.5341H297.036V50.6349H327.832V18.5341Z" fill="white"/>
<path d="M297.036 50.8464C296.82 51.1701 296.565 51.4663 296.277 51.7284C295.762 52.2441 295.091 52.9507 294.318 53.7141C293.544 54.4774 292.832 55.1582 292.306 55.6378C292.04 55.9212 291.741 56.1706 291.414 56.3805C291.632 56.0604 291.887 55.7662 292.172 55.5037C292.688 54.988 293.358 54.2762 294.132 53.5129C294.905 52.7496 295.622 52.0688 296.148 51.584C296.412 51.3015 296.71 51.0537 297.036 50.8464Z" fill="#E0E0E0"/>
<path d="M327.832 50.769C328.153 50.9882 328.449 51.2425 328.714 51.5272C329.229 52.0172 329.936 52.7083 330.699 53.4871C331.463 54.2659 332.143 54.9725 332.623 55.4986C332.904 55.7646 333.153 56.0623 333.366 56.3857C333.044 56.1696 332.748 55.9169 332.484 55.6326C331.968 55.1169 331.261 54.4464 330.498 53.6676C329.735 52.8888 329.049 52.1771 328.569 51.6561C328.288 51.3915 328.04 51.0936 327.832 50.769Z" fill="#E0E0E0"/>
<path d="M327.744 18.6166C327.966 18.2962 328.222 18.0005 328.507 17.7347C329.023 17.2189 329.688 16.5123 330.462 15.749C331.236 14.9857 331.953 14.3049 332.474 13.8252C332.741 13.5433 333.04 13.294 333.366 13.0825C333.149 13.4054 332.894 13.7014 332.608 13.9645C332.092 14.4802 331.427 15.1868 330.648 15.9501C329.869 16.7135 329.152 17.4097 328.636 17.8791C328.371 18.1619 328.072 18.4097 327.744 18.6166Z" fill="#E0E0E0"/>
<path d="M296.953 18.6941C296.626 18.4765 296.328 18.2182 296.066 17.9256C295.55 17.4098 294.844 16.7445 294.085 15.9709C293.327 15.1972 292.641 14.4803 292.157 13.9594C291.877 13.6905 291.627 13.3913 291.414 13.0671C291.738 13.2826 292.034 13.5373 292.296 13.8253C292.812 14.3411 293.518 15.0064 294.287 15.7852C295.055 16.564 295.731 17.2757 296.216 17.8018C296.492 18.0723 296.74 18.3714 296.953 18.6941Z" fill="#E0E0E0"/>
<path d="M327.744 50.635C327.744 50.635 327.744 50.5782 327.744 50.4751C327.744 50.3719 327.744 50.2223 327.744 50.0315C327.744 49.6292 327.744 49.0464 327.744 48.2986C327.744 46.7771 327.744 44.5645 327.713 41.7536C327.713 36.1318 327.677 28.1221 327.651 18.5445L327.77 18.6631H297.067L297.201 18.529C297.201 30.3089 297.201 41.3307 297.201 50.6298L297.082 50.5112L319.316 50.5731L325.562 50.5989H327.218H327.605H327.749H327.202H325.572L319.352 50.6298L297.041 50.6865H296.922V50.5731C296.922 41.2894 296.922 30.2522 296.922 18.4723V18.333H297.067H327.77H327.893V18.4516C327.893 28.0705 327.852 36.106 327.837 41.7484C327.837 44.5438 327.837 46.7461 327.806 48.2625C327.806 49.0052 327.806 49.5777 327.806 49.9748C327.806 50.1605 327.806 50.2997 327.806 50.408C327.797 50.4865 327.776 50.563 327.744 50.635Z" fill="#E0E0E0"/>
<path d="M317.568 29.4425H307.294V39.7164H317.568V29.4425Z" fill="#EBEBEB"/>
<path d="M336.342 71.8893H294.225V115.796H336.342V71.8893Z" fill="#E0E0E0"/>
<path d="M333.489 71.8893H291.373V115.796H333.489V71.8893Z" fill="#FAFAFA"/>
<path d="M333.505 115.806H291.362V71.8739H333.505V115.806ZM291.388 115.806H333.479V71.8997H291.388V115.806Z" fill="#E0E0E0"/>
<path d="M327.832 77.7898H297.036V109.891H327.832V77.7898Z" fill="white"/>
<path d="M297.036 110.102C296.819 110.427 296.565 110.725 296.277 110.989C295.762 111.505 295.091 112.206 294.318 112.97C293.544 113.733 292.832 114.414 292.306 114.898C292.041 115.181 291.741 115.429 291.414 115.636C291.634 115.317 291.888 115.023 292.172 114.759C292.688 114.243 293.358 113.537 294.132 112.768C294.905 112 295.622 111.324 296.148 110.839C296.415 110.561 296.713 110.313 297.036 110.102Z" fill="#E0E0E0"/>
<path d="M327.832 110.025C328.153 110.244 328.449 110.498 328.714 110.783C329.229 111.298 329.936 111.969 330.699 112.743C331.463 113.516 332.143 114.228 332.623 114.754C332.906 115.02 333.156 115.319 333.366 115.646C333.044 115.427 332.749 115.173 332.484 114.888C331.968 114.398 331.261 113.702 330.498 112.928C329.735 112.155 329.049 111.438 328.569 110.912C328.287 110.648 328.039 110.35 327.832 110.025Z" fill="#E0E0E0"/>
<path d="M327.744 77.8722C327.966 77.5518 328.222 77.2561 328.507 76.9903C329.023 76.4745 329.688 75.7679 330.462 75.0046C331.236 74.2413 331.953 73.5656 332.474 73.0808C332.741 72.7989 333.04 72.5496 333.366 72.3381C333.15 72.6622 332.896 72.9584 332.608 73.2201C332.092 73.7358 331.427 74.4424 330.648 75.2058C329.869 75.9691 329.152 76.655 328.636 77.1347C328.371 77.4175 328.072 77.6653 327.744 77.8722Z" fill="#E0E0E0"/>
<path d="M296.953 77.9546C296.629 77.7351 296.331 77.479 296.066 77.1913C295.55 76.7014 294.844 76.0102 294.085 75.2366C293.327 74.463 292.641 73.7512 292.157 73.2251C291.877 72.9563 291.627 72.657 291.414 72.3329C291.738 72.5484 292.034 72.803 292.296 73.0911C292.812 73.581 293.518 74.2773 294.287 75.0509C295.055 75.8246 295.731 76.5415 296.216 77.0675C296.494 77.3344 296.742 77.632 296.953 77.9546Z" fill="#E0E0E0"/>
<path d="M327.744 109.89C327.744 109.89 327.744 109.834 327.744 109.736C327.744 109.638 327.744 109.478 327.744 109.287C327.744 108.885 327.744 108.307 327.744 107.554C327.744 106.033 327.744 103.82 327.713 101.009C327.713 95.3873 327.677 87.3776 327.651 77.7999L327.77 77.9186H297.067L297.201 77.7845C297.201 89.5644 297.201 100.591 297.201 109.885L297.082 109.767L319.316 109.829L325.562 109.859H327.218H327.646H327.244H325.614L319.394 109.89L297.082 109.952H296.963V109.834C296.963 100.55 296.963 89.5128 296.963 77.7329V77.5936H297.108H327.811H327.935V77.7123C327.935 87.3311 327.893 95.3667 327.878 101.009C327.878 103.81 327.878 106.012 327.847 107.523C327.847 108.266 327.847 108.838 327.847 109.235C327.847 109.421 327.847 109.565 327.847 109.669C327.825 109.748 327.79 109.823 327.744 109.89Z" fill="#E0E0E0"/>
<path d="M317.568 88.7032H307.294V98.9772H317.568V88.7032Z" fill="#EBEBEB"/>
<path d="M236.506 43.0069C236.355 48.2116 234.663 53.2543 231.644 57.4965C228.625 61.7387 224.415 64.9894 219.547 66.8369C214.679 68.6845 209.372 69.0457 204.299 67.8749C199.225 66.7041 194.614 64.0538 191.048 60.2599C187.481 56.466 185.122 51.6991 184.267 46.5629C183.412 41.4268 184.101 36.1525 186.246 31.4081C188.391 26.6637 191.896 22.6627 196.317 19.9118C200.738 17.161 205.875 15.784 211.079 15.9554C218.038 16.1709 224.627 19.1421 229.395 24.2152C234.164 29.2883 236.722 36.0479 236.506 43.0069Z" fill="#EBEBEB"/>
<path d="M230.972 43.0997C230.852 47.0615 229.559 50.8984 227.257 54.125C224.955 57.3516 221.748 59.8228 218.041 61.2259C214.334 62.629 210.294 62.9009 206.433 62.0072C202.571 61.1135 199.061 59.0944 196.348 56.2054C193.634 53.3164 191.839 49.6873 191.189 45.7774C190.538 41.8676 191.063 37.8527 192.695 34.2409C194.327 30.6291 196.995 27.5828 200.359 25.4873C203.723 23.3919 207.634 22.3416 211.595 22.4694C214.222 22.5514 216.807 23.1501 219.203 24.2314C221.598 25.3126 223.758 26.8551 225.557 28.7709C227.356 30.6866 228.761 32.9381 229.69 35.3967C230.619 37.8552 231.055 40.4727 230.972 43.0997Z" fill="#EBEBEB"/>
<path d="M230.255 42.8059C230.239 42.6983 230.23 42.5897 230.229 42.481C230.229 42.2437 230.229 41.9291 230.193 41.532C230.193 41.3205 230.193 41.0832 230.168 40.8305C230.142 40.5778 230.101 40.3148 230.064 39.9898C229.995 39.2945 229.876 38.6051 229.709 37.9268C229.294 36.0469 228.599 34.2403 227.646 32.5681C225.137 28.1364 221.033 24.8273 216.17 23.3143C211.308 21.8014 206.051 22.1983 201.471 24.4243C201.043 24.6357 200.635 24.8833 200.212 25.1154C199.787 25.3474 199.378 25.6094 198.99 25.8993C198.179 26.4546 197.407 27.0646 196.679 27.7251C195.958 28.4221 195.285 29.1664 194.663 29.9532C193.378 31.5637 192.363 33.3716 191.656 35.3068C190.157 39.3123 190.016 43.6995 191.254 47.7933C191.834 49.7721 192.733 51.643 193.915 53.3325C194.483 54.16 195.106 54.9475 195.782 55.6895C196.467 56.3951 197.197 57.0549 197.969 57.6649C198.722 58.2645 199.517 58.8108 200.346 59.2998C204.771 61.8345 209.998 62.5789 214.954 61.3799C219.91 60.1809 224.219 57.1296 226.996 52.8529C228.053 51.2453 228.861 49.4874 229.394 47.6385C229.607 46.9636 229.771 46.2741 229.884 45.5755C229.941 45.2764 230.003 45.003 230.044 44.7503C230.085 44.4976 230.09 44.2345 230.111 44.054C230.152 43.6517 230.183 43.3371 230.209 43.105C230.218 42.9976 230.233 42.8908 230.255 42.7852C230.267 42.8933 230.267 43.0022 230.255 43.1102C230.255 43.3423 230.224 43.6569 230.199 44.0592C230.199 44.2706 230.168 44.5079 230.152 44.7606C230.137 45.0133 230.064 45.2764 230.013 45.6013C229.911 46.299 229.76 46.9885 229.559 47.6643C229.05 49.5537 228.252 51.3527 227.192 52.9973C225.659 55.4101 223.63 57.4686 221.24 59.0356C218.849 60.6026 216.152 61.6422 213.328 62.0849C209.759 62.6387 206.107 62.2292 202.75 60.8987C201.864 60.546 201.002 60.1342 200.171 59.666C199.325 59.1679 198.513 58.6131 197.742 58.0053C196.136 56.7674 194.742 55.2762 193.616 53.5904C192.406 51.8595 191.487 49.9433 190.893 47.917C189.631 43.7366 189.776 39.2576 191.305 35.1675C192.035 33.1903 193.08 31.3442 194.4 29.7005C195.037 28.8996 195.726 28.1415 196.463 27.4311C197.209 26.7579 197.998 26.1342 198.825 25.5641C199.22 25.2677 199.637 25.0021 200.073 24.7698C200.501 24.5326 200.924 24.2541 201.357 24.0632C202.222 23.6472 203.115 23.2922 204.029 23.0008C207.463 21.8844 211.133 21.7063 214.659 22.485C217.448 23.1102 220.072 24.3216 222.358 26.0387C224.643 27.7557 226.537 29.9393 227.914 32.4443C228.862 34.1411 229.541 35.975 229.925 37.8804C230.087 38.569 230.196 39.2691 230.25 39.9744C230.281 40.2787 230.322 40.5572 230.333 40.8202C230.343 41.0832 230.333 41.3102 230.333 41.5216C230.333 41.9239 230.333 42.2385 230.333 42.4758C230.321 42.5887 230.295 42.6997 230.255 42.8059Z" fill="#E0E0E0"/>
<path d="M212.121 54.173L212.059 57.6647L208.965 57.6079L209.027 54.2143C205.932 53.9718 203.003 52.9558 201.316 51.5839L203.095 47.8137C204.861 49.0953 206.93 49.8951 209.099 50.1346L209.187 44.9306C205.746 44.028 201.904 42.8108 201.966 38.3547C202.028 35.0538 204.472 32.2636 209.403 31.7891L209.465 28.3335L212.56 28.3851L212.498 31.7839C214.724 31.945 216.881 32.6326 218.79 33.7902L217.165 37.5965C215.715 36.7179 214.103 36.1375 212.425 35.8894L212.333 41.1862C215.778 42.0578 219.553 43.2802 219.476 47.6693C219.435 50.934 217.021 53.6676 212.121 54.173ZM209.248 40.3507L209.326 35.9306C207.67 36.2762 207 37.1684 206.979 38.1948C206.958 39.2212 207.887 39.8916 209.248 40.3507ZM214.473 47.9529C214.473 46.8647 213.601 46.2561 212.271 45.7661L212.193 50.0624C213.756 49.7478 214.458 48.9484 214.473 47.9529Z" fill="#E0E0E0"/>
<path d="M235.186 66.5823C230.585 70.7635 224.989 73.6967 218.933 75.1024C212.877 76.5082 206.561 76.3395 200.589 74.6126C190.661 71.7141 182.15 64.4213 178.205 54.7972C176.24 49.9442 175.466 44.6912 175.948 39.4778C176.43 34.2644 178.154 29.2423 180.975 24.8316C186.699 15.8884 196.602 10.0345 207.154 9.01848C220.394 7.73939 233.489 13.7944 240.741 25.007C241.819 26.6729 244.495 25.1256 243.412 23.4597C239.957 18.1394 235.253 13.7451 229.71 10.6598C224.167 7.57458 217.953 5.89203 211.611 5.75888C199.918 5.51648 188.319 10.6122 180.897 19.6844C177.242 24.1405 174.709 29.4088 173.512 35.0466C172.315 40.6844 172.488 46.5273 174.017 52.0843C177.137 63.137 185.575 72.0338 196.159 76.325C210.084 81.9983 226.32 78.8522 237.373 68.7588C238.848 67.4126 236.651 65.2258 235.186 66.5668V66.5823Z" fill="#F5F5F5"/>
<path d="M232.318 23.9806L244.929 15.4912V28.3284L232.318 23.9806Z" fill="#F5F5F5"/>
<path d="M331.081 223.089C331.081 223.166 257.013 223.223 165.667 223.223C74.3208 223.223 0.232117 223.166 0.232117 223.089C0.232117 223.012 74.2847 222.955 165.667 222.955C257.049 222.955 331.081 223.017 331.081 223.089Z" fill="#263238"/>
<path d="M184.373 86.1914C184.373 86.1914 203.276 91.1736 209.254 111.108L201.244 114.672C201.244 114.672 199.403 100.803 180.675 94.7633C170.541 91.4934 157.121 96.1043 153.407 100.334L144.387 96.4395C150.416 89.8017 165.296 80.9926 184.373 86.1914Z" fill="#FF725E"/>
<path d="M214.396 106.084L194.415 112.712L209.749 120.397L214.396 106.084Z" fill="#FF725E"/>
<path d="M160.793 223.089L90.134 223.048C81.6343 223.048 74.7489 215.827 74.7489 206.869L74.785 20.7055C74.785 11.7726 81.6858 4.53134 90.1855 4.5365L160.844 4.57776C169.344 4.57776 176.23 11.8293 176.23 20.7571L176.193 206.946C176.193 215.853 169.298 223.094 160.793 223.089Z" fill="#263238"/>
<path d="M160.772 11.1641H147.074C145.232 11.1641 143.742 12.7991 143.742 14.8157V17.41C143.742 19.4266 142.251 21.0615 140.415 21.0615H113.714C111.878 21.0615 110.388 19.4214 110.388 17.4048V14.7847C110.388 12.7681 108.897 11.1332 107.061 11.1332H102.244H90.2526C84.2956 11.1332 79.4681 16.2031 79.4681 22.4799L79.432 204.187C79.432 210.443 84.2543 215.533 90.2062 215.533L160.726 215.58C166.678 215.58 171.51 210.51 171.51 204.233L171.546 22.5263C171.546 16.2392 166.724 11.1693 160.772 11.1641Z" fill="white"/>
<path d="M94.3632 201.154V206.487C94.3679 206.594 94.3432 206.7 94.2917 206.793C94.2402 206.887 94.164 206.965 94.0714 207.018C93.9788 207.071 93.8733 207.098 93.7665 207.095C93.6597 207.092 93.5557 207.061 93.4658 207.003L89.2727 204.336C89.1896 204.283 89.1213 204.21 89.074 204.123C89.0266 204.037 89.0018 203.94 89.0018 203.841C89.0018 203.743 89.0266 203.645 89.074 203.559C89.1213 203.472 89.1896 203.399 89.2727 203.346L93.4503 200.659C93.5389 200.598 93.6426 200.563 93.7499 200.557C93.8572 200.551 93.964 200.576 94.0585 200.627C94.1529 200.678 94.2314 200.754 94.2852 200.847C94.339 200.94 94.366 201.047 94.3632 201.154Z" fill="#E0E0E0"/>
<path d="M128.811 203.769C128.81 204.496 128.593 205.206 128.188 205.81C127.784 206.414 127.209 206.885 126.537 207.163C125.865 207.44 125.126 207.512 124.413 207.37C123.7 207.227 123.045 206.877 122.531 206.362C122.017 205.848 121.668 205.192 121.526 204.479C121.385 203.766 121.458 203.027 121.736 202.355C122.015 201.684 122.486 201.11 123.091 200.706C123.695 200.302 124.406 200.086 125.133 200.086C126.109 200.088 127.044 200.476 127.734 201.167C128.423 201.857 128.811 202.793 128.811 203.769Z" fill="#E0E0E0"/>
<path d="M161.015 200.566H156.161C155.629 200.566 155.197 200.998 155.197 201.53V206.399C155.197 206.932 155.629 207.364 156.161 207.364H161.015C161.547 207.364 161.979 206.932 161.979 206.399V201.53C161.979 200.998 161.547 200.566 161.015 200.566Z" fill="#E0E0E0"/>
<path d="M105.065 76.784H110.739L109.635 75.9433C110.47 78.694 111.308 81.4448 112.147 84.1955L116.123 97.2957C116.427 98.3272 116.737 99.3072 117.041 100.313C117.112 100.552 117.257 100.762 117.456 100.913C117.654 101.065 117.896 101.149 118.145 101.154L134.371 101.107H136.697C138.167 101.107 138.172 98.8172 136.697 98.8224L120.471 98.8636H118.145L119.249 99.6992L116.742 91.447L112.76 78.3519L111.842 75.3296C111.771 75.0905 111.626 74.8802 111.428 74.7291C111.229 74.578 110.988 74.4939 110.739 74.4889H105.065C103.59 74.4889 103.59 76.7789 105.065 76.7789V76.784Z" fill="#263238"/>
<path d="M140.312 79.698C139.243 84.4842 138.173 89.2705 137.104 94.0567C136.955 94.7427 136.8 95.4338 136.645 96.1197L137.475 95.4905L130.528 95.4235L119.388 95.3152L116.84 95.2894L117.665 95.9186C116.18 91.1805 114.691 86.4407 113.199 81.6991L112.569 79.698L111.739 80.7811H141.137C141.354 80.7643 141.556 80.6666 141.703 80.5074C141.85 80.3482 141.932 80.1392 141.932 79.9223C141.932 79.7054 141.85 79.4965 141.703 79.3373C141.556 79.1781 141.354 79.0804 141.137 79.0636H111.739C111.607 79.0655 111.478 79.0973 111.361 79.1567C111.243 79.2161 111.141 79.3015 111.061 79.4064C110.982 79.5114 110.927 79.633 110.901 79.7622C110.876 79.8913 110.88 80.0246 110.914 80.1518C112.403 84.89 113.892 89.6298 115.38 94.3713C115.592 95.0366 115.803 95.7071 116.01 96.3725C116.064 96.5521 116.173 96.71 116.322 96.8239C116.471 96.9378 116.652 97.0018 116.84 97.0068L123.787 97.0739L134.928 97.1822L137.475 97.208C137.662 97.2046 137.843 97.1417 137.991 97.0286C138.14 96.9154 138.248 96.7578 138.301 96.5788L141.504 82.2149L141.968 80.1518C142.205 79.0739 140.555 78.6149 140.312 79.698Z" fill="#263238"/>
<path d="M117.588 80.4304C118.49 85.6654 119.651 90.8591 120.543 96.094C120.729 97.1823 122.384 96.7181 122.199 95.6401C121.296 90.4 120.136 85.2115 119.243 79.9714C119.058 78.8883 117.402 79.3473 117.588 80.4304Z" fill="#263238"/>
<path d="M126.65 80.2035C126.736 85.5743 126.827 90.9433 126.923 96.3106C126.923 97.4144 128.656 97.4195 128.641 96.3106C128.555 90.9433 128.463 85.5743 128.367 80.2035C128.367 79.0998 126.634 79.0946 126.65 80.2035Z" fill="#263238"/>
<path d="M135.02 96.5065L137.202 82.1994L137.512 80.1364C137.564 79.9171 137.531 79.6863 137.42 79.4902C137.309 79.294 137.128 79.1472 136.913 79.0791C136.697 79.0293 136.47 79.064 136.278 79.1762C136.086 79.2883 135.944 79.4694 135.882 79.6825C135.153 84.4481 134.427 89.2171 133.705 93.9896C133.602 94.6704 133.494 95.3512 133.391 96.0527C133.338 96.2719 133.371 96.5027 133.482 96.6989C133.593 96.895 133.774 97.0419 133.989 97.11C134.208 97.1702 134.443 97.1411 134.641 97.029C134.839 96.9169 134.985 96.7309 135.046 96.5117L135.02 96.5065Z" fill="#263238"/>
<path d="M113.611 85.8046H139.569C139.786 85.7879 139.988 85.6901 140.135 85.5309C140.282 85.3717 140.364 85.1628 140.364 84.9459C140.364 84.729 140.282 84.5201 140.135 84.3609C139.988 84.2017 139.786 84.1039 139.569 84.0872H113.611C113.395 84.1039 113.193 84.2017 113.046 84.3609C112.898 84.5201 112.817 84.729 112.817 84.9459C112.817 85.1628 112.898 85.3717 113.046 85.5309C113.193 85.6901 113.395 85.7879 113.611 85.8046Z" fill="#263238"/>
<path d="M116.046 91.8288H138.522C138.75 91.8288 138.967 91.7386 139.128 91.578C139.288 91.4175 139.379 91.1997 139.379 90.9726C139.379 90.7455 139.288 90.5278 139.128 90.3672C138.967 90.2067 138.75 90.1165 138.522 90.1165H116.046C115.819 90.1165 115.601 90.2067 115.44 90.3672C115.28 90.5278 115.19 90.7455 115.19 90.9726C115.19 91.1997 115.28 91.4175 115.44 91.578C115.601 91.7386 115.819 91.8288 116.046 91.8288Z" fill="#263238"/>
<path d="M136.686 108.684C138.373 108.684 139.74 107.317 139.74 105.63C139.74 103.944 138.373 102.577 136.686 102.577C135 102.577 133.633 103.944 133.633 105.63C133.633 107.317 135 108.684 136.686 108.684Z" fill="#263238"/>
<path d="M119.893 108.684C121.58 108.684 122.947 107.317 122.947 105.63C122.947 103.944 121.58 102.577 119.893 102.577C118.207 102.577 116.84 103.944 116.84 105.63C116.84 107.317 118.207 108.684 119.893 108.684Z" fill="#263238"/>
<path d="M114.039 64.5089C114.039 64.5089 101.481 64.086 94.1157 75.2625L98.4068 78.9398C98.4068 78.9398 102.105 70.7393 114.751 70.4762C121.6 70.337 126.304 74.3238 127.815 77.6143L135.577 77.4802C133.076 72.2762 126.748 64.8287 114.039 64.5089Z" fill="#FF725E"/>
<path d="M92.4548 71.6212L103.538 79.3937L93.4709 81.4361L92.4548 71.6212Z" fill="#FF725E"/>
<path d="M165.842 30.3038C165.843 30.5508 165.771 30.7927 165.634 30.9986C165.498 31.2045 165.303 31.3653 165.075 31.4606C164.847 31.5558 164.596 31.5813 164.354 31.5337C164.111 31.4861 163.888 31.3677 163.713 31.1933C163.538 31.019 163.419 30.7966 163.37 30.5543C163.322 30.3121 163.346 30.0609 163.44 29.8325C163.535 29.6041 163.695 29.4089 163.9 29.2715C164.105 29.1341 164.347 29.0608 164.594 29.0608C164.924 29.0608 165.241 29.1916 165.475 29.4245C165.709 29.6575 165.841 29.9736 165.842 30.3038Z" fill="#263238"/>
<path d="M164.594 34.9611C165.283 34.9611 165.842 34.4023 165.842 33.713C165.842 33.0237 165.283 32.4648 164.594 32.4648C163.905 32.4648 163.346 33.0237 163.346 33.713C163.346 34.4023 163.905 34.9611 164.594 34.9611Z" fill="#263238"/>
<path d="M164.594 38.3703C165.283 38.3703 165.842 37.8115 165.842 37.1222C165.842 36.4328 165.283 35.874 164.594 35.874C163.905 35.874 163.346 36.4328 163.346 37.1222C163.346 37.8115 163.905 38.3703 164.594 38.3703Z" fill="#263238"/>
<path d="M90.2732 29.7107L85.1827 33.5273H86.4772V38.0866L89.2211 38.0969V34.6826L91.3873 34.6723V38.0866H94.0382V33.4809L95.3586 33.4654L90.2732 29.7107Z" fill="#263238"/>
<path d="M171.871 42.8935C171.871 42.9657 151.102 43.0276 125.489 43.0276C99.8766 43.0276 79.1071 42.9657 79.1071 42.8935C79.1071 42.8213 99.8715 42.7594 125.489 42.7594C151.107 42.7594 171.871 42.8213 171.871 42.8935Z" fill="#E0E0E0"/>
<path d="M124.509 128.757H123.684C120.893 128.757 118.63 131.02 118.63 133.811V174.474C118.63 177.265 120.893 179.528 123.684 179.528H124.509C127.301 179.528 129.564 177.265 129.564 174.474V133.811C129.564 131.02 127.301 128.757 124.509 128.757Z" fill="#E0E0E0"/>
<path d="M145.387 155.349C145.399 158.837 144.377 162.249 142.449 165.155C140.521 168.06 137.775 170.329 134.557 171.673C131.339 173.017 127.795 173.376 124.373 172.706C120.951 172.035 117.805 170.364 115.333 167.904C112.861 165.444 111.175 162.307 110.487 158.888C109.799 155.47 110.14 151.924 111.469 148.699C112.797 145.475 115.051 142.717 117.948 140.775C120.844 138.833 124.251 137.793 127.738 137.788C130.05 137.782 132.341 138.231 134.479 139.111C136.617 139.99 138.562 141.282 140.2 142.913C141.839 144.543 143.141 146.481 144.031 148.615C144.921 150.749 145.382 153.037 145.387 155.349Z" fill="#FF725E"/>
<path d="M141.679 155.535C141.684 158.187 140.903 160.78 139.434 162.988C137.966 165.196 135.876 166.918 133.428 167.938C130.981 168.959 128.286 169.23 125.684 168.719C123.082 168.208 120.69 166.937 118.811 165.067C116.931 163.196 115.648 160.811 115.124 158.212C114.6 155.613 114.858 152.916 115.866 150.464C116.874 148.011 118.586 145.913 120.787 144.433C122.987 142.953 125.576 142.159 128.228 142.151C129.99 142.146 131.736 142.488 133.366 143.158C134.996 143.827 136.478 144.812 137.728 146.055C138.977 147.298 139.969 148.775 140.647 150.402C141.325 152.028 141.676 153.773 141.679 155.535Z" fill="#FF725E"/>
<path d="M141.194 155.355C141.178 155.284 141.169 155.211 141.168 155.138C141.168 154.978 141.137 154.767 141.122 154.498C141.122 154.357 141.112 154.203 141.091 154.034C141.091 153.859 141.034 153.673 140.998 153.472C140.938 153.005 140.843 152.543 140.714 152.09C140.394 150.84 139.888 149.646 139.214 148.547C138.234 146.933 136.924 145.544 135.371 144.471C133.817 143.399 132.054 142.666 130.198 142.321C127.861 141.896 125.453 142.099 123.22 142.909C122.626 143.124 122.047 143.379 121.487 143.673C121.208 143.827 120.94 144.003 120.662 144.188C120.382 144.352 120.115 144.537 119.862 144.74C119.332 145.134 118.827 145.561 118.351 146.019C117.885 146.507 117.451 147.023 117.051 147.567C116.226 148.675 115.585 149.91 115.153 151.223C114.716 152.577 114.486 153.989 114.473 155.411C114.492 156.834 114.725 158.246 115.164 159.599C115.599 160.911 116.243 162.144 117.072 163.251C117.472 163.795 117.908 164.312 118.377 164.798C118.853 165.257 119.357 165.684 119.888 166.077C120.406 166.459 120.951 166.804 121.518 167.109C122.078 167.4 122.657 167.653 123.251 167.867C125.487 168.673 127.897 168.871 130.234 168.439C132.269 168.064 134.188 167.216 135.835 165.964C137.199 164.933 138.352 163.652 139.234 162.188C139.905 161.086 140.407 159.89 140.725 158.64C140.853 158.187 140.946 157.725 141.003 157.258C141.034 157.057 141.076 156.871 141.091 156.701C141.106 156.531 141.091 156.376 141.122 156.231C141.143 155.963 141.158 155.752 141.168 155.597C141.169 155.524 141.178 155.451 141.194 155.38C141.201 155.452 141.201 155.525 141.194 155.597V156.237C141.194 156.376 141.194 156.536 141.194 156.706C141.194 156.876 141.148 157.067 141.117 157.273C141.069 157.744 140.983 158.209 140.859 158.666C140.563 159.938 140.071 161.156 139.399 162.276C138.422 163.925 137.107 165.348 135.539 166.451C133.972 167.555 132.188 168.313 130.306 168.677C127.928 169.127 125.472 168.933 123.194 168.114C122.588 167.899 121.996 167.642 121.425 167.346C120.846 167.043 120.289 166.698 119.759 166.314C119.216 165.914 118.7 165.48 118.212 165.015C117.735 164.529 117.291 164.012 116.881 163.467C116.032 162.338 115.372 161.079 114.927 159.739C113.988 156.965 113.988 153.96 114.927 151.187C115.367 149.846 116.022 148.585 116.866 147.453C117.272 146.907 117.717 146.39 118.196 145.906C118.683 145.437 119.2 145.001 119.744 144.601C120.001 144.394 120.274 144.206 120.559 144.039C120.842 143.874 121.116 143.693 121.404 143.523C121.976 143.225 122.567 142.966 123.174 142.749C125.45 141.926 127.906 141.727 130.286 142.172C132.35 142.562 134.293 143.431 135.959 144.709C137.339 145.754 138.501 147.06 139.379 148.552C140.055 149.671 140.553 150.889 140.854 152.162C140.975 152.621 141.061 153.088 141.112 153.56C141.143 153.761 141.173 153.952 141.189 154.122V154.596C141.189 154.865 141.189 155.076 141.189 155.236C141.193 155.275 141.194 155.315 141.194 155.355Z" fill="#263238"/>
<g opacity="0.3">
<path d="M141.086 155.494C141.008 155.494 140.952 154.906 140.735 153.88C140.435 152.433 139.913 151.041 139.188 149.753C138.691 148.878 138.1 148.06 137.424 147.314C136.649 146.467 135.768 145.724 134.804 145.101C134.287 144.766 133.745 144.47 133.184 144.214C131.992 143.669 130.725 143.307 129.424 143.141C128.74 143.056 128.051 143.023 127.361 143.043C126.677 143.068 125.996 143.146 125.324 143.276C124.671 143.398 124.027 143.57 123.4 143.791C122.794 144.007 122.206 144.271 121.642 144.58C121.102 144.873 120.584 145.206 120.094 145.576C119.171 146.261 118.339 147.062 117.619 147.959C116.995 148.747 116.458 149.601 116.02 150.506C115.383 151.836 114.955 153.255 114.751 154.715C114.602 155.747 114.581 156.345 114.504 156.35C114.426 156.355 114.328 155.762 114.354 154.679C114.419 153.138 114.769 151.621 115.386 150.207C116.562 147.464 118.608 145.185 121.208 143.719C121.814 143.379 122.445 143.088 123.096 142.847C123.767 142.597 124.457 142.4 125.159 142.26C125.885 142.118 126.622 142.033 127.361 142.007C128.101 141.986 128.84 142.022 129.574 142.115C130.285 142.208 130.987 142.358 131.673 142.564C132.977 142.953 134.213 143.539 135.34 144.302C136.359 144.987 137.281 145.808 138.079 146.741C138.769 147.557 139.363 148.45 139.848 149.403C140.543 150.777 140.982 152.266 141.142 153.797C141.225 154.896 141.148 155.494 141.086 155.494Z" fill="black"/>
</g>
<g opacity="0.3">
<path d="M129.29 163.369L129.326 165.706L127.238 165.742L127.202 163.462C125.139 163.369 123.143 162.756 121.977 161.874L123.086 159.295C124.299 160.111 125.703 160.599 127.16 160.713L127.104 157.227C124.777 156.711 122.178 155.963 122.132 152.977C122.096 150.764 123.679 148.851 126.969 148.412L126.933 146.091L129.022 146.061L129.058 148.335C130.552 148.396 132.01 148.81 133.313 149.542L132.313 152.121C131.321 151.567 130.228 151.217 129.1 151.089L129.156 154.638C131.482 155.153 134.041 155.881 134.087 158.82C134.123 161.028 132.565 162.931 129.29 163.369ZM127.057 154.168L127.011 151.203C125.907 151.471 125.463 152.085 125.489 152.776C125.515 153.467 126.134 153.905 127.057 154.179V154.168ZM130.729 159.145C130.729 158.418 130.105 158.031 129.182 157.727L129.228 160.61C130.291 160.378 130.74 159.826 130.729 159.156V159.145Z" fill="black"/>
</g>
<path d="M118.227 130.794H97.8859V176.263H118.227V130.794Z" fill="white"/>
<path d="M231.127 151.373C231.949 155.007 231.675 158.804 230.339 162.282C229.003 165.761 226.664 168.765 223.62 170.913C220.576 173.062 216.962 174.26 213.237 174.354C209.512 174.448 205.843 173.435 202.694 171.443C199.545 169.451 197.058 166.569 195.547 163.163C194.037 159.756 193.571 155.978 194.209 152.307C194.846 148.636 196.559 145.236 199.13 142.539C201.7 139.841 205.014 137.967 208.65 137.153C211.06 136.611 213.552 136.548 215.986 136.969C218.42 137.39 220.747 138.287 222.834 139.607C224.921 140.928 226.728 142.646 228.151 144.665C229.574 146.684 230.585 148.963 231.127 151.373Z" fill="#FF725E"/>
<path d="M227.3 152.425C227.928 155.194 227.719 158.088 226.702 160.738C225.684 163.389 223.903 165.678 221.583 167.316C219.264 168.954 216.511 169.867 213.672 169.94C210.834 170.012 208.038 169.241 205.638 167.723C203.238 166.206 201.342 164.01 200.191 161.415C199.039 158.819 198.684 155.941 199.169 153.143C199.655 150.345 200.959 147.755 202.918 145.699C204.876 143.643 207.401 142.215 210.172 141.594C212.008 141.18 213.907 141.132 215.761 141.453C217.616 141.773 219.389 142.456 220.98 143.462C222.57 144.467 223.947 145.777 225.031 147.315C226.116 148.853 226.887 150.589 227.3 152.425Z" fill="#FF725E"/>
<path d="M226.753 152.348C226.72 152.278 226.694 152.206 226.676 152.131L226.48 151.476L226.341 150.996C226.279 150.821 226.196 150.635 226.119 150.434C225.945 149.963 225.738 149.505 225.5 149.062C224.876 147.832 224.071 146.702 223.112 145.71C220.83 143.321 217.788 141.798 214.508 141.403C211.228 141.008 207.912 141.765 205.128 143.544C204.558 143.905 204.013 144.305 203.498 144.74C203.24 144.967 202.982 145.215 202.75 145.447C202.496 145.684 202.26 145.939 202.043 146.21C201.58 146.742 201.155 147.306 200.769 147.897C200.393 148.508 200.059 149.144 199.769 149.8C199.165 151.148 198.783 152.585 198.639 154.055C198.315 157.1 199 160.168 200.589 162.787C201.347 164.055 202.304 165.192 203.426 166.155C204.494 167.11 205.714 167.88 207.036 168.434C207.666 168.719 208.316 168.956 208.98 169.146C209.631 169.319 210.293 169.449 210.961 169.533C214.238 169.953 217.56 169.223 220.359 167.467C223.159 165.71 225.262 163.037 226.31 159.904C226.757 158.601 227.004 157.237 227.042 155.86C227.068 155.358 227.06 154.855 227.016 154.354C227.016 154.137 227.016 153.936 226.975 153.751C226.934 153.565 226.923 153.405 226.898 153.235C226.856 152.951 226.825 152.719 226.8 152.559C226.785 152.483 226.776 152.405 226.774 152.327C226.8 152.401 226.819 152.477 226.831 152.554C226.862 152.719 226.903 152.941 226.96 153.224C226.984 153.376 227.015 153.548 227.052 153.74C227.052 153.926 227.083 154.127 227.104 154.349C227.16 154.852 227.177 155.359 227.156 155.865C227.14 157.257 226.908 158.639 226.47 159.96C225.834 161.905 224.793 163.692 223.415 165.203C222.036 166.715 220.353 167.916 218.475 168.728C216.1 169.75 213.495 170.117 210.93 169.791C210.246 169.709 209.569 169.58 208.903 169.404C208.225 169.21 207.561 168.969 206.917 168.682C206.26 168.392 205.623 168.06 205.009 167.686C204.395 167.285 203.809 166.842 203.255 166.361C202.107 165.383 201.128 164.222 200.357 162.926C199.565 161.59 198.981 160.141 198.624 158.63C198.304 157.104 198.215 155.54 198.361 153.988C198.51 152.487 198.902 151.02 199.521 149.645C199.82 148.974 200.164 148.324 200.553 147.701C200.95 147.102 201.386 146.53 201.858 145.988C202.079 145.712 202.321 145.452 202.58 145.21C202.838 144.972 203.095 144.72 203.343 144.493C203.868 144.047 204.425 143.641 205.009 143.276C207.193 141.89 209.707 141.112 212.291 141.022C214.338 140.957 216.375 141.328 218.267 142.11C220.159 142.893 221.864 144.069 223.267 145.56C224.227 146.568 225.025 147.718 225.634 148.969C225.867 149.42 226.067 149.888 226.232 150.367C226.31 150.573 226.387 150.759 226.444 150.935C226.501 151.11 226.531 151.275 226.568 151.45L226.738 152.11C226.75 152.189 226.755 152.268 226.753 152.348Z" fill="#263238"/>
<g opacity="0.3">
<path d="M226.676 152.539C226.593 152.539 226.397 151.956 225.933 150.935C225.281 149.498 224.411 148.171 223.354 146.999C222.632 146.205 221.827 145.49 220.951 144.869C219.945 144.165 218.853 143.593 217.702 143.167C216.436 142.698 215.108 142.418 213.761 142.337C213.053 142.291 212.343 142.301 211.636 142.368C210.915 142.439 210.199 142.564 209.496 142.739C208.792 142.926 208.103 143.164 207.433 143.451C206.78 143.735 206.151 144.069 205.55 144.451C204.41 145.176 203.382 146.062 202.497 147.082C201.693 148.009 201.014 149.037 200.475 150.14C200.006 151.107 199.643 152.123 199.392 153.168C199.039 154.702 198.923 156.281 199.047 157.851C199.134 158.97 199.253 159.589 199.165 159.61C199.078 159.63 198.846 159.042 198.65 157.902C198.345 156.285 198.345 154.625 198.65 153.008C199.098 150.583 200.164 148.315 201.744 146.422C202.196 145.869 202.689 145.352 203.219 144.874C203.77 144.378 204.36 143.926 204.983 143.523C205.627 143.105 206.303 142.739 207.005 142.43C207.73 142.115 208.478 141.856 209.243 141.656C210.009 141.462 210.788 141.327 211.574 141.254C212.338 141.192 213.106 141.192 213.87 141.254C214.61 141.305 215.344 141.415 216.067 141.584C216.76 141.74 217.439 141.95 218.099 142.213C219.319 142.693 220.469 143.335 221.518 144.121C222.427 144.811 223.252 145.604 223.978 146.484C225.024 147.755 225.829 149.208 226.351 150.769C226.681 151.868 226.738 152.508 226.676 152.539Z" fill="black"/>
</g>
<g opacity="0.3">
<path d="M216.201 163.478L216.784 165.912L214.612 166.428L214.045 164.066C211.863 164.447 209.646 164.267 208.227 163.617L208.789 160.688C210.244 161.252 211.82 161.43 213.364 161.203L212.498 157.593C209.95 157.593 207.067 157.423 206.309 154.318C205.762 152.018 206.958 149.645 210.295 148.433L209.718 146.025L211.889 145.509L212.456 147.876C214.029 147.591 215.646 147.683 217.176 148.144L216.732 151.074C215.563 150.724 214.335 150.61 213.122 150.739L214.004 154.431C216.552 154.431 219.388 154.591 220.121 157.65C220.698 159.904 219.512 162.255 216.201 163.478ZM211.739 154.406L211.002 151.311C209.914 151.827 209.609 152.585 209.78 153.297C209.95 154.008 210.713 154.333 211.745 154.406H211.739ZM216.717 158.728C216.536 157.97 215.804 157.696 214.793 157.603L215.51 160.6C216.552 160.115 216.892 159.439 216.717 158.728Z" fill="black"/>
</g>
<path d="M190.47 143.131C189.297 145.613 187.647 147.839 185.614 149.682C183.581 151.526 181.205 152.951 178.621 153.876C176.037 154.802 173.296 155.209 170.555 155.075C167.814 154.941 165.126 154.268 162.644 153.096C161.532 152.572 160.468 151.952 159.462 151.244C156.227 148.94 153.716 145.762 152.224 142.081C150.732 138.401 150.32 134.371 151.037 130.465C151.753 126.559 153.569 122.938 156.271 120.027C158.973 117.116 162.449 115.036 166.291 114.031C170.133 113.026 174.182 113.137 177.963 114.351C181.744 115.566 185.101 117.834 187.639 120.888C190.177 123.943 191.791 127.658 192.293 131.598C192.794 135.537 192.162 139.538 190.47 143.131Z" fill="#FF725E"/>
<path d="M186.395 141.45C185.057 144.306 182.901 146.701 180.201 148.332C177.501 149.963 174.377 150.756 171.226 150.611C168.075 150.465 165.038 149.389 162.499 147.517C159.96 145.645 158.034 143.062 156.963 140.095C155.893 137.128 155.727 133.91 156.486 130.848C157.245 127.787 158.895 125.019 161.228 122.896C163.561 120.773 166.471 119.389 169.59 118.92C172.71 118.451 175.898 118.919 178.752 120.263C180.645 121.151 182.345 122.404 183.754 123.95C185.163 125.496 186.254 127.305 186.964 129.272C187.673 131.24 187.989 133.328 187.891 135.418C187.793 137.507 187.285 139.557 186.395 141.45Z" fill="#FF725E"/>
<path d="M185.967 141.006C185.99 140.924 186.018 140.843 186.05 140.764C186.117 140.588 186.209 140.356 186.323 140.057L186.529 139.541C186.591 139.351 186.648 139.129 186.715 138.897C186.886 138.366 187.017 137.823 187.107 137.272C187.402 135.769 187.466 134.23 187.298 132.708C186.927 129.053 185.296 125.641 182.686 123.057C180.076 120.472 176.649 118.875 172.991 118.54C172.243 118.467 171.492 118.446 170.742 118.478C170.365 118.478 169.989 118.555 169.607 118.591C169.223 118.625 168.842 118.687 168.467 118.777C166.906 119.06 165.404 119.602 164.022 120.381C162.572 121.15 161.257 122.15 160.128 123.341C157.768 125.795 156.278 128.955 155.888 132.336C155.689 133.966 155.755 135.617 156.084 137.226C156.364 138.786 156.903 140.288 157.678 141.671C158.037 142.35 158.445 143.002 158.9 143.621C159.353 144.217 159.846 144.783 160.375 145.313C162.37 147.316 164.862 148.753 167.596 149.475C169.764 150.041 172.028 150.142 174.238 149.772C176.449 149.403 178.556 148.57 180.423 147.329C181.705 146.489 182.852 145.459 183.827 144.276C184.192 143.854 184.526 143.405 184.827 142.935C184.967 142.734 185.101 142.553 185.204 142.383L185.477 141.893L185.848 141.233C185.887 141.155 185.932 141.081 185.983 141.011C185.955 141.093 185.921 141.173 185.879 141.248C185.792 141.414 185.678 141.64 185.534 141.924L185.276 142.44C185.173 142.615 185.044 142.801 184.91 143.007C184.616 143.487 184.286 143.943 183.925 144.374C182.961 145.584 181.816 146.638 180.531 147.499C178.647 148.777 176.513 149.639 174.27 150.028C172.028 150.418 169.728 150.326 167.524 149.759C165.377 149.214 163.367 148.227 161.624 146.86C159.882 145.493 158.444 143.777 157.404 141.821C157.025 141.116 156.692 140.388 156.409 139.639C156.142 138.869 155.928 138.082 155.769 137.282C155.433 135.642 155.366 133.957 155.568 132.295C155.969 128.84 157.491 125.612 159.901 123.104C161.054 121.89 162.397 120.871 163.877 120.087C164.593 119.692 165.336 119.347 166.1 119.055C166.858 118.8 167.631 118.593 168.416 118.437C168.798 118.347 169.185 118.285 169.576 118.251C169.968 118.215 170.355 118.158 170.737 118.143C174.388 117.993 177.984 119.068 180.954 121.196C182.795 122.534 184.33 124.248 185.457 126.225C186.585 128.202 187.279 130.396 187.494 132.661C187.65 134.202 187.566 135.757 187.246 137.272C187.147 137.825 187.005 138.37 186.823 138.902C186.746 139.134 186.689 139.351 186.617 139.546C186.545 139.742 186.462 139.908 186.395 140.062L186.091 140.759C186.061 140.846 186.02 140.93 185.967 141.006Z" fill="#263238"/>
<g opacity="0.3">
<path d="M185.771 141.104C185.683 141.068 185.921 140.408 186.21 139.196C186.622 137.496 186.768 135.742 186.643 133.997C186.553 132.806 186.333 131.628 185.988 130.485C185.587 129.181 185.02 127.935 184.301 126.776C183.914 126.152 183.482 125.557 183.007 124.997C182.515 124.413 181.981 123.867 181.408 123.362C180.815 122.838 180.182 122.363 179.515 121.939C178.14 121.065 176.636 120.414 175.059 120.01C172.833 119.444 170.509 119.382 168.256 119.829C166.918 120.098 165.62 120.537 164.393 121.134C163.322 121.664 162.312 122.309 161.381 123.058C160.023 124.162 158.844 125.468 157.884 126.931C157.198 127.963 156.878 128.597 156.791 128.556C156.703 128.515 156.899 127.839 157.477 126.689C158.323 125.067 159.459 123.614 160.829 122.403C161.772 121.562 162.811 120.835 163.924 120.237C165.213 119.553 166.589 119.047 168.014 118.731C168.783 118.56 169.564 118.448 170.35 118.395C172.025 118.281 173.708 118.428 175.337 118.834C177.043 119.256 178.668 119.953 180.149 120.897C180.866 121.356 181.544 121.874 182.176 122.444C183.377 123.522 184.406 124.775 185.23 126.163C186.629 128.506 187.404 131.17 187.478 133.899C187.533 135.727 187.25 137.549 186.643 139.273C186.235 140.537 185.849 141.135 185.771 141.104Z" fill="black"/>
</g>
<g opacity="0.3">
<path d="M169.122 143.585L167.972 146.112L165.718 145.081L166.832 142.621C164.661 141.47 162.83 139.794 162.031 138.262L164.522 136.07C165.405 137.57 166.664 138.814 168.173 139.681L169.886 135.911C167.658 134.162 165.244 132.058 166.698 128.824C167.787 126.431 170.458 125.167 174.208 126.379L175.348 123.873L177.607 124.904L176.487 127.349C178.064 128.169 179.423 129.353 180.448 130.805L178.061 133.069C177.278 131.97 176.284 131.039 175.136 130.33L173.393 134.167C175.636 135.89 178.009 137.979 176.565 141.161C175.502 143.513 172.877 144.766 169.122 143.585ZM171.392 132.579L172.846 129.371C171.526 129.097 170.757 129.541 170.417 130.284C170.077 131.026 170.541 131.81 171.392 132.579ZM172.81 139.799C173.166 139.01 172.707 138.283 171.887 137.504L170.474 140.599C171.717 140.867 172.48 140.506 172.81 139.784V139.799Z" fill="black"/>
</g>
<path d="M57.9146 107.384C51.875 110.509 47.2435 115.899 43.9117 121.825C40.5799 127.751 38.4395 134.265 36.3094 140.728L34.4527 174.051C41.4773 162.095 47.1197 148.041 48.6464 134.255L43.9684 133.837C47.1043 133.357 49.7346 131.088 51.4108 128.391C53.0871 125.693 53.9484 122.624 54.7684 119.53L49.0951 120.386C53.5956 117.345 56.7537 112.69 57.9146 107.384Z" fill="#455A64"/>
<g opacity="0.3">
<path d="M57.9146 107.384C51.875 110.509 47.2435 115.899 43.9117 121.825C40.5799 127.751 38.4395 134.265 36.3094 140.728L34.4527 174.051C41.4773 162.095 47.1197 148.041 48.6464 134.255L43.9684 133.837C47.1043 133.357 49.7346 131.088 51.4108 128.391C53.0871 125.693 53.9484 122.624 54.7684 119.53L49.0951 120.386C53.5956 117.345 56.7537 112.69 57.9146 107.384Z" fill="black"/>
</g>
<path d="M33.4108 181.865C33.4108 181.865 18.1495 163.607 18.33 146.174H24.5191C24.5191 146.174 17.8142 141.775 18.33 139.309C18.8458 136.844 19.0366 127.514 19.0366 127.514L24.6687 128.922C24.6687 128.922 20.4446 126.807 19.9185 123.465C19.3925 120.123 21.146 104.625 21.146 104.625C21.146 104.625 28.0159 111.845 30.1254 119.236C32.2348 126.627 37.7844 135.261 36.1598 157.794C34.5351 180.328 33.4108 181.865 33.4108 181.865Z" fill="#455A64"/>
<path d="M41.1421 183.587C41.1421 183.587 57.6463 172.576 61.3443 158.527L56.3879 157.18C56.3879 157.18 62.7317 155.117 62.8452 153.013C62.9586 150.909 64.8618 143.374 64.8618 143.374L60.024 143.27C60.024 143.27 63.8818 142.497 65.0371 139.923C66.1924 137.349 68.1781 124.502 68.1781 124.502C68.1781 124.502 61.0813 128.803 57.7649 134.301C54.4486 139.799 48.0893 145.493 44.4532 163.968C40.8171 182.442 41.1421 183.587 41.1421 183.587Z" fill="#455A64"/>
<path d="M25.3134 120.562C25.3406 120.621 25.3597 120.683 25.3701 120.747C25.4011 120.886 25.4475 121.072 25.5042 121.309L25.9839 123.476C26.1954 124.419 26.4429 125.57 26.706 126.916C26.969 128.262 27.2939 129.783 27.6034 131.48C28.2532 134.869 28.9444 138.912 29.6664 143.415C30.3885 147.917 31.0435 152.889 31.6521 158.114C32.2607 163.339 32.7146 168.331 33.0756 172.88C33.4366 177.429 33.6635 181.524 33.8028 184.969C33.8853 186.687 33.9266 188.25 33.973 189.611C34.0194 190.973 34.04 192.159 34.0504 193.124C34.0607 194.088 34.0504 194.82 34.0504 195.341V195.919C34.0582 195.984 34.0582 196.05 34.0504 196.115C34.0433 196.05 34.0433 195.984 34.0504 195.919C34.0504 195.78 34.0504 195.589 34.0504 195.346C34.0504 194.831 34.0039 194.078 33.973 193.124C33.9421 192.169 33.906 190.983 33.8441 189.616C33.7822 188.25 33.7358 186.692 33.6378 184.975C33.4779 181.534 33.2045 177.439 32.8538 172.896C32.5031 168.352 32.008 163.369 31.4097 158.145C30.8114 152.92 30.1254 147.959 29.4498 143.456C28.7742 138.953 28.0882 134.905 27.459 131.516C27.1598 129.819 26.8555 128.288 26.6028 126.947C26.3501 125.606 26.118 124.445 25.922 123.501L25.4888 121.32C25.4475 121.082 25.4114 120.897 25.3856 120.752C25.3577 120.69 25.3336 120.627 25.3134 120.562Z" fill="#263238"/>
<path d="M31.2962 193.046C31.2962 193.046 17.3346 177.207 12.992 167.63L16.2619 166.232C13.8894 166.624 11.4602 165.603 9.61889 164.055C7.77764 162.508 6.43151 160.471 5.10601 158.465L9.41775 157.737C5.45549 156.609 2.08176 153.994 0 150.439C5.08538 151.28 9.68594 154.05 13.4819 157.562C16.4954 160.457 19.2321 163.628 21.6567 167.031C22.8855 168.664 23.9562 170.41 24.8544 172.246C27.1753 177.094 31.3014 187.228 31.2962 193.046Z" fill="#455A64"/>
<path d="M61.561 133.724C61.5472 133.779 61.5264 133.833 61.4991 133.884L61.2824 134.343C61.0813 134.76 60.7925 135.348 60.4314 136.101C59.6836 137.623 58.6211 139.83 57.3369 142.579C56.0527 145.328 54.5673 148.608 52.9736 152.286C51.3799 155.963 49.714 160.022 48.0429 164.349C46.3719 168.677 44.8865 172.808 43.5765 176.593C42.2664 180.379 41.1627 183.814 40.2704 186.713C39.3782 189.611 38.6716 191.958 38.2074 193.588C37.9702 194.387 37.7896 195.016 37.6556 195.46L37.506 195.945C37.4931 196.001 37.4722 196.055 37.4441 196.105C37.4441 196.105 37.4441 196.048 37.4802 195.934L37.604 195.444C37.7226 194.996 37.8928 194.367 38.1197 193.557C38.5581 191.922 39.2286 189.56 40.1054 186.656C40.9822 183.752 42.0756 180.312 43.3598 176.516C44.6441 172.72 46.1449 168.573 47.8108 164.251C49.4767 159.929 51.1736 155.865 52.7621 152.188C54.3507 148.51 55.8567 145.23 57.1822 142.497C58.5077 139.763 59.5598 137.582 60.3386 136.034C60.7203 135.292 61.0194 134.709 61.236 134.301C61.334 134.11 61.4114 133.966 61.4733 133.853C61.4977 133.807 61.5271 133.763 61.561 133.724Z" fill="#263238"/>
<path d="M32.4773 199.834C32.4438 199.739 32.423 199.64 32.4154 199.54L32.2762 198.699C32.2246 198.333 32.1576 197.889 32.0596 197.373C31.9616 196.858 31.8791 196.265 31.7398 195.62C31.4871 194.32 31.1312 192.788 30.6722 191.107C30.2132 189.426 29.6407 187.595 28.9186 185.712C28.1965 183.83 27.4229 182.071 26.6647 180.498C25.9066 178.925 25.1536 177.548 24.4831 176.408C24.1633 175.83 23.8384 175.33 23.5702 174.861C23.302 174.391 23.0544 174.03 22.8533 173.721L22.3994 173.004C22.3424 172.921 22.294 172.833 22.255 172.741C22.255 172.741 22.3272 172.813 22.4458 172.973L22.9616 173.664C23.1782 173.963 23.4361 174.34 23.7146 174.783C23.9931 175.227 24.3387 175.748 24.6481 176.31C25.3392 177.439 26.1026 178.822 26.8917 180.39C27.6808 181.957 28.4389 183.726 29.1662 185.614C29.8934 187.502 30.4504 189.353 30.9094 191.04C31.3685 192.726 31.6985 194.279 31.9409 195.584C32.0699 196.234 32.1473 196.827 32.2246 197.348C32.302 197.869 32.3587 198.317 32.4 198.689C32.4412 199.06 32.4619 199.313 32.4825 199.534C32.4933 199.634 32.4916 199.735 32.4773 199.834Z" fill="#263238"/>
<path d="M50.9002 196.105H20.3467V202.335H50.9002V196.105Z" fill="#FF725E"/>
<path d="M23.2556 202.34L26.5616 223.301H45.0257L48.1048 202.34H23.2556Z" fill="#FF725E"/>
<path d="M49.0228 202.34C49.0228 202.412 43.2464 202.474 36.1289 202.474C29.0114 202.474 23.2349 202.412 23.2349 202.34C23.2349 202.268 29.0114 202.206 36.1289 202.206C43.2464 202.206 49.0228 202.263 49.0228 202.34Z" fill="#263238"/>
<path d="M275.611 160.698H195.318C193.076 160.698 191.259 162.515 191.259 164.757V219.474C191.259 221.715 193.076 223.533 195.318 223.533H275.611C277.853 223.533 279.67 221.715 279.67 219.474V164.757C279.67 162.515 277.853 160.698 275.611 160.698Z" fill="#455A64"/>
<path d="M278.365 186.347H255.481C251.684 186.347 248.606 189.425 248.606 193.222V194.351C248.606 198.148 251.684 201.226 255.481 201.226H278.365C282.162 201.226 285.24 198.148 285.24 194.351V193.222C285.24 189.425 282.162 186.347 278.365 186.347Z" fill="#455A64"/>
<path d="M278.37 201.484H255.486C253.594 201.481 251.78 200.728 250.442 199.39C249.104 198.052 248.351 196.238 248.348 194.346V193.222C248.351 191.33 249.104 189.516 250.442 188.179C251.78 186.842 253.594 186.09 255.486 186.089H278.37C280.261 186.091 282.074 186.844 283.411 188.181C284.748 189.518 285.501 191.331 285.503 193.222V194.346C285.501 196.237 284.748 198.051 283.411 199.388C282.074 200.726 280.262 201.48 278.37 201.484ZM255.486 186.604C253.731 186.606 252.048 187.303 250.807 188.544C249.565 189.784 248.867 191.467 248.864 193.222V194.346C248.865 196.102 249.563 197.785 250.805 199.027C252.047 200.269 253.73 200.967 255.486 200.968H278.37C280.125 200.966 281.808 200.267 283.048 199.025C284.289 197.784 284.986 196.101 284.987 194.346V193.222C284.985 191.467 284.287 189.786 283.046 188.546C281.806 187.305 280.124 186.607 278.37 186.604H255.486Z" fill="#263238"/>
<path d="M261.141 196.804C262.82 194.415 262.246 191.118 259.858 189.438C257.47 187.758 254.172 188.333 252.493 190.721C250.813 193.109 251.387 196.407 253.775 198.086C256.163 199.766 259.461 199.192 261.141 196.804Z" fill="#263238"/>
<path d="M250.38 46.9731C250.318 49.6944 250.834 52.3978 251.893 54.905C252.953 57.4121 254.533 59.6659 256.528 61.5175C257.439 58.8631 258.355 56.2087 259.277 53.5542" fill="#263238"/>
<path d="M271.098 31.1342C268.736 29.8448 265.889 29.6592 263.253 30.1904C260.629 30.7989 258.121 31.8338 255.832 33.254C254.487 33.949 253.284 34.8882 252.283 36.0236C250.571 38.1795 248.879 41.697 248.714 44.4666C248.58 46.6895 249.431 52.2494 250.37 54.266C251.231 56.1176 255.264 57.5256 257.255 57.9846L275.513 36.7405C275.185 35.5603 274.626 34.457 273.868 33.4946C273.11 32.5323 272.168 31.7299 271.098 31.1342Z" fill="#263238"/>
<path d="M274.244 34.0018L269.865 33.2179C272.259 38.8912 272.908 51.9554 274.28 57.9743C275.895 55.6276 279.644 48.4947 279.438 45.658C279.232 42.8213 279.448 33.517 274.244 34.0018Z" fill="#263238"/>
<path d="M276.751 43.2959C276.467 38.9222 273.553 33.5583 269.195 34.0122L259.112 36.591C257.559 36.9855 256.174 37.8678 255.16 39.1081C254.147 40.3485 253.557 41.8814 253.48 43.4815C253.48 43.6466 253.48 43.4454 253.48 43.5692L255.734 69.6872L263.305 84.7113L270.01 72.0391C270.01 69.909 270.01 65.1279 270.01 65.1382C270.01 65.1485 275.601 64.1995 276.715 56.8861C277.261 53.2861 277.06 48.1543 276.751 43.2959Z" fill="#FFBF9D"/>
<path d="M273.625 49.2786C273.63 49.5227 273.538 49.7588 273.37 49.9362C273.202 50.1136 272.972 50.2182 272.728 50.2276C272.609 50.2367 272.489 50.2222 272.376 50.1847C272.263 50.1473 272.158 50.0878 272.068 50.0096C271.977 49.9314 271.904 49.8361 271.851 49.7293C271.797 49.6224 271.766 49.506 271.758 49.3869C271.757 49.1427 271.85 48.9074 272.018 48.7304C272.186 48.5534 272.417 48.4486 272.661 48.4379C272.779 48.4295 272.898 48.4446 273.011 48.4824C273.124 48.5201 273.228 48.5797 273.318 48.6579C273.407 48.736 273.481 48.831 273.533 48.9376C273.586 49.0441 273.617 49.16 273.625 49.2786Z" fill="#263238"/>
<path d="M275.657 46.153C275.539 46.2768 274.832 45.7507 273.821 45.7559C272.81 45.761 272.078 46.2716 271.97 46.1427C271.861 46.0138 272.037 45.8693 272.357 45.6269C272.79 45.3221 273.307 45.1599 273.837 45.1628C274.361 45.1608 274.872 45.3251 275.296 45.6321C275.606 45.8797 275.714 46.0963 275.657 46.153Z" fill="#263238"/>
<path d="M265.198 49.2787C265.202 49.5228 265.11 49.7588 264.943 49.9362C264.775 50.1136 264.544 50.2182 264.3 50.2277C264.181 50.2368 264.062 50.2222 263.948 50.1848C263.835 50.1474 263.73 50.0879 263.64 50.0097C263.55 49.9315 263.476 49.8362 263.423 49.7293C263.37 49.6224 263.339 49.5061 263.331 49.387C263.329 49.1427 263.422 48.9074 263.591 48.7304C263.759 48.5535 263.989 48.4486 264.233 48.438C264.352 48.4281 264.472 48.4422 264.585 48.4795C264.699 48.5167 264.803 48.5762 264.893 48.6546C264.983 48.733 265.056 48.8286 265.109 48.9358C265.161 49.043 265.191 49.1595 265.198 49.2787Z" fill="#263238"/>
<path d="M266.095 46.153C265.982 46.2768 265.27 45.7508 264.264 45.7559C263.259 45.7611 262.521 46.2717 262.413 46.1427C262.304 46.0138 262.475 45.8694 262.8 45.627C263.232 45.3212 263.75 45.1589 264.28 45.1628C264.804 45.1608 265.315 45.3252 265.739 45.6321C266.049 45.8797 266.152 46.0963 266.095 46.153Z" fill="#263238"/>
<path d="M269.241 54.0597C269.771 53.8909 270.321 53.7903 270.876 53.7605C271.134 53.7605 271.392 53.6832 271.392 53.5078C271.415 53.2419 271.355 52.9755 271.222 52.7445C270.979 52.1256 270.706 51.4705 270.459 50.7897C269.396 48.0046 268.628 45.7147 268.741 45.6734C268.854 45.6322 269.84 47.8396 270.871 50.6402C271.124 51.3261 271.387 51.9811 271.603 52.6052C271.77 52.9221 271.817 53.2879 271.738 53.6367C271.7 53.7273 271.643 53.8083 271.569 53.8735C271.496 53.9387 271.409 53.9865 271.315 54.0132C271.173 54.0512 271.028 54.072 270.881 54.0751C270.336 54.1381 269.785 54.1329 269.241 54.0597Z" fill="#263238"/>
<path d="M260.293 62.5542C260.293 62.5542 262.665 67.5622 269.963 66.8659V65.1485C266.562 65.1985 263.213 64.3001 260.293 62.5542Z" fill="#FF9A6C"/>
<path d="M265.781 42.5171C265.683 42.7905 264.677 42.6615 263.496 42.8059C262.315 42.9504 261.361 43.2753 261.206 43.0329C261.134 42.9142 261.299 42.6564 261.686 42.3933C262.195 42.0599 262.777 41.853 263.382 41.7899C263.987 41.7186 264.6 41.7892 265.172 41.9962C265.605 42.1664 265.822 42.3882 265.781 42.5171Z" fill="#263238"/>
<path d="M275.327 43.0741C275.152 43.3062 274.456 43.0741 273.625 43.0741C272.795 43.0741 272.078 43.2288 271.918 42.9916C271.851 42.8781 271.959 42.646 272.269 42.4294C272.683 42.1702 273.164 42.0392 273.653 42.053C274.141 42.0668 274.614 42.2246 275.013 42.5068C275.307 42.7285 275.405 42.9606 275.327 43.0741Z" fill="#263238"/>
<path d="M274.77 36.6373C274.512 36.1012 274.11 35.6473 273.609 35.3259C273.109 35.0045 272.529 34.8282 271.934 34.8166C270.742 34.8183 269.575 35.16 268.571 35.8017C264.228 38.3083 261.995 44.3737 257.704 46.9731C256.647 47.6126 255.275 47.0246 254.377 47.8705C253.48 48.7163 252.897 50.0728 253.392 51.2023C252.778 50.4368 252.276 49.5876 251.902 48.6802C251.719 48.225 251.636 47.736 251.657 47.246C251.678 46.7559 251.804 46.2761 252.025 45.8384C252.397 45.1937 253.057 44.7037 253.232 43.9817C253.392 43.3473 253.139 42.6871 253.165 42.0321C253.24 41.3676 253.47 40.7299 253.836 40.1702C255.517 37.1994 257.828 34.4969 260.809 32.8361C262.753 31.7142 264.965 31.1419 267.209 31.1805C269.462 31.2346 271.62 32.0926 273.295 33.5995C274.26 34.4969 275.265 35.4201 274.77 36.6373Z" fill="#263238"/>
<path d="M254.48 48.7783C254.403 48.5669 250.602 47.1949 250.55 51.2385C250.499 55.1634 254.465 54.3949 254.475 54.2815C254.486 54.168 254.48 48.7783 254.48 48.7783Z" fill="#FFBF9D"/>
<path d="M253.273 52.7805C253.273 52.7805 253.206 52.8269 253.088 52.8785C253.006 52.9131 252.919 52.931 252.83 52.931C252.741 52.931 252.654 52.9131 252.572 52.8785C252.159 52.7238 251.814 52.0636 251.804 51.3313C251.798 50.9954 251.866 50.6625 252.005 50.3565C252.043 50.2353 252.11 50.1252 252.199 50.0354C252.289 49.9456 252.399 49.8788 252.52 49.8407C252.599 49.82 252.683 49.8278 252.756 49.8627C252.83 49.8976 252.889 49.9574 252.923 50.0315C252.974 50.1398 252.923 50.2172 252.969 50.2275C253.016 50.2378 253.052 50.1605 253.021 50.0006C253.003 49.9024 252.95 49.8142 252.871 49.753C252.764 49.6706 252.629 49.6336 252.495 49.6499C252.333 49.679 252.182 49.7494 252.055 49.8542C251.929 49.959 251.831 50.0947 251.773 50.2482C251.6 50.5863 251.515 50.9622 251.525 51.3416C251.525 52.1358 251.943 52.8888 252.505 53.0487C252.611 53.0804 252.722 53.0881 252.831 53.0711C252.94 53.0542 253.043 53.013 253.134 52.9507C253.268 52.8734 253.289 52.7857 253.273 52.7805Z" fill="#FF9A6C"/>
<path d="M252.918 46.7566C253.001 46.72 253.081 46.6751 253.155 46.6225C253.304 46.5296 253.537 46.4007 253.815 46.2047C254.587 45.6377 255.298 44.9912 255.935 44.2758C256.857 43.2026 257.718 42.0781 258.514 40.9079C259.48 39.4733 260.565 38.1225 261.758 36.8695C262.384 36.2448 263.075 35.6898 263.821 35.2139C264.529 34.7803 265.288 34.434 266.08 34.1824C267.422 33.748 268.834 33.573 270.242 33.6666C271.191 33.716 272.129 33.8894 273.032 34.1824C273.352 34.2804 273.594 34.3938 273.759 34.4557C273.843 34.4923 273.929 34.5216 274.017 34.5434L273.775 34.4196C273.54 34.3068 273.299 34.2069 273.053 34.1205C272.152 33.7872 271.21 33.5823 270.252 33.5119C268.828 33.3998 267.396 33.5627 266.033 33.9915C265.226 34.2378 264.454 34.5843 263.733 35.0231C262.965 35.5044 262.251 36.0663 261.603 36.6993C260.403 37.9582 259.316 39.3198 258.354 40.7686C257.561 41.9391 256.709 43.0684 255.801 44.152C255.177 44.8682 254.486 45.5228 253.738 46.1067C253.469 46.313 253.222 46.4471 253.098 46.5503C253.033 46.6148 252.973 46.6837 252.918 46.7566Z" fill="#455A64"/>
<path d="M253.908 47.8707C253.846 48.9434 253.794 50.073 254.29 51.0271C254.785 51.9813 256.038 52.6311 256.971 52.0947C257.73 51.6615 257.957 50.6867 258.086 49.8202C258.462 47.3188 258.632 44.7864 259.024 42.2902L253.908 47.8707Z" fill="#263238"/>
<path d="M273.801 34.7651C273.801 34.7651 273.455 34.7032 272.826 34.6826C271.943 34.6661 271.066 34.8275 270.247 35.1571C269.676 35.3766 269.129 35.6567 268.617 35.9926C268.032 36.3865 267.47 36.8154 266.936 37.2768C265.703 38.3244 264.6 39.5157 263.651 40.8252C263.135 41.5267 262.712 42.2436 262.232 42.8883C261.779 43.5378 261.251 44.1316 260.659 44.6573C259.638 45.5199 258.524 46.2656 257.338 46.8802C256.306 47.396 255.491 47.7828 254.914 48.0407L254.243 48.3244C254.165 48.3609 254.084 48.3903 254.001 48.412C254.001 48.412 254.073 48.3605 254.223 48.2831L254.878 47.9582C255.445 47.6797 256.275 47.2877 257.265 46.741C258.43 46.1153 259.523 45.3647 260.525 44.5026C261.109 43.9858 261.629 43.4005 262.072 42.7593C262.542 42.0992 262.985 41.3771 263.491 40.6963C264.449 39.3703 265.57 38.1695 266.828 37.1221C267.37 36.6589 267.942 36.2316 268.54 35.843C269.065 35.5044 269.625 35.2242 270.211 35.0075C271.06 34.6874 271.966 34.5469 272.872 34.5949C273.117 34.6082 273.361 34.6427 273.6 34.698C273.669 34.714 273.736 34.7364 273.801 34.7651Z" fill="#455A64"/>
<path d="M253.8 45.4414C253.691 45.5321 253.574 45.6116 253.449 45.6787L252.454 46.2615L252.118 46.4523C251.987 46.5293 251.841 46.5785 251.69 46.5967C251.598 46.6062 251.505 46.5844 251.427 46.5348C251.386 46.5077 251.351 46.472 251.324 46.4302C251.297 46.3884 251.28 46.3415 251.272 46.2924C251.277 46.1049 251.342 45.9238 251.458 45.7767L252.613 43.9251L252.768 44.0747C252.387 44.3571 251.959 44.5701 251.505 44.7039C251.05 44.8391 250.575 44.895 250.102 44.8689C249.981 44.866 249.861 44.8451 249.746 44.807C249.678 44.7886 249.615 44.7549 249.562 44.7084C249.51 44.6619 249.468 44.6039 249.442 44.5388C249.419 44.4726 249.412 44.4018 249.423 44.3326C249.434 44.2633 249.461 44.1978 249.503 44.1417C249.571 44.0539 249.647 43.9727 249.73 43.8993C250.246 43.3971 250.695 42.8302 251.066 42.2128C251.392 41.6299 251.676 41.025 251.917 40.4025C251.897 40.5787 251.855 40.7519 251.793 40.9182C251.642 41.3909 251.443 41.8471 251.2 42.2798C250.841 42.9238 250.393 43.5141 249.87 44.0334C249.725 44.1727 249.581 44.3325 249.638 44.4563C249.694 44.5801 249.906 44.642 250.112 44.642C251.016 44.6883 251.908 44.4224 252.639 43.889L253.109 43.5434L252.794 44.0592L251.618 45.8953C251.526 46.0032 251.469 46.1361 251.453 46.277C251.453 46.3904 251.551 46.4523 251.675 46.442C251.927 46.3927 252.167 46.2946 252.381 46.1532L253.413 45.6374C253.532 45.5547 253.662 45.4888 253.8 45.4414Z" fill="#455A64"/>
<path d="M268.37 55.9681C268.176 55.7459 267.929 55.5756 267.653 55.473C267.376 55.3703 267.078 55.3384 266.786 55.3801C266.574 55.4051 266.369 55.4723 266.183 55.5777C265.997 55.6831 265.834 55.8246 265.703 55.9939C265.579 56.1561 265.508 56.353 265.501 56.5572C265.494 56.7614 265.55 56.9629 265.662 57.1337C265.826 57.2993 266.035 57.4137 266.263 57.4631C266.491 57.5125 266.728 57.4948 266.946 57.4122C267.396 57.2372 267.808 56.9762 268.158 56.6438C268.265 56.5656 268.357 56.4675 268.427 56.3549C268.462 56.3023 268.481 56.2403 268.481 56.177C268.481 56.1136 268.462 56.0517 268.427 55.9991" fill="#FF9A6C"/>
<path d="M265.879 54.4104C266.039 54.4104 266.069 55.4419 266.993 56.133C267.916 56.8241 269.056 56.6952 269.056 56.8396C269.056 56.9015 268.813 57.0459 268.339 57.0717C267.727 57.1047 267.123 56.9222 266.632 56.5559C266.162 56.2058 265.849 55.6853 265.76 55.1066C265.714 54.6631 265.806 54.4052 265.879 54.4104Z" fill="#263238"/>
<path d="M280.531 124.218L284.755 133.76L264.254 141.429L259.669 131.171L280.531 124.218Z" fill="#263238"/>
<path d="M321.957 182.277L327.563 194.382C327.563 194.382 341.566 192.525 342.819 194.666L319.93 206.595L310.414 188.095L321.957 182.277Z" fill="#455A64"/>
<path d="M320.095 196.966C319.907 197.149 319.792 197.394 319.773 197.656C319.754 197.917 319.832 198.177 319.992 198.384C320.167 198.578 320.41 198.698 320.67 198.72C320.93 198.742 321.19 198.665 321.395 198.503C321.594 198.31 321.715 198.05 321.734 197.772C321.754 197.495 321.669 197.221 321.498 197.002C321.295 196.817 321.028 196.718 320.753 196.724C320.478 196.731 320.217 196.844 320.023 197.038" fill="#E0E0E0"/>
<path d="M319.925 206.595L319.172 205.146L341.623 194.011C341.891 194.034 342.152 194.112 342.388 194.24C342.625 194.367 342.833 194.542 343 194.753L319.925 206.595Z" fill="#263238"/>
<path d="M327.816 194.351C327.868 194.465 327.326 194.805 326.955 195.45C326.583 196.094 326.527 196.729 326.398 196.739C326.269 196.749 326.104 196.002 326.573 195.228C327.043 194.454 327.785 194.233 327.816 194.351Z" fill="#263238"/>
<path d="M330.761 194.119C330.844 194.217 330.452 194.661 330.312 195.336C330.173 196.012 330.312 196.574 330.199 196.626C330.086 196.677 329.683 196.074 329.879 195.238C330.075 194.403 330.699 194.011 330.761 194.119Z" fill="#263238"/>
<path d="M333.629 196.337C333.541 196.409 333.113 195.924 333.067 195.156C333.02 194.387 333.448 193.866 333.546 193.938C333.644 194.011 333.484 194.506 333.51 195.14C333.536 195.775 333.737 196.265 333.629 196.337Z" fill="#263238"/>
<path d="M326.217 191.736C326.217 191.86 325.624 191.968 325.005 192.34C324.386 192.711 323.974 193.165 323.876 193.098C323.778 193.031 324.046 192.381 324.778 191.958C325.511 191.535 326.227 191.597 326.217 191.736Z" fill="#263238"/>
<path d="M325.33 188.941C325.33 188.987 324.943 189.287 324.165 189.529C323.707 189.668 323.234 189.749 322.757 189.771C322.475 189.792 322.192 189.792 321.911 189.771C321.735 189.767 321.561 189.736 321.395 189.678C321.279 189.636 321.18 189.557 321.115 189.452C321.049 189.347 321.021 189.224 321.034 189.101C321.05 188.992 321.092 188.889 321.156 188.799C321.219 188.71 321.303 188.636 321.4 188.585C321.546 188.509 321.702 188.455 321.864 188.425C322.144 188.362 322.429 188.322 322.715 188.307C323.199 188.285 323.682 188.339 324.149 188.466C324.938 188.693 325.34 189.023 325.31 189.065C325.279 189.106 324.835 188.905 324.077 188.771C323.636 188.695 323.187 188.676 322.741 188.714C322.482 188.737 322.225 188.782 321.973 188.848C321.689 188.905 321.457 189.013 321.457 189.152C321.457 189.209 321.457 189.225 321.55 189.271C321.666 189.311 321.788 189.333 321.911 189.338C322.174 189.367 322.44 189.381 322.705 189.379C323.155 189.373 323.604 189.326 324.046 189.24C324.466 189.11 324.895 189.01 325.33 188.941Z" fill="#263238"/>
<path d="M300.177 201.727L299.465 215.049C299.465 215.049 312.704 219.964 312.813 222.439L286.999 222.269L287.252 201.469L300.177 201.727Z" fill="#455A64"/>
<path d="M291.656 213.841C291.403 213.912 291.185 214.074 291.045 214.296C290.905 214.518 290.853 214.785 290.898 215.043C290.963 215.296 291.122 215.515 291.342 215.656C291.562 215.797 291.827 215.849 292.084 215.801C292.351 215.724 292.581 215.551 292.727 215.314C292.874 215.078 292.928 214.796 292.879 214.522C292.786 214.264 292.597 214.051 292.35 213.93C292.104 213.809 291.82 213.788 291.558 213.872" fill="#E0E0E0"/>
<path d="M286.999 222.269V220.614L312.049 221.279C312.275 221.425 312.469 221.615 312.619 221.839C312.769 222.062 312.872 222.314 312.921 222.579L286.999 222.269Z" fill="#263238"/>
<path d="M299.697 215.136C299.697 215.265 299.057 215.312 298.423 215.709C297.789 216.106 297.448 216.637 297.33 216.585C297.211 216.534 297.417 215.801 298.191 215.332C298.965 214.863 299.754 215.023 299.697 215.136Z" fill="#263238"/>
<path d="M302.415 216.312C302.441 216.441 301.899 216.647 301.445 217.179C300.992 217.71 300.868 218.272 300.739 218.267C300.61 218.262 300.548 217.54 301.105 216.89C301.662 216.24 302.415 216.193 302.415 216.312Z" fill="#263238"/>
<path d="M303.911 219.613C303.792 219.639 303.627 218.999 303.967 218.308C304.308 217.617 304.906 217.349 304.958 217.457C305.009 217.565 304.633 217.932 304.365 218.489C304.096 219.046 304.034 219.587 303.911 219.613Z" fill="#263238"/>
<path d="M299.522 212.062C299.465 212.176 298.887 211.99 298.165 212.026C297.443 212.062 296.881 212.279 296.819 212.171C296.757 212.062 297.299 211.614 298.15 211.583C299.001 211.552 299.589 211.964 299.522 212.062Z" fill="#263238"/>
<path d="M300.037 209.2C299.607 209.305 299.157 209.294 298.733 209.169C298.262 209.077 297.805 208.928 297.371 208.725C297.114 208.605 296.866 208.467 296.628 208.313C296.483 208.229 296.353 208.123 296.241 207.998C296.16 207.907 296.111 207.791 296.102 207.668C296.094 207.546 296.127 207.424 296.195 207.322C296.261 207.235 296.346 207.164 296.443 207.115C296.54 207.066 296.648 207.04 296.757 207.039C296.923 207.043 297.088 207.069 297.247 207.116C297.994 207.32 298.678 207.707 299.238 208.241C299.831 208.813 300.032 209.272 299.986 209.313C299.939 209.355 299.64 208.952 299.032 208.478C298.678 208.205 298.292 207.978 297.882 207.802C297.64 207.7 297.389 207.619 297.134 207.56C296.86 207.482 296.618 207.477 296.551 207.596C296.484 207.714 296.52 207.663 296.577 207.745C296.663 207.833 296.76 207.909 296.865 207.972C297.085 208.12 297.312 208.256 297.546 208.38C297.948 208.588 298.367 208.761 298.8 208.896C299.219 208.966 299.633 209.068 300.037 209.2Z" fill="#263238"/>
<path d="M241.138 137.772C241.138 137.772 292.863 131.295 295.911 131.295C303.065 131.295 307.557 136.746 308.625 140.955C309.414 144.049 325.335 189.049 325.335 189.049L313.591 195.135L296.319 164.442L287.515 149.129L242.128 156.139L241.138 137.772Z" fill="#263238"/>
<path d="M289.65 147.716C289.65 147.716 296.742 147.716 300.569 153.39C302.817 156.726 302.028 162.673 302.075 167.176C302.136 173.298 300.656 210.597 300.656 210.597L286.158 210.84L283.12 171.967L283.296 164.783L254.367 162.42C254.367 162.42 251.731 153.653 258.214 146.721C259.009 145.834 289.65 147.716 289.65 147.716Z" fill="#263238"/>
<path d="M245.558 125.265C245.558 125.265 234.123 142.863 241.138 156.087C244.48 162.384 254.48 162.379 254.48 162.379L264.739 149.537V128.298L245.558 125.265Z" fill="#263238"/>
<path d="M254.48 162.379C254.543 162.339 254.608 162.305 254.676 162.276L255.254 162.008L257.482 160.976L265.734 157.309L277.953 151.909L285.173 148.727C285.808 148.464 286.416 148.149 287.087 147.922C287.758 147.691 288.448 147.518 289.15 147.407C290.582 147.193 292.036 147.181 293.472 147.371C294.912 147.542 296.317 147.939 297.634 148.547C298.281 148.851 298.881 149.245 299.418 149.717C299.941 150.193 300.385 150.748 300.734 151.363C301.416 152.549 301.83 153.872 301.946 155.236C302.002 155.906 301.946 156.551 301.946 157.196C301.946 157.841 301.946 158.475 301.946 159.104C301.884 164.133 301.832 168.656 301.791 172.462C301.75 176.269 301.693 179.327 301.662 181.467C301.662 182.499 301.626 183.34 301.616 183.917C301.616 184.185 301.616 184.397 301.616 184.552C301.621 184.624 301.621 184.696 301.616 184.768C301.611 184.696 301.611 184.624 301.616 184.552C301.616 184.397 301.616 184.185 301.616 183.917C301.616 183.34 301.616 182.52 301.616 181.467C301.616 179.327 301.616 176.253 301.652 172.462C301.688 168.671 301.708 164.128 301.744 159.104C301.744 158.475 301.744 157.841 301.744 157.196C301.744 156.551 301.775 155.896 301.719 155.257C301.606 153.935 301.203 152.654 300.538 151.507C300.204 150.918 299.779 150.385 299.279 149.929C298.762 149.475 298.181 149.098 297.557 148.81C296.269 148.214 294.896 147.824 293.487 147.654C292.079 147.47 290.652 147.482 289.248 147.69C288.563 147.804 287.89 147.976 287.236 148.206C286.591 148.428 285.967 148.722 285.338 149.006L278.118 152.172L265.879 157.516L257.626 161.095L255.373 162.054L254.785 162.297C254.688 162.34 254.586 162.368 254.48 162.379Z" fill="#455A64"/>
<path d="M294.89 131.295C294.89 131.367 284.033 132.589 270.624 134.023C257.214 135.457 246.337 136.561 246.326 136.488C246.316 136.416 257.183 135.194 270.593 133.76C284.002 132.326 294.88 131.222 294.89 131.295Z" fill="#455A64"/>
<path d="M282.104 105.656C282.945 102.979 285.885 93.1283 285.225 87.9346C284.709 83.8085 280.98 78.4756 279.871 75.6389C279.355 74.3031 275.173 72.926 272.682 72.1885L270.206 69.2641L270 70.6928C269.27 71.5272 268.356 72.1803 267.33 72.6001C266.304 73.02 265.194 73.1951 264.089 73.1117C260.412 72.7816 257.384 71.2807 255.388 69.063C245.836 71.977 245.867 72.6269 244.041 73.3541C241.679 74.2928 248.745 96.9294 248.745 96.9294C248.745 96.9294 251.278 111.149 248.895 115.94C247.554 118.638 246.001 121.717 244.862 124.223C244.862 124.223 241.684 130.278 242.365 130.124C243.794 129.794 253.712 132.187 263.032 132.702C280.263 133.61 283.559 131.057 283.559 131.057C282.656 126.647 281.145 111.19 281.15 108.188C281.14 107.668 281.955 106.12 282.104 105.656Z" fill="#FF725E"/>
<path d="M270.51 69.9708C270.51 69.9708 281.738 72.8642 282.837 74.3599C285.823 78.4189 303.813 106.193 294.983 114.476C289.196 119.901 281.057 108.452 281.057 108.452L270.51 69.9708Z" fill="#FF725E"/>
<path d="M293.905 102.68C293.639 102.657 293.375 102.612 293.116 102.546L290.965 102.103C289.134 101.731 286.571 101.205 283.631 100.782L283.786 100.695L282.904 102.871L280.81 107.982V107.853L284.059 111.752L284.962 112.866C285.074 112.994 285.174 113.133 285.261 113.279C285.261 113.279 286.091 113.661 284.9 112.918L283.935 111.85L280.604 108.018L280.552 107.956L280.583 107.889L282.646 102.763C282.95 102.02 283.249 101.293 283.533 100.591L283.574 100.488H283.693C286.648 100.927 289.206 101.484 291.027 101.907C291.94 102.118 292.662 102.299 293.162 102.422C293.416 102.49 293.664 102.576 293.905 102.68Z" fill="#263238"/>
<path d="M283.105 101.375C283.106 101.069 283.134 100.764 283.188 100.462C283.27 99.8331 283.373 98.9976 283.502 97.9919C283.887 95.2899 283.979 92.5542 283.776 89.8326C283.496 87.1094 282.708 84.4627 281.455 82.0291C280.985 81.0905 280.557 80.3478 280.258 79.8372C280.09 79.5799 279.94 79.311 279.809 79.0326C279.809 79.0326 279.871 79.0945 279.964 79.2183C280.057 79.342 280.191 79.5329 280.356 79.7804C280.686 80.2962 281.14 81.0028 281.64 81.9415C282.961 84.3768 283.785 87.0503 284.064 89.8068C284.271 92.5484 284.15 95.3048 283.703 98.0177C283.554 99.0492 283.404 99.9002 283.301 100.478C283.26 100.782 283.194 101.082 283.105 101.375Z" fill="#263238"/>
<g opacity="0.3">
<path d="M246.326 122.109L267.581 112.309L266.142 108.106L269.412 106.858L274.739 107.554C276.057 107.728 277.397 107.596 278.656 107.169C279.914 106.741 281.057 106.029 281.996 105.089L268.757 101.742L253.655 104.96L249.818 93.835L248.869 97.0946L249.658 104.093L250.174 111.654L246.326 122.109Z" fill="black"/>
</g>
<path d="M244.299 73.2408C242.99 73.8144 241.824 74.6704 240.884 75.7475C239.944 76.8246 239.254 78.0962 238.863 79.4712C238.133 81.0991 237.58 82.8005 237.213 84.5463C235.423 92.4374 231.539 107.24 231.395 111.19C231.116 118.298 236.769 120.314 239.822 120.933C242.876 121.552 264.063 110.587 264.063 110.587L259.659 98.6162L246.708 103.975C246.708 103.975 249.663 94.846 250.519 91.1119C251.375 87.3778 244.299 73.2408 244.299 73.2408Z" fill="#FF725E"/>
<path d="M283.708 99.3741C283.451 98.2018 283.41 96.992 283.59 95.8051C283.739 95.0927 283.765 94.3601 283.667 93.6389C283.533 92.9323 282.873 92.1845 282.156 92.2412L281.073 97.4452L283.708 99.3741Z" fill="#FFBF9D"/>
<path d="M283.208 87.1611L279.397 105.553L270.355 105.006L273.032 86.8104C273.067 86.5785 273.184 86.3669 273.362 86.2144C273.54 86.0619 273.767 85.9787 274.002 85.98H282.254C282.4 85.9798 282.544 86.0122 282.675 86.0749C282.806 86.1376 282.922 86.2289 283.014 86.3422C283.105 86.4555 283.17 86.5879 283.204 86.7296C283.238 86.8713 283.239 87.0187 283.208 87.1611Z" fill="#263238"/>
<path d="M273.043 91.9421C273.104 91.7748 273.151 91.6021 273.182 91.4263C273.259 91.0395 273.362 90.5392 273.486 89.9358L273.914 87.7284C273.914 87.6252 273.95 87.5117 273.976 87.4292C274.01 87.3403 274.065 87.2608 274.136 87.1971C274.207 87.1286 274.297 87.0821 274.394 87.063C274.5 87.0548 274.607 87.0548 274.714 87.063H276.142C278.097 87.063 279.871 87.0321 281.15 87.0115L282.698 86.9702C282.884 86.9767 283.071 86.9628 283.255 86.9289C283.07 86.9059 282.884 86.8955 282.698 86.898H281.15C279.871 86.898 278.097 86.898 276.142 86.898H274.714C274.594 86.8859 274.473 86.8859 274.353 86.898C274.228 86.925 274.113 86.9836 274.017 87.0682C273.925 87.1532 273.854 87.2594 273.811 87.3776C273.781 87.4863 273.757 87.5965 273.739 87.7077C273.594 88.5329 273.465 89.2808 273.352 89.9255L273.11 91.4212C273.073 91.5928 273.051 91.767 273.043 91.9421Z" fill="#455A64"/>
<path d="M277.875 87.9296C277.914 87.8303 277.988 87.7485 278.083 87.6992C278.178 87.6499 278.287 87.6365 278.391 87.6614C278.473 87.6833 278.547 87.7287 278.604 87.7918C278.66 87.855 278.698 87.9333 278.711 88.0172C278.714 88.1088 278.693 88.1997 278.649 88.2803C278.606 88.361 278.541 88.4287 278.463 88.4763C278.382 88.5213 278.29 88.541 278.198 88.5327C278.106 88.5244 278.019 88.4886 277.947 88.4298C277.882 88.3658 277.84 88.2822 277.827 88.1919C277.814 88.1015 277.831 88.0094 277.875 87.9296Z" fill="#FAFAFA"/>
<path d="M278.123 93.4791C278.334 93.5306 283.115 96.0011 283.115 96.0011L285.612 98.6315C285.612 98.6315 286.514 100.179 285.782 102.531C285.049 104.882 283.858 105.744 281.109 106.425L275.915 105.605L273.285 103.449C273.034 103.24 272.85 102.961 272.759 102.648C272.667 102.335 272.67 102.001 272.769 101.69L272.805 101.582L272.506 101.066C272.415 100.913 272.371 100.737 272.379 100.559C272.387 100.381 272.448 100.209 272.553 100.065C272.695 99.8725 272.907 99.7437 273.144 99.707C273.381 99.6703 273.622 99.7286 273.816 99.8693L276.777 102.035L278.814 102.304L279.118 101.638L276.132 100.091L272.336 97.1512C272.216 97.0593 272.117 96.944 272.043 96.8125C271.969 96.6809 271.923 96.5357 271.907 96.3857C271.891 96.2357 271.906 96.0841 271.951 95.94C271.995 95.7958 272.068 95.6622 272.166 95.5472C272.336 95.3465 272.572 95.2125 272.832 95.1691C273.091 95.1257 273.358 95.1756 273.584 95.31L277.112 97.373L280.794 98.9977L280.212 97.5329L275.884 94.33C275.884 94.33 275.513 92.8189 278.123 93.4791Z" fill="#FFBF9D"/>
<path d="M277.69 90.9571C277.69 90.9571 276.694 90.3846 275.039 91.0706C273.383 91.7565 271.268 92.7932 271.268 92.7932L268.096 93.6958L268.473 92.9118C268.473 92.9118 271.604 93.2316 271.454 90.9519L269.566 91.0345L267.947 90.2041L264.754 93.2987L263.553 97.6878L260.04 99.5135L262.8 107.023L267.756 104.274L273.945 104.155L276.22 102.314L276.472 99.9777L278.7 97.7084C278.7 97.7084 278.979 96.5737 277.953 96.4654C276.926 96.3571 274.456 98.8121 274.456 98.8121L271.975 98.8688C271.975 98.8688 271.552 98.482 271.898 98.2602C272.243 98.0385 279.551 94.4488 279.876 93.6442C280.201 92.8396 280.537 92.3136 279.809 92.0969C279.159 91.9994 278.495 92.0632 277.875 92.2826C277.875 92.2826 278.241 91.1325 277.69 90.9571Z" fill="#FFBF9D"/>
<path d="M271.629 95.4441C272.74 94.9852 273.827 94.4688 274.884 93.8969C275.97 93.3909 277.029 92.8279 278.056 92.2103C276.945 92.6597 275.858 93.1676 274.801 93.7318C273.714 94.2448 272.655 94.8164 271.629 95.4441Z" fill="#FF9A6C"/>
<path d="M270.154 101.277C270.272 101.333 270.397 101.373 270.526 101.396C270.768 101.458 271.124 101.551 271.557 101.628C272.079 101.724 272.61 101.76 273.141 101.736C273.796 101.701 274.436 101.525 275.018 101.221C276.051 100.643 276.949 99.8497 277.648 98.8947C277.922 98.5388 278.133 98.2448 278.272 98.0385C278.354 97.9353 278.423 97.8228 278.479 97.7032C278.145 98.0551 277.832 98.4253 277.54 98.8121C276.827 99.7233 275.942 100.486 274.935 101.056C274.376 101.35 273.761 101.525 273.13 101.571C272.614 101.604 272.095 101.581 271.583 101.504C270.706 101.365 270.159 101.247 270.154 101.277Z" fill="#FF9A6C"/>
<path d="M260.04 99.5136L260.262 99.3846L260.933 99.0184L263.511 97.6465L263.48 97.6826L264.656 93.2832L267.833 90.1887L267.885 90.1371L267.947 90.1732L269.572 90.9984H269.52L271.408 90.9107H271.521V91.019C271.551 91.3749 271.481 91.732 271.32 92.0506C271.135 92.3378 270.872 92.5667 270.562 92.7107C269.894 93.0011 269.162 93.1148 268.437 93.0408L268.556 92.9738L268.184 93.7629L268.04 93.5927L271.212 92.6798L274.306 91.2718C275.296 90.756 276.57 90.3021 277.782 90.8385C277.855 90.865 277.921 90.9062 277.977 90.9594C278.033 91.0127 278.077 91.0768 278.107 91.148C278.161 91.2753 278.187 91.4123 278.185 91.5503C278.187 91.8121 278.151 92.0728 278.076 92.3239L277.906 92.1589C278.274 92.0411 278.652 91.9599 279.036 91.9165C279.453 91.8417 279.883 91.9185 280.248 92.1331C280.352 92.2125 280.422 92.3287 280.444 92.458C280.465 92.5722 280.465 92.6893 280.444 92.8036C280.387 92.9987 280.319 93.1899 280.237 93.376L280.124 93.6494C280.1 93.7029 280.073 93.7546 280.041 93.8041C280.006 93.8493 279.968 93.8924 279.928 93.9331C279.777 94.0725 279.617 94.2017 279.448 94.3199C278.137 95.1649 276.784 95.943 275.394 96.6511L273.378 97.6826C273.048 97.858 272.718 98.023 272.388 98.1984C272.238 98.2809 272.016 98.3738 271.996 98.4408C271.975 98.5078 272.052 98.6729 272.161 98.776L272.068 98.7399L274.549 98.6832L274.461 98.7193C275.188 97.995 275.987 97.3453 276.844 96.7801C277.059 96.6425 277.287 96.5267 277.525 96.4345C277.777 96.3323 278.058 96.3195 278.319 96.3984C278.453 96.4391 278.576 96.5121 278.676 96.611C278.775 96.7099 278.849 96.8316 278.891 96.9657C278.956 97.2196 278.956 97.4855 278.891 97.7394V97.7703L276.545 100.055L276.576 99.9881C276.488 100.793 276.4 101.571 276.318 102.33V102.371L276.287 102.397L274.002 104.228H273.976H273.966L267.751 104.326H267.787L264.099 106.332L263.13 106.848L262.882 106.977C262.825 107.008 262.795 107.018 262.795 107.013L262.872 106.961L263.114 106.817L264.063 106.27L267.72 104.207H267.751L273.94 104.063H273.883L276.153 102.216L276.111 102.288C276.194 101.535 276.276 100.757 276.359 99.952V99.9313L276.385 99.9056L278.608 97.6311L278.577 97.6878C278.67 97.27 278.577 96.744 278.143 96.6563C277.918 96.6243 277.688 96.6399 277.468 96.7021C277.249 96.7642 277.045 96.8716 276.87 97.0173C276.03 97.5732 275.249 98.2125 274.538 98.9256L274.502 98.9617H274.482L272.006 99.0288H271.949L271.913 98.9927C271.835 98.9191 271.769 98.8339 271.717 98.7399C271.685 98.6832 271.665 98.6201 271.66 98.5551C271.655 98.4901 271.664 98.4247 271.686 98.3634C271.745 98.2557 271.837 98.1704 271.949 98.121L272.197 97.9921L273.187 97.4763L275.198 96.4448C276.578 95.7398 277.921 94.9651 279.221 94.1239C279.37 94.0072 279.51 93.8796 279.639 93.7422C279.67 93.7139 279.697 93.6829 279.722 93.6494C279.744 93.6179 279.761 93.5831 279.773 93.5462L279.892 93.2729C280.026 92.9325 280.232 92.4993 280 92.3445C279.685 92.1734 279.321 92.1168 278.969 92.1846C278.604 92.2229 278.245 92.299 277.896 92.4116L277.659 92.489L277.726 92.2465C277.791 92.022 277.824 91.7893 277.824 91.5554C277.824 91.3285 277.746 91.1325 277.602 91.0912C277.081 90.8779 276.507 90.8275 275.957 90.9468C275.401 91.0702 274.865 91.268 274.363 91.5348L271.305 92.9273L268.127 93.8299L267.87 93.9021L267.988 93.6597L268.365 92.8758L268.396 92.8036H268.483C269.163 92.8737 269.85 92.7708 270.479 92.5044C270.766 92.3657 271.005 92.1449 271.165 91.87C271.303 91.592 271.364 91.2821 271.341 90.9726L271.459 91.0758L269.572 91.1531H269.541L267.921 90.3124H268.04L264.842 93.407V93.3709C264.362 95.0832 263.95 96.5634 263.615 97.7548V97.7806L260.994 99.1061L260.314 99.4414L260.04 99.5136Z" fill="#FF9A6C"/>
<path d="M246.713 118.865C246.817 118.798 246.925 118.739 247.038 118.689L247.992 118.215L251.602 116.492L264.037 110.613L263.97 110.773C263.166 108.575 262.299 106.198 261.392 103.738C260.762 101.994 260.143 100.297 259.55 98.6574L259.726 98.7347L247.053 104.057H247.028C245.989 104.147 244.967 104.376 243.99 104.738C243.255 105.009 242.584 105.428 242.02 105.971C241.663 106.315 241.379 106.727 241.184 107.183C241.122 107.338 241.086 107.461 241.06 107.544C241.054 107.588 241.042 107.632 241.024 107.673C241.015 107.629 241.015 107.583 241.024 107.539C241.049 107.411 241.084 107.285 241.127 107.162C241.306 106.69 241.58 106.26 241.932 105.899C242.499 105.333 243.177 104.89 243.923 104.599C244.916 104.214 245.957 103.97 247.017 103.872H246.986L259.622 98.482L259.751 98.4304L259.798 98.5594C260.396 100.199 261.015 101.896 261.644 103.634C262.542 106.095 263.403 108.477 264.223 110.675L264.264 110.788L264.156 110.84L251.685 116.626L248.075 118.287L247.1 118.72C246.974 118.776 246.845 118.825 246.713 118.865Z" fill="#263238"/>
<path d="M251.035 86.0058C250.729 85.5154 250.448 85.0093 250.194 84.4895C249.679 83.5457 248.946 82.2717 248.033 80.9205C247.121 79.5692 246.208 78.4139 245.522 77.5886C245.133 77.1619 244.768 76.7143 244.428 76.2477C244.428 76.2477 244.568 76.3405 244.784 76.552C245.001 76.7634 245.3 77.0677 245.666 77.4649C247.545 79.5495 249.126 81.8839 250.365 84.4018C250.597 84.8815 250.777 85.2786 250.88 85.5623C250.954 85.7014 251.006 85.851 251.035 86.0058Z" fill="#263238"/>
<path d="M251.546 88.533C251.525 88.7564 251.476 88.9764 251.401 89.188C251.288 89.6006 251.118 90.2195 250.886 90.9261C250.447 92.396 249.823 94.4178 249.111 96.6407C248.4 98.8636 247.719 100.87 247.208 102.314C246.95 103.031 246.739 103.614 246.579 104.016C246.513 104.229 246.423 104.433 246.311 104.625C246.347 104.405 246.404 104.189 246.481 103.98C246.625 103.521 246.811 102.948 247.028 102.252C247.512 100.741 248.147 98.7553 248.853 96.5788C249.56 94.4023 250.215 92.4012 250.705 90.9055L251.288 89.1931C251.35 88.9647 251.437 88.7434 251.546 88.533Z" fill="#263238"/>
</svg>
