<svg width="207" height="240" viewBox="0 0 207 240" fill="none" xmlns="http://www.w3.org/2000/svg">
<g filter="url(#filter0_d_594_3733)">
<path fill-rule="evenodd" clip-rule="evenodd" d="M87.0339 38.3968C87.0339 29.1798 94.5057 21.708 103.723 21.708C112.94 21.708 120.411 29.1798 120.411 38.3968V38.8615C139.857 45.7345 153.789 64.2797 153.789 86.0789V122.371H154.069C154.069 122.371 154.133 130.708 159.705 130.708C161.804 130.708 164.027 131.56 165.983 132.622C169.941 134.77 171.723 139.266 171.723 143.769C171.723 152.725 164.462 159.986 155.505 159.986H51.5745C42.8198 159.986 35.7227 152.889 35.7227 144.134C35.7227 139.429 37.7274 134.785 41.8891 132.59C43.873 131.543 46.0351 130.708 47.8852 130.708C50.8813 130.708 52.6921 127.666 53.6564 125.257V86.0789C53.6564 64.2797 67.5883 45.7345 87.0339 38.8615V38.3968ZM103.223 190.208C114.544 190.208 123.723 185.619 123.723 179.958C123.723 174.297 114.544 169.708 103.223 169.708C91.9008 169.708 82.7227 174.297 82.7227 179.958C82.7227 185.619 91.9008 190.208 103.223 190.208Z" fill="white"/>
</g>
<g filter="url(#filter1_d_594_3733)">
<circle cx="157.323" cy="162.308" r="17.6" fill="#FF7250"/>
</g>
<path d="M157.231 168.357C160.282 168.357 162.095 165.856 162.095 161.886C162.095 157.916 160.265 155.458 157.231 155.458C154.189 155.458 152.35 157.933 152.35 161.895C152.35 165.874 154.172 168.357 157.231 168.357ZM157.231 166.544C155.547 166.544 154.584 164.825 154.584 161.886C154.584 158.999 155.564 157.271 157.231 157.271C158.89 157.271 159.861 158.99 159.861 161.895C159.861 164.834 158.907 166.544 157.231 166.544Z" fill="white"/>
<path fill-rule="evenodd" clip-rule="evenodd" d="M88.7227 111.22C88.7227 112.017 89.1976 112.735 89.9458 113.01C92.3543 113.895 97.9496 115.708 103.373 115.708C108.782 115.708 114.191 113.905 116.526 113.017C117.26 112.738 117.723 112.028 117.723 111.243C117.723 109.807 116.23 108.808 114.869 109.264C112.121 110.185 107.739 111.362 103.3 111.362C98.8246 111.362 94.3493 110.165 91.5612 109.242C90.2028 108.792 88.7227 109.789 88.7227 111.22Z" fill="#FF7250"/>
<path opacity="0.2" fill-rule="evenodd" clip-rule="evenodd" d="M80.7227 93.7442C80.7227 93.1746 80.945 92.6262 81.3773 92.2554C82.442 91.342 84.6457 89.708 86.7849 89.708C88.9329 89.708 91.081 91.3557 92.1046 92.2667C92.5146 92.6318 92.7227 93.1613 92.7227 93.7103C92.7227 95.6609 90.0729 96.7705 88.2006 96.2233C87.7284 96.0853 87.2424 96.003 86.7546 96.003C86.2398 96.003 85.725 96.0947 85.2252 96.2468C83.3524 96.8168 80.7227 95.7017 80.7227 93.7442Z" fill="#FF7250"/>
<path opacity="0.2" fill-rule="evenodd" clip-rule="evenodd" d="M114.723 93.7442C114.723 93.1746 114.945 92.6262 115.377 92.2554C116.442 91.342 118.646 89.708 120.785 89.708C122.933 89.708 125.081 91.3557 126.105 92.2667C126.515 92.6318 126.723 93.1613 126.723 93.7103C126.723 95.6609 124.073 96.7705 122.201 96.2233C121.728 96.0853 121.242 96.003 120.755 96.003C120.24 96.003 119.725 96.0947 119.225 96.2468C117.352 96.8168 114.723 95.7017 114.723 93.7442Z" fill="#FF7250"/>
<path opacity="0.1" d="M35.2759 59.1525C33.335 48.3835 41.9237 35.6478 51.9798 33" stroke="#FF7250" stroke-width="3" stroke-linecap="round" stroke-linejoin="round"/>
<path opacity="0.1" d="M19.3571 54.8539C16.8447 40.9136 27.9626 24.4275 40.98 21" stroke="#FF7250" stroke-width="3" stroke-linecap="round" stroke-linejoin="round"/>
<defs>
<filter id="filter0_d_594_3733" x="0.722656" y="0.708008" width="206" height="238.5" filterUnits="userSpaceOnUse" color-interpolation-filters="sRGB">
<feFlood flood-opacity="0" result="BackgroundImageFix"/>
<feColorMatrix in="SourceAlpha" type="matrix" values="0 0 0 0 0 0 0 0 0 0 0 0 0 0 0 0 0 0 127 0" result="hardAlpha"/>
<feOffset dy="14"/>
<feGaussianBlur stdDeviation="17.5"/>
<feColorMatrix type="matrix" values="0 0 0 0 0.208044 0 0 0 0 0.283314 0 0 0 0 0.429427 0 0 0 0.057 0"/>
<feBlend mode="normal" in2="BackgroundImageFix" result="effect1_dropShadow_594_3733"/>
<feBlend mode="normal" in="SourceGraphic" in2="effect1_dropShadow_594_3733" result="shape"/>
</filter>
<filter id="filter1_d_594_3733" x="131.723" y="138.708" width="51.2" height="51.2002" filterUnits="userSpaceOnUse" color-interpolation-filters="sRGB">
<feFlood flood-opacity="0" result="BackgroundImageFix"/>
<feColorMatrix in="SourceAlpha" type="matrix" values="0 0 0 0 0 0 0 0 0 0 0 0 0 0 0 0 0 0 127 0" result="hardAlpha"/>
<feOffset dy="2"/>
<feGaussianBlur stdDeviation="4"/>
<feColorMatrix type="matrix" values="0 0 0 0 0.337255 0 0 0 0 0.411765 0 0 0 0 1 0 0 0 0.15 0"/>
<feBlend mode="normal" in2="BackgroundImageFix" result="effect1_dropShadow_594_3733"/>
<feBlend mode="normal" in="SourceGraphic" in2="effect1_dropShadow_594_3733" result="shape"/>
</filter>
</defs>
</svg>
