<svg width="89" height="90" viewBox="0 0 89 90" fill="none" xmlns="http://www.w3.org/2000/svg">
<path d="M11.7201 31.1283C11.7201 32.0488 12.4662 32.795 13.3867 32.795C14.3072 32.795 15.0534 32.0488 15.0534 31.1283H11.7201ZM31.2139 14.4987C32.1344 14.4987 32.8805 13.7525 32.8805 12.832C32.8805 11.9116 32.1344 11.1654 31.2139 11.1654V14.4987ZM15.0534 31.1283V21.2765H11.7201V31.1283H15.0534ZM21.8312 14.4987H31.2139V11.1654H21.8312V14.4987ZM15.0534 21.2765C15.0534 17.5332 18.0879 14.4987 21.8312 14.4987V11.1654C16.247 11.1654 11.7201 15.6923 11.7201 21.2765H15.0534Z" fill="#C4C4C4"/>
<path d="M11.7201 58.3385C11.7201 57.418 12.4662 56.6718 13.3867 56.6718C14.3072 56.6718 15.0534 57.418 15.0534 58.3385H11.7201ZM31.2139 74.9681C32.1344 74.9681 32.8805 75.7143 32.8805 76.6348C32.8805 77.5552 32.1344 78.3014 31.2139 78.3014V74.9681ZM15.0534 58.3385V68.1903H11.7201V58.3385H15.0534ZM21.8312 74.9681H31.2139V78.3014H21.8312V74.9681ZM15.0534 68.1903C15.0534 71.9336 18.0879 74.9681 21.8312 74.9681V78.3014C16.247 78.3014 11.7201 73.7745 11.7201 68.1903H15.0534Z" fill="#C4C4C4"/>
<path d="M78.3854 31.1283C78.3854 32.0488 77.6392 32.795 76.7188 32.795C75.7983 32.795 75.0521 32.0488 75.0521 31.1283H78.3854ZM58.8916 14.4987C57.9711 14.4987 57.2249 13.7525 57.2249 12.832C57.2249 11.9116 57.9711 11.1654 58.8916 11.1654V14.4987ZM75.0521 31.1283V21.2765H78.3854V31.1283H75.0521ZM68.2743 14.4987H58.8916V11.1654H68.2743V14.4987ZM75.0521 21.2765C75.0521 17.5332 72.0176 14.4987 68.2743 14.4987V11.1654C73.8585 11.1654 78.3854 15.6923 78.3854 21.2765H75.0521Z" fill="#C4C4C4"/>
<path d="M78.3854 58.3385C78.3854 57.418 77.6392 56.6718 76.7188 56.6718C75.7983 56.6718 75.0521 57.418 75.0521 58.3385H78.3854ZM58.8916 74.9681C57.9711 74.9681 57.2249 75.7143 57.2249 76.6348C57.2249 77.5552 57.9711 78.3014 58.8916 78.3014V74.9681ZM75.0521 58.3385V68.1903H78.3854V58.3385H75.0521ZM68.2743 74.9681H58.8916V78.3014H68.2743V74.9681ZM75.0521 68.1903C75.0521 71.9336 72.0176 74.9681 68.2743 74.9681V78.3014C73.8585 78.3014 78.3854 73.7745 78.3854 68.1903H75.0521Z" fill="#C4C4C4"/>
<path d="M56.288 59.6871C57.1291 59.3132 57.508 58.3283 57.1341 57.4872C56.7603 56.646 55.7754 56.2672 54.9342 56.641L56.288 59.6871ZM35.1769 56.641C34.3358 56.2672 33.3508 56.646 32.977 57.4872C32.6031 58.3283 32.982 59.3132 33.8231 59.6871L35.1769 56.641ZM54.2012 58.7907L54.8781 60.3137L54.2012 58.7907ZM33.8231 59.6871L35.233 60.3137L36.5868 57.2677L35.1769 56.641L33.8231 59.6871ZM54.8781 60.3137L56.288 59.6871L54.9342 56.641L53.5243 57.2677L54.8781 60.3137ZM35.233 60.3137C41.4865 63.093 48.6246 63.093 54.8781 60.3137L53.5243 57.2677C48.1327 59.6639 41.9784 59.6639 36.5868 57.2677L35.233 60.3137Z" fill="#C4C4C4"/>
<path d="M48.115 34.707C48.115 33.7866 47.3688 33.0404 46.4484 33.0404C45.5279 33.0404 44.7817 33.7866 44.7817 34.707H48.115ZM41.6581 48.6322C40.7576 48.8232 40.1825 49.708 40.3735 50.6084C40.5645 51.5089 41.4493 52.084 42.3497 51.893L41.6581 48.6322ZM43.474 49.9507L43.8199 51.5811L43.474 49.9507ZM44.7817 34.707V46.2793H48.115V34.707H44.7817ZM43.1282 48.3203L41.6581 48.6322L42.3497 51.893L43.8199 51.5811L43.1282 48.3203ZM44.7817 46.2793C44.7817 47.2648 44.0922 48.1159 43.1282 48.3203L43.8199 51.5811C46.324 51.05 48.115 48.8392 48.115 46.2793H44.7817Z" fill="#C4C4C4"/>
<path d="M33.3503 34.707C33.3503 33.7866 32.6041 33.0404 31.6836 33.0404C30.7631 33.0404 30.0169 33.7866 30.0169 34.707L33.3503 34.707ZM30.0169 40.2626C30.0169 41.1831 30.7631 41.9293 31.6836 41.9293C32.6041 41.9293 33.3503 41.1831 33.3503 40.2626L30.0169 40.2626ZM30.0169 34.707L30.0169 40.2626L33.3503 40.2626L33.3503 34.707L30.0169 34.707Z" fill="#C4C4C4"/>
<path d="M60.5612 34.707C60.5612 33.7866 59.815 33.0404 58.8945 33.0404C57.9741 33.0404 57.2279 33.7866 57.2279 34.707L60.5612 34.707ZM57.2279 40.2626C57.2279 41.1831 57.9741 41.9293 58.8945 41.9293C59.815 41.9293 60.5612 41.1831 60.5612 40.2626L57.2279 40.2626ZM57.2279 34.707L57.2279 40.2626L60.5612 40.2626L60.5612 34.707L57.2279 34.707Z" fill="#C4C4C4"/>
</svg>
