<svg width="309" height="240" viewBox="0 0 309 240" fill="none" xmlns="http://www.w3.org/2000/svg">
<g clip-path="url(#clip0_727_8430)">
<path d="M40.6367 236.452H1.28778C0.576561 236.452 0 237.028 0 237.739V238.362C0 239.073 0.576561 239.65 1.28778 239.65H40.6367C41.348 239.65 41.9245 239.073 41.9245 238.362V237.739C41.9245 237.028 41.348 236.452 40.6367 236.452Z" fill="#ADBEC4"/>
<path d="M301.914 236.452H262.565C261.854 236.452 261.277 237.028 261.277 237.739V238.362C261.277 239.073 261.854 239.65 262.565 239.65H301.914C302.625 239.65 303.202 239.073 303.202 238.362V237.739C303.202 237.028 302.625 236.452 301.914 236.452Z" fill="#ADBEC4"/>
<path d="M95.5105 236.452H56.1616C55.4503 236.452 54.8738 237.028 54.8738 237.739V238.362C54.8738 239.073 55.4503 239.65 56.1616 239.65H95.5105C96.2218 239.65 96.7983 239.073 96.7983 238.362V237.739C96.7983 237.028 96.2218 236.452 95.5105 236.452Z" fill="#ADBEC4"/>
<path d="M169.844 236.452H106.17C105.459 236.452 104.883 237.028 104.883 237.739V238.362C104.883 239.073 105.459 239.65 106.17 239.65H169.844C170.555 239.65 171.132 239.073 171.132 238.362V237.739C171.132 237.028 170.555 236.452 169.844 236.452Z" fill="#ADBEC4"/>
<path d="M241.459 236.452H179.932C179.221 236.452 178.644 237.028 178.644 237.739V238.362C178.644 239.073 179.221 239.65 179.932 239.65H241.459C242.171 239.65 242.747 239.073 242.747 238.362V237.739C242.747 237.028 242.171 236.452 241.459 236.452Z" fill="#ADBEC4"/>
<path d="M18.9591 187.73C18.9591 187.73 29.6906 216.348 30.3345 225.362C30.3345 225.362 33.0532 227.509 37.632 225.648C37.632 225.648 37.7751 198.247 33.2678 189.805C28.7606 181.363 18.9591 187.73 18.9591 187.73Z" fill="#FF8B66"/>
<path d="M16.5979 238.026H39.2057C39.787 235.814 39.6107 233.472 38.7049 231.372C38.7049 231.372 39.7065 227.509 39.3488 226.221C38.9911 224.933 34.3407 223.359 33.0529 224.647C32.7255 225.028 32.4802 225.472 32.3325 225.952C32.1847 226.432 32.1377 226.938 32.1944 227.437C31.5505 223.86 29.905 223.574 28.3311 225.005C26.7571 226.435 28.6888 225.72 28.4026 228.081C28.3311 228.224 28.3311 228.367 28.2595 228.51C27.9426 229.184 27.4153 229.736 26.7571 230.084L26.1848 230.442L24.9685 230.871C24.272 231.096 23.5518 231.24 22.8222 231.3C19.7458 231.587 18.4581 231.801 17.0272 233.375C15.5963 234.949 16.5264 236.237 16.5264 236.237L16.5979 238.026Z" fill="#CFD8DC"/>
<path d="M28.2596 228.51C28.1126 228.862 27.8932 229.179 27.6157 229.44C28.1408 229.199 28.729 229.132 29.295 229.247C29.861 229.363 30.3754 229.656 30.7636 230.084L31.336 229.369C31.0361 228.853 30.5468 228.475 29.9722 228.314C29.3977 228.154 28.7832 228.224 28.2596 228.51Z" fill="#ADBEC4"/>
<path d="M28.6888 231.73L29.4757 231.229C29.3727 230.782 29.142 230.375 28.8117 230.058C28.4814 229.74 28.0658 229.526 27.6156 229.44C27.3751 229.71 27.0832 229.929 26.7571 230.084C27.1937 230.168 27.6011 230.364 27.9396 230.652C28.2781 230.941 28.5362 231.312 28.6888 231.73Z" fill="#ADBEC4"/>
<path d="M26.5427 232.588L27.3297 232.159C27.2866 231.803 27.1606 231.462 26.9618 231.164C26.7629 230.866 26.4969 230.619 26.185 230.442L24.9688 230.871C25.3447 231.018 25.6819 231.25 25.9547 231.547C26.2275 231.845 26.4287 232.201 26.5427 232.588Z" fill="#ADBEC4"/>
<path d="M65.1761 232.588C65.864 232.077 66.4266 231.417 66.8216 230.656C67.0726 228.829 67.0726 226.975 66.8216 225.148C66.3924 222.357 67.6086 220.068 71.6151 219.209C75.6215 218.351 77.7678 220.211 76.8377 228.009C77.4101 231.229 77.5532 234.878 76.1938 238.025H64.3176C64.3176 238.025 62.4575 233.947 65.1761 232.588Z" fill="#CFD8DC"/>
<path d="M54.7307 190.735C54.9732 196.222 56.4659 201.581 59.0949 206.403C63.5306 214.488 69.0394 225.577 69.0394 225.577C69.0394 225.577 72.6882 229.154 75.0491 223.287C75.0491 223.287 73.4036 202.611 69.6118 195.099C65.82 187.587 54.7307 190.735 54.7307 190.735Z" fill="#FF8B66"/>
<path d="M74.1908 226.364C74.1908 226.364 75.264 224.074 74.2623 223.144C73.2607 222.214 72.1876 223.931 70.4705 223.574C68.7535 223.216 68.3958 222 67.9665 223.574C67.5373 225.148 68.1096 230.299 74.1908 226.364Z" fill="#CFD8DC"/>
<path d="M67.8948 226.221C67.8948 226.221 72.402 227.866 74.6914 226.221L74.1191 228.224C74.1191 228.224 69.2541 228.725 68.5387 227.509L67.8948 226.221Z" fill="#ADBEC4"/>
<path d="M67.9663 228.653C67.9663 228.653 72.0443 228.081 74.0475 229.083V230.084C74.0475 230.084 68.6818 228.796 66.9647 230.084L67.9663 228.653Z" fill="#ADBEC4"/>
<path d="M74.2622 232.087C73.9344 231.476 73.4507 230.962 72.8602 230.597C72.2697 230.233 71.5933 230.031 70.8997 230.013C69.4169 229.922 67.9491 230.352 66.7501 231.229C67.9818 230.773 69.3036 230.612 70.6086 230.762C71.9136 230.911 73.1652 231.365 74.2622 232.087Z" fill="#ADBEC4"/>
<path d="M73.1174 188.66C72.7416 189.467 72.2862 190.234 71.7581 190.95L71.4004 191.379C68.8964 194.455 63.4591 198.533 53.5145 194.527L52.9422 193.025L52.7275 192.524C51.942 190.606 51.3431 188.618 50.9389 186.586C48.3634 172.134 47.3618 161.689 46.0024 155.75C42.2106 164.98 33.6254 182.865 33.2677 183.581C32.91 184.296 34.6985 190.735 34.6985 190.735C27.5442 193.025 17.2419 190.091 17.2419 190.091C17.2419 190.091 14.1655 181.005 13.6647 174.495C13.307 169.558 25.8271 141.728 31.6937 128.993L32.123 127.992L34.6985 122.554L44.7146 125.988L69.0394 136.934C69.0394 136.934 69.4687 137.435 69.8264 142.443C69.8432 142.564 69.8671 142.683 69.898 142.801C70.1126 145.806 70.3272 150.313 70.4703 156.967V157.396C70.4703 158.827 70.4703 160.401 70.5419 162.118V176.283C70.5419 177.857 70.4703 179.503 70.4703 181.22C70.4703 182.937 71.6866 185.727 72.4735 187.373L72.6882 187.802C72.7936 188.105 72.9379 188.394 73.1174 188.66Z" fill="#0C476B"/>
<path d="M71.7583 190.95L71.4005 191.379C70.2558 189.519 68.5388 186.299 68.1811 184.082C67.8234 181.864 67.3226 168.485 68.1811 155.393C69.0396 142.3 66.1779 130.281 66.1779 130.138L66.6787 129.995C66.6787 130.138 69.5404 142.658 68.6819 155.464C67.8234 168.27 68.1095 180.862 68.6819 184.01C69.0396 186.013 70.6851 189.018 71.7583 190.95Z" fill="#0E3944"/>
<path d="M67.9664 141.084C65.7633 140.344 63.7464 139.136 62.0545 137.543C60.3626 135.95 59.0356 134.009 58.1649 131.855L58.7373 131.64C58.7373 131.712 60.6689 137.864 68.181 140.583L67.9664 141.084Z" fill="#0E3944"/>
<path d="M39.2775 126.847C38.9105 126.976 38.5202 127.025 38.1328 126.99C36.6304 127.061 33.9117 127.276 31.6938 128.993L32.1231 127.991C33.9721 127.004 36.0364 126.488 38.1328 126.489L38.9913 126.346L39.2775 126.847Z" fill="#0E3944"/>
<path d="M45.7877 155.893C40.1357 144.59 47.4332 129.422 47.5047 129.279L48.0055 129.565C47.934 129.709 40.7081 144.59 46.2169 155.607L45.7877 155.893Z" fill="#0E3944"/>
<path d="M44.6432 144.876C44.3509 144.878 44.0603 144.83 43.7847 144.733L43.9278 144.232C44.2626 144.331 44.6149 144.356 44.9605 144.307C45.3062 144.258 45.6372 144.134 45.931 143.946C46.7895 143.445 47.2903 142.372 47.5049 140.798C48.0057 136.004 51.6545 130.138 51.8691 129.923L52.2984 130.209C52.2268 130.209 48.5781 136.219 48.0057 140.869C47.7911 142.586 47.2188 143.803 46.2172 144.446C45.7508 144.752 45.2 144.902 44.6432 144.876Z" fill="#0E3944"/>
<path d="M17.4566 20.6761C17.4566 20.6761 18.3152 18.6013 22.0354 18.6013C25.7557 18.6013 26.0419 20.1753 26.0419 20.1753C27.7589 25.2549 29.619 44.5001 30.2629 45.2155L52.0837 61.9567C40.4937 62.1714 40.0644 81.4166 40.0644 81.4166C39.6351 76.6947 23.5378 64.89 19.3883 57.1633C15.2388 49.4366 13.7364 32.3377 17.4566 20.6761Z" fill="#F2A668"/>
<path d="M86.8539 89.4294C85.1368 108.818 78.1255 127.634 75.6931 135.432C75.1923 137.077 74.8345 138.079 74.8345 138.079C74.8345 138.079 36.7734 133.143 32.2661 122.84L32.4807 122.053C33.5539 117.331 39.2058 98.3724 39.8497 82.919C40.5652 65.677 46.3602 59.5242 49.8658 60.3112C49.8658 60.3112 57.7356 66.5355 62.7437 66.5355C67.7517 66.5355 79.8426 61.0266 79.8426 61.0266C79.8426 61.0266 89.0002 65.82 86.8539 89.4294Z" fill="#FFB878"/>
<path d="M62.8152 59.4527C64.0796 59.4527 65.1045 58.4277 65.1045 57.1633C65.1045 55.8989 64.0796 54.8739 62.8152 54.8739C61.5508 54.8739 60.5258 55.8989 60.5258 57.1633C60.5258 58.4277 61.5508 59.4527 62.8152 59.4527Z" fill="#F24052"/>
<path d="M109.891 22.0355C109.891 22.0355 109.032 19.9607 105.241 19.9607C101.449 19.9607 101.306 21.6062 101.306 21.6062C99.5887 26.6142 97.7286 45.8595 97.0847 46.5749C96.4408 47.2903 75.2639 63.3161 75.2639 63.3161C74.7631 76.7663 87.2832 82.776 87.2832 82.776C87.6409 78.0541 103.81 66.2494 107.888 58.5227C111.966 50.796 113.611 33.7686 109.891 22.0355Z" fill="#F2A668"/>
<path d="M58.0216 66.2494C58.0216 66.2494 55.9469 67.1079 55.5176 67.9664C55.0884 68.8249 56.6623 72.6167 59.7387 72.9029C62.8151 73.1891 68.6816 69.6835 68.3955 68.4672C68.1093 67.251 63.8167 65.8916 58.0216 66.2494Z" fill="#F2A668"/>
<path d="M57.6641 61.9568C57.6641 61.9568 58.8804 66.6787 57.0918 68.5388C57.0918 68.5388 59.9535 73.1891 66.3925 68.4673C66.3925 68.4673 65.1762 65.3909 66.3925 63.3877L57.6641 61.9568Z" fill="#EF6E4B"/>
<path d="M75.9791 49.0788C75.9716 48.5327 75.775 48.006 75.4228 47.5886C75.0705 47.1711 74.5845 46.8887 74.0474 46.7894C74.4931 46.3565 74.7502 45.7652 74.7628 45.1439C74.7628 44.5367 74.5216 43.9544 74.0923 43.5251C73.6629 43.0957 73.0806 42.8545 72.4734 42.8545C72.7222 42.4723 72.8471 42.0226 72.8311 41.5668C72.8407 41.2601 72.7886 40.9547 72.6778 40.6686C72.5671 40.3826 72.4 40.1217 72.1864 39.9015C71.9729 39.6812 71.7172 39.5062 71.4347 39.3867C71.1522 39.2672 70.8485 39.2057 70.5417 39.2058C70.2773 39.202 70.0147 39.2507 69.7691 39.3489C69.5235 39.4471 69.2998 39.593 69.1109 39.7782C69.1109 39.152 68.8621 38.5515 68.4194 38.1087C67.9766 37.666 67.3761 37.4172 66.7499 37.4172C66.3648 37.425 65.9875 37.5268 65.6508 37.7139C65.3141 37.9009 65.0283 38.1675 64.8183 38.4904C64.6654 38.0254 64.3675 37.6217 63.9684 37.3384C63.5692 37.0551 63.0898 36.9072 62.6004 36.9164C62.1951 36.9128 61.796 37.0169 61.4441 37.218C61.0921 37.4191 60.7998 37.7101 60.5972 38.0611C60.1671 37.6641 59.6083 37.4355 59.0232 37.4172C58.44 37.4161 57.8784 37.6375 57.4529 38.0364C57.0275 38.4353 56.7703 38.9815 56.7338 39.5635C56.3449 39.3298 55.8998 39.2062 55.446 39.2058C55.1393 39.2057 54.8356 39.2672 54.5531 39.3867C54.2706 39.5062 54.0149 39.6812 53.8014 39.9015C53.5878 40.1217 53.4207 40.3826 53.3099 40.6686C53.1992 40.9547 53.1471 41.2601 53.1566 41.5668C53.1451 41.7369 53.1695 41.9075 53.2282 42.0676H53.1566C52.5305 42.0676 51.93 42.3163 51.4872 42.7591C51.0445 43.2018 50.7957 43.8023 50.7957 44.4285C50.826 45.0109 51.053 45.5658 51.4396 46.0025C50.9157 46.1162 50.4461 46.4048 50.108 46.8209C49.7699 47.237 49.5835 47.7557 49.5795 48.2918C49.5853 48.768 49.7308 49.232 49.9979 49.6262C50.2649 50.0205 50.6419 50.3277 51.0819 50.5097C50.7819 50.7155 50.5392 50.9942 50.3765 51.3196C50.2138 51.645 50.1365 52.0064 50.1518 52.3698C50.1474 52.9305 50.349 53.4734 50.7182 53.8954C51.0874 54.3173 51.5987 54.5892 52.155 54.6592C52.4779 55.8713 53.2438 56.918 54.3013 57.5925C55.303 58.5226 63.8882 59.5242 68.0377 59.1665C68.3631 59.4838 68.7732 59.7005 69.2187 59.7904C69.6643 59.8804 70.1263 59.8399 70.5494 59.6737C70.9724 59.5075 71.3385 59.2227 71.6037 58.8535C71.8688 58.4844 72.0218 58.0465 72.0442 57.5925C72.6134 57.5389 73.142 57.2742 73.526 56.8506C73.9099 56.4269 74.1214 55.8749 74.1189 55.3031C74.1189 55.0885 74.0474 54.8739 74.0474 54.7308C74.4497 54.533 74.7896 54.2279 75.0295 53.8492C75.2694 53.4704 75.3999 53.0327 75.4067 52.5845C75.4304 52.0391 75.252 51.5042 74.9059 51.082C75.2389 50.8654 75.5118 50.5682 75.6994 50.218C75.8869 49.8679 75.9831 49.4761 75.9791 49.0788Z" fill="#F24052"/>
<path d="M70.3272 53.4431C70.3272 53.4431 72.7597 51.0106 73.1174 53.8723C73.4751 56.7341 70.4703 58.4511 69.898 57.4495C69.3256 56.4479 70.3272 53.4431 70.3272 53.4431Z" fill="#FF8B66"/>
<path d="M53.3713 53.5861C53.3713 53.5861 50.9388 51.2252 50.5811 54.0154C50.2234 56.8056 53.2282 58.6657 53.8006 57.5926C54.3729 56.5194 53.3713 53.5861 53.3713 53.5861Z" fill="#FF8B66"/>
<path d="M62.0997 65.3192C67.4655 65.3192 70.5418 61.8136 70.5418 51.2251C70.5418 45.7878 67.7516 42.4968 61.742 42.4968C55.7323 42.4968 53.1567 45.7878 53.1567 51.2251C53.1567 62.6006 56.5193 65.3192 62.0997 65.3192Z" fill="#FF8B66"/>
<path d="M54.9454 55.017C54.8023 55.5893 55.3031 56.0901 56.0185 56.2332C56.734 56.3763 57.3063 56.0186 57.3779 55.4462C57.3875 55.2958 57.3675 55.145 57.3187 55.0024C57.27 54.8598 57.1936 54.7282 57.0939 54.6152C56.9942 54.5022 56.8731 54.41 56.7377 54.3439C56.6023 54.2778 56.4551 54.2391 56.3047 54.23C56.0217 54.1793 55.7298 54.2305 55.481 54.3746C55.2321 54.5187 55.0424 54.7463 54.9454 55.017Z" fill="#DB614D"/>
<path d="M66.0346 55.3032C66.0514 55.4519 66.099 55.5954 66.1744 55.7245C66.2499 55.8537 66.3515 55.9656 66.4727 56.0532C66.594 56.1408 66.7322 56.2021 66.8785 56.2331C67.0249 56.2641 67.1761 56.2642 67.3224 56.2333C68.0379 56.1618 68.5387 55.7325 68.5387 55.1602C68.47 54.8629 68.2922 54.6023 68.0404 54.43C67.7886 54.2577 67.4813 54.1864 67.1793 54.2301C66.5354 54.3016 65.9631 54.8024 66.0346 55.3032Z" fill="#DB614D"/>
<path d="M57.3063 49.3651H57.5209C58.162 48.9699 58.9235 48.8176 59.6672 48.9358C59.8103 49.0074 59.9534 48.8643 59.9534 48.7212C59.9534 48.5781 59.9534 48.435 59.7387 48.435C58.8479 48.2836 57.9324 48.4617 57.1632 48.9358C57.0916 49.0074 57.0201 49.222 57.1632 49.2936C57.1772 49.3184 57.1983 49.3384 57.2238 49.3512C57.2493 49.3639 57.278 49.3688 57.3063 49.3651Z" fill="#F24052"/>
<path d="M67.6086 49.365H67.8233C67.8948 49.2219 67.8948 49.0789 67.7517 49.0073C67.0045 48.4769 66.0851 48.247 65.1762 48.3634C65.1075 48.3931 65.0498 48.4436 65.0113 48.5078C64.9728 48.5719 64.9554 48.6466 64.9615 48.7211C64.9615 48.8642 65.1046 48.9358 65.2477 48.9358C66.001 48.8174 66.7709 48.997 67.394 49.4366L67.6086 49.365Z" fill="#F24052"/>
<path d="M57.8788 52.3699C57.8788 53.0854 58.165 53.5862 58.5227 53.5862C58.8804 53.5862 59.2381 53.0854 59.2381 52.3699C59.2381 51.6545 58.8804 51.2252 58.5227 51.2252C58.165 51.2252 57.8788 51.726 57.8788 52.3699Z" fill="#1A4850"/>
<path d="M65.0331 52.3699C65.0331 53.0854 65.3908 53.5862 65.7485 53.5862C66.1062 53.5862 66.3924 53.0854 66.3924 52.3699C66.3924 51.6545 66.1062 51.2252 65.7485 51.2252C65.3908 51.2252 65.0331 51.726 65.0331 52.3699Z" fill="#1A4850"/>
<path d="M68.1095 45.0725L56.1617 44.2139C56.1617 44.2139 53.1569 47.3619 53.3715 55.0886C53.3715 55.0886 48.5066 41.1376 62.6006 41.1376C76.6947 41.1376 70.3273 54.7309 70.3273 54.7309C70.3273 54.7309 70.7566 47.648 68.1095 45.0725Z" fill="#F24052"/>
<path d="M61.7422 56.0186L62.1714 55.5894L61.0983 54.5162C62.0999 53.0854 62.0999 49.7228 62.0999 49.5082H61.5275C61.5275 49.5797 61.5275 53.2284 60.5259 54.3731L60.3113 54.5878L61.7422 56.0186Z" fill="#DB614D"/>
<path d="M65.3193 57.7357C65.3193 57.7357 60.025 58.0218 57.3779 57.3064C57.3032 57.8192 57.3431 58.3422 57.4948 58.8378C57.6465 59.3333 57.9061 59.7891 58.2551 60.1723C58.604 60.5554 59.0336 60.8564 59.5128 61.0537C59.9921 61.2509 60.5091 61.3394 61.0267 61.3128C65.3193 61.5275 65.3193 57.7357 65.3193 57.7357Z" fill="#1A4850"/>
<path d="M22.393 18.1005C22.393 18.1005 18.3866 18.3152 18.4581 19.603C18.5296 20.8908 18.4581 22.3932 21.8206 22.2501C25.1832 22.107 25.1832 20.7477 25.1832 19.4599C25.1832 18.1721 23.5377 18.029 22.393 18.1005Z" fill="#FFB878"/>
<path d="M106.314 18.8159C106.314 18.8159 102.307 18.8159 102.236 20.1037C102.164 21.3915 102.093 22.8939 105.455 22.8939C108.818 22.8939 108.889 21.6061 109.032 20.3899C109.175 19.1736 107.387 18.8159 106.314 18.8159Z" fill="#FFB878"/>
<path d="M16.0974 10.0876C16.7142 11.1132 17.2408 12.1904 17.6713 13.3071C18.029 15.4534 18.2437 16.5981 19.0306 17.5997C19.8176 18.6013 19.3884 20.3184 19.3884 20.3184C19.3884 20.3184 22.2501 21.7492 24.6826 19.9606C24.5718 19.2255 24.5718 18.4779 24.6826 17.7428C25.1834 16.8127 26.8289 16.2404 27.3297 14.3087C27.8664 12.8264 28.6133 11.429 29.5475 10.1592C29.5475 10.1592 29.0467 9.15757 28.1882 9.72992C27.3297 10.3023 26.8289 11.9478 26.3281 12.0909H26.0419C25.8694 12.1301 25.6904 12.1312 25.5174 12.0941C25.3444 12.0571 25.1816 11.9827 25.0403 11.8762C24.2533 10.9462 24.0387 8.29905 24.1102 7.08281C24.1818 5.86657 24.0387 3.14791 23.0371 3.50563C22.0355 3.86335 22.9655 4.86496 22.1786 8.51368H21.8208C21.7493 8.72831 21.0339 6.22428 20.8908 3.93489C20.7477 1.64549 19.6745 2.86173 19.4599 3.43408C19.2453 4.00643 19.603 5.50884 19.6745 6.65354C19.6762 7.34753 19.724 8.04065 19.8176 8.7283L19.3884 9.01448C17.7429 6.22428 18.3152 5.07959 17.3851 5.00804C16.4551 4.9365 16.7413 7.36898 17.2421 8.2275C17.5092 8.8772 17.7245 9.54703 17.886 10.2307C16.2404 8.29904 16.3835 7.36898 15.6681 7.44052C14.9527 7.51207 15.525 9.44374 16.0974 10.0876Z" fill="#FF8B66"/>
<path d="M23.2515 14.5233C23.7524 12.9494 25.7556 12.2339 26.0417 12.1624C25.8692 12.2016 25.6902 12.2027 25.5172 12.1657C25.3443 12.1286 25.1814 12.0542 25.0401 11.9478C24.5125 12.1398 24.0574 12.4905 23.7371 12.9517C23.4168 13.4129 23.2472 13.9619 23.2515 14.5233Z" fill="#EF6E4B"/>
<path d="M111.322 10.66C110.711 11.6531 110.207 12.7083 109.819 13.8079C109.39 15.9542 109.175 17.1704 108.388 18.1005C107.601 19.0305 108.102 20.8191 108.102 20.8191C108.102 20.8191 105.169 22.3216 102.737 20.4614C102.737 20.4614 103.023 18.7444 102.737 18.2436C102.45 17.7428 100.662 16.8127 100.089 14.8095C99.5647 13.3357 98.8427 11.9398 97.9431 10.66C97.9808 10.5316 98.0505 10.415 98.1458 10.3211C98.2411 10.2272 98.3587 10.1591 98.4876 10.1233C98.6165 10.0875 98.7524 10.0851 98.8824 10.1164C99.0125 10.1478 99.1324 10.2117 99.2309 10.3022C100.089 10.9461 100.662 12.4485 101.091 12.6632H101.449C101.784 12.6931 102.118 12.5904 102.379 12.377H102.45C103.237 11.4469 103.38 8.72828 103.38 7.58358C103.38 6.43888 103.38 3.57714 104.382 3.93486C105.384 4.29258 104.454 5.29419 105.241 8.94291H105.67C105.741 9.22908 106.457 6.72506 106.6 4.36412C106.743 2.00318 107.745 3.36251 108.031 3.86332C108.317 4.36412 107.888 5.93808 107.816 7.15432C107.745 8.37056 107.673 8.72827 107.673 9.15754L108.102 9.44371C109.676 6.65351 109.175 5.50882 110.106 5.43727C111.036 5.36573 110.678 7.72667 110.177 8.65673C109.894 9.26971 109.702 9.92032 109.605 10.5884C111.25 8.72827 111.036 7.72667 111.823 7.86975C112.61 8.01284 111.894 10.0161 111.322 10.66Z" fill="#FF8B66"/>
<path d="M104.239 15.0242C103.666 13.5218 101.663 12.8063 101.449 12.7348C101.784 12.7647 102.118 12.662 102.379 12.4486C102.908 12.6461 103.368 12.9962 103.699 13.4546C104.03 13.9129 104.218 14.4591 104.239 15.0242Z" fill="#EF6E4B"/>
<path d="M75.6931 135.432C75.1923 137.078 74.8345 138.079 74.8345 138.079C74.8345 138.079 36.7734 133.143 32.2661 122.84L32.4807 122.053C34.8417 126.06 64.0315 135.79 75.6931 135.432Z" fill="#F2A668"/>
<path d="M214.845 238.025H233.375C234.663 230.656 232.588 223.287 232.588 223.287L224.146 221.785C223.359 226.435 222.429 228.295 221.141 229.226C220.211 229.941 219.066 230.156 217.707 230.656C217.06 230.851 216.466 231.19 215.97 231.649C215.474 232.108 215.089 232.674 214.845 233.304C213.987 235.45 214.845 238.025 214.845 238.025Z" fill="#0E3944"/>
<path d="M214.845 233.304C219.424 233.876 229.44 234.806 228.796 232.23C228.152 229.655 224.074 229.369 221.141 229.226C220.211 229.941 219.066 230.156 217.707 230.656C217.06 230.851 216.466 231.19 215.97 231.649C215.474 232.108 215.089 232.674 214.845 233.304Z" fill="#205260"/>
<path d="M276.874 238.025H295.403C295.787 236.874 295.909 235.652 295.761 234.448C295.67 233.576 295.323 232.75 294.762 232.075C294.202 231.4 293.454 230.906 292.613 230.656C290.968 230.084 289.752 229.869 288.75 228.939C287.748 228.009 286.818 226.006 286.174 221.785L277.661 223.287C277.661 223.287 275.586 230.656 276.874 238.025Z" fill="#0E3944"/>
<path d="M295.761 234.448C295.67 233.576 295.322 232.75 294.762 232.075C294.202 231.4 293.454 230.906 292.613 230.656C290.967 230.084 289.751 229.87 288.75 228.939C286.389 229.655 283.098 230.943 282.096 233.017C281.094 235.092 291.54 235.307 295.761 234.448Z" fill="#205260"/>
<path d="M287.462 223.073C287.462 223.073 286.031 227.652 276.802 224.504C276.802 224.504 270.005 172.992 268.932 171.848C267.859 170.703 256.984 137.149 256.984 137.149H253.55C253.55 137.149 242.676 170.775 241.674 171.848C240.672 172.921 233.733 224.504 233.733 224.504C224.503 227.652 223.073 223.073 223.073 223.073L227.508 167.555L236.809 110.32L255.267 112.395L273.797 110.32L276.229 125.273V125.845L282.955 167.555L287.462 223.073Z" fill="#8B383E"/>
<path d="M276.301 125.845C274.425 125.356 272.693 124.426 271.249 123.131C269.806 121.837 268.692 120.216 268.002 118.405L268.503 118.261C269.153 119.953 270.191 121.468 271.533 122.686C272.875 123.903 274.483 124.789 276.23 125.273L276.301 125.845Z" fill="#662C33"/>
<path d="M256.555 132.069C256.311 132.31 256.019 132.497 255.699 132.62C255.379 132.743 255.038 132.799 254.695 132.785C254.695 134.216 254.695 135.647 254.624 137.149H254.051C254.24 133.068 254.121 128.978 253.693 124.915H254.194C254.194 124.987 254.624 128.206 254.695 132.356C254.976 132.356 255.254 132.299 255.512 132.188C255.771 132.077 256.004 131.915 256.198 131.712C257.915 129.852 256.913 124.486 256.913 124.414H257.414C257.485 124.486 258.487 129.995 256.555 132.069Z" fill="#662C33"/>
<path d="M306.421 9.65844C305.353 10.1234 304.324 10.6737 303.345 11.3039C301.699 12.7348 300.841 13.5218 299.624 13.8795C298.408 14.2372 298.337 16.3835 298.337 16.3835C298.337 16.3835 293.829 18.3152 292.971 15.3819C292.971 15.3819 294.902 11.1609 295.046 10.5885C295.189 10.0162 294.259 8.15603 294.974 6.22435C295.441 4.74273 295.683 3.19911 295.689 1.64556C295.689 1.64556 296.691 1.07322 297.049 2.07483C297.407 3.07644 296.834 4.72194 297.12 5.07966L297.263 5.36583H297.335C297.442 5.48604 297.575 5.5806 297.723 5.64252C297.872 5.70445 298.033 5.73214 298.194 5.72355H298.265C299.481 5.43737 301.198 3.43415 301.914 2.43254C302.629 1.43094 304.346 -0.715376 304.919 0.21469C305.491 1.14476 304.203 1.35939 302.629 4.72194L302.844 5.00811C302.772 5.22274 304.847 3.72033 306.349 1.93174C307.852 0.143147 307.923 1.78865 307.78 2.361C307.637 2.93335 306.421 4.0065 305.706 4.86502L304.346 6.36744L304.489 6.86824C307.494 5.58046 307.78 4.36422 308.496 4.86502C309.211 5.36583 307.637 7.08288 306.707 7.51214C306.072 7.82066 305.492 8.23155 304.99 8.72838C307.494 8.15603 307.923 7.29751 308.424 7.86986C308.925 8.4422 307.28 9.51536 306.421 9.65844Z" fill="#FF8B66"/>
<path d="M298.122 8.87136C298.623 7.2974 297.478 5.58035 297.335 5.36572C297.442 5.48593 297.575 5.58049 297.724 5.64242C297.872 5.70434 298.033 5.73203 298.194 5.72344C298.51 6.19071 298.673 6.74477 298.66 7.30881C298.647 7.87285 298.459 8.41894 298.122 8.87136Z" fill="#EF6E4B"/>
<path d="M167.412 36.1294C168.589 36.1306 169.764 36.2505 170.917 36.4872C172.921 37.2741 174.065 37.7034 175.282 37.5603C176.498 37.4172 177.356 39.4204 177.356 39.4204C177.356 39.4204 182.293 39.5635 182.007 36.4872C182.007 36.4872 178.644 33.2677 178.358 32.8384C178.072 32.4092 178.215 30.2629 176.784 28.7605C175.806 27.5475 175.01 26.1976 174.423 24.754C174.423 24.754 173.278 24.6109 173.35 25.6125C173.421 26.6141 174.495 27.9735 174.423 28.4743C174.352 28.9751 174.352 28.6889 174.28 28.7605C174.236 28.9216 174.155 29.0702 174.043 29.1944C173.931 29.3186 173.792 29.415 173.636 29.4759H173.565C172.348 29.6905 169.987 28.4027 168.986 27.7588C167.984 27.115 165.552 25.7556 165.337 26.8288C165.122 27.9019 166.41 27.5442 169.2 30.1198L168.986 30.4775C169.2 30.6921 166.696 29.9767 164.622 28.9035C162.547 27.8304 163.119 29.4043 163.477 29.8336C163.835 30.2629 165.337 30.8352 166.339 31.4076L168.199 32.3376V32.8384C164.979 32.7669 164.335 31.6937 163.763 32.4807C163.191 33.2677 165.409 34.1262 166.482 34.1978C167.163 34.304 167.834 34.4716 168.485 34.6986C165.981 35.1278 165.194 34.4839 164.908 35.1994C164.622 35.9148 166.553 36.2725 167.412 36.1294Z" fill="#FF8B66"/>
<path d="M174.853 32.3377C173.779 31.1214 174.28 29.0467 174.28 28.7605C174.236 28.9216 174.155 29.0702 174.043 29.1945C173.931 29.3187 173.792 29.415 173.636 29.4759C173.522 30.0201 173.577 30.5862 173.795 31.0979C174.012 31.6096 174.382 32.0423 174.853 32.3377Z" fill="#EF6E4B"/>
<path d="M299.553 17.3136C299.553 17.3136 299.124 19.1022 298.265 21.8208C297.979 22.9655 297.621 24.2533 297.192 25.6126L295.046 32.3377C294.616 33.6255 294.187 34.9133 293.686 36.1295C292.761 38.8553 291.637 41.5095 290.324 44.0709L289.895 44.8579C289.368 45.6953 288.77 46.4852 288.106 47.2188C286.89 48.5781 285.244 50.2236 283.384 51.9407C281.524 53.6577 281.452 53.7292 280.379 54.5878C279.306 55.4463 276.945 57.5211 275.228 58.9519L272.009 61.5275C266.643 65.8201 262.207 69.1111 262.207 69.1111L254.194 52.7276C256.484 51.2252 260.705 48.6497 265.14 46.0025L268.217 44.0709L272.867 41.3522L276.087 39.4205L279.378 37.4889L280.809 36.6303L281.81 34.7702C282.526 33.4109 283.527 31.3361 284.743 29.0467L286.389 25.8988L289.179 20.6761C289.751 19.603 290.395 18.5298 290.896 17.5282C292.47 14.738 293.758 12.5202 294.402 11.5901C295.644 12.082 296.755 12.8546 297.649 13.8476C298.542 14.8405 299.194 16.0268 299.553 17.3136Z" fill="#CFD8DC"/>
<path d="M275.228 58.9519L272.009 61.5274C271.247 55.8031 268.864 50.4162 265.14 46.0025L268.217 44.0708C271.752 48.3726 274.162 53.4866 275.228 58.9519Z" fill="#8BBDDB"/>
<path d="M283.384 51.9407C282.382 52.7992 281.452 53.7292 280.379 54.5878C278.519 47.505 275.085 43.3554 272.867 41.3522L276.087 39.4205C279.462 42.968 281.961 47.2555 283.384 51.9407Z" fill="#8BBDDB"/>
<path d="M290.324 44.0708L289.894 44.8578C289.368 45.6952 288.77 46.4852 288.106 47.2187C285.82 43.4659 282.861 40.1673 279.378 37.4888L280.808 36.6303L281.81 34.7701C285.141 37.3803 288.017 40.5229 290.324 44.0708Z" fill="#8BBDDB"/>
<path d="M295.046 32.3377C294.616 33.6255 294.187 34.9133 293.686 36.1295C291.033 33.3819 288.026 31 284.743 29.0467L286.389 25.8988C289.493 27.734 292.395 29.8923 295.046 32.3377Z" fill="#8BBDDB"/>
<path d="M298.265 21.8208C297.979 22.9655 297.621 24.2533 297.192 25.6126C294.812 23.5362 292.104 21.8681 289.179 20.6761C289.751 19.603 290.395 18.5298 290.896 17.5282C293.535 18.6198 296.014 20.0638 298.265 21.8208Z" fill="#8BBDDB"/>
<path d="M232.016 57.0202L230.585 75.1207L219.281 71.9012L215.561 70.7565L208.764 68.4671L205.259 67.1794C202.917 66.3279 200.624 65.3487 198.39 64.2461C197.51 63.8258 196.672 63.3227 195.886 62.7437L195.242 62.1713C193.363 60.5234 191.616 58.7292 190.02 56.8055C189.233 55.8755 188.374 54.9454 187.587 53.9438C186.8 52.9422 184.368 50.0089 182.865 48.1488L180.648 45.2155C178.072 41.9245 176.355 39.492 176.355 39.492C176.498 35.1994 179.646 34.0547 179.646 34.0547C182.006 35.6693 184.275 37.4129 186.443 39.2774L189.233 41.5668L193.955 45.5017L196.745 47.8626L200.107 50.7243L201.395 51.7975L203.47 52.0837L208.049 52.8706L211.626 53.443L216.562 54.23L220.068 54.8023C224.933 55.5893 229.44 56.4478 232.016 57.0202Z" fill="#CFD8DC"/>
<path d="M219.281 71.9012L215.561 70.7565C214.994 65.2299 215.332 59.6477 216.562 54.23L220.068 54.8023C218.81 60.4125 218.544 66.1993 219.281 71.9012Z" fill="#8BBDDB"/>
<path d="M211.626 53.4431C209.957 58.288 208.993 63.3479 208.764 68.4672L205.259 67.1794C205.524 62.304 206.463 57.4888 208.049 52.8707L211.626 53.4431Z" fill="#8BBDDB"/>
<path d="M203.47 52.0837C201.363 55.9525 199.661 60.0282 198.39 64.2461C197.51 63.8258 196.671 63.3228 195.886 62.7437L195.242 62.1713C196.546 58.2282 198.173 54.3995 200.107 50.7244L201.395 51.7975L203.47 52.0837Z" fill="#8BBDDB"/>
<path d="M196.745 47.8626C194.254 50.648 192.004 53.6397 190.02 56.8056C189.233 55.8755 188.374 54.9455 187.587 53.9439C189.534 51.0019 191.661 48.1825 193.955 45.5017L196.745 47.8626Z" fill="#8BBDDB"/>
<path d="M189.233 41.5669C186.953 43.603 184.825 45.8029 182.865 48.1489L180.647 45.2156C182.434 43.0996 184.371 41.1151 186.442 39.2775L189.233 41.5669Z" fill="#8BBDDB"/>
<path d="M279.878 114.684C279.878 114.684 269.862 125.13 256.269 127.705C248.786 129.106 241.201 129.895 233.59 130.066C233.59 130.066 233.017 127.276 232.087 123.055C231.801 121.91 231.586 120.694 231.3 119.406C231.014 118.118 230.227 114.541 229.655 111.823C229.369 110.606 229.154 109.462 228.868 108.245C228.582 107.029 227.938 103.738 227.437 101.449C227.222 100.233 226.936 99.0879 226.721 97.8716C226.149 94.9384 225.577 92.0766 225.004 89.358L224.36 85.7092C223.717 82.4898 223.216 79.4849 222.786 77.124C222.357 74.7631 222.429 74.4053 222.286 73.4037C222.143 72.4021 222.214 72.7598 222.214 72.4737C222.071 69.9696 221.928 67.6803 221.928 65.6055V61.8852C222 57.9503 222.214 55.5178 222.214 55.5178C225.076 53.5862 244.536 59.882 244.536 59.882C244.536 59.882 258.916 47.505 261.205 48.3635C262.681 49.1061 263.92 50.2459 264.783 51.6545C265.489 52.6887 266.134 53.7637 266.714 54.874C267.841 57.1614 268.797 59.5288 269.576 61.9568C270.005 63.1492 270.435 64.4369 270.864 65.8201C271.508 68.038 272.08 70.3274 272.724 72.6883L273.582 76.337L275.085 83.3483C275.299 84.6361 275.514 85.8523 275.8 87.0686L276.873 93.2929L277.517 97.1562C277.947 99.8749 278.304 102.45 278.662 104.74C279.02 107.029 279.02 107.387 279.163 108.532C279.664 112.323 279.878 114.684 279.878 114.684Z" fill="#CFD8DC"/>
<path d="M266.714 54.8739C262.35 59.3096 254.695 65.82 245.895 67.6086C243.96 67.9649 241.996 68.1327 240.028 68.1094C234.305 68.1094 227.723 66.9647 221.928 65.6054V61.8851C229.655 63.7453 238.955 65.3192 245.18 64.103C253.479 62.4575 260.919 55.7324 264.783 51.6544C265.489 52.6886 266.134 53.7637 266.714 54.8739Z" fill="#8BBDDB"/>
<path d="M270.864 65.8201C266.357 69.9697 255.267 77.7679 234.019 77.7679C230.266 77.7493 226.517 77.5344 222.787 77.124C222.572 75.6932 222.429 74.4054 222.286 73.4038C253.193 77.2671 266.571 65.2478 269.576 61.9568C270.005 63.1492 270.435 64.437 270.864 65.8201Z" fill="#8BBDDB"/>
<path d="M273.582 76.337C264.997 81.2019 247.398 89.3579 226.65 89.3579H225.004L224.36 85.7092C245.895 86.3531 264.496 77.3386 272.724 72.6882L273.582 76.337Z" fill="#8BBDDB"/>
<path d="M275.801 87.0685C268.288 91.1465 249.329 100.304 227.437 101.449C227.222 100.233 226.936 99.0879 226.722 97.8716C248.972 96.87 268.718 86.9254 275.085 83.3483C275.3 84.6361 275.514 85.8523 275.801 87.0685Z" fill="#8BBDDB"/>
<path d="M277.517 97.1562C268.932 102.164 250.402 111.465 229.655 111.823C229.369 110.606 229.154 109.462 228.868 108.245C249.902 108.031 269.218 97.8716 276.874 93.2928L277.517 97.1562Z" fill="#8BBDDB"/>
<path d="M279.163 108.532C270.363 113.468 250.903 123.055 233.304 123.055H232.087C231.801 121.91 231.587 120.694 231.3 119.406C249.186 120.265 270.506 109.319 278.662 104.74C278.805 106.099 279.02 107.387 279.163 108.532Z" fill="#8BBDDB"/>
<path d="M247.183 52.5845C247.183 52.5845 246.611 57.4494 248.399 58.9519C248.399 58.9519 247.469 62.3859 244.822 63.0298C242.175 63.6737 239.957 60.5258 239.957 60.5258C239.957 60.5258 240.744 55.8039 238.812 54.5877L247.183 52.5845Z" fill="#EF6E4B"/>
<path d="M249.544 42.3538C249.544 42.3538 251.475 39.1343 246.897 34.0547C246.897 34.0547 244.75 29.1898 237.381 28.0451C230.012 26.9004 224.504 34.9848 224.504 39.4205C224.504 43.8562 227.151 39.4205 227.151 39.4205C227.151 39.4205 227.723 42.4969 228.582 43.9278C228.582 43.9278 228.295 48.3635 231.086 48.3635C233.876 48.3635 249.544 42.3538 249.544 42.3538Z" fill="#105E99"/>
<path d="M232.588 47.7196C232.588 47.7196 229.655 46.2172 230.227 48.8643C230.799 51.5114 234.019 52.2268 234.234 51.1537C234.448 50.0805 232.588 47.7196 232.588 47.7196Z" fill="#FF8B66"/>
<path d="M248.041 42.6399C248.041 42.6399 249.544 39.7066 250.617 42.2107C251.69 44.7147 249.687 47.2187 248.828 46.4317C247.97 45.6448 248.041 42.6399 248.041 42.6399Z" fill="#FF8B66"/>
<path d="M243.677 55.9471C238.812 57.5926 234.949 55.3032 231.73 45.7879C230.084 40.8514 231.586 36.9165 237.095 35.1279C242.604 33.3393 245.824 35.5572 247.541 40.4937C250.975 50.7244 248.757 54.3016 243.677 55.9471Z" fill="#FF8B66"/>
<path d="M247.04 44.4286C247.326 44.8578 247.04 45.5017 246.467 45.8595C246.226 46.0054 245.939 46.0569 245.661 46.0041C245.384 45.9513 245.136 45.7979 244.965 45.5733C244.679 45.0725 244.965 44.5001 245.537 44.1424C245.779 43.9965 246.066 43.9449 246.343 43.9978C246.621 44.0506 246.869 44.204 247.04 44.4286Z" fill="#DB614D"/>
<path d="M237.095 48.0772C237.115 48.2183 237.107 48.362 237.071 48.4999C237.035 48.6378 236.972 48.7672 236.885 48.8804C236.799 48.9936 236.69 49.0885 236.567 49.1594C236.443 49.2303 236.307 49.2759 236.165 49.2935C235.521 49.4366 234.877 49.1504 234.806 48.6496C234.734 48.1488 235.021 47.648 235.664 47.4333C235.94 47.3382 236.242 47.3519 236.508 47.4716C236.773 47.5912 236.984 47.8078 237.095 48.0772Z" fill="#DB614D"/>
<path d="M243.105 40.2075H242.962C242.28 39.9201 241.515 39.8946 240.816 40.136C240.672 40.2075 240.529 40.136 240.529 39.9929C240.504 39.9262 240.505 39.8525 240.532 39.7864C240.558 39.7202 240.608 39.6663 240.672 39.6352C241.487 39.3498 242.379 39.3753 243.176 39.7067C243.32 39.7783 243.32 39.9929 243.32 40.0644L243.105 40.2075Z" fill="#FFB878"/>
<path d="M233.947 43.2838H233.733C233.59 43.2123 233.59 43.0692 233.59 42.9261C234.031 42.164 234.748 41.6005 235.593 41.3521C235.621 41.341 235.651 41.3359 235.681 41.3372C235.711 41.3385 235.741 41.3462 235.768 41.3597C235.795 41.3732 235.819 41.3923 235.838 41.4156C235.857 41.439 235.871 41.4661 235.879 41.4952C235.904 41.562 235.903 41.6356 235.877 41.7018C235.85 41.7679 235.8 41.8218 235.736 41.8529C235.045 42.0595 234.457 42.5194 234.091 43.1407C234.091 43.1787 234.075 43.2151 234.049 43.2419C234.022 43.2687 233.985 43.2838 233.947 43.2838Z" fill="#FFB878"/>
<path d="M243.606 42.9262C243.82 43.5701 243.677 44.1424 243.32 44.214C242.962 44.2855 242.604 43.9278 242.39 43.3555C242.175 42.7831 242.246 42.1392 242.604 42.0677C242.962 41.9961 243.391 42.3538 243.606 42.9262Z" fill="#1A4850"/>
<path d="M237.095 45.144C237.238 45.7164 237.167 46.2887 236.809 46.4318C236.451 46.5749 236.022 46.1457 235.808 45.5733C235.593 45.001 235.736 44.3571 236.094 44.214C236.451 44.0709 236.881 44.5001 237.095 45.144Z" fill="#1A4850"/>
<path d="M239.242 51.6544C239.242 51.6544 243.749 50.7244 245.609 48.9358C245.609 48.9358 245.323 52.2983 242.89 52.7991C242.236 52.9646 241.548 52.9452 240.904 52.7431C240.26 52.541 239.684 52.1641 239.242 51.6544Z" fill="#1A4850"/>
<path d="M242.246 48.9358C241.873 49.0348 241.488 49.0829 241.102 49.0789V48.5781C241.603 48.5065 242.461 48.3634 242.533 48.0773C242.604 47.7911 242.533 47.8626 242.318 47.648C242.103 47.4334 239.742 42.6399 239.671 42.4969L240.172 42.2822C240.172 42.2822 241.603 46.074 242.747 47.2903C242.889 47.4118 242.996 47.568 243.059 47.7436C243.122 47.9193 243.138 48.1082 243.105 48.2919C242.899 48.5964 242.597 48.8231 242.246 48.9358Z" fill="#DB614D"/>
<path d="M235.664 32.91C224.718 36.988 231.3 47.2902 231.3 47.2902L232.874 48.7211C232.159 45.7878 232.66 44.1423 232.66 44.1423C231.955 42.8281 231.752 41.3027 232.087 39.8497C233.447 38.705 236.809 36.4872 243.105 35.8433C244.065 36.7501 244.737 37.9196 245.037 39.2058C246.544 40.626 247.759 42.3273 248.614 44.2139L248.757 41.6383C248.757 41.6383 246.253 28.9751 235.664 32.91Z" fill="#FFB878"/>
<path d="M234.377 224.218L229.583 225.291C229.583 225.291 222.071 184.94 220.354 180.719C218.637 176.498 212.484 162.976 210.338 152.173C209.783 152.161 209.231 152.089 208.692 151.959L207.977 151.744L207.333 151.601C207.118 162.404 204.757 175.639 204.042 179.36C203.327 183.08 203.684 224.933 203.684 224.933L198.748 224.79C189.376 191.522 194.312 179.074 194.312 179.074C194.312 179.074 185.727 149.168 188.732 138.58C189.673 135.385 190.82 132.254 192.166 129.208L192.524 128.564C193.776 125.764 195.234 123.062 196.888 120.479L206.904 121.696L207.047 121.553H207.333V124.7H208.907L213.057 124.486H213.629L217.278 124.271C217.278 124.271 219.424 127.777 222.572 133.357L222.93 134.001L226.507 140.726C231.586 150.528 229.869 178.573 229.869 178.573C229.869 178.573 237.095 189.734 234.377 224.218Z" fill="#8BBDDB"/>
<path d="M200.179 121.624C200.179 121.696 197.532 127.848 192.166 129.208L192.524 128.564C197.317 127.061 199.678 121.481 199.678 121.409L200.179 121.624Z" fill="#6097B2"/>
<path d="M222.93 133.93C216.92 132.642 213.844 126.418 213.057 124.486L212.842 123.913L213.343 123.699C213.415 123.946 213.51 124.186 213.629 124.414C214.488 126.418 217.278 131.926 222.572 133.286L222.93 133.93Z" fill="#6097B2"/>
<path d="M208.693 151.959L207.977 151.744C206.249 148.33 204.997 144.695 204.257 140.941C202.325 132.642 206.618 123.77 206.689 123.699L207.119 123.913C207.119 123.985 202.898 132.713 204.758 140.798L204.972 141.799C205.044 142.014 205.044 142.157 205.115 142.372C205.909 145.702 207.111 148.922 208.693 151.959Z" fill="#6097B2"/>
<path d="M204.829 142.372H204.758V141.799C205.044 141.871 205.33 141.656 205.616 141.37C205.902 141.084 206.761 139.725 206.117 136.577C205.258 132.284 208.406 124.915 208.549 124.557L209.05 124.772C209.05 124.844 205.831 132.356 206.618 136.434C207.405 140.512 206.546 141.155 206.045 141.728C205.898 141.913 205.714 142.066 205.505 142.177C205.295 142.288 205.065 142.354 204.829 142.372Z" fill="#6097B2"/>
<path d="M204.972 82.5613C204.972 82.5613 206.546 79.628 204.328 74.6915C202.111 69.755 202.54 56.0902 213.772 56.6625C213.772 56.6625 220.426 55.5178 223.717 59.882C227.008 64.2461 229.798 79.628 226.292 91.0034C222.787 102.379 200.465 99.374 204.972 82.5613Z" fill="#F24052"/>
<path d="M217.278 124.2C213.824 125.21 210.182 125.4 206.642 124.754C203.102 124.108 199.762 122.644 196.888 120.479C196.888 120.479 195.028 82.6329 198.533 80.1288C200.036 78.9841 203.112 79.9142 205.974 81.2735C208.539 82.4807 211.004 83.8923 213.343 85.4946C213.343 85.4946 219.853 84.5645 225.004 85.1369C228.295 85.4946 230.943 86.4962 231.086 88.6425C231.443 94.2229 217.278 124.2 217.278 124.2Z" fill="#FF8B66"/>
<path d="M225.291 85.2083C223.073 84.9937 222.644 86.7107 220.426 87.4977C218.552 88.1988 216.609 88.7023 214.631 89.0001C213.629 89.0717 213.057 90.3595 213.057 90.3595C213.057 90.3595 212.699 88.6424 212.198 88.4993C211.697 88.3563 206.975 83.7059 205.974 81.2734C208.539 82.4806 211.004 83.8922 213.343 85.4945C213.343 85.4945 219.853 84.5644 225.004 85.1368L225.291 85.2083Z" fill="#EF6E4B"/>
<path d="M196.53 229.011C196.816 226.936 196.029 225.505 196.602 224.504C197.174 223.502 198.319 224.861 198.319 224.861C198.39 222.572 202.254 222.572 202.683 223.645C202.772 223.92 202.892 224.184 203.041 224.432C203.255 223.86 203.685 223.287 204.185 223.645C206.332 224.861 203.685 228.081 205.616 230.442C207.548 232.803 206.546 238.025 206.546 238.025H194.956C193.597 231.658 196.173 231.014 196.53 229.011Z" fill="#CFD8DC"/>
<path d="M203.685 228.224C203.685 228.224 200.894 226.793 197.317 228.725L198.033 227.365C198.834 226.919 199.725 226.656 200.64 226.594C201.555 226.532 202.473 226.674 203.327 227.008L203.685 228.224Z" fill="#ADBEC4"/>
<path d="M204.114 230.442C201.635 229.669 198.956 229.848 196.602 230.943L197.317 229.583C197.317 229.583 200.751 228.081 203.684 229.226L204.114 230.442Z" fill="#ADBEC4"/>
<path d="M236.523 229.011C236.237 226.936 236.952 225.505 236.451 224.504C235.951 223.502 234.734 224.861 234.734 224.861C234.663 222.572 230.728 222.572 230.37 223.645L230.012 224.432C229.798 223.86 229.369 223.287 228.796 223.645C226.721 224.861 229.297 228.081 227.437 230.442C225.577 232.803 226.507 238.025 226.507 238.025H238.097C239.456 231.658 236.809 231.014 236.523 229.011Z" fill="#CFD8DC"/>
<path d="M229.369 228.224C229.369 228.224 232.087 226.793 235.736 228.725L235.021 227.365C234.217 226.924 233.327 226.663 232.413 226.602C231.499 226.54 230.582 226.678 229.726 227.008L229.369 228.224Z" fill="#ADBEC4"/>
<path d="M228.868 230.442C231.371 229.671 234.071 229.85 236.451 230.943L235.736 229.583C235.736 229.583 232.302 228.081 229.369 229.226L228.868 230.442Z" fill="#ADBEC4"/>
<path d="M212.484 73.046C212.484 73.046 213.343 83.1336 210.553 84.5645C210.553 84.5645 212.627 88.3563 218.136 86.0669C218.136 86.0669 217.206 80.8443 220.926 74.6915C223.359 70.542 212.484 73.046 212.484 73.046Z" fill="#EF6E4B"/>
<path d="M222.644 69.5404C222.644 69.5404 224.718 67.1079 225.219 69.755C225.72 72.4021 223.073 74.1907 222.429 73.2606C221.785 72.3306 222.644 69.5404 222.644 69.5404Z" fill="#FF8B66"/>
<path d="M206.832 70.8997C206.832 70.8997 204.4 68.8249 204.328 71.472C204.257 74.1192 207.119 75.55 207.548 74.5484C207.977 73.5468 206.832 70.8997 206.832 70.8997Z" fill="#FF8B66"/>
<path d="M215.775 81.202C220.783 80.8443 223.43 77.3386 222.643 67.4656C222.286 62.4576 219.424 59.5243 213.844 59.9536C208.263 60.3828 206.045 63.6738 206.475 68.7534C207.262 79.2703 210.624 81.5597 215.775 81.202Z" fill="#FF8B66"/>
<path d="M208.406 72.1159C208.406 72.2537 208.434 72.3901 208.489 72.5165C208.544 72.6429 208.624 72.7567 208.725 72.8507C208.825 72.9447 208.944 73.0169 209.074 73.0628C209.204 73.1088 209.342 73.1274 209.48 73.1175C209.611 73.1489 209.748 73.1533 209.881 73.1304C210.015 73.1075 210.142 73.0577 210.256 72.9842C210.37 72.9106 210.467 72.8148 210.543 72.7024C210.618 72.5901 210.67 72.4636 210.696 72.3306C210.696 72.1928 210.668 72.0564 210.613 71.93C210.559 71.8035 210.478 71.6898 210.378 71.5958C210.277 71.5018 210.158 71.4295 210.028 71.3836C209.898 71.3377 209.76 71.3191 209.623 71.329C209.491 71.2975 209.354 71.2932 209.221 71.3161C209.087 71.339 208.96 71.3888 208.846 71.4623C208.733 71.5359 208.635 71.6317 208.559 71.7441C208.484 71.8564 208.432 71.9829 208.406 72.1159Z" fill="#DB614D"/>
<path d="M218.709 71.6151C218.741 71.7497 218.801 71.876 218.885 71.9862C218.969 72.0963 219.075 72.1879 219.196 72.2551C219.317 72.3223 219.45 72.3638 219.588 72.3767C219.726 72.3897 219.865 72.374 219.996 72.3306C220.64 72.259 221.141 71.7582 221.07 71.2574C220.987 70.9964 220.807 70.7769 220.568 70.6438C220.329 70.5108 220.047 70.4744 219.782 70.542C219.138 70.6135 218.637 71.1143 218.709 71.6151Z" fill="#DB614D"/>
<path d="M210.195 66.8217C210.267 66.8933 210.41 66.8217 210.481 66.7502C210.974 66.2443 211.637 65.9385 212.341 65.8917C212.417 65.8917 212.49 65.8615 212.544 65.8079C212.597 65.7542 212.627 65.6814 212.627 65.6055C212.556 65.4624 212.484 65.3909 212.341 65.3909C211.479 65.4254 210.662 65.7829 210.052 66.3925C209.98 66.5356 209.98 66.6786 210.123 66.7502C210.267 66.8217 210.123 66.8217 210.195 66.8217Z" fill="#F24052"/>
<path d="M217.421 65.4623H217.564C218.27 65.3874 218.979 65.5648 219.567 65.9632C219.639 66.1062 219.853 66.0347 219.925 65.9632C219.956 65.9088 219.973 65.8471 219.973 65.7843C219.973 65.7215 219.956 65.6598 219.925 65.6054C219.593 65.3244 219.202 65.1208 218.781 65.0094C218.36 64.898 217.92 64.8817 217.492 64.9615C217.435 64.9615 217.381 64.9842 217.341 65.0244C217.3 65.0647 217.278 65.1192 217.278 65.1762C217.278 65.3908 217.349 65.4623 217.421 65.4623Z" fill="#F24052"/>
<path d="M210.911 69.4688C210.982 70.1127 211.268 70.542 211.626 70.542C211.984 70.542 212.27 69.9696 212.198 69.3973C212.127 68.8249 211.841 68.2526 211.483 68.2526C211.125 68.2526 210.911 68.8249 210.911 69.4688Z" fill="#1A4850"/>
<path d="M217.85 68.8964C217.922 69.5403 218.208 69.9696 218.566 69.9696C218.923 69.9696 219.138 69.3972 219.138 68.8249C219.138 68.2525 218.78 67.6802 218.423 67.6802C218.065 67.6802 217.85 68.2525 217.85 68.8964Z" fill="#1A4850"/>
<path d="M217.492 75.0492C217.492 75.0492 214.344 75.6931 212.699 74.9777C212.699 74.9777 213.772 77.2671 215.489 76.9093C215.961 76.8109 216.396 76.5857 216.749 76.2579C217.102 75.9301 217.359 75.5122 217.492 75.0492Z" fill="#1A4850"/>
<path d="M212.627 69.0396C212.627 69.0396 212.055 67.5371 211.411 67.6802C210.767 67.8233 210.481 69.1826 210.481 69.1826L209.551 68.7534H210.481C210.481 68.7534 210.839 67.3225 211.411 67.3225C211.984 67.3225 212.627 69.0396 212.627 69.0396Z" fill="#1A4850"/>
<path d="M217.492 68.8249C217.492 68.8249 217.85 67.2509 218.423 67.3225C218.995 67.394 219.639 68.6818 219.639 68.6818L220.426 68.1095L219.567 68.3241C219.567 68.3241 218.995 66.9648 218.423 67.0363C217.85 67.1078 217.492 68.8249 217.492 68.8249Z" fill="#1A4850"/>
<path d="M214.774 72.6883H215.131V72.1875C214.98 72.1875 214.834 72.1272 214.727 72.0199C214.619 71.9125 214.559 71.767 214.559 71.6152C214.554 71.493 214.576 71.3712 214.626 71.2594C214.676 71.1476 214.751 71.049 214.845 70.9713C214.917 70.8997 215.06 70.9713 215.131 71.1144L215.561 70.8282C215.471 70.6704 215.329 70.5486 215.16 70.4834C214.99 70.4182 214.803 70.4136 214.631 70.4705C214.425 70.5976 214.257 70.7773 214.143 70.9911C214.03 71.2049 213.976 71.445 213.987 71.6867C214.013 71.9101 214.1 72.122 214.239 72.2988C214.378 72.4756 214.563 72.6104 214.774 72.6883Z" fill="#DB614D"/>
<path d="M215.632 61.5275C215.632 61.5275 217.492 60.9551 218.279 63.7453C219.639 68.6818 220.569 76.6232 223.717 80.6296C226.078 83.4913 227.437 82.2751 227.437 82.2751C227.799 80.3913 227.676 78.4463 227.079 76.6232C226.149 73.833 227.365 63.6022 223.717 59.882C220.068 56.1617 213.772 58.5942 213.772 58.5942C213.772 58.5942 210.696 56.734 207.691 58.5942C204.686 60.4543 203.828 68.6103 206.904 72.1875C206.904 72.1875 206.689 69.1111 208.049 67.9664C209.408 66.8217 210.123 60.025 215.632 61.5275Z" fill="#F24052"/>
<path d="M192.095 21.2484C190.95 24.9687 193.812 26.6142 191.665 29.1898C189.519 31.7653 188.374 29.4759 188.374 29.4759C187.226 27.3525 185.754 25.4214 184.01 23.7524C182.865 22.6078 183.724 22.6078 183.724 22.6078L183.366 22.3216C182.508 21.6777 181.721 21.32 182.579 21.0338C183.438 20.7476 186.013 22.5362 186.013 22.5362C183.008 19.1737 181.864 19.4598 182.651 19.1737C183.438 18.8875 186.8 21.1769 186.943 21.2484C185.441 18.959 184.153 18.172 185.012 18.1005C185.87 18.029 188.947 21.7492 190.091 23.1801L190.521 23.6809C191.236 20.6045 192.095 21.2484 192.095 21.2484Z" fill="#FF8B66"/>
<path d="M190.091 23.1801L190.52 23.6809C190.226 24.033 190.026 24.4539 189.939 24.9042C189.851 25.3546 189.879 25.8197 190.02 26.2564C189.647 25.8264 189.448 25.2731 189.461 24.7044C189.475 24.1357 189.699 23.5923 190.091 23.1801Z" fill="#EF6E4B"/>
<path d="M186.3 24.4678C186.013 24.2532 184.439 22.7508 183.724 22.6077L183.366 22.3215C184.01 21.8207 186.013 24.1101 186.3 24.4678Z" fill="#EF6E4B"/>
<path d="M191.665 29.1898C191.665 29.1898 191.236 53.7293 190.02 58.5942C190.02 58.5942 194.456 73.9761 201.109 79.5565C201.109 79.5565 202.182 83.706 196.387 91.9335C196.387 91.9335 185.155 71.8298 183.366 60.3828L188.374 29.476L191.665 29.1898Z" fill="#FF8B66"/>
<path d="M206.403 81.4882C206.975 83.4914 207.333 90.6458 214.058 94.2945C220.783 97.9432 228.081 92.5774 230.084 86.7109C230.084 86.7109 230.871 85.4946 233.59 88.4995C233.59 88.4995 247.612 95.3676 249.472 98.8733C251.332 102.379 250.188 115.972 244.536 116.187C238.884 116.401 232.087 110.106 230.299 114.255C228.51 118.405 218.065 133 196.387 121.195C196.387 121.195 193.668 117.832 193.668 114.756C193.668 111.68 192.309 91.6474 192.309 91.6474C192.309 91.6474 184.296 89.358 186.299 70.4705C186.299 70.4705 191.808 73.5469 191.665 63.4592C191.665 63.4592 196.172 61.3844 197.675 69.8266C198.676 75.4785 204.328 79.628 204.328 79.628C204.328 79.628 205.545 78.3403 206.403 81.4882Z" fill="#105E99"/>
<path d="M252.62 105.884C257.414 103.881 267.931 95.2244 271.722 90.1448L269.433 88.0701C269.433 88.0701 257.056 96.5122 252.334 98.0146C247.612 99.517 245.037 102.236 245.609 105.598C246.181 108.961 251.619 106.314 252.62 105.884Z" fill="#FF8B66"/>
<path d="M275.657 83.0621C273.296 86.2101 270.292 84.8507 269.433 88.0702C268.932 90.0734 271.15 90.8604 271.15 90.8604C273.557 90.602 275.988 90.6743 278.376 91.075C279.95 91.3612 279.449 90.6458 279.449 90.6458L279.878 90.7888C280.952 91.1466 281.667 91.5043 281.381 90.7173C281.095 89.9303 278.161 88.7141 278.161 88.7141C282.669 89.2149 283.098 90.3596 282.883 89.5011C282.669 88.6425 278.805 87.3547 278.662 87.2832C281.452 87.1401 282.812 87.7125 282.382 86.997C281.953 86.2816 277.088 85.9239 275.3 85.8523H274.656C276.659 83.4198 275.657 83.0621 275.657 83.0621Z" fill="#FF8B66"/>
<path d="M275.3 85.8523H274.656C274.546 86.3107 274.315 86.7315 273.988 87.0711C273.661 87.4107 273.25 87.6568 272.796 87.784C273.378 87.8288 273.956 87.6561 274.419 87.2993C274.881 86.9426 275.195 86.427 275.3 85.8523Z" fill="#EF6E4B"/>
<path d="M276.373 89.644C276.802 89.7156 278.948 90.1449 279.449 90.6457L279.878 90.7887C279.95 89.9302 276.874 89.7156 276.373 89.644Z" fill="#EF6E4B"/>
<path d="M140.798 138.58C142.744 131.973 145.818 125.753 149.884 120.193L158.97 121.696V121.553L159.685 121.696H159.828L169.2 123.627C172.129 129.408 174.386 135.505 175.926 141.799C178.644 152.459 170.631 179.36 170.631 179.36C170.631 179.36 175.139 191.951 164.622 224.861H159.685C159.685 224.861 161.545 183.867 160.83 179.36C160.114 174.853 159.399 161.045 159.828 150.098C159.237 150.194 158.637 150.218 158.04 150.17C158.04 161.188 156.752 175.496 156.036 179.36C155.321 183.223 155.607 224.933 155.607 224.933L150.671 224.79C141.298 191.522 146.235 179.074 146.235 179.074C146.235 179.074 137.721 149.168 140.798 138.58Z" fill="#FF8B66"/>
<path d="M183.152 88.6425C182.794 83.0621 165.409 85.4946 165.409 85.4946C165.409 85.4946 154.033 77.6248 150.599 80.1288C149.312 80.9873 148.739 86.3531 148.525 92.8635C147.237 95.1529 146.092 98.6586 148.453 101.878C148.453 111.393 148.882 120.479 148.882 120.479C151.757 122.644 155.097 124.108 158.637 124.754C162.177 125.4 165.819 125.21 169.272 124.2C169.272 124.2 173.493 115.4 177.214 106.385C178.238 105.517 179.035 104.411 179.534 103.164C180.033 101.917 180.218 100.566 180.075 99.2309C181.935 94.4375 183.223 90.3595 183.152 88.6425Z" fill="#0E3944"/>
<path d="M180.934 60.1681C175.854 51.5113 163.119 52.5845 158.684 58.2364C153.389 65.0331 156.251 80.9158 156.251 80.9158C156.251 80.9158 168.414 70.7566 175.711 84.636C175.711 84.636 186.586 69.8265 180.934 60.1681Z" fill="#FFB878"/>
<path d="M148.524 229.011C148.811 226.936 148.095 225.505 148.596 224.504C149.097 223.502 150.313 224.861 150.313 224.861C150.384 222.572 154.319 222.572 154.677 223.645L155.035 224.432C155.321 223.86 155.679 223.287 156.251 223.645C158.326 224.861 155.75 228.081 157.61 230.442C159.47 232.803 158.54 238.025 158.54 238.025H146.95C145.591 231.658 148.238 231.014 148.524 229.011Z" fill="#0E3944"/>
<path d="M155.679 228.224C155.679 228.224 152.96 226.793 149.312 228.725L150.027 227.365C150.843 226.923 151.745 226.661 152.671 226.6C153.597 226.538 154.525 226.677 155.393 227.008L155.679 228.224Z" fill="#205260"/>
<path d="M156.18 230.442C156.18 230.442 152.245 229.083 148.668 230.943L149.312 229.583C149.312 229.583 152.817 228.081 155.679 229.226L156.18 230.442Z" fill="#205260"/>
<path d="M167.054 229.011C166.768 226.936 167.555 225.505 166.983 224.504C166.41 223.502 165.266 224.861 165.266 224.861C165.194 222.572 161.331 222.572 160.901 223.645C160.812 223.92 160.692 224.184 160.544 224.432C160.329 223.86 159.9 223.287 159.399 223.645C157.324 224.861 159.9 228.081 157.968 230.442C156.036 232.803 157.038 238.025 157.038 238.025H168.628C169.987 231.658 167.412 231.014 167.054 229.011Z" fill="#0E3944"/>
<path d="M159.9 228.224C159.9 228.224 162.69 226.793 166.267 228.725L165.552 227.365C164.75 226.919 163.86 226.656 162.945 226.594C162.03 226.532 161.112 226.674 160.258 227.008L159.9 228.224Z" fill="#205260"/>
<path d="M159.47 230.442C161.95 229.669 164.628 229.848 166.983 230.943L166.267 229.583C166.267 229.583 162.833 228.081 159.9 229.226L159.47 230.442Z" fill="#205260"/>
<path d="M164.55 73.046C164.766 76.9879 164.081 80.9272 162.547 84.5645C162.547 84.5645 164.622 88.3563 170.202 86.0669C170.202 86.0669 169.272 80.8443 172.921 74.6915C175.425 70.542 164.55 73.046 164.55 73.046Z" fill="#EF6E4B"/>
<path d="M176.856 70.1843C176.856 70.1843 179.503 68.3242 179.288 70.9713C179.073 73.6184 176.069 74.7631 175.711 73.6899C175.353 72.6168 176.856 70.1843 176.856 70.1843Z" fill="#FF8B66"/>
<path d="M161.188 67.394C161.188 67.394 159.399 64.7469 158.612 67.3225C157.825 69.8981 160.258 71.9728 160.973 71.1143C161.688 70.2558 161.188 67.394 161.188 67.394Z" fill="#FF8B66"/>
<path d="M167.269 79.628C172.205 80.558 175.568 77.8394 177.356 68.181C178.287 63.1729 176.355 59.6673 170.774 58.5942C165.194 57.521 162.332 60.2397 161.402 65.1762C159.471 75.6215 162.118 78.6979 167.269 79.628Z" fill="#FF8B66"/>
<path d="M162.404 68.968C162.357 69.2416 162.41 69.5231 162.555 69.76C162.7 69.9969 162.926 70.1731 163.191 70.2558C163.449 70.3612 163.738 70.3685 164.001 70.2762C164.265 70.184 164.485 69.9986 164.622 69.755C164.765 69.3258 164.407 68.7534 163.835 68.4672C163.576 68.3619 163.288 68.3546 163.025 68.4468C162.761 68.5391 162.54 68.7244 162.404 68.968Z" fill="#DB614D"/>
<path d="M172.563 71.1143C172.553 71.2518 172.572 71.3897 172.618 71.5196C172.664 71.6495 172.736 71.7686 172.83 71.8693C172.924 71.97 173.038 72.0503 173.164 72.105C173.29 72.1598 173.427 72.1878 173.565 72.1875C173.84 72.2523 174.129 72.206 174.37 72.0586C174.611 71.9113 174.785 71.6748 174.852 71.4005C174.924 70.8997 174.423 70.3989 173.779 70.3274C173.515 70.2829 173.243 70.339 173.018 70.4847C172.793 70.6303 172.631 70.8549 172.563 71.1143Z" fill="#DB614D"/>
<path d="M165.48 64.3176H165.838C166.444 63.969 167.152 63.8425 167.841 63.9599C167.984 64.0315 168.127 63.9599 168.127 63.8168C168.152 63.7501 168.152 63.6764 168.125 63.6103C168.099 63.5441 168.048 63.4902 167.984 63.4591C167.148 63.3023 166.284 63.4549 165.552 63.8884C165.518 63.9012 165.487 63.9225 165.464 63.9503C165.44 63.9781 165.424 64.0115 165.417 64.0473C165.409 64.0831 165.411 64.1202 165.423 64.155C165.434 64.1898 165.454 64.2211 165.48 64.2461V64.3176Z" fill="#FFB878"/>
<path d="M172.849 64.89H172.992C173.684 65.0149 174.313 65.3675 174.781 65.8916C174.853 66.0347 174.996 66.0347 175.139 65.9631C175.19 65.9211 175.226 65.8624 175.239 65.7971C175.252 65.7318 175.242 65.664 175.21 65.6054C174.67 64.9481 173.905 64.5147 173.064 64.3892C172.921 64.3892 172.778 64.4607 172.778 64.6038C172.763 64.6535 172.761 64.7064 172.774 64.7568C172.786 64.8072 172.813 64.8533 172.849 64.89Z" fill="#FFB878"/>
<path d="M165.552 67.0363C165.48 67.6802 165.623 68.2525 165.981 68.3241C166.339 68.3956 166.697 67.8948 166.768 67.3225C166.84 66.7501 166.697 66.1062 166.41 66.0347C166.124 65.9631 165.695 66.4639 165.552 67.0363Z" fill="#1A4850"/>
<path d="M172.277 68.3956C172.205 69.0395 172.348 69.6119 172.706 69.6834C173.064 69.755 173.422 69.2542 173.565 68.6818C173.708 68.1095 173.493 67.4656 173.135 67.394C172.778 67.3225 172.42 67.8233 172.277 68.3956Z" fill="#1A4850"/>
<path d="M170.417 74.1192C170.417 74.1192 167.269 73.9761 165.838 72.903C165.838 72.903 166.339 75.3354 168.056 75.407C168.534 75.4581 169.016 75.3622 169.438 75.1321C169.859 74.902 170.201 74.5486 170.417 74.1192Z" fill="#1A4850"/>
<path d="M167.269 67.0363C167.269 67.0363 167.126 65.4623 166.482 65.4623C165.838 65.4623 165.194 66.6786 165.194 66.6786L164.407 66.0347L165.265 66.3208C165.265 66.3208 165.981 65.0331 166.553 65.1761C167.126 65.3192 167.269 67.0363 167.269 67.0363Z" fill="#1A4850"/>
<path d="M172.062 68.181C172.062 68.181 172.778 66.7502 173.35 66.9648C173.922 67.1794 174.137 68.5387 174.137 68.5387L175.139 68.2526H174.209C174.209 68.2526 173.994 66.8217 173.422 66.6786C172.849 66.5355 172.062 68.181 172.062 68.181Z" fill="#1A4850"/>
<path d="M168.414 71.1143C168.485 71.2573 168.628 71.2573 168.771 71.3289L168.986 70.8281C168.557 70.685 168.485 70.3988 168.557 70.1842C168.628 69.9696 168.843 69.6118 168.986 69.6118C169.129 69.6118 169.201 69.6834 169.272 69.8265L169.773 69.6834C169.558 69.111 169.129 69.0395 168.914 69.111C168.7 69.1826 168.128 69.5403 167.984 70.0411C167.954 70.242 167.978 70.4472 168.054 70.6358C168.129 70.8244 168.253 70.9895 168.414 71.1143Z" fill="#DB614D"/>
<path d="M160.901 69.1111C160.901 69.1111 158.827 63.1014 162.547 58.1649C166.267 53.2284 176.355 56.9487 178.215 60.7405C180.075 64.5323 176.426 72.1159 176.426 72.1159C176.426 72.1159 179.217 62.0283 173.636 60.3112C173.636 60.3112 172.921 62.8868 168.557 64.6754C164.192 66.464 161.76 66.1778 161.76 66.1778L160.901 69.1111Z" fill="#FFB878"/>
<path d="M178.644 85.423C178.644 85.423 184.94 85.4945 200.537 101.163C202.683 103.309 200.251 110.105 193.812 105.884C187.373 101.663 181.935 96.5122 180.505 98.3008C180.505 98.3008 176.784 89.3579 178.644 85.423Z" fill="#EF6E4B"/>
<path d="M201.467 100.233C201.395 95.0814 197.317 81.9889 194.098 76.6232L191.307 77.911C191.307 77.911 194.384 92.5774 193.955 97.5854C193.525 102.593 195.171 105.884 198.533 106.671C201.896 107.458 201.467 101.306 201.467 100.233Z" fill="#FF8B66"/>
<path d="M189.018 70.3273C191.021 73.6898 188.66 75.9792 191.307 77.9109C193.954 79.8426 194.527 77.4101 194.527 77.4101C195.172 75.0826 196.161 72.8643 197.46 70.8281C198.319 69.4688 197.46 69.6118 197.46 69.6118C197.46 69.6118 197.675 69.3972 197.746 69.3257C197.818 69.2541 199.106 67.9663 198.247 67.8948C197.389 67.8233 195.171 70.1126 195.171 70.1126C197.317 66.1062 198.533 66.1778 197.675 66.0347C196.816 65.8916 194.098 69.0395 194.026 69.111C194.956 66.5355 196.029 65.4623 195.171 65.5339C194.312 65.6054 192.166 70.0411 191.45 71.6866C191.327 71.8875 191.231 72.1041 191.164 72.3305C189.662 69.4688 189.018 70.3273 189.018 70.3273Z" fill="#FF8B66"/>
<path d="M191.45 71.6866C191.327 71.8876 191.231 72.1041 191.164 72.3305C191.523 72.6023 191.804 72.9632 191.98 73.3775C192.156 73.7917 192.22 74.2447 192.166 74.6915C192.427 74.1882 192.499 73.6076 192.368 73.0558C192.236 72.5041 191.911 72.018 191.45 71.6866Z" fill="#EF6E4B"/>
<path d="M195.385 72.116C195.6 71.7582 196.745 69.9697 197.46 69.6119C198.176 69.2542 197.675 69.3973 197.746 69.3258C197.818 69.2542 195.6 71.6867 195.385 72.116Z" fill="#EF6E4B"/>
<path d="M152.745 79.628C152.745 79.628 146.45 78.3402 127.991 90.4311C125.416 92.0766 126.417 99.2309 133.643 96.5123C140.869 93.7936 147.523 89.6441 148.596 91.7188C148.596 91.7188 153.675 83.849 152.745 79.628Z" fill="#EF6E4B"/>
<path d="M127.276 89.3579C128.349 84.2783 135.074 72.3305 139.295 67.7517L141.799 69.6118C141.799 69.6118 135.718 83.2767 135.146 88.2847C134.573 93.2928 132.284 96.1545 128.85 96.226C125.416 96.2976 127.061 90.431 127.276 89.3579Z" fill="#FF8B66"/>
<path d="M145.591 62.6007C142.944 65.4624 144.804 68.1811 141.799 69.6119C139.939 70.4704 138.723 68.4672 138.723 68.4672C138.565 66.0464 138.059 63.6609 137.221 61.3844C136.648 59.882 137.435 60.2397 137.435 60.2397L137.221 59.8105C136.72 58.8804 136.219 58.2365 137.077 58.3796C137.936 58.5227 139.581 61.1698 139.581 61.1698C138.294 56.8056 137.077 56.591 138.007 56.6625C138.938 56.7341 140.869 60.3113 140.869 60.3828C140.583 57.6642 139.725 56.3764 140.512 56.6625C141.298 56.9487 142.515 61.7421 142.944 63.4592C142.977 63.6769 143.024 63.892 143.087 64.1031C145.09 61.6706 145.591 62.6007 145.591 62.6007Z" fill="#FF8B66"/>
<path d="M142.944 63.4591C142.977 63.6768 143.024 63.892 143.087 64.103C142.672 64.2996 142.315 64.6009 142.052 64.9772C141.788 65.3536 141.627 65.7919 141.585 66.2493C141.436 65.6985 141.492 65.1124 141.741 64.5994C141.991 64.0865 142.419 63.6814 142.944 63.4591Z" fill="#EF6E4B"/>
<path d="M138.938 63.0299C138.866 62.6722 138.079 60.669 137.435 60.2397L137.221 59.8105C138.079 59.6674 138.866 62.6007 138.938 63.0299Z" fill="#EF6E4B"/>
<path d="M148.811 118.619C148.811 118.619 127.562 147.737 134.216 178.573C134.216 178.573 141.442 185.226 147.094 182.937C152.746 180.648 158.541 188.947 163.62 186.299C168.7 183.652 173.064 181.649 176.57 183.08C180.075 184.511 185.942 178.573 185.942 178.573C185.942 178.573 183.366 144.446 170.417 121.91C170.417 121.91 159.9 126.775 148.811 118.619Z" fill="#FFB878"/>
<path d="M157.611 230.442C158.361 231.538 158.876 232.778 159.123 234.083C159.369 235.389 159.341 236.731 159.041 238.026H157.038C156.809 235.483 157.002 232.921 157.611 230.442Z" fill="#07262D"/>
<path d="M88.6425 151.315C88.6425 151.315 92.5058 163.549 101.95 179.932C101.95 179.932 100.376 197.317 127.276 229.512L130.996 227.437C130.996 227.437 117.117 195.099 114.899 185.513C112.681 175.926 113.611 163.119 106.385 143.087L88.6425 151.315Z" fill="#FF8B66"/>
<path d="M105.026 126.704L92.2911 121.552C90.0733 128.635 84.3498 133.715 84.8506 144.804C85.0652 150.241 88.6424 155.893 88.6424 155.893C103.667 155.393 108.746 149.097 108.746 149.097L106.457 138.508C106.457 138.508 104.954 131.354 105.026 126.704Z" fill="#CE364C"/>
<path d="M74.8346 143.159C74.8346 143.159 74.4053 155.965 77.911 174.566C77.911 174.566 70.6135 190.377 85.2084 229.726L89.358 229.011C89.358 229.011 87.1401 193.883 88.2133 184.153C89.2864 174.423 94.9384 165.695 94.366 141.299L74.8346 143.159Z" fill="#FF8B66"/>
<path d="M105.026 126.704L100.018 135.289L98.8017 137.292L96.1546 141.728L94.5091 153.533V154.32C81.6313 152.889 74.7631 156.895 74.7631 156.895L74.62 155.75V155.393C74.62 155.321 74.62 155.321 74.5485 155.25C73.4038 151.672 71.6867 142.157 73.6899 135.718C76.9809 125.13 82.8475 126.131 87.2832 120.193L105.026 126.704Z" fill="#F24052"/>
<path d="M82.6328 226.078C82.6328 226.078 84.2783 229.726 83.7775 232.23C83.2767 234.734 81.8458 235.593 83.1336 238.025H93.2212C93.5344 237.129 93.5864 236.162 93.371 235.238C93.1557 234.313 92.6819 233.468 92.005 232.803C90.7172 231.443 89.7156 225.005 89.7156 225.005C89.5831 224.995 89.4503 225.02 89.3298 225.076C89.2093 225.132 89.1049 225.217 89.0263 225.324C88.9478 225.431 88.8976 225.557 88.8805 225.688C88.8634 225.82 88.88 225.954 88.9286 226.078C88.9286 226.078 88.9286 223.073 86.4246 223.431C83.9205 223.788 84.0636 226.578 84.0636 226.578C84.0108 226.445 83.9299 226.324 83.8262 226.224C83.7225 226.124 83.5986 226.048 83.4628 226.001C83.327 225.953 83.1826 225.935 83.0394 225.949C82.8962 225.962 82.7575 226.006 82.6328 226.078Z" fill="#0C476B"/>
<path d="M143.016 238.026H126.06C126.06 238.026 125.631 234.377 126.346 233.232C127.061 232.087 123.699 227.652 123.699 227.652C123.699 227.652 125.988 224.79 127.991 226.435C127.991 226.435 127.777 222.93 130.281 222.93C130.281 222.93 132.642 228.868 135.289 231.014L135.504 231.157C137.507 232.588 141.084 232.946 142.515 234.949C142.83 235.389 143.039 235.895 143.126 236.429C143.213 236.962 143.175 237.509 143.016 238.026Z" fill="#0C476B"/>
<path d="M95.2243 153.747L95.0097 154.248L94.4373 154.105C83.7774 151.172 76.4799 154.606 74.4767 155.75V155.393C74.4767 155.321 74.4767 155.321 74.4052 155.25C76.0365 154.325 77.7969 153.65 79.6278 153.246C79.1512 148.129 79.1751 142.977 79.6994 137.864C80.5579 129.637 88.6423 124.629 88.7139 124.629L89 125.058C88.9285 125.13 83.2766 128.635 80.9872 134.573C88.4992 134.502 91.4325 125.13 91.5041 125.058L92.0049 125.201C91.9333 125.344 88.857 135.146 80.9156 135.146H80.8441C80.4798 136.035 80.2623 136.977 80.2002 137.936C79.6495 142.977 79.6495 148.062 80.2002 153.103C84.9543 152.044 89.8979 152.192 94.5804 153.533L95.2243 153.747Z" fill="#CE364C"/>
<path d="M100.662 129.136C100.662 129.208 99.9463 136.505 96.5837 142.085L97.013 142.372C100.447 136.72 101.163 129.279 101.234 129.208L100.662 129.136Z" fill="#CE364C"/>
<path d="M123.77 125.845C123.77 125.845 122.483 131.783 121.195 132.213C119.907 132.642 120.98 129.136 120.98 129.136C120.98 129.136 111.68 125.416 107.888 125.13C104.096 124.844 109.462 117.618 123.77 125.845Z" fill="#0C476B"/>
<path d="M122.125 126.918C122.125 126.918 112.395 122.483 105.598 122.84C98.8016 123.198 114.97 100.662 119.048 102.951C123.126 105.241 123.913 124.057 122.125 126.918Z" fill="#0C476B"/>
<path d="M97.8716 83.706C97.8716 83.706 98.8732 81.202 103.667 80.7727C108.46 80.3435 112.824 85.3515 111.894 88.3563C110.964 91.3612 97.8716 83.706 97.8716 83.706Z" fill="#0C476B"/>
<path d="M105.598 62.386C105.598 62.386 105.241 56.0902 99.3741 55.0886C93.5076 54.087 88.8572 55.5894 90.932 63.96C93.0068 72.3306 91.6474 75.6931 87.7841 76.1224C83.9207 76.5517 84.2069 71.9729 84.2069 71.9729C84.0102 73.1698 84.2483 74.3976 84.8781 75.4342C85.508 76.4709 86.488 77.2479 87.641 77.6248C87.641 77.6248 83.2053 77.9825 84.7792 80.7727C86.3532 83.5629 91.2897 83.1337 93.2214 80.7727C93.2214 80.7727 93.3645 82.6329 95.797 81.989C95.4826 81.8763 95.2176 81.6573 95.0478 81.3699C94.8779 81.0824 94.8139 80.7447 94.8669 80.415C94.9384 79.1988 101.592 81.2735 103.667 73.4753C105.742 65.677 101.592 64.3177 101.592 64.3177L105.598 62.386Z" fill="#0E3944"/>
<path d="M116.759 87.2116C113.182 87.0685 113.039 90.5742 114.828 94.0083C116.616 97.4424 134.073 113.11 136.72 110.177C137.793 109.032 134.788 103.81 134.788 103.81C130.769 100.176 126.971 96.3059 123.413 92.2197C120.479 88.8571 118.548 87.2832 116.759 87.2116Z" fill="#FF8B66"/>
<path d="M139.081 104.525C140.082 99.4456 138.651 85.8523 136.505 79.9142L133.5 80.6296C133.5 80.6296 133.715 95.6538 132.284 100.447C130.853 105.241 131.783 108.818 134.931 110.249C138.079 111.68 138.866 105.598 139.081 104.525Z" fill="#FF8B66"/>
<path d="M130.066 76.6232C133.286 78.841 132.141 81.9174 135.432 82.5613C135.974 82.665 136.535 82.563 137.006 82.2751C137.375 81.9995 137.659 81.6245 137.824 81.1938C137.988 80.7632 138.027 80.2946 137.936 79.8426C137.7 77.7518 137.676 75.6425 137.864 73.5468C138.079 71.9013 137.435 72.4021 137.435 72.4021C137.435 72.4021 137.507 72.1159 137.507 71.9728C137.507 71.8298 138.15 70.1842 137.363 70.4704C136.577 70.7566 135.575 73.833 135.575 73.833C135.79 69.2542 136.863 68.8249 136.076 69.0396C135.289 69.2542 134.144 73.2606 134.072 73.4037C133.786 70.6851 134.287 69.2542 133.572 69.6835C132.856 70.1127 132.856 75.0492 132.856 76.8378V77.5532C130.281 75.6216 130.066 76.6232 130.066 76.6232Z" fill="#FF8B66"/>
<path d="M132.856 76.8378V77.5532C133.307 77.629 133.728 77.8303 134.069 78.134C134.411 78.4376 134.66 78.8315 134.788 79.2702C134.815 78.6997 134.634 78.1389 134.279 77.6916C133.923 77.2443 133.418 76.941 132.856 76.8378Z" fill="#EF6E4B"/>
<path d="M136.577 75.5501C136.648 75.1208 136.934 72.9745 137.435 72.4022C137.936 71.8298 137.507 72.116 137.507 71.9729C137.507 71.8298 136.577 75.0493 136.577 75.5501Z" fill="#EF6E4B"/>
<path d="M111.536 86.9969C111.536 86.9969 116.33 84.9937 122.268 88.4993C125.989 90.8739 129.18 93.9916 131.64 97.6569C131.64 97.6569 131.712 87.14 133.5 85.423C133.5 85.423 135.718 87.9985 138.437 88.4993C138.437 88.4993 145.52 103.094 141.012 112.109C136.505 121.123 123.341 112.109 123.341 112.109L111.536 86.9969Z" fill="#0C476B"/>
<path d="M87.0685 120.193C87.0685 120.193 90.5741 110.892 88.7855 105.598C85.7091 96.5838 87.3547 88.9286 90.6457 86.6392C95.8683 82.9905 106.886 87.14 106.886 87.14C106.886 87.14 117.546 85.9953 118.619 89.2863C119.692 92.5773 122.268 105.67 117.188 112.681C112.109 119.692 105.026 130.567 105.026 130.567C105.026 130.567 89.9302 129.136 87.0685 120.193Z" fill="#CFD8DC"/>
<path d="M93.2212 125.845C93.2212 125.845 91.7188 130.853 89.8586 130.567C87.9985 130.281 79.8425 125.845 79.8425 125.13C79.8425 124.414 80.9872 122.84 80.9872 122.84C80.9872 122.84 80.558 118.977 81.5596 118.619C82.5612 118.261 93.2212 125.845 93.2212 125.845Z" fill="#0C476B"/>
<path d="M110.392 85.4231C110.392 85.4231 121.552 104.74 120.98 129.136C120.98 129.136 126.06 127.848 126.99 118.691C127.92 109.533 124.7 92.0766 120.265 87.4978C120.265 87.4978 117.045 84.2068 110.392 85.4231Z" fill="#105E99"/>
<path d="M100.948 84.5645C100.948 84.5645 109.247 114.327 93.2212 125.845C88.8076 125.403 84.6971 123.399 81.6312 120.193C76.8377 114.971 83.3482 86.6393 83.3482 86.6393C83.3482 86.6393 91.9334 80.9874 100.948 84.5645Z" fill="#105E99"/>
<path d="M102.665 93.8651C102.665 93.8651 102.593 84.9222 101.592 82.6328C100.59 80.3434 97.8716 83.7059 97.8716 83.7059C97.8716 83.7059 98.6586 87.8555 102.665 93.8651Z" fill="#0C476B"/>
<path d="M113.969 93.0067C113.969 93.0067 114.97 84.2068 111.966 82.7044C108.961 81.202 108.889 86.6393 108.889 86.6393C108.889 86.6393 111.536 86.3531 113.969 93.0067Z" fill="#0C476B"/>
<path d="M105.241 74.9776C105.241 74.9776 105.956 81.0588 103.667 86.5677C103.667 86.5677 106.886 91.3611 109.962 88.2132C110.38 84.0423 111.646 80.0009 113.683 76.3369C115.972 72.1159 105.241 74.9776 105.241 74.9776Z" fill="#EF6E4B"/>
<path d="M100.304 75.1923C100.304 75.1923 97.5852 73.4753 97.943 76.1224C98.3007 78.7695 101.234 79.7711 101.592 78.698C101.949 77.6248 100.304 75.1923 100.304 75.1923Z" fill="#FF8B66"/>
<path d="M115.829 71.9013C115.829 71.9013 117.546 69.1827 118.404 71.6867C119.263 74.1907 116.974 76.4086 116.187 75.6216C115.4 74.8346 115.829 71.9013 115.829 71.9013Z" fill="#FF8B66"/>
<path d="M110.249 84.3498C105.312 85.423 101.878 82.8474 99.7317 73.2606C98.587 68.2525 100.447 64.6754 105.956 63.4591C111.465 62.2429 114.398 64.7469 115.543 69.6834C117.832 80.0572 115.328 83.2051 110.249 84.3498Z" fill="#FF8B66"/>
<path d="M114.684 73.4753C114.728 73.6067 114.744 73.7457 114.731 73.8835C114.718 74.0213 114.676 74.155 114.609 74.276C114.542 74.397 114.45 74.5027 114.34 74.5866C114.23 74.6704 114.103 74.7305 113.969 74.763C113.73 74.8976 113.448 74.9355 113.182 74.8689C112.916 74.8024 112.686 74.6365 112.538 74.4053C112.468 74.1304 112.502 73.839 112.634 73.5878C112.766 73.3367 112.987 73.1436 113.254 73.046C113.504 72.9344 113.786 72.9163 114.049 72.9951C114.311 73.0738 114.537 73.2442 114.684 73.4753Z" fill="#DB614D"/>
<path d="M104.668 76.0508C104.669 76.3234 104.566 76.5861 104.38 76.7854C104.194 76.9847 103.939 77.1058 103.667 77.1239C103.023 77.1955 102.45 76.9093 102.379 76.4085C102.307 75.9077 102.737 75.4069 103.38 75.2638C103.654 75.2165 103.936 75.2702 104.172 75.415C104.409 75.5598 104.586 75.7857 104.668 76.0508Z" fill="#DB614D"/>
<path d="M111.25 69.0395H111.107C110.499 68.6968 109.784 68.5947 109.104 68.7534C109.037 68.7783 108.964 68.7775 108.897 68.751C108.831 68.7246 108.777 68.6744 108.746 68.6103C108.746 68.4672 108.818 68.3241 108.961 68.3241C109.365 68.2068 109.788 68.1718 110.206 68.2209C110.624 68.2701 111.028 68.4025 111.393 68.6103C111.536 68.6818 111.536 68.8249 111.465 68.968L111.25 69.0395Z" fill="#0E3944"/>
<path d="M102.021 71.1143H101.878C101.735 71.0427 101.735 70.8996 101.807 70.7566C102.318 70.0751 103.052 69.5941 103.881 69.3972C104.024 69.3972 104.167 69.4688 104.167 69.6118C104.167 69.7549 104.096 69.898 103.953 69.898C103.263 70.0649 102.655 70.4704 102.236 71.0427L102.021 71.1143Z" fill="#0E3944"/>
<path d="M111.465 71.6866C111.608 72.3305 111.465 72.9029 111.107 72.9744C110.749 73.046 110.392 72.6167 110.249 71.9728C110.106 71.3289 110.249 70.8281 110.606 70.7566C110.964 70.685 111.322 71.1143 111.465 71.6866Z" fill="#1A4850"/>
<path d="M104.668 73.2606C104.811 73.833 104.597 74.4053 104.31 74.4768C104.024 74.5484 103.595 74.1191 103.452 73.4752C103.309 72.8314 103.452 72.3305 103.81 72.259C104.167 72.1875 104.525 72.6167 104.668 73.2606Z" fill="#1A4850"/>
<path d="M107.029 78.7695C108.7 78.77 110.336 78.2988 111.751 77.4102C111.751 77.4102 112.323 81.0589 109.819 81.3451C107.315 81.6312 107.029 78.7695 107.029 78.7695Z" fill="#1A4850"/>
<path d="M109.748 71.7582C109.748 71.7582 109.891 70.1842 110.463 70.1127C111.036 70.0411 111.823 71.3289 111.823 71.3289L112.61 70.685L111.751 70.9712C111.751 70.9712 110.964 69.755 110.392 69.8265C109.819 69.8981 109.748 71.7582 109.748 71.7582Z" fill="#1A4850"/>
<path d="M105.026 73.046C105.026 73.046 104.239 71.6152 103.666 71.8298C103.094 72.0444 102.951 73.4753 102.951 73.4753L101.949 73.1891H102.879C102.879 73.1891 103.022 71.7582 103.595 71.6152C104.167 71.4721 105.026 73.046 105.026 73.046Z" fill="#1A4850"/>
<path d="M108.46 76.1224L108.174 75.6216C108.603 75.407 108.675 75.1208 108.603 74.9062C108.588 74.7786 108.53 74.6598 108.439 74.569C108.349 74.4781 108.23 74.4205 108.102 74.4053L107.888 74.62L107.387 74.4769C107.601 73.833 108.031 73.833 108.174 73.833C108.424 73.8832 108.652 74.0108 108.826 74.1977C108.999 74.3846 109.11 74.6215 109.141 74.8746C109.173 75.1278 109.124 75.3845 109.002 75.6085C108.88 75.8324 108.69 76.0122 108.46 76.1224Z" fill="#DB614D"/>
<path d="M100.733 76.9093C100.302 75.2681 100.015 73.5924 99.8748 71.9012C99.7268 70.1921 100.163 68.4834 101.111 67.054C102.06 65.6247 103.465 64.5591 105.097 64.0314C106.373 63.6566 107.706 63.5112 109.032 63.6022C110.115 63.713 111.149 64.1091 112.029 64.7501C112.909 65.3911 113.603 66.2541 114.04 67.2509C115.016 69.3579 115.76 71.5649 116.258 73.8329C116.803 71.4577 116.828 68.9926 116.33 66.607C115.471 62.1713 111.894 58.5226 103.523 60.3112C96.2976 61.8851 93.2212 70.5419 100.733 76.9093Z" fill="#1A4850"/>
<path d="M111.179 62.5291C111.179 62.5291 110.249 69.3973 100.948 70.2558C100.948 70.2558 106.6 68.2526 106.6 64.2462C106.6 64.2462 104.382 69.3258 99.0162 68.7534C99.0162 68.7534 98.5154 60.5974 111.179 62.5291Z" fill="#1A4850"/>
<path d="M82.8474 88.8572C87.4262 90.145 90.431 97.5139 89.501 98.3725C88.5709 99.231 67.1794 103.309 67.1794 103.309L80.2003 122.053L77.9824 125.273C77.9824 125.273 57.6641 107.315 57.8071 101.163C57.9502 95.0099 82.8474 88.8572 82.8474 88.8572Z" fill="#FF8B66"/>
<path d="M80.2718 121.552C81.8096 121.711 83.3379 121.949 84.8506 122.268C86.6392 122.697 89.0001 123.198 89.0717 123.556C89.1432 123.913 85.1368 123.556 85.1368 123.556C85.1368 123.556 88.4278 124.915 88.4993 125.416C88.5709 125.917 84.3498 125.058 84.3498 125.058C84.3498 125.058 86.9969 126.632 86.8538 127.133C86.7108 127.634 83.4197 126.417 83.4197 126.417C83.7434 127.221 84.1511 127.989 84.636 128.707C84.636 128.707 84.0636 129.065 82.7043 127.634C81.345 126.203 79.4133 126.704 77.7678 125.416C76.1223 124.128 78.7694 121.338 80.2718 121.552Z" fill="#FF8B66"/>
<path d="M83.3482 86.6393C83.3482 86.6393 91.2896 87.5693 91.6473 99.3025C92.005 111.036 74.2622 107.244 74.2622 107.244C74.2622 107.244 78.5548 112.252 77.267 117.832C77.267 117.832 72.4021 117.761 72.5452 120.193C72.5452 120.193 65.1046 120.694 57.8072 110.535C50.5097 100.376 60.7405 89.1433 83.3482 86.6393Z" fill="#0C476B"/>
<path d="M123.699 97.8716C124.2 99.5887 123.77 101.234 122.769 101.592C121.767 101.95 120.479 100.733 119.979 99.0163C119.478 97.2993 119.835 95.6538 120.837 95.296C121.839 94.9383 123.126 96.1546 123.699 97.8716Z" fill="#0C476B"/>
<path d="M100.895 100.128C100.985 98.1541 99.7455 96.4946 98.1271 96.4211C96.5088 96.3476 95.1242 97.888 95.0346 99.8616C94.945 101.835 96.1842 103.495 97.8026 103.568C99.4209 103.642 100.805 102.101 100.895 100.128Z" fill="#0C476B"/>
<path d="M74.1907 95.1529C72.3306 95.5822 70.4704 94.6521 70.1127 93.0781C69.755 91.5042 70.9712 89.7871 72.9029 89.3579C74.8346 88.9286 76.6947 89.9302 77.0524 91.5042C77.4102 93.0781 76.1224 94.7236 74.1907 95.1529Z" fill="#105E99"/>
<path d="M83.5629 234.305C83.5629 234.305 86.2815 230.728 91.9335 233.59C91.9335 233.59 92.1481 236.094 89.501 235.593C86.8539 235.092 85.3515 237.024 83.5629 234.305Z" fill="#105E99"/>
<path d="M142.515 234.949C138.937 236.666 131.497 232.588 131.497 232.588C132.642 232.803 134.43 231.801 135.503 231.157C137.507 232.588 141.084 232.946 142.515 234.949Z" fill="#105E99"/>
</g>
<defs>
<clipPath id="clip0_727_8430">
<rect width="308.711" height="239.671" fill="white"/>
</clipPath>
</defs>
</svg>
