<svg width="265" height="244" viewBox="0 0 265 244" fill="none" xmlns="http://www.w3.org/2000/svg">
<path d="M132.5 243.25C205.678 243.25 265 209.006 265 166.765C265 124.523 205.678 90.2796 132.5 90.2796C59.3223 90.2796 0 124.523 0 166.765C0 209.006 59.3223 243.25 132.5 243.25Z" fill="#F5F5F5"/>
<path d="M15.226 151.611L159.763 235.058C160.634 235.498 161.595 235.728 162.57 235.728C163.546 235.728 164.507 235.498 165.378 235.058L244.058 189.632C245.608 188.734 245.608 187.285 244.058 186.387L99.5207 102.94C98.6503 102.5 97.6887 102.271 96.7135 102.271C95.7382 102.271 94.7766 102.5 93.9063 102.94L15.226 148.366C13.6708 149.265 13.6708 150.713 15.226 151.611Z" fill="#E0E0E0"/>
<path d="M26.0845 142.589L31.901 139.967C31.901 139.967 34.4387 128.329 34.4668 119.121C34.5005 106.208 27.7856 89.926 17.5449 92.5479C7.30427 95.1698 20.3858 109.672 22.4912 120.867C24.5966 132.062 26.0845 142.589 26.0845 142.589Z" fill="#FF7250"/>
<path opacity="0.15" d="M26.0845 142.589L31.901 139.967C31.901 139.967 34.4387 128.329 34.4668 119.121C34.5005 106.208 27.7856 89.926 17.5449 92.5479C7.30427 95.1698 20.3858 109.672 22.4912 120.867C24.5966 132.062 26.0845 142.589 26.0845 142.589Z" fill="#455A64"/>
<path d="M29.1108 141.545C29.0672 141.539 29.0251 141.525 28.9869 141.503C28.9488 141.481 28.9154 141.452 28.8888 141.417C28.8621 141.382 28.8427 141.342 28.8317 141.299C28.8206 141.257 28.8182 141.212 28.8245 141.169C32.6704 112.793 19.9425 97.0394 19.8415 96.8822C19.813 96.8485 19.7915 96.8095 19.7783 96.7674C19.7651 96.7252 19.7605 96.6809 19.7647 96.637C19.7689 96.593 19.7818 96.5504 19.8027 96.5115C19.8236 96.4726 19.852 96.4383 19.8864 96.4106C19.9551 96.3545 20.0431 96.3278 20.1314 96.3362C20.2197 96.3446 20.3011 96.3875 20.358 96.4555C20.4871 96.6127 33.4003 112.597 29.5151 141.259C29.5091 141.305 29.4937 141.349 29.4697 141.389C29.4457 141.429 29.4137 141.463 29.3757 141.49C29.3377 141.517 29.2946 141.536 29.249 141.545C29.2034 141.555 29.1564 141.555 29.1108 141.545V141.545Z" fill="white"/>
<path d="M22.4573 144.217L26.567 142.348C26.567 142.348 28.0492 134.336 25.0792 124.118C22.4966 115.224 14.6532 107.274 10.201 108.324C5.7488 109.374 5.54106 112.445 7.32083 115.859C9.1006 119.272 21.0874 128.194 22.4573 144.217Z" fill="#FF7250"/>
<path opacity="0.2" d="M22.4573 144.217L26.567 142.348C26.567 142.348 28.0492 134.336 25.0792 124.118C22.4966 115.224 14.6532 107.274 10.201 108.324C5.7488 109.374 5.54106 112.445 7.32083 115.859C9.1006 119.272 21.0874 128.194 22.4573 144.217Z" fill="white"/>
<path d="M24.5797 143.566C24.4922 143.556 24.4121 143.512 24.3565 143.444C24.3009 143.376 24.2742 143.289 24.2821 143.201C26.1798 125.201 10.5043 111.328 10.3471 111.199C10.2809 111.141 10.2404 111.059 10.2346 110.971C10.2288 110.883 10.2582 110.796 10.3163 110.73C10.3743 110.664 10.4563 110.623 10.5443 110.618C10.6322 110.612 10.7188 110.641 10.7851 110.699C10.9479 110.84 26.8816 124.943 24.9502 143.263C24.946 143.307 24.933 143.35 24.9121 143.39C24.8912 143.429 24.8626 143.464 24.8282 143.492C24.7937 143.52 24.754 143.541 24.7114 143.554C24.6687 143.566 24.6239 143.571 24.5797 143.566V143.566Z" fill="white"/>
<path d="M216.239 43.9552C216.244 43.6494 216.202 43.3446 216.116 43.0513L219.4 39.2896L215.189 36.926C214.791 36.6509 214.224 36.6172 213.454 37.0663L206.156 41.3052L205.173 41.8667C205.346 41.02 205.462 40.1629 205.521 39.3009C205.549 38.9416 205.555 38.5991 205.555 38.2566L205.69 38.324L208.154 35.4438L203.944 33.0745C202.529 32.2099 200.137 33.9167 200.137 34.6072C200.137 35.4382 200.496 39.7893 200.137 41.0357C199.778 42.2821 196.016 50.8778 196.016 50.8778V51.4392V68.7877L209.743 60.849C211.546 59.8047 212.798 57.5814 212.798 56.0767C212.818 55.4031 212.693 54.733 212.433 54.1117C213.6 53.4379 214.763 51.0013 214.763 49.9682C214.763 48.4074 214.229 48.0032 214.229 48.0032C215.407 46.9722 216.13 45.517 216.239 43.9552Z" fill="#FF7250"/>
<path opacity="0.1" d="M216.239 43.9552C216.244 43.6494 216.202 43.3446 216.116 43.0513L219.4 39.2896L215.189 36.926C214.791 36.6509 214.224 36.6172 213.454 37.0663L206.156 41.3052L205.173 41.8667C205.346 41.02 205.462 40.1629 205.521 39.3009C205.549 38.9416 205.555 38.5991 205.555 38.2566L205.69 38.324L208.154 35.4438L203.944 33.0745C202.529 32.2099 200.137 33.9167 200.137 34.6072C200.137 35.4382 200.496 39.7893 200.137 41.0357C199.778 42.2821 196.016 50.8778 196.016 50.8778V51.4392V68.7877L209.743 60.849C211.546 59.8047 212.798 57.5814 212.798 56.0767C212.818 55.4031 212.693 54.733 212.433 54.1117C213.6 53.4379 214.763 51.0013 214.763 49.9682C214.763 48.4074 214.229 48.0032 214.229 48.0032C215.407 46.9722 216.13 45.517 216.239 43.9552Z" fill="#455A64"/>
<path d="M200.356 71.2525L196.01 68.7428L195.999 50.8216L200.339 53.3313L200.356 71.2525Z" fill="#E0E0E0"/>
<path d="M200.356 71.2525L196.01 68.7428L195.999 50.8216L200.339 53.3313L200.356 71.2525Z" fill="#FF7250"/>
<path opacity="0.3" d="M200.356 71.2525L196.01 68.7428L195.999 50.8216L200.339 53.3313L200.356 71.2525Z" fill="#455A64"/>
<path d="M219.259 52.7698C219.259 55.083 217.94 55.8971 216.772 56.5708C217.026 57.1978 217.147 57.8709 217.126 58.5471C217.126 60.0405 215.879 62.275 214.083 63.3081L200.355 71.2468V54.0892V53.3313C200.355 53.3313 204.128 44.7356 204.482 43.4836C204.836 42.2316 204.482 37.8692 204.482 37.0663C204.482 36.2635 207.89 33.956 208.974 36.3365C210.057 38.717 210.147 41.1424 209.535 44.3089L217.833 39.5086C219.585 38.498 220.303 39.9465 220.303 41.0806C220.303 42.692 219.551 44.2808 218.552 44.8872C218.552 44.8872 220.461 44.9826 220.461 47.206C220.444 47.9089 220.27 48.5991 219.951 49.2259C219.633 49.8526 219.177 50.3999 218.619 50.8272C218.619 50.8272 219.259 51.2203 219.259 52.7698Z" fill="#FF7250"/>
<path d="M192.383 78.2705L198.379 74.812L198.363 53.9545L192.383 57.4129V78.2705Z" fill="#37474F"/>
<path d="M192.383 78.2705L188.038 75.7664V54.9089L192.383 57.413V78.2705Z" fill="#263238"/>
<path d="M194.023 51.4505L198.362 53.9545L192.383 57.413L188.038 54.9089L194.023 51.4505Z" fill="#455A64"/>
<path d="M204.46 43.4836C204.106 44.7356 200.333 53.3313 200.333 53.3313L195.999 50.889C195.999 50.889 199.761 42.2877 200.12 41.047C200.479 39.8062 200.12 35.4325 200.12 34.6185L204.466 37.0663C204.46 37.9197 204.825 42.2428 204.46 43.4836Z" fill="#FF7250"/>
<path opacity="0.2" d="M204.46 43.4836C204.106 44.7356 200.333 53.3313 200.333 53.3313L195.999 50.889C195.999 50.889 199.761 42.2877 200.12 41.047C200.479 39.8062 200.12 35.4325 200.12 34.6185L204.466 37.0663C204.46 37.9197 204.825 42.2428 204.46 43.4836Z" fill="#455A64"/>
<path d="M255.405 61.6967L251.273 59.1197C249.746 58.1428 247.421 58.2438 244.782 59.6811C241.133 61.6293 237.91 66.5475 236.518 70.719L233.559 68.8775C232.06 67.7939 229.955 67.5638 227.58 68.8326C227.288 68.9898 227.018 69.1639 226.704 69.3435L226.249 69.6523C226.12 69.7421 225.985 69.8264 225.856 69.9218C225.727 70.0172 225.452 70.2306 225.256 70.3878L225.031 70.5618C224.801 70.7527 224.571 70.9549 224.346 71.1626L224.245 71.258C223.992 71.4882 223.751 71.7296 223.509 71.9767C222.769 72.741 222.093 73.5654 221.488 74.4414V74.4414C219.804 76.8556 218.737 79.5505 218.681 81.9423C218.535 86.3945 221.191 89.3252 224.509 91.2509L227.771 93.2777C229.706 94.5172 231.813 95.4632 234.025 96.0849L239.454 97.7187L245.164 90.1337C250.627 82.8911 257.185 72.8525 257.404 66.1377C257.477 63.9986 256.713 62.4771 255.405 61.6967Z" fill="#FF7250"/>
<path d="M227.703 93.2665L224.486 91.2566C221.174 89.3308 218.513 86.4001 218.659 81.9479C218.737 79.5617 219.821 76.8556 221.494 74.447L225.733 77.0802C224.048 79.4888 222.976 82.1949 222.897 84.581C222.768 88.5785 224.879 91.3464 227.703 93.2665Z" fill="#FF7250"/>
<g opacity="0.3">
<path d="M227.703 93.2665L224.486 91.2565C221.174 89.3308 218.513 86.4001 218.659 81.9479C218.737 79.5617 219.821 76.8556 221.494 74.447L225.733 77.0802C224.048 79.4887 222.976 82.1949 222.897 84.581C222.768 88.5785 224.879 91.3464 227.703 93.2665Z" fill="#455A64"/>
</g>
<path d="M255.388 61.6686C253.856 60.7816 251.582 60.9219 249.022 62.2918C244.62 64.6387 240.825 71.3086 240.14 75.7664C239.724 71.8869 236.243 69.1021 231.841 71.4602C229.398 72.8335 227.307 74.7554 225.733 77.0746L221.494 74.4414L221.707 74.1382C221.769 74.054 221.825 73.9754 221.893 73.8912L222.364 73.2736C222.821 72.7102 223.308 72.1722 223.824 71.6623C223.948 71.5275 224.082 71.404 224.212 71.2805L224.492 71.0222C225.439 70.1658 226.483 69.4234 227.603 68.8102C228.613 68.2387 229.755 67.9425 230.915 67.9512C231.875 67.977 232.804 68.2921 233.582 68.8551L236.518 70.6629C237.905 66.497 241.133 61.5844 244.788 59.6362C247.427 58.2214 249.746 58.1203 251.273 59.0748L255.388 61.6686Z" fill="#FF7250"/>
<path opacity="0.1" d="M255.388 61.6686C253.856 60.7816 251.582 60.9219 249.022 62.2918C244.62 64.6387 240.825 71.3086 240.14 75.7664C239.724 71.8869 236.243 69.1021 231.841 71.4602C229.398 72.8335 227.307 74.7554 225.733 77.0746L221.494 74.4414L221.707 74.1382C221.769 74.054 221.825 73.9754 221.893 73.8912L222.364 73.2736C222.821 72.7102 223.308 72.1722 223.824 71.6623C223.948 71.5275 224.082 71.404 224.212 71.2805L224.492 71.0222C225.439 70.1658 226.483 69.4234 227.603 68.8102C228.613 68.2387 229.755 67.9425 230.915 67.9512C231.875 67.977 232.804 68.2921 233.582 68.8551L236.518 70.6629C237.905 66.497 241.133 61.5844 244.788 59.6362C247.427 58.2214 249.746 58.1203 251.273 59.0748L255.388 61.6686Z" fill="#455A64"/>
<path d="M188.336 18.4433L184.181 15.8607L182.586 19.0722L184.832 21.5256C184.832 21.5256 184.967 22.0085 186.062 21.1607C186.941 20.3642 187.707 19.4497 188.336 18.4433V18.4433Z" fill="#FF7250"/>
<path opacity="0.3" d="M188.336 18.4433L184.181 15.8607L182.586 19.0722L184.832 21.5256C184.832 21.5256 184.967 22.0085 186.062 21.1607C186.941 20.3642 187.707 19.4497 188.336 18.4433V18.4433Z" fill="#455A64"/>
<path d="M185.197 24.1195C185.197 29.1725 183.743 35.3483 181.048 41.0301C177.971 47.5316 173.289 53.466 167.349 56.6438C163.947 58.4628 160.831 58.8446 158.248 58.0362L154.093 55.4535C156.788 54.4261 159.522 52.2028 161.88 49.1429L159.332 47.5541C158.453 46.95 157.848 46.0241 157.647 44.977C158.264 44.7929 158.847 44.5124 159.376 44.1461L157.692 43.0906C156.418 42.299 155.699 40.5024 155.817 38.1555C156.74 38.3005 157.686 38.1367 158.506 37.6895C158.245 37.5964 157.997 37.468 157.771 37.3078C155.806 35.9098 155.474 32.1088 156.99 28.1787L161.134 30.7557C163.424 31.3733 166.187 31.1488 169.106 29.7788C168.393 25.3266 171.397 19.0666 175.282 16.9892C177.011 16.0685 178.544 16.1864 179.588 17.1352C181.032 15.9832 182.335 14.664 183.468 13.2051L187.622 15.7877C187.09 17.8795 186.135 19.84 184.815 21.5481C186.093 20.6589 187.263 19.6245 188.302 18.4658C187.463 20.4514 186.422 22.3459 185.197 24.1195V24.1195Z" fill="#FF7250"/>
<path d="M185.197 24.1195C185.197 29.1725 183.743 35.3483 181.048 41.0301C177.971 47.5316 173.289 53.466 167.349 56.6438C163.947 58.4628 160.831 58.8446 158.248 58.0361C161.42 56.8234 164.643 53.9657 167.231 50.0244C164.604 51.3606 162.459 50.2826 161.796 47.5597C162.808 47.2381 163.735 46.6976 164.514 45.9764C161.65 46.7568 159.764 44.4156 159.949 40.7381C160.874 40.8831 161.821 40.7194 162.644 40.2722C162.434 40.1965 162.233 40.0986 162.043 39.9802C159.96 38.6664 159.573 34.7756 161.128 30.7613C161.572 32.8555 165.457 34.4725 168.814 34.4219C172.059 34.3714 173.177 32.485 173.239 32.3671C172.525 27.9148 175.535 21.6548 179.414 19.5775C181.138 18.6567 182.671 18.7746 183.721 19.7178C185.166 18.5676 186.469 17.2481 187.6 15.7877C187.068 17.8795 186.113 19.84 184.793 21.5481C186.07 20.6588 187.24 19.6245 188.28 18.4658C187.447 20.4505 186.415 22.3449 185.197 24.1195V24.1195Z" fill="#FF7250"/>
<path opacity="0.1" d="M187.628 15.7653C186.496 17.2234 185.196 18.5426 183.754 19.6954C183.485 19.4491 183.17 19.2584 182.828 19.1339L179.594 17.1464C181.038 15.9944 182.34 14.6752 183.473 13.2163L187.628 15.7653Z" fill="#455A64"/>
<path opacity="0.3" d="M164.536 45.9764C163.758 46.6976 162.83 47.2381 161.819 47.5597L157.67 44.977C158.287 44.7929 158.87 44.5124 159.399 44.1461L161.752 45.6058L161.825 45.6564L161.931 45.7237C162.326 45.9403 162.76 46.0743 163.208 46.1178C163.656 46.1612 164.108 46.1131 164.536 45.9764Z" fill="#455A64"/>
<path opacity="0.1" d="M173.267 32.3615C173.143 32.5804 171.998 34.349 168.854 34.3995C165.485 34.45 161.611 32.8331 161.167 30.7389C161.879 30.9289 162.61 31.0382 163.346 31.0645C165.353 31.0942 167.339 30.6478 169.14 29.762L173.267 32.3615Z" fill="#455A64"/>
<path opacity="0.2" d="M161.134 30.7614L156.984 28.1843C155.469 32.1144 155.8 35.9154 157.765 37.3134L158.046 37.4874L158.427 37.7288L162.054 39.9746C160.011 38.6721 159.595 34.7813 161.134 30.7614Z" fill="#455A64"/>
<path opacity="0.3" d="M162.667 40.2722C161.844 40.7194 160.897 40.8831 159.972 40.7381L155.823 38.1555C156.719 38.2965 157.636 38.1449 158.439 37.7232L162.066 39.969C162.256 40.0892 162.457 40.1907 162.667 40.2722V40.2722Z" fill="#455A64"/>
<path opacity="0.3" d="M167.253 50.0244C164.643 53.9545 161.42 56.8234 158.27 58.0361L154.116 55.4535C156.811 54.4205 159.545 52.2028 161.903 49.1429L163.52 50.1479C164.502 50.7655 165.794 50.7655 167.253 50.0244Z" fill="#455A64"/>
<path opacity="0.2" d="M182.856 19.162C181.913 18.7746 180.728 18.8869 179.442 19.5718C175.563 21.6492 172.553 27.9092 173.266 32.3615L169.117 29.7788C168.404 25.3266 171.408 19.0665 175.293 16.9892C177.023 16.0685 178.555 16.1864 179.6 17.1352L182.856 19.162Z" fill="#455A64"/>
<path opacity="0.2" d="M161.751 45.6058L159.399 44.1461L157.714 43.0906C156.44 42.299 155.721 40.5023 155.839 38.1555L159.988 40.7382C159.859 43.0176 160.538 44.7805 161.751 45.6058Z" fill="#455A64"/>
<path opacity="0.2" d="M163.379 50.0693L161.88 49.1485L159.331 47.5653C158.451 46.9607 157.845 46.0322 157.647 44.9826L161.796 47.5653C161.994 48.5678 162.559 49.4605 163.379 50.0693V50.0693Z" fill="#455A64"/>
<path d="M240.538 122.978L241.156 121.979L238.017 119.918C235.328 118.009 231.431 118.093 227.103 120.609C219.029 125.302 212.505 136.683 212.533 146.019C212.533 150.444 214.027 153.616 216.435 155.233L219.534 157.276L220.051 156.429C222.168 156.575 224.604 155.946 227.198 154.435C235.277 149.742 241.796 138.367 241.796 129.025C241.836 126.94 241.406 124.873 240.538 122.978V122.978Z" fill="#FF7250"/>
<path opacity="0.2" d="M240.538 122.978L241.156 121.979L238.017 119.918C235.328 118.009 231.431 118.093 227.103 120.609C219.029 125.302 212.505 136.683 212.533 146.019C212.533 150.444 214.027 153.616 216.435 155.233L219.534 157.276L220.051 156.429C222.168 156.575 224.604 155.946 227.198 154.435C235.277 149.742 241.796 138.367 241.796 129.025C241.836 126.94 241.406 124.873 240.538 122.978V122.978Z" fill="#455A64"/>
<path d="M244.968 131.119C244.996 140.456 238.472 151.836 230.37 156.53C222.269 161.223 215.728 157.456 215.706 148.108C215.683 138.76 222.201 127.391 230.275 122.697C238.349 118.004 244.94 121.788 244.968 131.119Z" fill="#FF7250"/>
<path d="M242.542 132.545C242.542 140.326 237.13 149.809 230.404 153.722C223.678 157.636 218.198 154.492 218.176 146.71C218.153 138.928 223.588 129.446 230.32 125.532C237.051 121.619 242.509 124.758 242.542 132.545Z" fill="white"/>
<path d="M240.083 133.954C240.083 140.18 235.749 147.766 230.37 150.898C224.992 154.031 220.618 151.522 220.601 145.284C220.584 139.046 224.93 131.473 230.314 128.34C235.698 125.207 240.072 127.75 240.083 133.954Z" fill="#FF7250"/>
<path d="M237.658 135.375C237.658 140.046 234.408 145.733 230.36 148.086C226.312 150.438 223.061 148.546 223.027 143.88C222.993 139.215 226.272 133.516 230.326 131.169C234.379 128.823 237.641 130.709 237.658 135.375Z" fill="white"/>
<path d="M230.331 133.988C227.636 135.554 225.463 139.35 225.475 142.46C225.486 145.57 227.67 146.834 230.365 145.267C233.06 143.701 235.232 139.905 235.221 136.795C235.21 133.685 233.026 132.421 230.331 133.988Z" fill="#FF7250"/>
<path d="M230.337 136.806C229.628 137.273 229.04 137.9 228.619 138.637C228.197 139.373 227.955 140.198 227.911 141.045C227.911 142.6 229.006 143.229 230.353 142.449C231.063 141.983 231.653 141.356 232.075 140.62C232.497 139.883 232.74 139.058 232.784 138.21C232.779 136.655 231.684 136.026 230.337 136.806Z" fill="white"/>
<path d="M254.742 152.201L251.486 150.848L249.465 150.752V151.117L252.553 152.903L254.742 152.566V152.201Z" fill="#FF7250"/>
<path d="M249.465 150.752L251.486 150.848L254.742 152.201L252.553 152.538L249.465 150.752Z" fill="#FF7250"/>
<path opacity="0.2" d="M252.553 152.903V152.538L254.742 152.201V152.566L252.553 152.903Z" fill="#455A64"/>
<path opacity="0.1" d="M252.553 152.538L249.465 150.752V151.117L252.553 152.903V152.538Z" fill="#455A64"/>
<path d="M235.592 140.995L230.589 139.625V140.321L232.79 143.308L233.997 142.151L235.592 141.691V140.995Z" fill="#37474F"/>
<path d="M230.589 139.625L232.79 142.612L233.997 141.461L235.592 140.995L230.589 139.625Z" fill="#455A64"/>
<path d="M232.79 142.612V143.308L233.997 142.151V141.461L232.79 142.612Z" fill="#263238"/>
<path d="M233.998 141.461L235.592 140.995V141.691L233.998 142.151V141.461Z" fill="#263238"/>
<path d="M234.211 141.455C234.175 141.433 234.134 141.422 234.093 141.422C234.051 141.422 234.01 141.433 233.975 141.455C233.88 141.517 233.8 141.599 233.741 141.697C233.683 141.794 233.648 141.903 233.638 142.016C233.633 142.059 233.64 142.102 233.657 142.14C233.675 142.179 233.703 142.212 233.739 142.235V142.235L254.108 154.026L254.568 153.195L234.211 141.455Z" fill="#455A64"/>
<path d="M233.711 141.786C233.666 141.875 233.641 141.973 233.638 142.073C233.633 142.115 233.64 142.158 233.657 142.196C233.675 142.235 233.703 142.268 233.739 142.292V142.292L254.108 154.082L254.316 153.706L233.711 141.786Z" fill="#37474F"/>
<path d="M254.333 153.245C254.238 153.307 254.159 153.39 254.102 153.488C254.045 153.585 254.01 153.694 254.001 153.807C254.001 154.02 254.147 154.11 254.333 154.003C254.428 153.942 254.507 153.859 254.564 153.761C254.622 153.664 254.656 153.555 254.664 153.442C254.67 153.228 254.524 153.139 254.333 153.245Z" fill="#263238"/>
<path d="M252.334 153.026V152.661L249.251 150.876V151.246L249.414 152.409L251.75 154.295L252.334 153.032V153.026Z" fill="#FF7250"/>
<path opacity="0.2" d="M249.251 150.876L249.42 152.044L249.414 152.409L249.251 151.246V150.876Z" fill="#455A64"/>
<path opacity="0.2" d="M252.334 152.661L251.75 153.925V154.289L252.334 153.026V152.661Z" fill="#455A64"/>
<path opacity="0.1" d="M249.42 152.044L251.75 153.925V154.289L249.415 152.409L249.42 152.044Z" fill="#455A64"/>
<path d="M254.608 126.319L251.352 127.672L249.336 127.767V127.402L252.418 125.617L254.608 125.954V126.319Z" fill="#FF7250"/>
<path d="M249.336 127.767L251.352 127.672L254.608 126.319L252.418 125.982L249.336 127.767Z" fill="#FF7250"/>
<path opacity="0.2" d="M252.418 125.617V125.982L254.608 126.319V125.954L252.418 125.617Z" fill="#455A64"/>
<path opacity="0.1" d="M252.418 125.982L249.336 127.767V127.402L252.418 125.617V125.982Z" fill="#455A64"/>
<path d="M235.457 137.525L230.46 138.895V138.199L232.656 135.217L233.863 136.368L235.457 136.829V137.525Z" fill="#37474F"/>
<path d="M230.46 138.895L232.656 135.908L233.863 137.064L235.457 137.525L230.46 138.895Z" fill="#455A64"/>
<path d="M232.655 135.908V135.217L233.862 136.368V137.065L232.655 135.908Z" fill="#263238"/>
<path d="M233.863 137.064L235.457 137.525V136.829L233.863 136.368V137.064Z" fill="#263238"/>
<path d="M234.076 137.065C234.041 137.088 234 137.1 233.958 137.1C233.916 137.1 233.875 137.088 233.84 137.065C233.745 137.003 233.665 136.92 233.607 136.823C233.548 136.725 233.513 136.616 233.503 136.503C233.499 136.461 233.506 136.418 233.524 136.38C233.541 136.341 233.569 136.308 233.604 136.284V136.284L253.973 124.494L254.434 125.319L234.076 137.065Z" fill="#455A64"/>
<path d="M233.56 136.733C233.511 136.646 233.484 136.547 233.481 136.447C233.477 136.405 233.484 136.362 233.502 136.324C233.519 136.285 233.547 136.252 233.582 136.228V136.228L253.951 124.438L254.159 124.808L233.56 136.733Z" fill="#37474F"/>
<path d="M254.204 125.274C254.109 125.212 254.03 125.13 253.973 125.032C253.915 124.935 253.881 124.826 253.873 124.713C253.873 124.499 254.019 124.41 254.204 124.516C254.298 124.578 254.378 124.661 254.435 124.758C254.492 124.856 254.527 124.965 254.535 125.078C254.535 125.291 254.389 125.381 254.204 125.274Z" fill="#263238"/>
<path d="M252.199 125.493V125.858L249.117 127.644V127.273L249.28 126.111L251.615 124.224L252.199 125.493Z" fill="#FF7250"/>
<path opacity="0.2" d="M249.117 127.643L249.285 126.476L249.28 126.111L249.117 127.273V127.643Z" fill="#455A64"/>
<path opacity="0.2" d="M252.199 125.858L251.615 124.595V124.23L252.199 125.493V125.858Z" fill="#455A64"/>
<path opacity="0.1" d="M249.285 126.476L251.615 124.595V124.23L249.28 126.111L249.285 126.476Z" fill="#455A64"/>
<path d="M196.353 136.301L193.933 130.097L195.881 124.483V121.013L189.918 124.455V127.896L192.484 133.988C192.525 134.055 192.586 134.108 192.658 134.139V134.139L196.353 136.301Z" fill="#FF7250"/>
<path opacity="0.2" d="M196.353 136.301L193.933 130.097L195.881 124.483V121.013L189.918 124.455V127.896L192.484 133.988C192.525 134.055 192.586 134.108 192.658 134.139V134.139L196.353 136.301Z" fill="#455A64"/>
<path d="M210.742 109.953C210.71 109.333 210.531 108.729 210.221 108.191C209.911 107.654 209.477 107.197 208.957 106.859L208.294 106.415C207.741 106.136 207.129 105.99 206.509 105.99C205.889 105.99 205.277 106.136 204.723 106.415L180.43 120.451C179.909 120.789 179.476 121.246 179.165 121.784C178.855 122.321 178.677 122.925 178.645 123.545V131.753C178.677 132.373 178.855 132.977 179.165 133.515C179.476 134.052 179.909 134.509 180.43 134.847L181.115 135.268C181.668 135.55 182.28 135.697 182.9 135.697C183.521 135.697 184.133 135.55 184.686 135.268L193.669 130.075L196.218 136.172C196.254 136.235 196.308 136.287 196.372 136.32C196.437 136.354 196.51 136.368 196.583 136.362C196.655 136.355 196.725 136.328 196.782 136.284C196.84 136.239 196.884 136.179 196.908 136.11L199.614 126.627L208.957 121.232C209.477 120.894 209.911 120.437 210.221 119.9C210.531 119.362 210.71 118.758 210.742 118.138V109.953Z" fill="#FF7250"/>
<path opacity="0.2" d="M178.622 131.765C178.654 132.385 178.833 132.988 179.143 133.526C179.453 134.064 179.887 134.52 180.407 134.858L181.092 135.279C181.596 135.533 182.147 135.678 182.711 135.703C183.274 135.728 183.836 135.633 184.36 135.425C183.518 135.74 182.878 135.268 182.878 134.246V126.066C182.898 125.443 183.077 124.836 183.4 124.303L179.144 121.821C178.823 122.353 178.643 122.958 178.622 123.579V131.765Z" fill="#455A64"/>
<path opacity="0.5" d="M210.686 109.447C210.478 108.689 209.782 108.448 208.957 108.92L184.663 122.956C184.132 123.278 183.698 123.738 183.406 124.286L179.15 121.81C179.447 121.264 179.881 120.804 180.408 120.474L204.695 106.438C205.25 106.158 205.862 106.012 206.484 106.012C207.105 106.012 207.717 106.158 208.272 106.438L208.957 106.859C209.404 107.152 209.787 107.533 210.084 107.977C210.382 108.422 210.586 108.922 210.686 109.447V109.447Z" fill="white"/>
<path d="M186.196 131.506C185.983 131.59 185.746 131.59 185.534 131.506C185.493 131.477 185.461 131.438 185.439 131.393C185.418 131.348 185.408 131.298 185.41 131.248C185.418 131.033 185.465 130.822 185.55 130.625C185.604 130.444 185.714 130.284 185.865 130.17C185.94 130.136 186.023 130.12 186.106 130.125H186.348C186.577 130.114 186.8 130.049 186.999 129.934C187.195 129.821 187.368 129.673 187.51 129.496C187.654 129.327 187.732 129.112 187.729 128.89C187.736 128.757 187.697 128.626 187.616 128.519C187.54 128.446 187.441 128.4 187.336 128.39C187.177 128.378 187.017 128.378 186.859 128.39C186.491 128.428 186.122 128.337 185.814 128.132C185.69 127.991 185.598 127.826 185.543 127.647C185.488 127.468 185.471 127.279 185.494 127.093C185.507 126.498 185.703 125.922 186.056 125.443C186.431 124.901 186.924 124.452 187.499 124.129C187.713 124.001 187.944 123.901 188.184 123.831C188.363 123.764 188.554 123.737 188.745 123.753C188.863 123.753 188.919 123.843 188.919 123.983C188.909 124.175 188.871 124.364 188.807 124.544C188.77 124.715 188.675 124.868 188.537 124.977C188.45 125.017 188.357 125.045 188.262 125.061C188.046 125.097 187.837 125.169 187.645 125.274C187.436 125.381 187.258 125.539 187.128 125.735C187.041 125.869 186.991 126.024 186.982 126.184C186.982 126.42 187.044 126.56 187.167 126.616C187.349 126.672 187.539 126.695 187.729 126.683H187.948C188.285 126.653 188.621 126.749 188.891 126.953C189.001 127.09 189.084 127.247 189.133 127.415C189.182 127.584 189.197 127.761 189.177 127.935C189.174 128.321 189.098 128.702 188.953 129.058C188.787 129.469 188.554 129.849 188.262 130.181C187.932 130.555 187.544 130.872 187.111 131.119C186.824 131.287 186.516 131.417 186.196 131.506V131.506Z" fill="white"/>
<path d="M189.84 129.176V123.113C189.84 122.911 190.025 122.703 190.401 122.495L190.8 122.265C191.159 122.057 191.361 122.052 191.361 122.265V124.606L192.984 123.669V121.327C192.984 121.125 193.169 120.923 193.545 120.71L193.933 120.485C194.298 120.272 194.494 120.272 194.494 120.485V126.554C194.494 126.756 194.309 126.959 193.933 127.172L193.545 127.397C193.18 127.61 192.984 127.61 192.984 127.397V124.926L191.361 125.864V128.312C191.361 128.514 191.182 128.722 190.8 128.929L190.401 129.159C190.025 129.373 189.84 129.378 189.84 129.176Z" fill="white"/>
<path d="M195.005 126.29C195.008 126.228 195.017 126.166 195.033 126.105L196.493 119.233C196.538 119.031 196.729 118.835 197.054 118.638L197.672 118.279C198.02 118.082 198.233 118.054 198.233 118.206L199.693 123.388C199.693 123.472 199.693 123.523 199.693 123.551C199.693 123.691 199.553 123.837 199.283 123.994L198.783 124.286C198.48 124.46 198.312 124.488 198.278 124.376L198.031 123.36L196.594 124.191L196.336 125.493C196.336 125.645 196.161 125.796 195.892 125.954L195.398 126.234C195.156 126.414 195.005 126.431 195.005 126.29ZM197.936 122.299L197.509 120.536C197.464 120.334 197.425 120.115 197.391 119.879L197.346 119.907C197.312 120.176 197.279 120.44 197.234 120.693L196.813 122.939L197.936 122.299Z" fill="white"/>
<path d="M200.283 123.146V117.178C200.279 117.06 200.31 116.943 200.372 116.841C200.448 116.734 200.548 116.645 200.664 116.583L202.242 115.668C202.648 115.374 203.147 115.241 203.646 115.292C203.999 115.37 204.179 115.752 204.179 116.415C204.154 117.209 203.832 117.964 203.275 118.531V118.571C203.346 118.57 203.417 118.585 203.483 118.613C203.548 118.641 203.608 118.682 203.657 118.733C203.773 118.852 203.859 118.996 203.909 119.155L204.471 120.648L204.499 120.749C204.499 120.917 204.302 121.114 203.909 121.339L203.578 121.535C203.247 121.726 203.056 121.748 203.017 121.608L202.517 120.098C202.499 120.055 202.473 120.016 202.439 119.984C202.405 119.952 202.365 119.928 202.321 119.913C202.195 119.914 202.073 119.956 201.972 120.03L201.748 120.16V122.299C201.748 122.501 201.557 122.714 201.186 122.933L200.861 123.118C200.473 123.343 200.283 123.349 200.283 123.146ZM202.27 118.475C202.428 118.375 202.553 118.23 202.629 118.06C202.731 117.844 202.781 117.608 202.775 117.369C202.775 117.105 202.725 116.942 202.629 116.875C202.569 116.842 202.499 116.828 202.431 116.834C202.362 116.84 202.296 116.866 202.242 116.909L201.742 117.201V118.767L202.27 118.475Z" fill="white"/>
<path d="M205.257 120.451C205.201 120.451 205.173 120.339 205.173 120.21V114.36C205.169 114.24 205.199 114.122 205.257 114.017C205.324 113.917 205.415 113.834 205.521 113.776L208.328 112.165C208.424 112.108 208.491 112.103 208.536 112.165C208.593 112.263 208.617 112.377 208.604 112.49V112.782C208.608 112.918 208.586 113.054 208.536 113.181C208.494 113.28 208.421 113.362 208.328 113.417L206.644 114.377V115.752L208.121 114.899C208.216 114.843 208.289 114.843 208.328 114.899C208.385 114.995 208.409 115.108 208.396 115.219V115.511C208.401 115.647 208.378 115.783 208.328 115.909C208.288 116.009 208.215 116.093 208.121 116.145L206.644 116.999V118.531L208.328 117.566C208.424 117.51 208.491 117.51 208.531 117.566C208.582 117.666 208.603 117.779 208.592 117.891V118.183C208.596 118.319 208.575 118.454 208.531 118.582C208.491 118.679 208.42 118.76 208.328 118.812L205.521 120.429C205.481 120.451 205.437 120.465 205.392 120.469C205.346 120.473 205.3 120.467 205.257 120.451Z" fill="white"/>
<path d="M171.24 119.609L168.82 113.405L170.768 107.791V104.349L164.811 107.791V111.227L167.371 117.319C167.412 117.388 167.472 117.443 167.545 117.476V117.476L171.24 119.609Z" fill="#FF7250"/>
<path opacity="0.2" d="M171.24 119.609L168.82 113.405L170.768 107.791V104.349L164.811 107.791V111.227L167.371 117.319C167.412 117.388 167.472 117.443 167.545 117.476V117.476L171.24 119.609Z" fill="#455A64"/>
<path d="M187.476 92.1661C187.444 91.5461 187.265 90.9426 186.955 90.4048C186.645 89.8671 186.211 89.4106 185.691 89.0726L185.006 88.6515C184.452 88.3718 183.84 88.226 183.22 88.226C182.6 88.226 181.988 88.3718 181.435 88.6515L153.402 104.838C152.881 105.176 152.448 105.632 152.138 106.17C151.827 106.708 151.649 107.311 151.617 107.931V116.134C151.651 116.754 151.83 117.358 152.141 117.896C152.451 118.434 152.883 118.892 153.402 119.233L154.087 119.649C154.64 119.931 155.252 120.078 155.872 120.078C156.493 120.078 157.105 119.931 157.658 119.649L168.522 113.389L171.082 119.475C171.119 119.538 171.173 119.589 171.238 119.622C171.303 119.655 171.376 119.669 171.449 119.662C171.521 119.655 171.591 119.627 171.648 119.582C171.705 119.537 171.749 119.476 171.772 119.407L174.473 109.953L185.702 103.468C186.223 103.13 186.656 102.673 186.966 102.136C187.277 101.598 187.455 100.994 187.487 100.374L187.476 92.1661Z" fill="#FF7250"/>
<path opacity="0.2" d="M151.617 116.134C151.651 116.754 151.83 117.358 152.141 117.896C152.451 118.434 152.883 118.892 153.402 119.233L154.087 119.649C154.59 119.903 155.142 120.047 155.705 120.072C156.268 120.097 156.831 120.003 157.355 119.795C156.512 120.115 155.872 119.637 155.872 118.621V110.413C155.895 109.791 156.075 109.184 156.395 108.65L152.15 106.168C151.83 106.703 151.65 107.309 151.628 107.931L151.617 116.134Z" fill="#455A64"/>
<path opacity="0.5" d="M187.42 91.6608C187.212 90.9029 186.516 90.6614 185.691 91.1331L157.658 107.319C157.128 107.646 156.695 108.107 156.401 108.656L152.15 106.174C152.45 105.628 152.885 105.168 153.414 104.838L181.435 88.6515C181.99 88.3717 182.602 88.2259 183.223 88.2259C183.844 88.2259 184.457 88.3717 185.012 88.6515L185.696 89.0726C186.143 89.3655 186.526 89.7458 186.823 90.1906C187.119 90.6354 187.322 91.1355 187.42 91.6608V91.6608Z" fill="white"/>
<path d="M158.781 115.359V109.986C158.777 109.878 158.804 109.771 158.86 109.677C158.92 109.587 159.001 109.512 159.096 109.458L161.442 108.105C161.527 108.055 161.588 108.055 161.628 108.105C161.679 108.194 161.701 108.296 161.689 108.397V108.661C161.693 108.784 161.672 108.906 161.628 109.021C161.59 109.108 161.525 109.181 161.442 109.228L160.112 109.997V111.244L161.364 110.52C161.448 110.469 161.51 110.469 161.555 110.52C161.603 110.607 161.623 110.707 161.611 110.806V111.07C161.617 111.192 161.597 111.314 161.555 111.429C161.515 111.518 161.448 111.593 161.364 111.642L160.112 112.367V114.613C160.112 114.792 159.943 114.977 159.618 115.174L159.275 115.37C158.944 115.533 158.781 115.539 158.781 115.359Z" fill="white"/>
<path d="M162.256 110.638C162.256 108.605 162.997 107.157 164.502 106.292C165.226 105.876 165.782 105.804 166.158 106.079C166.535 106.354 166.72 107.016 166.72 108.06C166.75 108.973 166.557 109.878 166.158 110.699C165.777 111.406 165.203 111.991 164.502 112.384C162.969 113.259 162.256 112.676 162.256 110.638ZM164.991 110.823C165.132 110.593 165.227 110.337 165.271 110.07C165.341 109.664 165.373 109.253 165.367 108.841C165.378 108.464 165.346 108.087 165.271 107.718C165.21 107.477 165.114 107.331 164.991 107.291C164.905 107.274 164.817 107.275 164.731 107.294C164.646 107.314 164.566 107.351 164.496 107.404C164.297 107.517 164.126 107.675 163.997 107.864C163.85 108.094 163.753 108.352 163.71 108.622C163.636 109.025 163.602 109.436 163.609 109.846C163.596 110.223 163.63 110.6 163.71 110.969C163.772 111.216 163.868 111.356 163.997 111.395C164.084 111.41 164.173 111.408 164.259 111.387C164.345 111.367 164.425 111.33 164.496 111.278C164.685 111.164 164.844 111.008 164.962 110.823H164.991Z" fill="white"/>
<path d="M167.573 110.452C167.523 110.452 167.495 110.357 167.495 110.239V104.866C167.495 104.686 167.663 104.495 167.994 104.304L168.331 104.102C168.662 103.911 168.825 103.911 168.825 104.102V108.701L170.1 107.965C170.19 107.915 170.257 107.909 170.296 107.965C170.344 108.054 170.364 108.156 170.352 108.257V108.521C170.358 108.643 170.339 108.765 170.296 108.88C170.256 108.971 170.187 109.046 170.1 109.094L167.815 110.413C167.702 110.463 167.624 110.48 167.573 110.452Z" fill="white"/>
<path d="M171.054 108.448C171.004 108.42 170.976 108.352 170.976 108.229V102.856C170.976 102.676 171.144 102.491 171.47 102.295L171.812 102.098C172.143 101.907 172.306 101.901 172.306 102.098V106.696L173.581 105.966C173.671 105.91 173.732 105.905 173.777 105.966C173.826 106.053 173.845 106.154 173.833 106.253V106.517C173.839 106.639 173.82 106.761 173.777 106.876C173.734 106.966 173.666 107.042 173.581 107.095L171.296 108.409C171.183 108.454 171.105 108.47 171.054 108.448Z" fill="white"/>
<path d="M174.125 103.771C174.125 101.735 174.874 100.286 176.371 99.4255C177.101 99.0045 177.651 98.9315 178.027 99.2122C178.404 99.4929 178.589 100.15 178.589 101.194C178.622 102.106 178.429 103.013 178.027 103.833C177.648 104.541 177.073 105.126 176.371 105.517C174.878 106.389 174.129 105.807 174.125 103.771ZM176.865 103.951C177.008 103.721 177.103 103.465 177.146 103.198C177.214 102.794 177.244 102.384 177.236 101.974C177.249 101.598 177.219 101.221 177.146 100.852C177.084 100.605 176.989 100.464 176.865 100.419C176.778 100.405 176.689 100.408 176.604 100.428C176.518 100.448 176.437 100.485 176.366 100.537C176.168 100.649 175.999 100.805 175.872 100.992C175.726 101.225 175.627 101.485 175.58 101.756C175.505 102.157 175.471 102.565 175.479 102.974C175.465 103.351 175.499 103.728 175.58 104.097C175.647 104.344 175.742 104.49 175.872 104.529C175.958 104.544 176.046 104.541 176.131 104.521C176.216 104.5 176.296 104.463 176.366 104.411C176.562 104.298 176.729 104.14 176.854 103.951H176.865Z" fill="white"/>
<path d="M180.054 103.305C180.042 103.309 180.029 103.311 180.016 103.309C180.003 103.308 179.991 103.303 179.98 103.296C179.969 103.289 179.96 103.28 179.954 103.269C179.947 103.258 179.943 103.245 179.942 103.232L178.819 98.4037C178.816 98.3795 178.816 98.355 178.819 98.3307C178.821 98.3121 178.821 98.2932 178.819 98.2746C178.819 98.1286 178.988 97.9546 179.324 97.7637L179.571 97.6177C179.908 97.4212 180.094 97.4044 180.133 97.5672L180.532 100.487L180.61 101.048L180.689 101.671L180.84 100.548C180.86 100.46 180.873 100.37 180.88 100.279L181.402 96.7419C181.413 96.6658 181.451 96.5962 181.508 96.5453C181.598 96.4612 181.698 96.3894 181.806 96.332L182.233 96.085C182.323 96.0268 182.421 95.9832 182.525 95.9558C182.586 95.9558 182.62 95.9558 182.631 96.0344L183.142 98.9708L183.333 100.172L183.451 99.1897L183.502 98.7687L183.911 95.4C183.911 95.2091 184.114 95.0182 184.473 94.8386L184.669 94.7207C185.006 94.5298 185.175 94.5073 185.175 94.6533C185.178 94.6982 185.178 94.7432 185.175 94.788L184.052 100.919C184.052 101.048 183.895 101.188 183.653 101.329L183.092 101.654C182.867 101.784 182.738 101.8 182.71 101.694L182.148 99.0213L182.053 98.1623L181.907 99.1167L181.318 102.485C181.318 102.615 181.166 102.749 180.936 102.884L180.374 103.21C180.275 103.261 180.166 103.294 180.054 103.305V103.305Z" fill="white"/>
<path d="M120.895 76.777L144.475 63.1621C144.56 63.097 144.664 63.0617 144.77 63.0617C144.877 63.0617 144.98 63.097 145.065 63.1621C145.205 63.2744 146.536 63.9762 146.682 64.0829C146.77 64.1617 146.838 64.2603 146.881 64.3705C146.924 64.4808 146.941 64.5995 146.929 64.7173V85.9397C146.924 86.2446 146.848 86.5441 146.707 86.8142C146.566 87.0843 146.363 87.3175 146.115 87.4949L141.977 89.8867L120.333 77.3946C120.462 77.1422 120.656 76.929 120.895 76.777V76.777Z" fill="#FF7250"/>
<path opacity="0.5" d="M120.895 76.777L144.475 63.1621C144.56 63.097 144.664 63.0617 144.77 63.0617C144.877 63.0617 144.98 63.097 145.065 63.1621C145.205 63.2744 146.536 63.9762 146.682 64.0829C146.77 64.1617 146.838 64.2603 146.881 64.3705C146.924 64.4808 146.941 64.5995 146.929 64.7173V85.9397C146.924 86.2446 146.848 86.5441 146.707 86.8142C146.566 87.0843 146.363 87.3175 146.115 87.4949L141.977 89.8867L120.333 77.3946C120.462 77.1422 120.656 76.929 120.895 76.777V76.777Z" fill="white"/>
<path d="M121.99 101.144C121.827 101.037 120.485 100.296 120.339 100.195C120.248 100.117 120.176 100.018 120.131 99.9063C120.086 99.7949 120.069 99.6743 120.081 99.5547V78.3434C120.089 78.0145 120.177 77.6925 120.339 77.4058L141.982 89.8979L122.54 101.127C122.459 101.182 122.365 101.214 122.267 101.217C122.169 101.22 122.073 101.194 121.99 101.144V101.144Z" fill="#FF7250"/>
<path opacity="0.2" d="M121.99 101.144C121.827 101.037 120.485 100.296 120.339 100.195C120.248 100.117 120.176 100.018 120.131 99.9063C120.086 99.7949 120.069 99.6743 120.081 99.5547V78.3434C120.089 78.0145 120.177 77.6925 120.339 77.4058L141.982 89.8979L122.54 101.127C122.459 101.182 122.365 101.214 122.267 101.217C122.169 101.22 122.073 101.194 121.99 101.144V101.144Z" fill="#455A64"/>
<path d="M122.54 101.11L146.121 87.4949C146.369 87.3175 146.571 87.0843 146.713 86.8142C146.854 86.5441 146.93 86.2446 146.935 85.9397V64.7173C146.935 64.1221 146.57 63.847 146.121 64.1053L122.54 77.7202C122.292 77.8977 122.089 78.1308 121.948 78.4009C121.807 78.6711 121.731 78.9706 121.726 79.2754V100.498C121.726 101.093 122.091 101.363 122.54 101.11Z" fill="#FF7250"/>
<path opacity="0.2" d="M121.726 100.498V100.077L131.478 83.9185L121.833 78.5848L121.906 78.4108L133.915 83.3964C134.167 83.4975 134.476 83.3122 134.751 82.9136L146.727 64.0941C146.754 64.1196 146.778 64.1479 146.8 64.1783L137.188 80.606L146.935 85.5074V85.9229C146.929 86.2572 146.846 86.5858 146.693 86.8829L136.694 81.4538L135.274 83.8736C134.712 84.8337 133.949 85.2772 133.387 84.9628L131.972 84.1768L121.99 101.127C121.9 101.05 121.829 100.953 121.783 100.844C121.737 100.734 121.718 100.616 121.726 100.498V100.498Z" fill="#455A64"/>
<path d="M126.751 80.2186L150.331 66.6037C150.417 66.5399 150.522 66.5054 150.629 66.5054C150.736 66.5054 150.84 66.5399 150.926 66.6037C151.061 66.7216 152.397 67.4234 152.543 67.5245C152.631 67.6045 152.7 67.704 152.743 67.8152C152.786 67.9263 152.802 68.0459 152.79 68.1645V89.387C152.784 89.6915 152.708 89.9906 152.567 90.2605C152.425 90.5304 152.223 90.7638 151.976 90.9421L147.833 93.3283L126.195 80.8362C126.323 80.5855 126.515 80.3726 126.751 80.2186V80.2186Z" fill="#FF7250"/>
<path opacity="0.5" d="M126.751 80.2186L150.331 66.6037C150.417 66.5399 150.522 66.5054 150.629 66.5054C150.736 66.5054 150.84 66.5399 150.926 66.6037C151.061 66.7216 152.397 67.4234 152.543 67.5245C152.631 67.6045 152.7 67.704 152.743 67.8152C152.786 67.9263 152.802 68.0459 152.79 68.1645V89.387C152.784 89.6915 152.708 89.9906 152.567 90.2605C152.425 90.5304 152.223 90.7638 151.976 90.9421L147.833 93.3283L126.195 80.8362C126.323 80.5855 126.515 80.3726 126.751 80.2186V80.2186Z" fill="white"/>
<path d="M127.84 104.585C127.682 104.484 126.341 103.737 126.195 103.642C126.103 103.563 126.031 103.463 125.986 103.351C125.941 103.238 125.924 103.117 125.936 102.996V81.7738C125.946 81.4451 126.035 81.1235 126.195 80.8362L147.833 93.3283L128.395 104.557C128.315 104.614 128.22 104.647 128.122 104.652C128.023 104.657 127.925 104.634 127.84 104.585Z" fill="#FF7250"/>
<path opacity="0.2" d="M127.84 104.585C127.682 104.484 126.341 103.737 126.195 103.642C126.103 103.563 126.031 103.463 125.986 103.351C125.941 103.238 125.924 103.117 125.936 102.996V81.7738C125.946 81.4451 126.035 81.1235 126.195 80.8362L147.833 93.3283L128.395 104.557C128.315 104.614 128.22 104.647 128.122 104.652C128.023 104.657 127.925 104.634 127.84 104.585Z" fill="#455A64"/>
<path d="M128.396 104.557L151.976 90.9421C152.223 90.7637 152.425 90.5304 152.566 90.2605C152.708 89.9906 152.784 89.6915 152.79 89.3869V68.1645C152.79 67.5637 152.425 67.2886 151.976 67.5469L128.396 81.1618C128.149 81.3402 127.947 81.5736 127.805 81.8435C127.664 82.1134 127.587 82.4124 127.582 82.717V103.939C127.582 104.54 127.946 104.815 128.396 104.557Z" fill="#FF7250"/>
<path opacity="0.2" d="M127.582 103.939V103.524L137.329 87.3658L127.705 82.0321C127.726 81.9727 127.751 81.9146 127.778 81.858L139.765 86.8549C140.023 86.9615 140.327 86.7706 140.602 86.372L152.577 67.5581C152.606 67.5801 152.63 67.6067 152.65 67.6367L143.044 84.0701L152.791 88.9659V89.387C152.786 89.7203 152.701 90.0477 152.544 90.3414L142.544 84.9123L141.129 87.3265C140.568 88.2865 139.804 88.7301 139.243 88.4493L137.823 87.6633L127.84 104.585C127.75 104.505 127.679 104.405 127.635 104.293C127.59 104.181 127.572 104.06 127.582 103.939V103.939Z" fill="#455A64"/>
<path d="M132.601 83.6659L156.182 70.0509C156.267 69.9863 156.372 69.9513 156.479 69.9513C156.586 69.9513 156.691 69.9863 156.777 70.0509C156.911 70.1632 158.242 70.865 158.388 70.9717C158.477 71.0497 158.546 71.1482 158.589 71.2586C158.632 71.3691 158.648 71.4883 158.635 71.6061V92.8286C158.632 93.1337 158.556 93.4337 158.415 93.704C158.273 93.9743 158.07 94.2073 157.821 94.3838L153.683 96.7755L132.04 84.2835C132.168 84.0311 132.362 83.8178 132.601 83.6659V83.6659Z" fill="#FF7250"/>
<path opacity="0.5" d="M132.601 83.6659L156.182 70.0509C156.267 69.9863 156.372 69.9513 156.479 69.9513C156.586 69.9513 156.691 69.9863 156.777 70.0509C156.911 70.1632 158.242 70.865 158.388 70.9717C158.477 71.0497 158.546 71.1482 158.589 71.2586C158.632 71.3691 158.648 71.4883 158.635 71.6061V92.8286C158.632 93.1337 158.556 93.4337 158.415 93.704C158.273 93.9743 158.07 94.2073 157.821 94.3838L153.683 96.7755L132.04 84.2835C132.168 84.0311 132.362 83.8178 132.601 83.6659V83.6659Z" fill="white"/>
<path d="M133.696 108.032C133.533 107.926 132.191 107.185 132.045 107.084C131.954 107.006 131.883 106.907 131.838 106.795C131.793 106.684 131.776 106.563 131.787 106.444V85.2211C131.795 84.8921 131.884 84.5701 132.045 84.2835L153.689 96.7755L134.246 108.004C134.167 108.062 134.073 108.095 133.975 108.1C133.878 108.105 133.781 108.081 133.696 108.032V108.032Z" fill="#FF7250"/>
<path opacity="0.2" d="M133.696 108.032C133.533 107.926 132.191 107.185 132.045 107.084C131.954 107.006 131.883 106.907 131.838 106.795C131.793 106.684 131.776 106.563 131.787 106.444V85.2211C131.795 84.8921 131.884 84.5701 132.045 84.2835L153.689 96.7755L134.246 108.004C134.167 108.062 134.073 108.095 133.975 108.1C133.878 108.105 133.781 108.081 133.696 108.032V108.032Z" fill="#455A64"/>
<path d="M134.246 107.999L157.827 94.3838C158.076 94.2073 158.279 93.9744 158.421 93.704C158.562 93.4337 158.638 93.1337 158.641 92.8286V71.6061C158.641 71.011 158.281 70.7359 157.827 70.9942L134.246 84.6091C133.998 84.7866 133.795 85.0197 133.654 85.2898C133.513 85.5599 133.437 85.8595 133.432 86.1643V107.387C133.432 107.982 133.797 108.257 134.246 107.999Z" fill="#FF7250"/>
<path opacity="0.2" d="M133.432 107.387V106.977L143.168 90.8074L133.539 85.4737L133.612 85.2997L145.604 90.3021C145.857 90.4032 146.166 90.2179 146.441 89.8193L158.416 70.9998C158.442 71.0247 158.466 71.0509 158.489 71.0784L148.894 87.5118L158.641 92.4131V92.8286C158.635 93.1629 158.552 93.4913 158.4 93.7887L148.4 88.3595L146.985 90.7793C146.424 91.7394 145.655 92.1829 145.093 91.8685L143.679 91.0825L133.696 108.032C133.604 107.954 133.531 107.854 133.486 107.742C133.44 107.629 133.421 107.508 133.432 107.387Z" fill="#455A64"/>
<path d="M235.418 188.857L168.225 227.647C167.162 228.261 165.962 228.595 164.736 228.619C163.509 228.642 162.297 228.354 161.212 227.782L25.933 149.646C23.7995 148.417 22.0703 145.666 22.0703 143.471C22.0703 141.275 23.7995 138.558 25.9274 137.323L92.8792 98.7237C94.0754 98.1202 95.3965 97.8057 96.7363 97.8057C98.0761 97.8057 99.3972 98.1202 100.593 98.7237L235.418 176.596C237.551 177.825 239.28 180.576 239.28 182.743C239.28 184.91 237.551 187.628 235.418 188.857Z" fill="#FF7250"/>
<path opacity="0.5" d="M92.8792 98.7238L25.9274 137.373C23.7995 138.608 22.0703 141.36 22.0703 143.521C22.0703 145.683 23.7995 148.439 25.933 149.697L161.24 227.81C162.284 228.344 163.437 228.629 164.609 228.641V135.661L100.605 98.7238C99.407 98.1183 98.0839 97.8029 96.7419 97.8029C95.4 97.8029 94.0768 98.1183 92.8792 98.7238V98.7238Z" fill="#455A64"/>
<path opacity="0.4" d="M168.224 227.647L235.418 188.857C237.551 187.628 239.28 184.877 239.28 182.715C239.28 180.554 237.551 177.797 235.418 176.568L164.569 135.661V228.613C165.852 228.626 167.115 228.292 168.224 227.647V227.647Z" fill="#455A64"/>
<path d="M166.624 220.736C165.57 221.27 164.404 221.549 163.222 221.549C162.04 221.549 160.874 221.27 159.82 220.736L25.916 143.426C23.0358 141.741 23.0358 139.046 25.916 137.385L92.8734 98.7237C94.0696 98.1202 95.3907 97.8057 96.7305 97.8057C98.0703 97.8057 99.3914 98.1202 100.588 98.7237L235.412 176.596C237.534 177.819 237.534 179.824 235.412 181.048L166.624 220.736Z" fill="#FF7250"/>
<path opacity="0.3" d="M166.624 220.736C165.57 221.27 164.404 221.549 163.222 221.549C162.04 221.549 160.874 221.27 159.82 220.736L25.916 143.426C23.0358 141.741 23.0358 139.046 25.916 137.385L92.8734 98.7237C94.0696 98.1202 95.3907 97.8057 96.7305 97.8057C98.0703 97.8057 99.3914 98.1202 100.588 98.7237L235.412 176.596C237.534 177.819 237.534 179.824 235.412 181.048L166.624 220.736Z" fill="#455A64"/>
<path d="M160.123 212.954C158.987 213.53 157.731 213.83 156.457 213.83C155.183 213.83 153.927 213.53 152.79 212.954L37.566 146.429C35.5392 145.262 35.5392 143.364 37.566 142.196L100.554 105.854C101.691 105.281 102.947 104.982 104.22 104.982C105.494 104.982 106.749 105.281 107.886 105.854L223.111 172.357C225.126 173.519 225.126 175.428 223.111 176.59L160.123 212.954Z" fill="#37474F"/>
<path d="M103.996 104.973C102.794 104.98 101.612 105.283 100.554 105.854L37.566 142.196C35.5392 143.364 35.5392 145.262 37.566 146.429L50.0524 153.638L103.996 119.188V104.973Z" fill="#263238"/>
<path d="M107.931 108.583C106.794 108.01 105.538 107.711 104.265 107.711C102.991 107.711 101.736 108.01 100.598 108.583L37.6161 144.947C37.2521 145.146 36.9254 145.406 36.6504 145.716C36.919 145.997 37.2274 146.238 37.5655 146.429L152.79 212.954C153.926 213.53 155.182 213.83 156.456 213.83C157.73 213.83 158.986 213.53 160.122 212.954L223.11 176.596C223.466 176.397 223.787 176.141 224.059 175.838C223.798 175.55 223.493 175.306 223.155 175.113L107.931 108.583Z" fill="#455A64"/>
<path d="M60.5905 125.184L71.7519 118.767C72.42 118.385 72.4537 117.779 71.8249 117.42C71.4596 117.243 71.0576 117.155 70.6517 117.162C70.2458 117.17 69.8476 117.274 69.4893 117.465L58.3279 123.91C57.6597 124.292 57.6261 124.898 58.2549 125.257C58.6224 125.43 59.0255 125.514 59.4314 125.501C59.8373 125.488 60.2344 125.38 60.5905 125.184V125.184Z" fill="#37474F"/>
<path d="M79.7583 114.135C79.895 114.089 80.0138 114.001 80.0979 113.884C80.1821 113.766 80.2273 113.626 80.2273 113.481C80.2273 113.337 80.1821 113.196 80.0979 113.079C80.0138 112.961 79.895 112.873 79.7583 112.827C79.4096 112.653 79.0252 112.562 78.6354 112.562C78.2456 112.562 77.8611 112.653 77.5125 112.827C77.3758 112.873 77.257 112.961 77.1728 113.079C77.0887 113.196 77.0435 113.337 77.0435 113.481C77.0435 113.626 77.0887 113.766 77.1728 113.884C77.257 114.001 77.3758 114.089 77.5125 114.135C77.8611 114.31 78.2456 114.4 78.6354 114.4C79.0252 114.4 79.4096 114.31 79.7583 114.135V114.135Z" fill="#37474F"/>
<path d="M84.2832 111.519C84.4199 111.473 84.5387 111.385 84.6228 111.267C84.707 111.15 84.7522 111.009 84.7522 110.865C84.7522 110.721 84.707 110.58 84.6228 110.462C84.5387 110.345 84.4199 110.257 84.2832 110.211C83.9346 110.036 83.5501 109.946 83.1603 109.946C82.7705 109.946 82.386 110.036 82.0374 110.211C81.9007 110.257 81.7819 110.345 81.6977 110.462C81.6136 110.58 81.5684 110.721 81.5684 110.865C81.5684 111.009 81.6136 111.15 81.6977 111.267C81.7819 111.385 81.9007 111.473 82.0374 111.519C82.386 111.693 82.7705 111.784 83.1603 111.784C83.5501 111.784 83.9346 111.693 84.2832 111.519V111.519Z" fill="#37474F"/>
<path d="M48.0815 132.421C48.2183 132.375 48.337 132.287 48.4212 132.17C48.5053 132.052 48.5506 131.912 48.5506 131.767C48.5506 131.623 48.5053 131.482 48.4212 131.365C48.337 131.248 48.2183 131.16 48.0815 131.113C47.7329 130.939 47.3484 130.848 46.9586 130.848C46.5688 130.848 46.1844 130.939 45.8358 131.113C45.699 131.16 45.5802 131.248 45.4961 131.365C45.4119 131.482 45.3667 131.623 45.3667 131.767C45.3667 131.912 45.4119 132.052 45.4961 132.17C45.5802 132.287 45.699 132.375 45.8358 132.421C46.1844 132.596 46.5688 132.687 46.9586 132.687C47.3484 132.687 47.7329 132.596 48.0815 132.421V132.421Z" fill="#37474F"/>
<path d="M52.6069 129.805C52.7436 129.759 52.8624 129.671 52.9466 129.553C53.0307 129.436 53.076 129.295 53.076 129.151C53.076 129.007 53.0307 128.866 52.9466 128.749C52.8624 128.631 52.7436 128.543 52.6069 128.497C52.2583 128.323 51.8738 128.232 51.484 128.232C51.0942 128.232 50.7098 128.323 50.3611 128.497C50.2244 128.543 50.1056 128.631 50.0215 128.749C49.9373 128.866 49.8921 129.007 49.8921 129.151C49.8921 129.295 49.9373 129.436 50.0215 129.553C50.1056 129.671 50.2244 129.759 50.3611 129.805C50.7098 129.979 51.0942 130.07 51.484 130.07C51.8738 130.07 52.2583 129.979 52.6069 129.805V129.805Z" fill="#37474F"/>
<path d="M68.3668 169.746C68.7112 169.961 69 170.253 69.2097 170.601C69.4195 170.948 69.5443 171.34 69.5739 171.745C69.5869 171.881 69.563 172.019 69.5048 172.144C69.4465 172.268 69.356 172.375 69.2427 172.452L68.3949 172.941C68.2541 173.002 68.0997 173.025 67.9471 173.008C67.7944 172.992 67.6488 172.935 67.5247 172.845L51.838 163.783C51.4937 163.569 51.2049 163.276 50.9951 162.929C50.7853 162.581 50.6606 162.189 50.6309 161.785C50.6184 161.653 50.6397 161.521 50.6928 161.4C50.7459 161.279 50.8289 161.174 50.9341 161.094C51.0857 160.999 51.6583 160.673 51.8043 160.589C51.9461 160.528 52.1013 160.504 52.2548 160.521C52.4084 160.538 52.5549 160.594 52.6802 160.684L68.3668 169.746Z" fill="#FF7250"/>
<path opacity="0.4" d="M68.3668 169.746C68.7112 169.961 69 170.253 69.2097 170.601C69.4195 170.948 69.5443 171.34 69.5739 171.745C69.5869 171.881 69.563 172.019 69.5048 172.144C69.4465 172.268 69.356 172.375 69.2427 172.452L68.3949 172.941C68.2541 173.002 68.0997 173.025 67.9471 173.008C67.7944 172.992 67.6488 172.935 67.5247 172.845L51.838 163.783C51.4937 163.569 51.2049 163.276 50.9951 162.929C50.7853 162.581 50.6606 162.189 50.6309 161.785C50.6184 161.653 50.6397 161.521 50.6928 161.4C50.7459 161.279 50.8289 161.174 50.9341 161.094C51.0857 160.999 51.6583 160.673 51.8043 160.589C51.9461 160.528 52.1013 160.504 52.2548 160.521C52.4084 160.538 52.5549 160.594 52.6802 160.684L68.3668 169.746Z" fill="#455A64"/>
<path d="M67.5241 170.229L51.8375 161.173C51.1694 160.785 50.6304 161.06 50.6304 161.785C50.66 162.189 50.7848 162.581 50.9946 162.929C51.2043 163.276 51.4931 163.569 51.8375 163.783L67.5241 172.845C68.1922 173.227 68.7312 172.952 68.7312 172.233C68.702 171.828 68.5774 171.435 68.3677 171.086C68.1579 170.738 67.8689 170.444 67.5241 170.229Z" fill="#FF7250"/>
<path opacity="0.3" d="M67.5241 170.229L51.8375 161.173C51.1694 160.785 50.6304 161.06 50.6304 161.785C50.66 162.189 50.7848 162.581 50.9946 162.929C51.2043 163.276 51.4931 163.569 51.8375 163.783L67.5241 172.845C68.1922 173.227 68.7312 172.952 68.7312 172.233C68.702 171.828 68.5774 171.435 68.3677 171.086C68.1579 170.738 67.8689 170.444 67.5241 170.229Z" fill="#455A64"/>
<path d="M47.3683 157.619C47.7114 157.836 47.9989 158.13 48.2075 158.478C48.4162 158.826 48.5403 159.218 48.5698 159.623C48.5848 159.759 48.5618 159.897 48.5033 160.021C48.4449 160.145 48.3532 160.25 48.2385 160.325C48.0925 160.404 47.5479 160.735 47.3964 160.819C47.2547 160.878 47.1004 160.9 46.9481 160.882C46.7958 160.864 46.6505 160.808 46.5261 160.718L39.1319 156.445C38.7876 156.231 38.4988 155.938 38.289 155.591C38.0793 155.243 37.9545 154.851 37.9249 154.447C37.9124 154.315 37.9337 154.183 37.9867 154.062C38.0398 153.941 38.1229 153.836 38.228 153.756L39.0983 153.251C39.2393 153.189 39.3941 153.166 39.547 153.184C39.6999 153.202 39.8453 153.26 39.9685 153.352L47.3683 157.619Z" fill="#FF7250"/>
<path opacity="0.4" d="M47.3683 157.619C47.7114 157.836 47.9989 158.13 48.2075 158.478C48.4162 158.826 48.5403 159.218 48.5698 159.623C48.5848 159.759 48.5618 159.897 48.5033 160.021C48.4449 160.145 48.3532 160.25 48.2385 160.325C48.0925 160.404 47.5479 160.735 47.3964 160.819C47.2547 160.878 47.1004 160.9 46.9481 160.882C46.7958 160.864 46.6505 160.808 46.5261 160.718L39.1319 156.445C38.7876 156.231 38.4988 155.938 38.289 155.591C38.0793 155.243 37.9545 154.851 37.9249 154.447C37.9124 154.315 37.9337 154.183 37.9867 154.062C38.0398 153.941 38.1229 153.836 38.228 153.756L39.0983 153.251C39.2393 153.189 39.3941 153.166 39.547 153.184C39.6999 153.202 39.8453 153.26 39.9685 153.352L47.3683 157.619Z" fill="#455A64"/>
<path d="M46.5266 158.107L39.1324 153.835C38.4643 153.453 37.9253 153.722 37.9253 154.447C37.9549 154.851 38.0797 155.243 38.2895 155.591C38.4992 155.938 38.788 156.231 39.1324 156.445L46.5266 160.718C47.1947 161.105 47.7337 160.83 47.7337 160.106C47.704 159.701 47.5792 159.309 47.3695 158.962C47.1597 158.615 46.8709 158.322 46.5266 158.107V158.107Z" fill="#FF7250"/>
<path opacity="0.3" d="M46.5266 158.107L39.1324 153.835C38.4643 153.453 37.9253 153.722 37.9253 154.447C37.9549 154.851 38.0797 155.243 38.2895 155.591C38.4992 155.938 38.788 156.231 39.1324 156.445L46.5266 160.718C47.1947 161.105 47.7337 160.83 47.7337 160.106C47.704 159.701 47.5792 159.309 47.3695 158.962C47.1597 158.615 46.8709 158.322 46.5266 158.107V158.107Z" fill="#455A64"/>
<path d="M130.35 183.209V183.664C130.37 184.057 130.482 184.441 130.677 184.783C130.872 185.125 131.144 185.417 131.472 185.635L155.901 199.738C156.254 199.918 156.644 200.012 157.04 200.012C157.437 200.012 157.827 199.918 158.18 199.738L198.632 176.382C198.961 176.165 199.234 175.873 199.429 175.531C199.624 175.189 199.736 174.805 199.755 174.412V173.957C199.735 173.563 199.623 173.18 199.428 172.838C199.233 172.496 198.96 172.204 198.632 171.986L174.204 157.883C173.851 157.703 173.46 157.609 173.064 157.609C172.668 157.609 172.277 157.703 171.924 157.883L131.472 181.239C131.144 181.456 130.871 181.748 130.676 182.09C130.481 182.432 130.369 182.816 130.35 183.209V183.209Z" fill="#FF7250"/>
<path d="M130.35 183.209V183.664C130.37 184.057 130.482 184.441 130.677 184.783C130.872 185.125 131.144 185.417 131.472 185.635L155.901 199.738C156.254 199.918 156.644 200.012 157.04 200.012C157.437 200.012 157.827 199.918 158.18 199.738L198.632 176.382C198.961 176.165 199.234 175.873 199.429 175.531C199.624 175.189 199.736 174.805 199.755 174.412V173.957C199.735 173.563 199.623 173.18 199.428 172.838C199.233 172.496 198.96 172.204 198.632 171.986L174.204 157.883C173.851 157.703 173.46 157.609 173.064 157.609C172.668 157.609 172.277 157.703 171.924 157.883L131.472 181.239C131.144 181.456 130.871 181.748 130.676 182.09C130.481 182.432 130.369 182.816 130.35 183.209V183.209Z" fill="#FF7250"/>
<path opacity="0.3" d="M198.649 171.986L174.221 157.883C173.868 157.703 173.477 157.609 173.081 157.609C172.685 157.609 172.294 157.703 171.941 157.883L157.058 166.49V200.03C157.449 200.036 157.836 199.941 158.18 199.755L198.632 176.399C198.961 176.182 199.234 175.89 199.429 175.548C199.624 175.205 199.736 174.822 199.755 174.428V173.974C199.739 173.579 199.631 173.193 199.439 172.848C199.247 172.503 198.976 172.208 198.649 171.986V171.986Z" fill="white"/>
<path opacity="0.15" d="M198.649 171.986L174.221 157.883C173.868 157.703 173.477 157.609 173.081 157.609C172.685 157.609 172.294 157.703 171.941 157.883L157.058 166.49V200.03C157.449 200.036 157.836 199.941 158.18 199.755L198.632 176.399C198.961 176.182 199.234 175.89 199.429 175.548C199.624 175.205 199.736 174.822 199.755 174.428V173.974C199.739 173.579 199.631 173.193 199.439 172.848C199.247 172.503 198.976 172.208 198.649 171.986V171.986Z" fill="#455A64"/>
<path opacity="0.3" d="M157.057 166.49L131.489 181.256C131.16 181.473 130.887 181.764 130.692 182.107C130.497 182.449 130.386 182.833 130.366 183.226V183.681C130.386 184.074 130.499 184.457 130.694 184.8C130.889 185.142 131.161 185.434 131.489 185.652L155.917 199.755C156.262 199.941 156.649 200.036 157.04 200.03V200.03L157.057 166.49Z" fill="white"/>
<path opacity="0.2" d="M157.057 166.49L131.489 181.256C131.16 181.473 130.887 181.764 130.692 182.107C130.497 182.449 130.386 182.833 130.366 183.226V183.681C130.386 184.074 130.499 184.457 130.694 184.8C130.889 185.142 131.161 185.434 131.489 185.652L155.917 199.755C156.262 199.941 156.649 200.036 157.04 200.03V200.03L157.057 166.49Z" fill="#455A64"/>
<path d="M152.004 194.399L131.489 182.552C131.35 182.507 131.23 182.42 131.144 182.302C131.058 182.184 131.012 182.041 131.012 181.896C131.012 181.75 131.058 181.607 131.144 181.489C131.23 181.371 131.35 181.284 131.489 181.239L171.941 157.883C172.294 157.703 172.685 157.609 173.081 157.609C173.477 157.609 173.868 157.703 174.22 157.883L198.649 171.986C198.788 172.031 198.909 172.119 198.994 172.237C199.08 172.355 199.126 172.497 199.126 172.643C199.126 172.789 199.08 172.931 198.994 173.049C198.909 173.167 198.788 173.255 198.649 173.3L191.94 177.157L189.587 178.516L158.197 196.639C157.844 196.819 157.453 196.913 157.057 196.913C156.661 196.913 156.27 196.819 155.918 196.639L153.93 195.488L152.004 194.399Z" fill="#FF7250"/>
<path opacity="0.3" d="M152.004 194.399L131.489 182.552C131.35 182.507 131.23 182.42 131.144 182.302C131.058 182.184 131.012 182.041 131.012 181.896C131.012 181.75 131.058 181.607 131.144 181.489C131.23 181.371 131.35 181.284 131.489 181.239L171.941 157.883C172.294 157.703 172.685 157.609 173.081 157.609C173.477 157.609 173.868 157.703 174.22 157.883L198.649 171.986C198.788 172.031 198.909 172.119 198.994 172.237C199.08 172.355 199.126 172.497 199.126 172.643C199.126 172.789 199.08 172.931 198.994 173.049C198.909 173.167 198.788 173.255 198.649 173.3L191.94 177.157L189.587 178.516L158.197 196.639C157.844 196.819 157.453 196.913 157.057 196.913C156.661 196.913 156.27 196.819 155.918 196.639L153.93 195.488L152.004 194.399Z" fill="white"/>
<path opacity="0.15" d="M170.633 174.72L198.649 171.986L170.88 173.558L174.221 157.883C173.839 157.684 173.41 157.593 172.98 157.619L167.742 178.841L131.029 181.868C131.026 182.019 131.068 182.167 131.15 182.294C131.232 182.422 131.35 182.521 131.489 182.581L161.133 180.829L157.052 196.931L162.256 180.767L167.309 180.47C167.934 180.439 168.529 180.193 168.994 179.773V179.773C169.428 179.387 169.728 178.871 169.847 178.302L170.633 174.72Z" fill="#455A64"/>
<path opacity="0.3" d="M139.799 181.115L167.753 178.813L168.752 174.805L169.314 172.559L173.008 157.602C172.644 157.607 172.286 157.697 171.964 157.866L151.752 169.544L131.54 181.222C131.42 181.277 131.316 181.361 131.236 181.465C131.156 181.57 131.102 181.693 131.08 181.823L136.694 181.362L139.799 181.115Z" fill="white"/>
<path d="M168.432 154.537C170.986 153.06 175.13 153.06 177.684 154.537C180.239 156.013 180.239 158.405 177.684 159.876C175.13 161.347 170.986 161.352 168.432 159.876C165.877 158.399 165.9 156.013 168.432 154.537Z" fill="#F28F8F"/>
<path d="M169.847 158.068C169.778 158.066 169.712 158.042 169.656 158.001C169.635 157.987 169.619 157.967 169.61 157.944C169.601 157.921 169.6 157.896 169.606 157.872L169.988 156.187C169.988 156.148 169.988 156.097 170.033 156.036C170.058 155.969 170.108 155.914 170.173 155.884L171.105 155.323C171.168 155.287 171.24 155.27 171.313 155.272C171.385 155.269 171.457 155.287 171.52 155.323L176.478 158.186C176.502 158.195 176.523 158.211 176.538 158.232C176.553 158.253 176.562 158.278 176.562 158.304C176.56 158.329 176.551 158.354 176.536 158.374C176.522 158.395 176.501 158.412 176.478 158.422L175.473 158.983C175.409 159.018 175.338 159.036 175.265 159.034C175.193 159.036 175.121 159.019 175.057 158.983L171.689 157.052L171.464 157.978C171.464 158.023 171.419 158.062 171.358 158.09C171.288 158.119 171.213 158.13 171.139 158.124L169.847 158.068Z" fill="#FAFAFA"/>
<path d="M107.033 173.974L125.128 163.531L137.48 166.591C137.745 166.656 138.025 166.637 138.279 166.538C138.534 166.439 138.752 166.263 138.904 166.036C139.055 165.808 139.133 165.539 139.126 165.266C139.12 164.992 139.029 164.728 138.866 164.508L134.229 158.264L152.319 147.816C153.655 147.041 153.655 145.778 152.319 145.009L116.134 124.101C115.379 123.722 114.547 123.524 113.703 123.524C112.858 123.524 112.026 123.722 111.272 124.101L65.9802 150.275C64.644 151.044 64.644 152.308 65.9802 153.082L102.182 173.974C102.934 174.354 103.765 174.552 104.607 174.552C105.45 174.552 106.281 174.354 107.033 173.974V173.974Z" fill="#FAFAFA"/>
<path d="M84.6936 146.429C85.7597 145.804 86.9011 145.317 88.0903 144.981C89.1475 144.681 90.2333 144.493 91.3298 144.419C92.2971 144.355 93.2686 144.414 94.2212 144.593C95.031 144.746 95.8192 144.996 96.5681 145.34C97.3166 145.714 98.0877 146.124 98.8812 146.57C99.6747 147.015 100.382 147.459 101.003 147.9C101.525 148.257 101.965 148.72 102.295 149.259C102.604 149.763 102.714 150.363 102.604 150.943C102.447 151.636 102.107 152.273 101.621 152.79C100.889 153.576 100.031 154.234 99.0833 154.739C98.024 155.362 96.8928 155.854 95.7147 156.204C94.6645 156.51 93.5837 156.698 92.492 156.765C91.5245 156.828 90.553 156.767 89.6006 156.586C88.7888 156.437 87.9987 156.188 87.2481 155.845C86.4996 155.47 85.7304 155.061 84.9406 154.615C84.1509 154.17 83.4416 153.724 82.8128 153.279C82.2919 152.926 81.8534 152.464 81.5271 151.926C81.2193 151.422 81.1093 150.822 81.2183 150.242C81.3744 149.547 81.7048 148.904 82.1783 148.372C82.8998 147.586 83.7505 146.929 84.6936 146.429V146.429ZM96.1751 150.236C95.9505 150.061 95.712 149.906 95.462 149.77L94.3841 149.147L93.3005 148.524C93.044 148.366 92.7756 148.229 92.4976 148.114C91.8818 147.834 91.2146 147.685 90.5382 147.676C89.6838 147.694 88.8517 147.951 88.1352 148.417C87.2425 148.933 86.8102 149.394 86.8439 149.804C86.8825 150.035 86.9708 150.255 87.1026 150.449C87.2344 150.643 87.4066 150.806 87.6075 150.926C87.828 151.099 88.0586 151.258 88.298 151.404C88.6237 151.611 88.9774 151.825 89.3535 152.038C89.7297 152.251 90.0946 152.459 90.4764 152.65C90.7457 152.798 91.0232 152.931 91.3074 153.049C91.9232 153.329 92.5904 153.478 93.2668 153.487C94.1209 153.467 94.9527 153.21 95.6697 152.746C96.5624 152.229 96.9948 151.769 96.9555 151.353C96.916 151.121 96.8256 150.9 96.6906 150.707C96.5557 150.514 96.3796 150.353 96.1751 150.236ZM104.164 136.301C104.135 136.058 104.172 135.812 104.271 135.588C104.469 135.29 104.744 135.053 105.068 134.903L107.836 133.303C108.15 133.115 108.5 132.998 108.864 132.96C109.167 132.925 109.474 132.982 109.745 133.123C109.802 133.162 109.853 133.209 109.897 133.264C109.946 133.328 109.98 133.403 109.998 133.483L113.181 161.65C113.206 161.892 113.168 162.136 113.069 162.357C112.878 162.66 112.602 162.9 112.277 163.048L109.509 164.648C109.196 164.835 108.845 164.95 108.482 164.985C108.179 165.025 107.871 164.97 107.6 164.828C107.539 164.79 107.486 164.74 107.443 164.682C107.396 164.616 107.362 164.541 107.342 164.463L104.164 136.301ZM118.711 142.993C119.778 142.369 120.919 141.88 122.108 141.539C123.165 141.237 124.251 141.048 125.348 140.978C126.315 140.914 127.286 140.972 128.239 141.152C129.049 141.304 129.837 141.555 130.586 141.899C131.334 142.273 132.105 142.681 132.899 143.122C133.692 143.564 134.4 144.01 135.021 144.459C135.542 144.814 135.982 145.275 136.312 145.812C136.62 146.316 136.73 146.916 136.621 147.496C136.465 148.192 136.126 148.833 135.639 149.354C134.905 150.138 134.048 150.796 133.101 151.303C132.043 151.927 130.911 152.418 129.732 152.762C128.685 153.071 127.606 153.26 126.515 153.324C125.548 153.388 124.577 153.329 123.624 153.15C122.813 152.997 122.023 152.746 121.271 152.403C120.519 152.038 119.75 151.634 118.964 151.179C118.178 150.724 117.47 150.281 116.836 149.843C116.317 149.485 115.879 149.022 115.55 148.484C115.241 147.981 115.13 147.38 115.242 146.8C115.398 146.105 115.728 145.462 116.202 144.93C116.92 144.145 117.769 143.49 118.711 142.993V142.993ZM130.193 146.794C129.968 146.622 129.729 146.468 129.48 146.334L128.402 145.716L127.318 145.093C127.06 144.937 126.792 144.798 126.515 144.678C125.898 144.403 125.232 144.254 124.556 144.24C123.701 144.264 122.868 144.52 122.147 144.981C121.26 145.497 120.828 145.963 120.862 146.373C120.9 146.604 120.988 146.825 121.12 147.018C121.252 147.212 121.424 147.375 121.625 147.496C121.844 147.67 122.073 147.831 122.31 147.979C122.641 148.187 122.995 148.4 123.371 148.613C123.747 148.827 124.112 149.034 124.494 149.225C124.876 149.416 125.134 149.545 125.325 149.624C125.942 149.9 126.609 150.048 127.284 150.062C128.139 150.037 128.969 149.778 129.687 149.315C130.58 148.804 131.007 148.338 130.973 147.928C130.935 147.694 130.845 147.47 130.71 147.274C130.575 147.078 130.398 146.914 130.193 146.794V146.794Z" fill="#FF7250"/>
<path d="M39.1606 36.561L46.5267 32.3053V66.1939C46.5267 67.4683 48.0033 68.7428 48.0033 68.7428L40.6372 72.9985C40.6372 72.9985 39.1606 71.7184 39.1606 70.444V36.561Z" fill="#37474F"/>
<path d="M30.2058 36.488L33.3105 40.4181V55.1447C33.3047 59.2674 32.1372 63.305 29.9419 66.7946L40.6093 72.9704C39.804 72.343 39.2744 71.4269 39.1327 70.4159V41.6589L30.2058 36.488Z" fill="#455A64"/>
<path d="M29.9419 66.8227V68.5238L40.6373 74.6997V72.9985L29.9419 66.8227Z" fill="#FF7250"/>
<path d="M40.6372 74.6997L48.0033 70.444V68.7428L40.6372 72.9985V74.6997Z" fill="#FF7250"/>
<path opacity="0.1" d="M40.6372 74.6997L48.0033 70.444V68.7428L40.6372 72.9985V74.6997Z" fill="#455A64"/>
<path d="M38.8237 18.6679C37.5717 17.9156 35.8312 18.011 33.9055 19.1227L33.8325 19.162C30.0259 21.3684 26.9492 26.6909 26.9492 31.1094V31.1824C26.9492 33.4282 27.7801 35.0339 29.1051 35.7189L34.6803 38.9977L43.9777 21.7109L38.8237 18.6679Z" fill="#FF7250"/>
<path opacity="0.8" d="M38.8237 18.6679C37.5717 17.9156 35.8312 18.011 33.9055 19.1227L33.8325 19.162C30.0259 21.3684 26.9492 26.6909 26.9492 31.1094V31.1824C26.9492 33.4282 27.7801 35.0339 29.1051 35.7189L34.6803 38.9977L43.9777 21.7109L38.8237 18.6679Z" fill="#FAFAFA"/>
<path opacity="0.2" d="M29.0939 35.7301L34.669 39.0089L37.757 33.2766L27.578 27.3983C27.1781 28.5954 26.9659 29.8473 26.9492 31.1094V31.1824C26.9492 33.4675 27.7689 35.0451 29.0939 35.7301Z" fill="#FF7250"/>
<path d="M50.8612 22.9068C49.4463 22.0983 47.5375 22.1264 45.4264 23.1594C45.2019 23.2661 44.9773 23.384 44.7527 23.5188C44.5281 23.6535 44.2193 23.8388 43.9611 24.0184C43.5208 24.3225 43.099 24.6525 42.6978 25.0066C41.928 25.6692 41.2179 26.3981 40.5756 27.185C38.7866 29.3669 37.4608 31.8904 36.6792 34.6016C36.3144 35.88 36.1255 37.2022 36.1177 38.5317C36.1177 41.221 37.0385 43.1299 38.5376 44.0619L33.2095 40.9908C32.2211 40.3536 31.4129 39.4733 30.8624 38.4342C30.3119 37.3951 30.0375 36.232 30.0654 35.0564C30.0765 33.7922 30.254 32.535 30.5932 31.3172C31.3584 28.5401 32.6972 25.9543 34.5233 23.7265C35.1641 22.9383 35.8743 22.2093 36.6455 21.5481C37.0489 21.1782 37.4746 20.8332 37.92 20.5151C38.1838 20.3354 38.4477 20.167 38.7116 20.0154C38.9755 19.8638 39.1664 19.7683 39.3966 19.6617C40.3423 19.2156 41.3778 18.9928 42.4233 19.0103C43.4687 19.0278 44.4962 19.2852 45.4264 19.7627V19.7627L45.578 19.8469L45.7689 19.9592L50.8612 22.9068Z" fill="#FF7250"/>
<path opacity="0.1" d="M33.1978 40.9571C32.2094 40.3199 31.4012 39.4396 30.8507 38.4005C30.3002 37.3614 30.0257 36.1983 30.0537 35.0227C30.0648 33.7585 30.2422 32.5013 30.5815 31.2835L36.6675 34.596C36.3027 35.8744 36.1138 37.1966 36.106 38.5261C36.106 41.2154 37.0268 43.1243 38.5258 44.0562L33.1978 40.9571Z" fill="#455A64"/>
<path d="M53.3988 28.51C53.3988 34.0289 49.5305 40.7325 44.7526 43.4892C42.3553 44.8816 40.1769 44.9995 38.6105 44.0506L38.5263 44.0001C37.0272 43.0681 36.1064 41.1592 36.1064 38.4699C36.1064 32.9566 39.9748 26.2474 44.7526 23.4907C47.1331 22.1152 49.2947 21.9804 50.8611 22.8787C52.4275 23.777 53.3988 25.7477 53.3988 28.51Z" fill="#FF7250"/>
<path opacity="0.2" d="M53.3988 28.51C53.3988 34.0289 49.5305 40.7325 44.7526 43.4892C42.3553 44.8816 40.1769 44.9995 38.6105 44.0506L38.5263 44.0001C37.0272 43.0681 36.1064 41.1592 36.1064 38.4699C36.1064 32.9566 39.9748 26.2474 44.7526 23.4907C47.1331 22.1152 49.2947 21.9804 50.8611 22.8787C52.4275 23.777 53.3988 25.7477 53.3988 28.51Z" fill="#455A64"/>
<path d="M79.9157 27.0839C79.9157 27.0839 71.191 31.5754 63.7406 44.4886C62.3999 46.8049 61.2182 49.2096 60.2036 51.6862C56.4644 60.8658 56.7732 67.1932 56.7732 67.1932C54.1737 60.8209 50.9398 54.2296 45.5443 49.1822C43.4341 47.2169 41.2208 45.3652 38.9137 43.6352V43.6352C37.4877 42.8042 36.668 41.0076 36.668 38.5261C36.6863 36.7846 37.0073 35.0596 37.6168 33.4282C38.0164 32.331 38.5124 31.2713 39.099 30.2617C40.509 27.7034 42.55 25.5484 45.0278 24.0016C47.1781 22.7608 49.1544 22.5811 50.5805 23.4008C53.2321 24.5339 55.9421 25.5253 58.6989 26.3709C65.7731 28.5156 73.0999 28.0159 79.9157 27.0839Z" fill="#FF7250"/>
<path opacity="0.8" d="M79.9157 27.0839C79.9157 27.0839 71.191 31.5754 63.7406 44.4886C62.3999 46.8049 61.2182 49.2096 60.2036 51.6862C56.4644 60.8658 56.7732 67.1932 56.7732 67.1932C54.1737 60.8209 50.9398 54.2296 45.5443 49.1822C43.4341 47.2169 41.2208 45.3652 38.9137 43.6352V43.6352C37.4877 42.8042 36.668 41.0076 36.668 38.5261C36.6863 36.7846 37.0073 35.0596 37.6168 33.4282C38.0164 32.331 38.5124 31.2713 39.099 30.2617C40.509 27.7034 42.55 25.5484 45.0278 24.0016C47.1781 22.7608 49.1544 22.5811 50.5805 23.4008C53.2321 24.5339 55.9421 25.5253 58.6989 26.3709C65.7731 28.5156 73.0999 28.0159 79.9157 27.0839Z" fill="#FAFAFA"/>
<path opacity="0.2" d="M60.2036 51.6638C56.4644 60.8433 56.7732 67.1708 56.7732 67.1708C54.1737 60.7984 50.9398 54.2071 45.5443 49.1597C43.4341 47.1944 41.2208 45.3428 38.9137 43.6127V43.6127C37.4877 42.7818 36.668 40.9852 36.668 38.5036C36.6889 36.7697 37.0099 35.0525 37.6168 33.4282C44.2474 36.7295 54.9429 42.8323 60.2036 51.6638Z" fill="#FF7250"/>
<path d="M96.3543 39.531C96.3543 45.2858 94.5801 51.5795 91.6326 57.3961C87.8541 64.8688 82.1555 71.4938 75.7943 75.1769C64.4252 81.7401 55.2119 76.4177 55.2119 63.2968C55.2434 60.1483 55.7024 57.0187 56.5762 53.9937C58.8655 46.0094 63.1489 38.7389 69.0234 32.8667C69.8281 32.077 70.6534 31.3284 71.4993 30.621C71.853 30.329 72.2123 30.0595 72.5717 29.7732C73.0826 29.3858 73.5935 29.0152 74.1156 28.6503C74.6378 28.2854 75.2329 27.971 75.7943 27.6509C87.1354 21.0765 96.3543 26.4102 96.3543 39.531Z" fill="#FF7250"/>
<path opacity="0.1" d="M91.6326 57.3961C87.8541 64.8688 82.1555 71.4938 75.7943 75.1769C64.4252 81.7401 55.2119 76.4177 55.2119 63.2968C55.2434 60.1483 55.7024 57.0187 56.5762 53.9937V53.9937C57.3454 55.6781 60.1077 58.1147 61.3485 56.4135C60.5851 59.0993 60.183 61.8748 60.1526 64.6667C60.1526 68.4396 60.9948 71.4826 62.5836 73.4701C63.24 74.3022 64.0834 74.9677 65.0452 75.4125C66.0071 75.8573 67.0604 76.069 68.1194 76.0303C70.3652 76.0303 72.9927 75.205 75.6933 73.6442C81.1224 70.5113 86.1136 64.8801 89.6563 58.4853C89.6338 58.5021 90.3413 59.0972 91.6326 57.3961Z" fill="#455A64"/>
<path d="M94.9453 40.2665C94.9453 46.0606 92.9129 52.6182 89.6341 58.5021C86.0914 64.8801 81.1002 70.5113 75.6711 73.661C72.9705 75.2218 70.3542 76.0471 68.0972 76.0471C67.0382 76.0859 65.9849 75.8742 65.023 75.4294C64.0611 74.9845 63.2178 74.319 62.5614 73.487C60.9725 71.4995 60.1304 68.434 60.1304 64.6836C60.1608 61.8916 60.5629 59.1162 61.3262 56.4304C61.6126 55.3637 61.9551 54.2969 62.3424 53.2302C63.0305 51.3436 63.8407 49.5038 64.7679 47.7225L65.3293 46.5996C65.6606 45.9932 66.003 45.3925 66.3624 44.803C67.5699 42.8003 68.9268 40.8916 70.4216 39.0931L70.4721 39.037C71.4348 37.8813 72.46 36.7792 73.5432 35.7357C74.3142 34.9871 75.0965 34.3022 75.89 33.6808C76.2269 33.4113 76.5637 33.1531 76.9006 32.906C77.3105 32.6085 77.7259 32.3446 78.1414 32.047C78.5569 31.7495 78.9611 31.5305 79.3709 31.2891C82.0771 29.7227 84.699 28.903 86.9504 28.903C91.9697 28.9367 94.9453 33.1587 94.9453 40.2665Z" fill="#FF7250"/>
<path opacity="0.3" d="M94.9453 40.2665C94.9453 46.0606 92.9129 52.6182 89.6341 58.5021C86.0914 64.8801 81.1002 70.5113 75.6711 73.661C72.9705 75.2218 70.3542 76.0471 68.0972 76.0471C67.0382 76.0859 65.9849 75.8742 65.023 75.4294C64.0611 74.9845 63.2178 74.319 62.5614 73.487C60.9725 71.4995 60.1304 68.434 60.1304 64.6836C60.1608 61.8916 60.5629 59.1162 61.3262 56.4304C61.6126 55.3637 61.9551 54.2969 62.3424 53.2302C63.0305 51.3436 63.8407 49.5038 64.7679 47.7225L65.3293 46.5996C65.6606 45.9932 66.003 45.3925 66.3624 44.803C67.5699 42.8003 68.9268 40.8916 70.4216 39.0931L70.4721 39.037C71.4348 37.8813 72.46 36.7792 73.5432 35.7357C74.3142 34.9871 75.0965 34.3022 75.89 33.6808C76.2269 33.4113 76.5637 33.1531 76.9006 32.906C77.3105 32.6085 77.7259 32.3446 78.1414 32.047C78.5569 31.7495 78.9611 31.5305 79.3709 31.2891C82.0771 29.7227 84.699 28.903 86.9504 28.903C91.9697 28.9367 94.9453 33.1587 94.9453 40.2665Z" fill="#455A64"/>
<path d="M77.4784 43.4892L70.2583 56.9638C68.2259 56.2002 64.7955 54.9819 61.9995 54.2689C62.1118 53.9095 62.2353 53.5615 62.3701 53.2021C63.0568 51.315 63.867 49.4751 64.7955 47.6944C64.9864 47.3239 65.1829 46.9589 65.3569 46.5715C65.6882 45.9652 66.0307 45.3644 66.39 44.7805C67.5962 42.777 68.9532 40.8682 70.4492 39.0707C70.469 39.0527 70.486 39.0319 70.4997 39.0089C70.7187 38.7507 70.9377 38.4924 71.1566 38.2454C73.1063 40.175 75.2217 41.9297 77.4784 43.4892Z" fill="#FF7250"/>
<g opacity="0.6">
<path d="M77.4789 43.4892L70.2588 56.9638C68.2264 56.2002 64.796 54.9819 62 54.2689C62.1123 53.9095 62.2358 53.5615 62.3705 53.2021C63.0573 51.315 63.8675 49.4751 64.796 47.6944C64.9869 47.3239 65.1834 46.9589 65.3574 46.5715C65.6887 45.9652 66.0311 45.3644 66.3905 44.7805C67.5967 42.777 68.9537 40.8682 70.4497 39.0707C70.4695 39.0527 70.4865 39.0319 70.5002 39.0089C70.7192 38.7507 70.9381 38.4924 71.1571 38.2454C73.1068 40.175 75.2222 41.9297 77.4789 43.4892Z" fill="#FAFAFA"/>
</g>
<path d="M70.837 56.9357C69.2032 56.9357 68.2319 55.6163 68.2319 53.4098V53.3425C68.2319 49.8728 70.6742 45.6339 73.6835 43.899L73.7397 43.8653C74.4264 43.4382 75.2113 43.1946 76.0191 43.1579C77.6473 43.1579 78.6242 44.4773 78.6242 46.6894V46.7568C78.6242 50.2265 76.1763 54.4597 73.1726 56.1946L73.1165 56.2283C72.4309 56.658 71.6454 56.9018 70.837 56.9357V56.9357Z" fill="#FF7250"/>
<g opacity="0.8">
<path d="M70.837 56.9357C69.2032 56.9357 68.2319 55.6163 68.2319 53.4098V53.3425C68.2319 49.8728 70.6742 45.6339 73.6835 43.899L73.7397 43.8653C74.4264 43.4382 75.2113 43.1946 76.0191 43.1579C77.6473 43.1579 78.6242 44.4773 78.6242 46.6894V46.7568C78.6242 50.2265 76.1763 54.4597 73.1726 56.1946L73.1165 56.2283C72.4309 56.658 71.6454 56.9018 70.837 56.9357V56.9357Z" fill="#FAFAFA"/>
</g>
<path d="M78.6016 18.9655C78.1712 18.9655 77.7585 18.7945 77.4542 18.4902C77.15 18.1859 76.979 17.7732 76.979 17.3429V1.62256C76.979 1.19223 77.15 0.779528 77.4542 0.475238C77.7585 0.170949 78.1712 0 78.6016 0C79.0319 0 79.4446 0.170949 79.7489 0.475238C80.0532 0.779528 80.2241 1.19223 80.2241 1.62256V17.3429C80.2241 17.7732 80.0532 18.1859 79.7489 18.4902C79.4446 18.7945 79.0319 18.9655 78.6016 18.9655V18.9655Z" fill="#E0E0E0"/>
<path d="M64.3353 22.7945C64.0509 22.7951 63.7714 22.7206 63.525 22.5787C63.2785 22.4367 63.0739 22.2323 62.9317 21.986L55.0715 8.38792C54.8556 8.01566 54.7964 7.57288 54.907 7.15698C55.0176 6.74109 55.2888 6.38614 55.6611 6.17023C56.0333 5.95432 56.4761 5.89513 56.892 6.00569C57.3079 6.11624 57.6628 6.38748 57.8787 6.75974L65.7389 20.3578C65.8822 20.6049 65.9577 20.8853 65.9579 21.1709C65.9581 21.4565 65.8829 21.737 65.7399 21.9843C65.597 22.2315 65.3913 22.4366 65.1437 22.5788C64.8961 22.7211 64.6153 22.7955 64.3297 22.7945H64.3353Z" fill="#E0E0E0"/>
<path d="M49.474 98.4655C49.1896 98.4638 48.9105 98.3876 48.6647 98.2445C48.4188 98.1015 48.2148 97.8965 48.0728 97.65C47.9308 97.4035 47.8559 97.1242 47.8555 96.8397C47.855 96.5553 47.9291 96.2757 48.0704 96.0288L55.9306 82.4307C56.0321 82.237 56.1718 82.0659 56.3412 81.9276C56.5106 81.7893 56.7062 81.6866 56.9162 81.6258C57.1263 81.565 57.3465 81.5472 57.5635 81.5736C57.7806 81.6001 57.9901 81.6701 58.1795 81.7795C58.3688 81.889 58.5341 82.0356 58.6653 82.2105C58.7966 82.3854 58.8911 82.585 58.9433 82.7974C58.9954 83.0098 59.0041 83.2305 58.9688 83.4463C58.9335 83.6621 58.8549 83.8686 58.7378 84.0533L50.8776 97.6514C50.7352 97.8979 50.5307 98.1029 50.2844 98.2457C50.0381 98.3886 49.7587 98.4643 49.474 98.4655Z" fill="#E0E0E0"/>
<path d="M78.6016 100.565C78.1712 100.565 77.7585 100.394 77.4542 100.09C77.15 99.7857 76.979 99.373 76.979 98.9427V83.2223C76.979 82.792 77.15 82.3793 77.4542 82.075C77.7585 81.7707 78.1712 81.5998 78.6016 81.5998C79.0319 81.5998 79.4446 81.7707 79.7489 82.075C80.0532 82.3793 80.2241 82.792 80.2241 83.2223V98.9427C80.2241 99.373 80.0532 99.7857 79.7489 100.09C79.4446 100.394 79.0319 100.565 78.6016 100.565V100.565Z" fill="#E0E0E0"/>
<path d="M100.767 85.8892C100.485 85.8872 100.208 85.8116 99.9637 85.6698C99.7195 85.5281 99.5166 85.325 99.3749 85.0807L91.5147 71.4826C91.3202 71.1117 91.2766 70.68 91.3931 70.2777C91.5096 69.8755 91.7771 69.5338 92.1397 69.3242C92.5023 69.1147 92.9319 69.0534 93.3386 69.1533C93.7453 69.2531 94.0977 69.5064 94.3219 69.8601L102.182 83.4582C102.323 83.705 102.397 83.9846 102.397 84.2691C102.397 84.5535 102.322 84.8329 102.18 85.0794C102.038 85.3258 101.834 85.5308 101.588 85.6739C101.342 85.817 101.063 85.8931 100.779 85.8948L100.767 85.8892Z" fill="#E0E0E0"/>
<path d="M116.965 69.6804C116.682 69.6809 116.403 69.6073 116.157 69.467L102.559 61.6069C102.374 61.5 102.213 61.3578 102.083 61.1885C101.954 61.0192 101.859 60.8261 101.804 60.6201C101.75 60.4142 101.736 60.1995 101.764 59.9883C101.793 59.7771 101.862 59.5735 101.969 59.3892C102.076 59.2049 102.218 59.0434 102.387 58.914C102.557 58.7846 102.75 58.6899 102.956 58.6351C103.162 58.5804 103.376 58.5667 103.588 58.595C103.799 58.6232 104.002 58.6928 104.187 58.7997L117.779 66.6598C118.088 66.8389 118.329 67.1148 118.465 67.4447C118.601 67.7747 118.625 68.1403 118.532 68.485C118.439 68.8296 118.236 69.1341 117.952 69.3512C117.669 69.5684 117.322 69.686 116.965 69.686V69.6804Z" fill="#E0E0E0"/>
<path d="M122.9 47.5428H107.179C106.749 47.5428 106.336 47.3719 106.032 47.0676C105.728 46.7633 105.557 46.3506 105.557 45.9202C105.557 45.4899 105.728 45.0772 106.032 44.7729C106.336 44.4686 106.749 44.2977 107.179 44.2977H122.9C123.33 44.2977 123.743 44.4686 124.047 44.7729C124.351 45.0772 124.522 45.4899 124.522 45.9202C124.522 46.3506 124.351 46.7633 124.047 47.0676C123.743 47.3719 123.33 47.5428 122.9 47.5428V47.5428Z" fill="#E0E0E0"/>
<path d="M103.373 33.2541C103.014 33.2563 102.665 33.1396 102.379 32.9221C102.094 32.7047 101.889 32.3988 101.796 32.0524C101.703 31.7059 101.727 31.3384 101.865 31.0073C102.003 30.6762 102.247 30.4001 102.559 30.2223L116.157 22.3622C116.341 22.2451 116.548 22.1665 116.764 22.1312C116.979 22.0959 117.2 22.1045 117.413 22.1567C117.625 22.2088 117.825 22.3034 117.999 22.4346C118.174 22.5659 118.321 22.7311 118.43 22.9205C118.54 23.1098 118.61 23.3193 118.636 23.5364C118.663 23.7535 118.645 23.9737 118.584 24.1837C118.523 24.3938 118.421 24.5894 118.282 24.7588C118.144 24.9281 117.973 25.0678 117.779 25.1694L104.187 33.0295C103.94 33.176 103.659 33.2535 103.373 33.2541V33.2541Z" fill="#E0E0E0"/>
<path d="M92.9124 22.7945C92.6278 22.7935 92.3484 22.7177 92.1024 22.5746C91.8563 22.4315 91.6522 22.2263 91.5106 21.9794C91.3689 21.7325 91.2947 21.4527 91.2954 21.1681C91.2961 20.8835 91.3716 20.604 91.5144 20.3578L99.3746 6.75974C99.5905 6.38748 99.9454 6.11624 100.361 6.00569C100.777 5.89513 101.22 5.95432 101.592 6.17023C101.965 6.38614 102.236 6.74109 102.346 7.15698C102.457 7.57288 102.398 8.01566 102.182 8.38792L94.3216 21.986C94.179 22.2331 93.9734 22.4381 93.7259 22.5801C93.4784 22.7221 93.1978 22.7961 92.9124 22.7945V22.7945Z" fill="#E0E0E0"/>
</svg>
