<svg width="70" height="51" viewBox="0 0 70 51" fill="none" xmlns="http://www.w3.org/2000/svg">
<path d="M7.69231 0.222656C5.65218 0.222656 3.69561 1.03309 2.25302 2.47568C0.810437 3.91827 0 5.87484 0 7.91496L0 42.5303C0 44.5705 0.810437 46.527 2.25302 47.9696C3.69561 49.4122 5.65218 50.2227 7.69231 50.2227H23.0769V0.222656H7.69231Z" fill="#009A49"/>
<path d="M23.0801 0.222656H46.157V50.2227H23.0801V0.222656Z" fill="#EEEEEE"/>
<path d="M61.535 0.222656H46.1504V50.2227H61.535C63.5751 50.2227 65.5317 49.4122 66.9743 47.9696C68.4169 46.527 69.2273 44.5705 69.2273 42.5303V7.91496C69.2273 5.87484 68.4169 3.91827 66.9743 2.47568C65.5317 1.03309 63.5751 0.222656 61.535 0.222656V0.222656Z" fill="#009A49"/>
</svg>
