<svg width="160" height="140" viewBox="0 0 160 140" fill="none" xmlns="http://www.w3.org/2000/svg">
<path d="M0 25C0 18.3696 2.63392 12.0107 7.32233 7.32233C12.0107 2.63392 18.3696 0 25 0H35C36.3261 0 37.5979 0.526785 38.5355 1.46447C39.4732 2.40215 40 3.67392 40 5C40 6.32608 39.4732 7.59785 38.5355 8.53553C37.5979 9.47321 36.3261 10 35 10H25C21.0218 10 17.2064 11.5804 14.3934 14.3934C11.5804 17.2064 10 21.0218 10 25V35C10 36.3261 9.47321 37.5979 8.53553 38.5355C7.59785 39.4732 6.32608 40 5 40C3.67392 40 2.40215 39.4732 1.46447 38.5355C0.526785 37.5979 0 36.3261 0 35V25ZM120 5C120 3.67392 120.527 2.40215 121.464 1.46447C122.402 0.526785 123.674 0 125 0H135C141.63 0 147.989 2.63392 152.678 7.32233C157.366 12.0107 160 18.3696 160 25V35C160 36.3261 159.473 37.5979 158.536 38.5355C157.598 39.4732 156.326 40 155 40C153.674 40 152.402 39.4732 151.464 38.5355C150.527 37.5979 150 36.3261 150 35V25C150 21.0218 148.42 17.2064 145.607 14.3934C142.794 11.5804 138.978 10 135 10H125C123.674 10 122.402 9.47321 121.464 8.53553C120.527 7.59785 120 6.32608 120 5ZM5 100C6.32608 100 7.59785 100.527 8.53553 101.464C9.47321 102.402 10 103.674 10 105V115C10 118.978 11.5804 122.794 14.3934 125.607C17.2064 128.42 21.0218 130 25 130H35C36.3261 130 37.5979 130.527 38.5355 131.464C39.4732 132.402 40 133.674 40 135C40 136.326 39.4732 137.598 38.5355 138.536C37.5979 139.473 36.3261 140 35 140H25C18.3696 140 12.0107 137.366 7.32233 132.678C2.63392 127.989 0 121.63 0 115V105C0 103.674 0.526785 102.402 1.46447 101.464C2.40215 100.527 3.67392 100 5 100ZM155 100C156.326 100 157.598 100.527 158.536 101.464C159.473 102.402 160 103.674 160 105V115C160 121.63 157.366 127.989 152.678 132.678C147.989 137.366 141.63 140 135 140H125C123.674 140 122.402 139.473 121.464 138.536C120.527 137.598 120 136.326 120 135C120 133.674 120.527 132.402 121.464 131.464C122.402 130.527 123.674 130 125 130H135C138.978 130 142.794 128.42 145.607 125.607C148.42 122.794 150 118.978 150 115V105C150 103.674 150.527 102.402 151.464 101.464C152.402 100.527 153.674 100 155 100ZM35 30C36.3261 30 37.5979 30.5268 38.5355 31.4645C39.4732 32.4021 40 33.6739 40 35V105C40 106.326 39.4732 107.598 38.5355 108.536C37.5979 109.473 36.3261 110 35 110C33.6739 110 32.4021 109.473 31.4645 108.536C30.5268 107.598 30 106.326 30 105V35C30 33.6739 30.5268 32.4021 31.4645 31.4645C32.4021 30.5268 33.6739 30 35 30V30ZM70 35C70 33.6739 69.4732 32.4021 68.5355 31.4645C67.5979 30.5268 66.3261 30 65 30C63.6739 30 62.4021 30.5268 61.4645 31.4645C60.5268 32.4021 60 33.6739 60 35V105C60 106.326 60.5268 107.598 61.4645 108.536C62.4021 109.473 63.6739 110 65 110C66.3261 110 67.5979 109.473 68.5355 108.536C69.4732 107.598 70 106.326 70 105V35ZM95 30C96.3261 30 97.5979 30.5268 98.5355 31.4645C99.4732 32.4021 100 33.6739 100 35V105C100 106.326 99.4732 107.598 98.5355 108.536C97.5979 109.473 96.3261 110 95 110C93.6739 110 92.4021 109.473 91.4645 108.536C90.5268 107.598 90 106.326 90 105V35C90 33.6739 90.5268 32.4021 91.4645 31.4645C92.4021 30.5268 93.6739 30 95 30ZM130 35C130 33.6739 129.473 32.4021 128.536 31.4645C127.598 30.5268 126.326 30 125 30C123.674 30 122.402 30.5268 121.464 31.4645C120.527 32.4021 120 33.6739 120 35V105C120 106.326 120.527 107.598 121.464 108.536C122.402 109.473 123.674 110 125 110C126.326 110 127.598 109.473 128.536 108.536C129.473 107.598 130 106.326 130 105V35Z" fill="black"/>
</svg>
