<svg width="339" height="253" viewBox="0 0 339 253" fill="none" xmlns="http://www.w3.org/2000/svg">
<path d="M339 221.977H0V222.147H339V221.977Z" fill="#EBEBEB"/>
<path d="M305.033 232.886H282.577V233.056H305.033V232.886Z" fill="#EBEBEB"/>
<path d="M224.567 234.73H218.676V234.899H224.567V234.73Z" fill="#EBEBEB"/>
<path d="M281.899 226.595H268.888V226.764H281.899V226.595Z" fill="#EBEBEB"/>
<path d="M64.8507 227.733H35.5679V227.903H64.8507V227.733Z" fill="#EBEBEB"/>
<path d="M75.1833 227.733H70.8916V227.903H75.1833V227.733Z" fill="#EBEBEB"/>
<path d="M152.652 230.594H89.1367V230.764H152.652V230.594Z" fill="#EBEBEB"/>
<path d="M160.686 191.738H29.7709C28.7453 191.737 27.7623 191.328 27.0378 190.602C26.3132 189.876 25.9062 188.893 25.9063 187.867V3.83748C25.9152 2.81779 26.3261 1.84279 27.0497 1.12427C27.7733 0.405755 28.7511 0.00174679 29.7709 0H160.686C161.713 0 162.697 0.407877 163.423 1.1339C164.149 1.85993 164.557 2.84463 164.557 3.87138V187.867C164.557 188.894 164.149 189.878 163.423 190.605C162.697 191.331 161.713 191.738 160.686 191.738ZM29.7709 0.135601C28.7902 0.137397 27.8504 0.528206 27.1576 1.22225C26.4648 1.91629 26.0757 2.85685 26.0757 3.83748V187.867C26.0757 188.848 26.4648 189.788 27.1576 190.482C27.8504 191.176 28.7902 191.567 29.7709 191.569H160.686C161.667 191.567 162.608 191.177 163.302 190.483C163.995 189.789 164.386 188.848 164.388 187.867V3.83748C164.386 2.85623 163.995 1.91568 163.302 1.22184C162.608 0.527986 161.667 0.137393 160.686 0.135601H29.7709Z" fill="#EBEBEB"/>
<path d="M307.344 191.738H176.422C175.396 191.737 174.413 191.328 173.687 190.603C172.961 189.877 172.553 188.893 172.551 187.867V3.83748C172.562 2.81717 172.974 1.84218 173.699 1.12385C174.423 0.405518 175.402 0.00172774 176.422 0H307.344C308.363 0.00352865 309.339 0.408325 310.061 1.12665C310.783 1.84498 311.193 2.81896 311.202 3.83748V187.867C311.202 188.891 310.796 189.874 310.073 190.6C309.35 191.325 308.369 191.735 307.344 191.738ZM176.422 0.135601C175.441 0.137393 174.501 0.527986 173.807 1.22184C173.113 1.91568 172.722 2.85623 172.721 3.83748V187.867C172.722 188.848 173.113 189.789 173.807 190.483C174.501 191.177 175.441 191.567 176.422 191.569H307.344C308.325 191.567 309.266 191.177 309.96 190.483C310.654 189.789 311.044 188.848 311.046 187.867V3.83748C311.044 2.85623 310.654 1.91568 309.96 1.22184C309.266 0.527986 308.325 0.137393 307.344 0.135601H176.422Z" fill="#EBEBEB"/>
<path d="M293.805 214.506V182.762H291.093V167.635H287.126V115.05H281.384V108.263L269.139 102.547V95.7064H267.444V115.05H265.071V167.635H262.691V139.987H256.25V125.735H254.447V167.635H249.552V151.689H246.331V147.621H238.866V133.708H234.778V123.87H229.754V109.531H227.957V123.87H222.933V133.708H218.845V147.621H211.38V151.689H208.16V167.635H204.336V147.621H196.871V104.527H194.498V99.7811H178.551V104.527H175.155V135.742H161.588V138.8H156.496V141.173H161.588V153.391H147.336V112.67H144.285V104.019H137.668V73.312H135.797V104.019H131.051V112.67H103.205V109.822H101.503V129.166H99.1304V129.505H97.7066V148.841H95.3269V154.103H90.3096V139.851H88.513V173.778H86.5061V159.533H84.7094V181.751H83.6178V165.805H80.3905V161.737H72.9257V147.824H68.8374V137.986H63.8134V123.654H62.0235V137.986H56.9927V147.824H52.9112V161.737H45.4464V165.805H42.2191V181.412H41.6428V181.751H40.0427V214.506H293.805Z" fill="#E6E6E6"/>
<path d="M120.664 114.575H118.738V116.501H120.664V114.575Z" fill="#F0F0F0"/>
<path d="M120.664 117.796H118.738V119.721H120.664V117.796Z" fill="#F0F0F0"/>
<path d="M120.664 130.691H118.738V132.617H120.664V130.691Z" fill="#F0F0F0"/>
<path d="M120.664 133.912H118.738V135.838H120.664V133.912Z" fill="#F0F0F0"/>
<path d="M120.664 137.139H118.738V139.065H120.664V137.139Z" fill="#F0F0F0"/>
<path d="M120.664 146.808H118.738V148.733H120.664V146.808Z" fill="#F0F0F0"/>
<path d="M120.664 150.028H118.738V151.953H120.664V150.028Z" fill="#F0F0F0"/>
<path d="M123.721 127.471H121.796V129.396H123.721V127.471Z" fill="#F0F0F0"/>
<path d="M123.721 130.691H121.796V132.617H123.721V130.691Z" fill="#F0F0F0"/>
<path d="M123.721 133.912H121.796V135.838H123.721V133.912Z" fill="#F0F0F0"/>
<path d="M123.721 137.139H121.796V139.065H123.721V137.139Z" fill="#F0F0F0"/>
<path d="M123.721 140.359H121.796V142.285H123.721V140.359Z" fill="#F0F0F0"/>
<path d="M123.721 146.808H121.796V148.733H123.721V146.808Z" fill="#F0F0F0"/>
<path d="M123.721 150.028H121.796V151.953H123.721V150.028Z" fill="#F0F0F0"/>
<path d="M126.772 114.575H124.847V116.501H126.772V114.575Z" fill="#F0F0F0"/>
<path d="M126.772 117.796H124.847V119.721H126.772V117.796Z" fill="#F0F0F0"/>
<path d="M126.772 121.023H124.847V122.948H126.772V121.023Z" fill="#F0F0F0"/>
<path d="M126.772 124.243H124.847V126.169H126.772V124.243Z" fill="#F0F0F0"/>
<path d="M126.772 127.471H124.847V129.396H126.772V127.471Z" fill="#F0F0F0"/>
<path d="M126.772 130.691H124.847V132.617H126.772V130.691Z" fill="#F0F0F0"/>
<path d="M126.772 133.912H124.847V135.838H126.772V133.912Z" fill="#F0F0F0"/>
<path d="M126.772 137.139H124.847V139.065H126.772V137.139Z" fill="#F0F0F0"/>
<path d="M126.772 140.359H124.847V142.285H126.772V140.359Z" fill="#F0F0F0"/>
<path d="M126.772 143.587H124.847V145.512H126.772V143.587Z" fill="#F0F0F0"/>
<path d="M126.772 150.028H124.847V151.953H126.772V150.028Z" fill="#F0F0F0"/>
<path d="M129.823 114.575H127.898V116.501H129.823V114.575Z" fill="#F0F0F0"/>
<path d="M129.823 117.796H127.898V119.721H129.823V117.796Z" fill="#F0F0F0"/>
<path d="M129.823 121.023H127.898V122.948H129.823V121.023Z" fill="#F0F0F0"/>
<path d="M129.823 124.243H127.898V126.169H129.823V124.243Z" fill="#F0F0F0"/>
<path d="M129.823 127.471H127.898V129.396H129.823V127.471Z" fill="#F0F0F0"/>
<path d="M129.823 130.691H127.898V132.617H129.823V130.691Z" fill="#F0F0F0"/>
<path d="M129.823 133.912H127.898V135.838H129.823V133.912Z" fill="#F0F0F0"/>
<path d="M129.823 162.923H127.898V164.849H129.823V162.923Z" fill="#F0F0F0"/>
<path d="M132.881 114.575H130.956V116.501H132.881V114.575Z" fill="#F0F0F0"/>
<path d="M132.881 117.796H130.956V119.721H132.881V117.796Z" fill="#F0F0F0"/>
<path d="M132.881 121.023H130.956V122.948H132.881V121.023Z" fill="#F0F0F0"/>
<path d="M132.881 124.243H130.956V126.169H132.881V124.243Z" fill="#F0F0F0"/>
<path d="M132.881 127.471H130.956V129.396H132.881V127.471Z" fill="#F0F0F0"/>
<path d="M132.881 130.691H130.956V132.617H132.881V130.691Z" fill="#F0F0F0"/>
<path d="M132.881 133.912H130.956V135.838H132.881V133.912Z" fill="#F0F0F0"/>
<path d="M132.881 137.139H130.956V139.065H132.881V137.139Z" fill="#F0F0F0"/>
<path d="M132.881 156.476H130.956V158.401H132.881V156.476Z" fill="#F0F0F0"/>
<path d="M132.881 159.703H130.956V161.628H132.881V159.703Z" fill="#F0F0F0"/>
<path d="M132.881 162.923H130.956V164.849H132.881V162.923Z" fill="#F0F0F0"/>
<path d="M132.881 166.144H130.956V168.069H132.881V166.144Z" fill="#F0F0F0"/>
<path d="M132.881 179.04H130.956V180.965H132.881V179.04Z" fill="#F0F0F0"/>
<path d="M135.932 114.575H134.007V116.501H135.932V114.575Z" fill="#F0F0F0"/>
<path d="M135.932 117.796H134.007V119.721H135.932V117.796Z" fill="#F0F0F0"/>
<path d="M135.932 121.023H134.007V122.948H135.932V121.023Z" fill="#F0F0F0"/>
<path d="M135.932 124.243H134.007V126.169H135.932V124.243Z" fill="#F0F0F0"/>
<path d="M135.932 127.471H134.007V129.396H135.932V127.471Z" fill="#F0F0F0"/>
<path d="M135.932 130.691H134.007V132.617H135.932V130.691Z" fill="#F0F0F0"/>
<path d="M135.932 133.912H134.007V135.838H135.932V133.912Z" fill="#F0F0F0"/>
<path d="M135.932 137.139H134.007V139.065H135.932V137.139Z" fill="#F0F0F0"/>
<path d="M135.932 140.359H134.007V142.285H135.932V140.359Z" fill="#F0F0F0"/>
<path d="M135.932 143.587H134.007V145.512H135.932V143.587Z" fill="#F0F0F0"/>
<path d="M135.932 153.255H134.007V155.181H135.932V153.255Z" fill="#F0F0F0"/>
<path d="M135.932 156.476H134.007V158.401H135.932V156.476Z" fill="#F0F0F0"/>
<path d="M135.932 159.703H134.007V161.628H135.932V159.703Z" fill="#F0F0F0"/>
<path d="M135.932 162.923H134.007V164.849H135.932V162.923Z" fill="#F0F0F0"/>
<path d="M135.932 166.144H134.007V168.069H135.932V166.144Z" fill="#F0F0F0"/>
<path d="M135.932 179.04H134.007V180.965H135.932V179.04Z" fill="#F0F0F0"/>
<path d="M138.99 114.575H137.064V116.501H138.99V114.575Z" fill="#F0F0F0"/>
<path d="M138.99 117.796H137.064V119.721H138.99V117.796Z" fill="#F0F0F0"/>
<path d="M138.99 121.023H137.064V122.948H138.99V121.023Z" fill="#F0F0F0"/>
<path d="M138.99 124.243H137.064V126.169H138.99V124.243Z" fill="#F0F0F0"/>
<path d="M138.99 127.471H137.064V129.396H138.99V127.471Z" fill="#F0F0F0"/>
<path d="M138.99 130.691H137.064V132.617H138.99V130.691Z" fill="#F0F0F0"/>
<path d="M138.99 133.912H137.064V135.838H138.99V133.912Z" fill="#F0F0F0"/>
<path d="M138.99 137.139H137.064V139.065H138.99V137.139Z" fill="#F0F0F0"/>
<path d="M138.99 140.359H137.064V142.285H138.99V140.359Z" fill="#F0F0F0"/>
<path d="M138.99 143.587H137.064V145.512H138.99V143.587Z" fill="#F0F0F0"/>
<path d="M138.99 146.808H137.064V148.733H138.99V146.808Z" fill="#F0F0F0"/>
<path d="M138.99 150.028H137.064V151.953H138.99V150.028Z" fill="#F0F0F0"/>
<path d="M138.99 153.255H137.064V155.181H138.99V153.255Z" fill="#F0F0F0"/>
<path d="M138.99 156.476H137.064V158.401H138.99V156.476Z" fill="#F0F0F0"/>
<path d="M138.99 159.703H137.064V161.628H138.99V159.703Z" fill="#F0F0F0"/>
<path d="M138.99 162.923H137.064V164.849H138.99V162.923Z" fill="#F0F0F0"/>
<path d="M138.99 166.144H137.064V168.069H138.99V166.144Z" fill="#F0F0F0"/>
<path d="M138.99 169.371H137.064V171.297H138.99V169.371Z" fill="#F0F0F0"/>
<path d="M142.041 114.575H140.115V116.501H142.041V114.575Z" fill="#F0F0F0"/>
<path d="M142.041 117.796H140.115V119.721H142.041V117.796Z" fill="#F0F0F0"/>
<path d="M142.041 121.023H140.115V122.948H142.041V121.023Z" fill="#F0F0F0"/>
<path d="M142.041 124.243H140.115V126.169H142.041V124.243Z" fill="#F0F0F0"/>
<path d="M142.041 127.471H140.115V129.396H142.041V127.471Z" fill="#F0F0F0"/>
<path d="M142.041 130.691H140.115V132.617H142.041V130.691Z" fill="#F0F0F0"/>
<path d="M142.041 133.912H140.115V135.838H142.041V133.912Z" fill="#F0F0F0"/>
<path d="M142.041 137.139H140.115V139.065H142.041V137.139Z" fill="#F0F0F0"/>
<path d="M142.041 140.359H140.115V142.285H142.041V140.359Z" fill="#F0F0F0"/>
<path d="M142.041 143.587H140.115V145.512H142.041V143.587Z" fill="#F0F0F0"/>
<path d="M142.041 153.255H140.115V155.181H142.041V153.255Z" fill="#F0F0F0"/>
<path d="M142.041 156.476H140.115V158.401H142.041V156.476Z" fill="#F0F0F0"/>
<path d="M142.041 159.703H140.115V161.628H142.041V159.703Z" fill="#F0F0F0"/>
<path d="M142.041 162.923H140.115V164.849H142.041V162.923Z" fill="#F0F0F0"/>
<path d="M145.092 114.575H143.167V116.501H145.092V114.575Z" fill="#F0F0F0"/>
<path d="M145.092 117.796H143.167V119.721H145.092V117.796Z" fill="#F0F0F0"/>
<path d="M145.092 121.023H143.167V122.948H145.092V121.023Z" fill="#F0F0F0"/>
<path d="M145.092 124.243H143.167V126.169H145.092V124.243Z" fill="#F0F0F0"/>
<path d="M145.092 127.471H143.167V129.396H145.092V127.471Z" fill="#F0F0F0"/>
<path d="M145.092 130.691H143.167V132.617H145.092V130.691Z" fill="#F0F0F0"/>
<path d="M145.092 133.912H143.167V135.838H145.092V133.912Z" fill="#F0F0F0"/>
<path d="M145.092 137.139H143.167V139.065H145.092V137.139Z" fill="#F0F0F0"/>
<path d="M145.092 140.359H143.167V142.285H145.092V140.359Z" fill="#F0F0F0"/>
<path d="M145.092 143.587H143.167V145.512H145.092V143.587Z" fill="#F0F0F0"/>
<path d="M145.092 153.255H143.167V155.181H145.092V153.255Z" fill="#F0F0F0"/>
<path d="M145.092 156.476H143.167V158.401H145.092V156.476Z" fill="#F0F0F0"/>
<path d="M145.092 159.703H143.167V161.628H145.092V159.703Z" fill="#F0F0F0"/>
<path d="M179.474 106.208H177.548V108.134H179.474V106.208Z" fill="#F0F0F0"/>
<path d="M179.474 109.429H177.548V111.355H179.474V109.429Z" fill="#F0F0F0"/>
<path d="M179.474 112.649H177.548V114.575H179.474V112.649Z" fill="#F0F0F0"/>
<path d="M179.474 115.877H177.548V117.802H179.474V115.877Z" fill="#F0F0F0"/>
<path d="M179.474 119.098H177.548V121.023H179.474V119.098Z" fill="#F0F0F0"/>
<path d="M179.474 122.325H177.548V124.25H179.474V122.325Z" fill="#F0F0F0"/>
<path d="M179.474 125.545H177.548V127.471H179.474V125.545Z" fill="#F0F0F0"/>
<path d="M179.474 128.766H177.548V130.691H179.474V128.766Z" fill="#F0F0F0"/>
<path d="M179.474 138.441H177.548V140.366H179.474V138.441Z" fill="#F0F0F0"/>
<path d="M179.474 141.662H177.548V143.587H179.474V141.662Z" fill="#F0F0F0"/>
<path d="M182.531 106.208H180.605V108.134H182.531V106.208Z" fill="#F0F0F0"/>
<path d="M182.531 109.429H180.605V111.355H182.531V109.429Z" fill="#F0F0F0"/>
<path d="M182.531 112.649H180.605V114.575H182.531V112.649Z" fill="#F0F0F0"/>
<path d="M182.531 115.877H180.605V117.802H182.531V115.877Z" fill="#F0F0F0"/>
<path d="M182.531 119.098H180.605V121.023H182.531V119.098Z" fill="#F0F0F0"/>
<path d="M182.531 122.325H180.605V124.25H182.531V122.325Z" fill="#F0F0F0"/>
<path d="M182.531 125.545H180.605V127.471H182.531V125.545Z" fill="#F0F0F0"/>
<path d="M182.531 128.766H180.605V130.691H182.531V128.766Z" fill="#F0F0F0"/>
<path d="M182.531 141.662H180.605V143.587H182.531V141.662Z" fill="#F0F0F0"/>
<path d="M185.582 106.208H183.656V108.134H185.582V106.208Z" fill="#F0F0F0"/>
<path d="M185.582 109.429H183.656V111.355H185.582V109.429Z" fill="#F0F0F0"/>
<path d="M185.582 112.649H183.656V114.575H185.582V112.649Z" fill="#F0F0F0"/>
<path d="M185.582 115.877H183.656V117.802H185.582V115.877Z" fill="#F0F0F0"/>
<path d="M185.582 119.098H183.656V121.023H185.582V119.098Z" fill="#F0F0F0"/>
<path d="M185.582 122.325H183.656V124.25H185.582V122.325Z" fill="#F0F0F0"/>
<path d="M185.582 125.545H183.656V127.471H185.582V125.545Z" fill="#F0F0F0"/>
<path d="M185.582 128.766H183.656V130.691H185.582V128.766Z" fill="#F0F0F0"/>
<path d="M188.633 106.208H186.708V108.134H188.633V106.208Z" fill="#F0F0F0"/>
<path d="M188.633 109.429H186.708V111.355H188.633V109.429Z" fill="#F0F0F0"/>
<path d="M188.633 112.649H186.708V114.575H188.633V112.649Z" fill="#F0F0F0"/>
<path d="M188.633 115.877H186.708V117.802H188.633V115.877Z" fill="#F0F0F0"/>
<path d="M188.633 119.098H186.708V121.023H188.633V119.098Z" fill="#F0F0F0"/>
<path d="M188.633 122.325H186.708V124.25H188.633V122.325Z" fill="#F0F0F0"/>
<path d="M188.633 128.766H186.708V130.691H188.633V128.766Z" fill="#F0F0F0"/>
<path d="M188.633 131.993H186.708V133.919H188.633V131.993Z" fill="#F0F0F0"/>
<path d="M188.633 141.662H186.708V143.587H188.633V141.662Z" fill="#F0F0F0"/>
<path d="M188.633 144.882H186.708V146.807H188.633V144.882Z" fill="#F0F0F0"/>
<path d="M188.633 148.109H186.708V150.034H188.633V148.109Z" fill="#F0F0F0"/>
<path d="M188.633 151.33H186.708V153.255H188.633V151.33Z" fill="#F0F0F0"/>
<path d="M188.633 154.557H186.708V156.483H188.633V154.557Z" fill="#F0F0F0"/>
<path d="M188.633 157.777H186.708V159.703H188.633V157.777Z" fill="#F0F0F0"/>
<path d="M188.633 160.998H186.708V162.924H188.633V160.998Z" fill="#F0F0F0"/>
<path d="M191.691 106.208H189.765V108.134H191.691V106.208Z" fill="#F0F0F0"/>
<path d="M191.691 109.429H189.765V111.355H191.691V109.429Z" fill="#F0F0F0"/>
<path d="M191.691 112.649H189.765V114.575H191.691V112.649Z" fill="#F0F0F0"/>
<path d="M191.691 115.877H189.765V117.802H191.691V115.877Z" fill="#F0F0F0"/>
<path d="M191.691 119.098H189.765V121.023H191.691V119.098Z" fill="#F0F0F0"/>
<path d="M191.691 122.325H189.765V124.25H191.691V122.325Z" fill="#F0F0F0"/>
<path d="M191.691 131.993H189.765V133.919H191.691V131.993Z" fill="#F0F0F0"/>
<path d="M191.691 135.214H189.765V137.139H191.691V135.214Z" fill="#F0F0F0"/>
<path d="M191.691 138.441H189.765V140.366H191.691V138.441Z" fill="#F0F0F0"/>
<path d="M191.691 141.662H189.765V143.587H191.691V141.662Z" fill="#F0F0F0"/>
<path d="M191.691 144.882H189.765V146.807H191.691V144.882Z" fill="#F0F0F0"/>
<path d="M191.691 148.109H189.765V150.034H191.691V148.109Z" fill="#F0F0F0"/>
<path d="M191.691 151.33H189.765V153.255H191.691V151.33Z" fill="#F0F0F0"/>
<path d="M191.691 154.557H189.765V156.483H191.691V154.557Z" fill="#F0F0F0"/>
<path d="M191.691 157.777H189.765V159.703H191.691V157.777Z" fill="#F0F0F0"/>
<path d="M191.691 160.998H189.765V162.924H191.691V160.998Z" fill="#F0F0F0"/>
<path d="M191.691 164.225H189.765V166.151H191.691V164.225Z" fill="#F0F0F0"/>
<path d="M191.691 170.673H189.765V172.598H191.691V170.673Z" fill="#F0F0F0"/>
<path d="M194.742 106.208H192.816V108.134H194.742V106.208Z" fill="#F0F0F0"/>
<path d="M194.742 109.429H192.816V111.355H194.742V109.429Z" fill="#F0F0F0"/>
<path d="M194.742 112.649H192.816V114.575H194.742V112.649Z" fill="#F0F0F0"/>
<path d="M194.742 115.877H192.816V117.802H194.742V115.877Z" fill="#F0F0F0"/>
<path d="M194.742 119.098H192.816V121.023H194.742V119.098Z" fill="#F0F0F0"/>
<path d="M194.742 122.325H192.816V124.25H194.742V122.325Z" fill="#F0F0F0"/>
<path d="M194.742 131.993H192.816V133.919H194.742V131.993Z" fill="#F0F0F0"/>
<path d="M194.742 135.214H192.816V137.139H194.742V135.214Z" fill="#F0F0F0"/>
<path d="M194.742 138.441H192.816V140.366H194.742V138.441Z" fill="#F0F0F0"/>
<path d="M194.742 141.662H192.816V143.587H194.742V141.662Z" fill="#F0F0F0"/>
<path d="M194.742 151.33H192.816V153.255H194.742V151.33Z" fill="#F0F0F0"/>
<path d="M194.742 154.557H192.816V156.483H194.742V154.557Z" fill="#F0F0F0"/>
<path d="M194.742 157.777H192.816V159.703H194.742V157.777Z" fill="#F0F0F0"/>
<path d="M194.742 160.998H192.816V162.924H194.742V160.998Z" fill="#F0F0F0"/>
<path d="M194.742 164.225H192.816V166.151H194.742V164.225Z" fill="#F0F0F0"/>
<path d="M194.742 170.673H192.816V172.598H194.742V170.673Z" fill="#F0F0F0"/>
<path d="M194.742 173.894H192.816V175.819H194.742V173.894Z" fill="#F0F0F0"/>
<path d="M222.452 136.176H220.526V138.102H222.452V136.176Z" fill="#F0F0F0"/>
<path d="M222.452 139.397H220.526V141.322H222.452V139.397Z" fill="#F0F0F0"/>
<path d="M222.452 142.624H220.526V144.55H222.452V142.624Z" fill="#F0F0F0"/>
<path d="M222.452 145.845H220.526V147.77H222.452V145.845Z" fill="#F0F0F0"/>
<path d="M222.452 149.072H220.526V150.998H222.452V149.072Z" fill="#F0F0F0"/>
<path d="M222.452 152.292H220.526V154.218H222.452V152.292Z" fill="#F0F0F0"/>
<path d="M222.452 155.513H220.526V157.439H222.452V155.513Z" fill="#F0F0F0"/>
<path d="M222.452 165.188H220.526V167.114H222.452V165.188Z" fill="#F0F0F0"/>
<path d="M222.452 168.408H220.526V170.334H222.452V168.408Z" fill="#F0F0F0"/>
<path d="M222.452 171.629H220.526V173.554H222.452V171.629Z" fill="#F0F0F0"/>
<path d="M225.503 136.176H223.577V138.102H225.503V136.176Z" fill="#F0F0F0"/>
<path d="M225.503 139.397H223.577V141.322H225.503V139.397Z" fill="#F0F0F0"/>
<path d="M225.503 142.624H223.577V144.55H225.503V142.624Z" fill="#F0F0F0"/>
<path d="M225.503 145.845H223.577V147.77H225.503V145.845Z" fill="#F0F0F0"/>
<path d="M225.503 149.072H223.577V150.998H225.503V149.072Z" fill="#F0F0F0"/>
<path d="M225.503 152.292H223.577V154.218H225.503V152.292Z" fill="#F0F0F0"/>
<path d="M225.503 155.513H223.577V157.439H225.503V155.513Z" fill="#F0F0F0"/>
<path d="M228.56 136.176H226.635V138.102H228.56V136.176Z" fill="#F0F0F0"/>
<path d="M228.56 139.397H226.635V141.322H228.56V139.397Z" fill="#F0F0F0"/>
<path d="M228.56 142.624H226.635V144.55H228.56V142.624Z" fill="#F0F0F0"/>
<path d="M228.56 145.845H226.635V147.77H228.56V145.845Z" fill="#F0F0F0"/>
<path d="M228.56 149.072H226.635V150.998H228.56V149.072Z" fill="#F0F0F0"/>
<path d="M228.56 152.292H226.635V154.218H228.56V152.292Z" fill="#F0F0F0"/>
<path d="M228.56 155.513H226.635V157.439H228.56V155.513Z" fill="#F0F0F0"/>
<path d="M231.612 136.176H229.686V138.102H231.612V136.176Z" fill="#F0F0F0"/>
<path d="M231.612 139.397H229.686V141.322H231.612V139.397Z" fill="#F0F0F0"/>
<path d="M231.612 142.624H229.686V144.55H231.612V142.624Z" fill="#F0F0F0"/>
<path d="M231.612 145.845H229.686V147.77H231.612V145.845Z" fill="#F0F0F0"/>
<path d="M231.612 149.072H229.686V150.998H231.612V149.072Z" fill="#F0F0F0"/>
<path d="M231.612 152.292H229.686V154.218H231.612V152.292Z" fill="#F0F0F0"/>
<path d="M231.612 155.513H229.686V157.439H231.612V155.513Z" fill="#F0F0F0"/>
<path d="M231.612 158.74H229.686V160.666H231.612V158.74Z" fill="#F0F0F0"/>
<path d="M231.612 161.96H229.686V163.886H231.612V161.96Z" fill="#F0F0F0"/>
<path d="M231.612 165.188H229.686V167.114H231.612V165.188Z" fill="#F0F0F0"/>
<path d="M231.612 168.408H229.686V170.334H231.612V168.408Z" fill="#F0F0F0"/>
<path d="M234.669 136.176H232.744V138.102H234.669V136.176Z" fill="#F0F0F0"/>
<path d="M234.669 139.397H232.744V141.322H234.669V139.397Z" fill="#F0F0F0"/>
<path d="M234.669 142.624H232.744V144.55H234.669V142.624Z" fill="#F0F0F0"/>
<path d="M234.669 145.845H232.744V147.77H234.669V145.845Z" fill="#F0F0F0"/>
<path d="M234.669 149.072H232.744V150.998H234.669V149.072Z" fill="#F0F0F0"/>
<path d="M234.669 152.292H232.744V154.218H234.669V152.292Z" fill="#F0F0F0"/>
<path d="M234.669 155.513H232.744V157.439H234.669V155.513Z" fill="#F0F0F0"/>
<path d="M234.669 158.74H232.744V160.666H234.669V158.74Z" fill="#F0F0F0"/>
<path d="M234.669 161.96H232.744V163.886H234.669V161.96Z" fill="#F0F0F0"/>
<path d="M234.669 165.188H232.744V167.114H234.669V165.188Z" fill="#F0F0F0"/>
<path d="M234.669 168.408H232.744V170.334H234.669V168.408Z" fill="#F0F0F0"/>
<path d="M234.669 171.629H232.744V173.554H234.669V171.629Z" fill="#F0F0F0"/>
<path d="M234.669 181.304H232.744V183.229H234.669V181.304Z" fill="#F0F0F0"/>
<path d="M234.669 184.524H232.744V186.45H234.669V184.524Z" fill="#F0F0F0"/>
<path d="M237.72 136.176H235.795V138.102H237.72V136.176Z" fill="#F0F0F0"/>
<path d="M237.72 139.397H235.795V141.322H237.72V139.397Z" fill="#F0F0F0"/>
<path d="M237.72 142.624H235.795V144.55H237.72V142.624Z" fill="#F0F0F0"/>
<path d="M237.72 152.292H235.795V154.218H237.72V152.292Z" fill="#F0F0F0"/>
<path d="M237.72 155.513H235.795V157.439H237.72V155.513Z" fill="#F0F0F0"/>
<path d="M237.72 158.74H235.795V160.666H237.72V158.74Z" fill="#F0F0F0"/>
<path d="M237.72 161.96H235.795V163.886H237.72V161.96Z" fill="#F0F0F0"/>
<path d="M237.72 165.188H235.795V167.114H237.72V165.188Z" fill="#F0F0F0"/>
<path d="M237.72 168.408H235.795V170.334H237.72V168.408Z" fill="#F0F0F0"/>
<path d="M237.72 171.629H235.795V173.554H237.72V171.629Z" fill="#F0F0F0"/>
<path d="M237.72 181.304H235.795V183.229H237.72V181.304Z" fill="#F0F0F0"/>
<path d="M237.72 184.524H235.795V186.45H237.72V184.524Z" fill="#F0F0F0"/>
<path d="M237.72 187.745H235.795V189.671H237.72V187.745Z" fill="#F0F0F0"/>
<path d="M269.729 116.84H267.803V118.765H269.729V116.84Z" fill="#F0F0F0"/>
<path d="M269.729 120.06H267.803V121.986H269.729V120.06Z" fill="#F0F0F0"/>
<path d="M269.729 123.281H267.803V125.206H269.729V123.281Z" fill="#F0F0F0"/>
<path d="M269.729 126.508H267.803V128.433H269.729V126.508Z" fill="#F0F0F0"/>
<path d="M269.729 129.729H267.803V131.654H269.729V129.729Z" fill="#F0F0F0"/>
<path d="M269.729 132.956H267.803V134.882H269.729V132.956Z" fill="#F0F0F0"/>
<path d="M269.729 136.176H267.803V138.102H269.729V136.176Z" fill="#F0F0F0"/>
<path d="M269.729 139.397H267.803V141.322H269.729V139.397Z" fill="#F0F0F0"/>
<path d="M269.729 142.624H267.803V144.55H269.729V142.624Z" fill="#F0F0F0"/>
<path d="M269.729 145.845H267.803V147.77H269.729V145.845Z" fill="#F0F0F0"/>
<path d="M269.729 149.072H267.803V150.998H269.729V149.072Z" fill="#F0F0F0"/>
<path d="M269.729 152.292H267.803V154.218H269.729V152.292Z" fill="#F0F0F0"/>
<path d="M269.729 155.513H267.803V157.439H269.729V155.513Z" fill="#F0F0F0"/>
<path d="M269.729 158.74H267.803V160.666H269.729V158.74Z" fill="#F0F0F0"/>
<path d="M269.729 161.96H267.803V163.886H269.729V161.96Z" fill="#F0F0F0"/>
<path d="M269.729 165.188H267.803V167.114H269.729V165.188Z" fill="#F0F0F0"/>
<path d="M269.729 168.408H267.803V170.334H269.729V168.408Z" fill="#F0F0F0"/>
<path d="M269.729 171.629H267.803V173.554H269.729V171.629Z" fill="#F0F0F0"/>
<path d="M269.729 174.856H267.803V176.781H269.729V174.856Z" fill="#F0F0F0"/>
<path d="M269.729 178.077H267.803V180.002H269.729V178.077Z" fill="#F0F0F0"/>
<path d="M269.729 181.304H267.803V183.229H269.729V181.304Z" fill="#F0F0F0"/>
<path d="M269.729 184.524H267.803V186.45H269.729V184.524Z" fill="#F0F0F0"/>
<path d="M269.729 187.745H267.803V189.671H269.729V187.745Z" fill="#F0F0F0"/>
<path d="M272.78 116.84H270.854V118.765H272.78V116.84Z" fill="#F0F0F0"/>
<path d="M272.78 120.06H270.854V121.986H272.78V120.06Z" fill="#F0F0F0"/>
<path d="M272.78 123.281H270.854V125.206H272.78V123.281Z" fill="#F0F0F0"/>
<path d="M272.78 126.508H270.854V128.433H272.78V126.508Z" fill="#F0F0F0"/>
<path d="M272.78 129.729H270.854V131.654H272.78V129.729Z" fill="#F0F0F0"/>
<path d="M272.78 132.956H270.854V134.882H272.78V132.956Z" fill="#F0F0F0"/>
<path d="M272.78 136.176H270.854V138.102H272.78V136.176Z" fill="#F0F0F0"/>
<path d="M272.78 139.397H270.854V141.322H272.78V139.397Z" fill="#F0F0F0"/>
<path d="M272.78 142.624H270.854V144.55H272.78V142.624Z" fill="#F0F0F0"/>
<path d="M272.78 145.845H270.854V147.77H272.78V145.845Z" fill="#F0F0F0"/>
<path d="M272.78 149.072H270.854V150.998H272.78V149.072Z" fill="#F0F0F0"/>
<path d="M272.78 152.292H270.854V154.218H272.78V152.292Z" fill="#F0F0F0"/>
<path d="M272.78 155.513H270.854V157.439H272.78V155.513Z" fill="#F0F0F0"/>
<path d="M272.78 158.74H270.854V160.666H272.78V158.74Z" fill="#F0F0F0"/>
<path d="M272.78 161.96H270.854V163.886H272.78V161.96Z" fill="#F0F0F0"/>
<path d="M272.78 165.188H270.854V167.114H272.78V165.188Z" fill="#F0F0F0"/>
<path d="M272.78 168.408H270.854V170.334H272.78V168.408Z" fill="#F0F0F0"/>
<path d="M272.78 171.629H270.854V173.554H272.78V171.629Z" fill="#F0F0F0"/>
<path d="M272.78 174.856H270.854V176.781H272.78V174.856Z" fill="#F0F0F0"/>
<path d="M275.831 116.84H273.905V118.765H275.831V116.84Z" fill="#F0F0F0"/>
<path d="M275.831 120.06H273.905V121.986H275.831V120.06Z" fill="#F0F0F0"/>
<path d="M275.831 123.281H273.905V125.206H275.831V123.281Z" fill="#F0F0F0"/>
<path d="M275.831 126.508H273.905V128.433H275.831V126.508Z" fill="#F0F0F0"/>
<path d="M275.831 129.729H273.905V131.654H275.831V129.729Z" fill="#F0F0F0"/>
<path d="M275.831 132.956H273.905V134.882H275.831V132.956Z" fill="#F0F0F0"/>
<path d="M275.831 136.176H273.905V138.102H275.831V136.176Z" fill="#F0F0F0"/>
<path d="M275.831 139.397H273.905V141.322H275.831V139.397Z" fill="#F0F0F0"/>
<path d="M275.831 142.624H273.905V144.55H275.831V142.624Z" fill="#F0F0F0"/>
<path d="M275.831 145.845H273.905V147.77H275.831V145.845Z" fill="#F0F0F0"/>
<path d="M275.831 149.072H273.905V150.998H275.831V149.072Z" fill="#F0F0F0"/>
<path d="M275.831 152.292H273.905V154.218H275.831V152.292Z" fill="#F0F0F0"/>
<path d="M275.831 155.513H273.905V157.439H275.831V155.513Z" fill="#F0F0F0"/>
<path d="M275.831 158.74H273.905V160.666H275.831V158.74Z" fill="#F0F0F0"/>
<path d="M275.831 161.96H273.905V163.886H275.831V161.96Z" fill="#F0F0F0"/>
<path d="M275.831 165.188H273.905V167.114H275.831V165.188Z" fill="#F0F0F0"/>
<path d="M275.831 168.408H273.905V170.334H275.831V168.408Z" fill="#F0F0F0"/>
<path d="M275.831 171.629H273.905V173.554H275.831V171.629Z" fill="#F0F0F0"/>
<path d="M275.831 174.856H273.905V176.781H275.831V174.856Z" fill="#F0F0F0"/>
<path d="M278.888 116.84H276.963V118.765H278.888V116.84Z" fill="#F0F0F0"/>
<path d="M278.888 120.06H276.963V121.986H278.888V120.06Z" fill="#F0F0F0"/>
<path d="M278.888 123.281H276.963V125.206H278.888V123.281Z" fill="#F0F0F0"/>
<path d="M278.888 126.508H276.963V128.433H278.888V126.508Z" fill="#F0F0F0"/>
<path d="M278.888 129.729H276.963V131.654H278.888V129.729Z" fill="#F0F0F0"/>
<path d="M278.888 132.956H276.963V134.882H278.888V132.956Z" fill="#F0F0F0"/>
<path d="M278.888 136.176H276.963V138.102H278.888V136.176Z" fill="#F0F0F0"/>
<path d="M278.888 139.397H276.963V141.322H278.888V139.397Z" fill="#F0F0F0"/>
<path d="M278.888 142.624H276.963V144.55H278.888V142.624Z" fill="#F0F0F0"/>
<path d="M278.888 145.845H276.963V147.77H278.888V145.845Z" fill="#F0F0F0"/>
<path d="M278.888 149.072H276.963V150.998H278.888V149.072Z" fill="#F0F0F0"/>
<path d="M278.888 152.292H276.963V154.218H278.888V152.292Z" fill="#F0F0F0"/>
<path d="M278.888 155.513H276.963V157.439H278.888V155.513Z" fill="#F0F0F0"/>
<path d="M278.888 158.74H276.963V160.666H278.888V158.74Z" fill="#F0F0F0"/>
<path d="M278.888 161.96H276.963V163.886H278.888V161.96Z" fill="#F0F0F0"/>
<path d="M281.939 116.84H280.014V118.765H281.939V116.84Z" fill="#F0F0F0"/>
<path d="M281.939 120.06H280.014V121.986H281.939V120.06Z" fill="#F0F0F0"/>
<path d="M281.939 123.281H280.014V125.206H281.939V123.281Z" fill="#F0F0F0"/>
<path d="M281.939 126.508H280.014V128.433H281.939V126.508Z" fill="#F0F0F0"/>
<path d="M281.939 129.729H280.014V131.654H281.939V129.729Z" fill="#F0F0F0"/>
<path d="M281.939 132.956H280.014V134.882H281.939V132.956Z" fill="#F0F0F0"/>
<path d="M281.939 136.176H280.014V138.102H281.939V136.176Z" fill="#F0F0F0"/>
<path d="M281.939 139.397H280.014V141.322H281.939V139.397Z" fill="#F0F0F0"/>
<path d="M281.939 142.624H280.014V144.55H281.939V142.624Z" fill="#F0F0F0"/>
<path d="M281.939 145.845H280.014V147.77H281.939V145.845Z" fill="#F0F0F0"/>
<path d="M281.939 149.072H280.014V150.998H281.939V149.072Z" fill="#F0F0F0"/>
<path d="M281.939 152.292H280.014V154.218H281.939V152.292Z" fill="#F0F0F0"/>
<path d="M281.939 155.513H280.014V157.439H281.939V155.513Z" fill="#F0F0F0"/>
<path d="M284.998 116.84H283.072V118.765H284.998V116.84Z" fill="#F0F0F0"/>
<path d="M284.998 120.06H283.072V121.986H284.998V120.06Z" fill="#F0F0F0"/>
<path d="M284.998 123.281H283.072V125.206H284.998V123.281Z" fill="#F0F0F0"/>
<path d="M284.998 126.508H283.072V128.433H284.998V126.508Z" fill="#F0F0F0"/>
<path d="M284.998 129.729H283.072V131.654H284.998V129.729Z" fill="#F0F0F0"/>
<path d="M284.998 132.956H283.072V134.882H284.998V132.956Z" fill="#F0F0F0"/>
<path d="M284.998 136.176H283.072V138.102H284.998V136.176Z" fill="#F0F0F0"/>
<path d="M284.998 139.397H283.072V141.322H284.998V139.397Z" fill="#F0F0F0"/>
<path d="M284.998 142.624H283.072V144.55H284.998V142.624Z" fill="#F0F0F0"/>
<path d="M284.998 145.845H283.072V147.77H284.998V145.845Z" fill="#F0F0F0"/>
<path d="M284.998 149.072H283.072V150.998H284.998V149.072Z" fill="#F0F0F0"/>
<path d="M284.998 152.292H283.072V154.218H284.998V152.292Z" fill="#F0F0F0"/>
<path d="M60.6133 140.359H58.6877V142.285H60.6133V140.359Z" fill="#F0F0F0"/>
<path d="M60.6133 143.587H58.6877V145.512H60.6133V143.587Z" fill="#F0F0F0"/>
<path d="M60.6133 146.808H58.6877V148.733H60.6133V146.808Z" fill="#F0F0F0"/>
<path d="M60.6133 150.028H58.6877V151.953H60.6133V150.028Z" fill="#F0F0F0"/>
<path d="M60.6133 153.255H58.6877V155.181H60.6133V153.255Z" fill="#F0F0F0"/>
<path d="M60.6133 156.476H58.6877V158.401H60.6133V156.476Z" fill="#F0F0F0"/>
<path d="M60.6133 159.703H58.6877V161.628H60.6133V159.703Z" fill="#F0F0F0"/>
<path d="M60.6133 162.923H58.6877V164.849H60.6133V162.923Z" fill="#F0F0F0"/>
<path d="M60.6133 166.144H58.6877V168.069H60.6133V166.144Z" fill="#F0F0F0"/>
<path d="M60.6133 169.371H58.6877V171.297H60.6133V169.371Z" fill="#F0F0F0"/>
<path d="M60.6133 172.592H58.6877V174.517H60.6133V172.592Z" fill="#F0F0F0"/>
<path d="M60.6133 175.819H58.6877V177.744H60.6133V175.819Z" fill="#F0F0F0"/>
<path d="M60.6133 179.04H58.6877V180.965H60.6133V179.04Z" fill="#F0F0F0"/>
<path d="M60.6133 182.26H58.6877V184.186H60.6133V182.26Z" fill="#F0F0F0"/>
<path d="M60.6133 185.487H58.6877V187.413H60.6133V185.487Z" fill="#F0F0F0"/>
<path d="M60.6133 188.708H58.6877V190.634H60.6133V188.708Z" fill="#F0F0F0"/>
<path d="M60.6133 191.935H58.6877V193.861H60.6133V191.935Z" fill="#F0F0F0"/>
<path d="M60.6133 195.156H58.6877V197.081H60.6133V195.156Z" fill="#F0F0F0"/>
<path d="M60.6133 198.376H58.6877V200.301H60.6133V198.376Z" fill="#F0F0F0"/>
<path d="M60.6133 201.603H58.6877V203.529H60.6133V201.603Z" fill="#F0F0F0"/>
<path d="M63.6643 140.359H61.7388V142.285H63.6643V140.359Z" fill="#F0F0F0"/>
<path d="M63.6643 143.587H61.7388V145.512H63.6643V143.587Z" fill="#F0F0F0"/>
<path d="M63.6643 146.808H61.7388V148.733H63.6643V146.808Z" fill="#F0F0F0"/>
<path d="M63.6643 150.028H61.7388V151.953H63.6643V150.028Z" fill="#F0F0F0"/>
<path d="M63.6643 153.255H61.7388V155.181H63.6643V153.255Z" fill="#F0F0F0"/>
<path d="M63.6643 156.476H61.7388V158.401H63.6643V156.476Z" fill="#F0F0F0"/>
<path d="M63.6643 159.703H61.7388V161.628H63.6643V159.703Z" fill="#F0F0F0"/>
<path d="M63.6643 162.923H61.7388V164.849H63.6643V162.923Z" fill="#F0F0F0"/>
<path d="M63.6643 166.144H61.7388V168.069H63.6643V166.144Z" fill="#F0F0F0"/>
<path d="M63.6643 169.371H61.7388V171.297H63.6643V169.371Z" fill="#F0F0F0"/>
<path d="M63.6643 172.592H61.7388V174.517H63.6643V172.592Z" fill="#F0F0F0"/>
<path d="M63.6643 175.819H61.7388V177.744H63.6643V175.819Z" fill="#F0F0F0"/>
<path d="M63.6643 179.04H61.7388V180.965H63.6643V179.04Z" fill="#F0F0F0"/>
<path d="M63.6643 182.26H61.7388V184.186H63.6643V182.26Z" fill="#F0F0F0"/>
<path d="M63.6643 185.487H61.7388V187.413H63.6643V185.487Z" fill="#F0F0F0"/>
<path d="M63.6643 188.708H61.7388V190.634H63.6643V188.708Z" fill="#F0F0F0"/>
<path d="M63.6643 191.935H61.7388V193.861H63.6643V191.935Z" fill="#F0F0F0"/>
<path d="M63.6643 195.156H61.7388V197.081H63.6643V195.156Z" fill="#F0F0F0"/>
<path d="M66.7151 140.359H64.7896V142.285H66.7151V140.359Z" fill="#F0F0F0"/>
<path d="M66.7151 143.587H64.7896V145.512H66.7151V143.587Z" fill="#F0F0F0"/>
<path d="M66.7151 146.808H64.7896V148.733H66.7151V146.808Z" fill="#F0F0F0"/>
<path d="M66.7151 150.028H64.7896V151.953H66.7151V150.028Z" fill="#F0F0F0"/>
<path d="M66.7151 153.255H64.7896V155.181H66.7151V153.255Z" fill="#F0F0F0"/>
<path d="M66.7151 156.476H64.7896V158.401H66.7151V156.476Z" fill="#F0F0F0"/>
<path d="M66.7151 159.703H64.7896V161.628H66.7151V159.703Z" fill="#F0F0F0"/>
<path d="M66.7151 162.923H64.7896V164.849H66.7151V162.923Z" fill="#F0F0F0"/>
<path d="M66.7151 166.144H64.7896V168.069H66.7151V166.144Z" fill="#F0F0F0"/>
<path d="M66.7151 169.371H64.7896V171.297H66.7151V169.371Z" fill="#F0F0F0"/>
<path d="M66.7151 172.592H64.7896V174.517H66.7151V172.592Z" fill="#F0F0F0"/>
<path d="M66.7151 175.819H64.7896V177.744H66.7151V175.819Z" fill="#F0F0F0"/>
<path d="M66.7151 179.04H64.7896V180.965H66.7151V179.04Z" fill="#F0F0F0"/>
<path d="M66.7151 182.26H64.7896V184.186H66.7151V182.26Z" fill="#F0F0F0"/>
<path d="M66.7151 185.487H64.7896V187.413H66.7151V185.487Z" fill="#F0F0F0"/>
<path d="M66.7151 188.708H64.7896V190.634H66.7151V188.708Z" fill="#F0F0F0"/>
<path d="M66.7151 191.935H64.7896V193.861H66.7151V191.935Z" fill="#F0F0F0"/>
<path d="M66.7151 195.156H64.7896V197.081H66.7151V195.156Z" fill="#F0F0F0"/>
<path d="M49.1887 163.886H47.2632V165.812H49.1887V163.886Z" fill="#F0F0F0"/>
<path d="M49.1887 167.107H47.2632V169.032H49.1887V167.107Z" fill="#F0F0F0"/>
<path d="M49.1887 170.334H47.2632V172.26H49.1887V170.334Z" fill="#F0F0F0"/>
<path d="M49.1887 173.554H47.2632V175.48H49.1887V173.554Z" fill="#F0F0F0"/>
<path d="M49.1887 176.775H47.2632V178.7H49.1887V176.775Z" fill="#F0F0F0"/>
<path d="M49.1887 180.002H47.2632V181.927H49.1887V180.002Z" fill="#F0F0F0"/>
<path d="M49.1887 183.223H47.2632V185.148H49.1887V183.223Z" fill="#F0F0F0"/>
<path d="M49.1887 186.45H47.2632V188.376H49.1887V186.45Z" fill="#F0F0F0"/>
<path d="M49.1887 189.67H47.2632V191.596H49.1887V189.67Z" fill="#F0F0F0"/>
<path d="M49.1887 192.891H47.2632V194.817H49.1887V192.891Z" fill="#F0F0F0"/>
<path d="M49.1887 196.118H47.2632V198.044H49.1887V196.118Z" fill="#F0F0F0"/>
<path d="M49.1887 199.339H47.2632V201.264H49.1887V199.339Z" fill="#F0F0F0"/>
<path d="M49.1887 202.566H47.2632V204.492H49.1887V202.566Z" fill="#F0F0F0"/>
<path d="M52.24 163.886H50.3145V165.812H52.24V163.886Z" fill="#F0F0F0"/>
<path d="M52.24 167.107H50.3145V169.032H52.24V167.107Z" fill="#F0F0F0"/>
<path d="M52.24 170.334H50.3145V172.26H52.24V170.334Z" fill="#F0F0F0"/>
<path d="M52.24 173.554H50.3145V175.48H52.24V173.554Z" fill="#F0F0F0"/>
<path d="M52.24 176.775H50.3145V178.7H52.24V176.775Z" fill="#F0F0F0"/>
<path d="M52.24 180.002H50.3145V181.927H52.24V180.002Z" fill="#F0F0F0"/>
<path d="M52.24 183.223H50.3145V185.148H52.24V183.223Z" fill="#F0F0F0"/>
<path d="M52.24 186.45H50.3145V188.376H52.24V186.45Z" fill="#F0F0F0"/>
<path d="M52.24 189.67H50.3145V191.596H52.24V189.67Z" fill="#F0F0F0"/>
<path d="M52.24 192.891H50.3145V194.817H52.24V192.891Z" fill="#F0F0F0"/>
<path d="M52.24 196.118H50.3145V198.044H52.24V196.118Z" fill="#F0F0F0"/>
<path d="M52.24 199.339H50.3145V201.264H52.24V199.339Z" fill="#F0F0F0"/>
<path d="M52.24 202.566H50.3145V204.492H52.24V202.566Z" fill="#F0F0F0"/>
<path d="M55.2976 163.886H53.3721V165.812H55.2976V163.886Z" fill="#F0F0F0"/>
<path d="M55.2976 167.107H53.3721V169.032H55.2976V167.107Z" fill="#F0F0F0"/>
<path d="M55.2976 170.334H53.3721V172.26H55.2976V170.334Z" fill="#F0F0F0"/>
<path d="M55.2976 173.554H53.3721V175.48H55.2976V173.554Z" fill="#F0F0F0"/>
<path d="M55.2976 176.775H53.3721V178.7H55.2976V176.775Z" fill="#F0F0F0"/>
<path d="M55.2976 180.002H53.3721V181.927H55.2976V180.002Z" fill="#F0F0F0"/>
<path d="M55.2976 183.223H53.3721V185.148H55.2976V183.223Z" fill="#F0F0F0"/>
<path d="M55.2976 186.45H53.3721V188.376H55.2976V186.45Z" fill="#F0F0F0"/>
<path d="M55.2976 189.67H53.3721V191.596H55.2976V189.67Z" fill="#F0F0F0"/>
<path d="M55.2976 192.891H53.3721V194.817H55.2976V192.891Z" fill="#F0F0F0"/>
<path d="M55.2976 196.118H53.3721V198.044H55.2976V196.118Z" fill="#F0F0F0"/>
<path d="M55.2976 199.339H53.3721V201.264H55.2976V199.339Z" fill="#F0F0F0"/>
<path d="M55.2976 202.566H53.3721V204.492H55.2976V202.566Z" fill="#F0F0F0"/>
<path d="M55.2976 205.787H53.3721V207.712H55.2976V205.787Z" fill="#F0F0F0"/>
<path d="M72.2612 164.849H70.3357V166.775H72.2612V164.849Z" fill="#F0F0F0"/>
<path d="M72.2612 168.069H70.3357V169.995H72.2612V168.069Z" fill="#F0F0F0"/>
<path d="M72.2612 171.29H70.3357V173.216H72.2612V171.29Z" fill="#F0F0F0"/>
<path d="M72.2612 174.517H70.3357V176.443H72.2612V174.517Z" fill="#F0F0F0"/>
<path d="M72.2612 177.738H70.3357V179.663H72.2612V177.738Z" fill="#F0F0F0"/>
<path d="M72.2612 180.965H70.3357V182.89H72.2612V180.965Z" fill="#F0F0F0"/>
<path d="M72.2612 184.186H70.3357V186.111H72.2612V184.186Z" fill="#F0F0F0"/>
<path d="M72.2612 187.406H70.3357V189.332H72.2612V187.406Z" fill="#F0F0F0"/>
<path d="M72.2612 190.633H70.3357V192.559H72.2612V190.633Z" fill="#F0F0F0"/>
<path d="M72.2612 193.854H70.3357V195.78H72.2612V193.854Z" fill="#F0F0F0"/>
<path d="M72.2612 203.522H70.3357V205.447H72.2612V203.522Z" fill="#F0F0F0"/>
<path d="M75.3122 164.849H73.3867V166.775H75.3122V164.849Z" fill="#F0F0F0"/>
<path d="M75.3122 168.069H73.3867V169.995H75.3122V168.069Z" fill="#F0F0F0"/>
<path d="M75.3122 171.29H73.3867V173.216H75.3122V171.29Z" fill="#F0F0F0"/>
<path d="M75.3122 174.517H73.3867V176.443H75.3122V174.517Z" fill="#F0F0F0"/>
<path d="M75.3122 177.738H73.3867V179.663H75.3122V177.738Z" fill="#F0F0F0"/>
<path d="M75.3122 180.965H73.3867V182.89H75.3122V180.965Z" fill="#F0F0F0"/>
<path d="M75.3122 184.186H73.3867V186.111H75.3122V184.186Z" fill="#F0F0F0"/>
<path d="M75.3122 187.406H73.3867V189.332H75.3122V187.406Z" fill="#F0F0F0"/>
<path d="M75.3122 190.633H73.3867V192.559H75.3122V190.633Z" fill="#F0F0F0"/>
<path d="M75.3122 200.302H73.3867V202.227H75.3122V200.302Z" fill="#F0F0F0"/>
<path d="M75.3122 203.522H73.3867V205.447H75.3122V203.522Z" fill="#F0F0F0"/>
<path d="M78.3701 164.849H76.4446V166.775H78.3701V164.849Z" fill="#F0F0F0"/>
<path d="M78.3701 168.069H76.4446V169.995H78.3701V168.069Z" fill="#F0F0F0"/>
<path d="M78.3701 171.29H76.4446V173.216H78.3701V171.29Z" fill="#F0F0F0"/>
<path d="M78.3701 174.517H76.4446V176.443H78.3701V174.517Z" fill="#F0F0F0"/>
<path d="M78.3701 177.738H76.4446V179.663H78.3701V177.738Z" fill="#F0F0F0"/>
<path d="M78.3701 180.965H76.4446V182.89H78.3701V180.965Z" fill="#F0F0F0"/>
<path d="M78.3701 184.186H76.4446V186.111H78.3701V184.186Z" fill="#F0F0F0"/>
<path d="M78.3701 187.406H76.4446V189.332H78.3701V187.406Z" fill="#F0F0F0"/>
<path d="M78.3701 197.081H76.4446V199.007H78.3701V197.081Z" fill="#F0F0F0"/>
<path d="M78.3701 200.302H76.4446V202.227H78.3701V200.302Z" fill="#F0F0F0"/>
<path d="M78.3701 203.522H76.4446V205.447H78.3701V203.522Z" fill="#F0F0F0"/>
<path d="M106.751 115.877H104.825V117.802H106.751V115.877Z" fill="#F0F0F0"/>
<path d="M106.751 119.098H104.825V121.023H106.751V119.098Z" fill="#F0F0F0"/>
<path d="M106.751 122.325H104.825V124.25H106.751V122.325Z" fill="#F0F0F0"/>
<path d="M106.751 125.545H104.825V127.471H106.751V125.545Z" fill="#F0F0F0"/>
<path d="M106.751 128.766H104.825V130.691H106.751V128.766Z" fill="#F0F0F0"/>
<path d="M106.751 131.993H104.825V133.919H106.751V131.993Z" fill="#F0F0F0"/>
<path d="M106.751 135.214H104.825V137.139H106.751V135.214Z" fill="#F0F0F0"/>
<path d="M106.751 138.441H104.825V140.366H106.751V138.441Z" fill="#F0F0F0"/>
<path d="M106.751 141.662H104.825V143.587H106.751V141.662Z" fill="#F0F0F0"/>
<path d="M106.751 144.882H104.825V146.807H106.751V144.882Z" fill="#F0F0F0"/>
<path d="M106.751 148.109H104.825V150.034H106.751V148.109Z" fill="#F0F0F0"/>
<path d="M106.751 151.33H104.825V153.255H106.751V151.33Z" fill="#F0F0F0"/>
<path d="M106.751 154.557H104.825V156.483H106.751V154.557Z" fill="#F0F0F0"/>
<path d="M106.751 157.777H104.825V159.703H106.751V157.777Z" fill="#F0F0F0"/>
<path d="M106.751 160.998H104.825V162.924H106.751V160.998Z" fill="#F0F0F0"/>
<path d="M106.751 164.225H104.825V166.151H106.751V164.225Z" fill="#F0F0F0"/>
<path d="M106.751 167.446H104.825V169.371H106.751V167.446Z" fill="#F0F0F0"/>
<path d="M106.751 173.894H104.825V175.819H106.751V173.894Z" fill="#F0F0F0"/>
<path d="M106.751 177.114H104.825V179.04H106.751V177.114Z" fill="#F0F0F0"/>
<path d="M106.751 180.341H104.825V182.267H106.751V180.341Z" fill="#F0F0F0"/>
<path d="M106.751 183.562H104.825V185.487H106.751V183.562Z" fill="#F0F0F0"/>
<path d="M106.751 186.789H104.825V188.715H106.751V186.789Z" fill="#F0F0F0"/>
<path d="M109.809 115.877H107.883V117.802H109.809V115.877Z" fill="#F0F0F0"/>
<path d="M109.809 119.098H107.883V121.023H109.809V119.098Z" fill="#F0F0F0"/>
<path d="M109.809 122.325H107.883V124.25H109.809V122.325Z" fill="#F0F0F0"/>
<path d="M109.809 125.545H107.883V127.471H109.809V125.545Z" fill="#F0F0F0"/>
<path d="M109.809 128.766H107.883V130.691H109.809V128.766Z" fill="#F0F0F0"/>
<path d="M109.809 131.993H107.883V133.919H109.809V131.993Z" fill="#F0F0F0"/>
<path d="M109.809 135.214H107.883V137.139H109.809V135.214Z" fill="#F0F0F0"/>
<path d="M109.809 138.441H107.883V140.366H109.809V138.441Z" fill="#F0F0F0"/>
<path d="M109.809 141.662H107.883V143.587H109.809V141.662Z" fill="#F0F0F0"/>
<path d="M109.809 144.882H107.883V146.807H109.809V144.882Z" fill="#F0F0F0"/>
<path d="M109.809 148.109H107.883V150.034H109.809V148.109Z" fill="#F0F0F0"/>
<path d="M109.809 151.33H107.883V153.255H109.809V151.33Z" fill="#F0F0F0"/>
<path d="M109.809 154.557H107.883V156.483H109.809V154.557Z" fill="#F0F0F0"/>
<path d="M109.809 157.777H107.883V159.703H109.809V157.777Z" fill="#F0F0F0"/>
<path d="M109.809 160.998H107.883V162.924H109.809V160.998Z" fill="#F0F0F0"/>
<path d="M109.809 164.225H107.883V166.151H109.809V164.225Z" fill="#F0F0F0"/>
<path d="M109.809 183.562H107.883V185.487H109.809V183.562Z" fill="#F0F0F0"/>
<path d="M109.809 186.789H107.883V188.715H109.809V186.789Z" fill="#F0F0F0"/>
<path d="M112.86 115.877H110.934V117.802H112.86V115.877Z" fill="#F0F0F0"/>
<path d="M112.86 119.098H110.934V121.023H112.86V119.098Z" fill="#F0F0F0"/>
<path d="M112.86 122.325H110.934V124.25H112.86V122.325Z" fill="#F0F0F0"/>
<path d="M112.86 125.545H110.934V127.471H112.86V125.545Z" fill="#F0F0F0"/>
<path d="M112.86 128.766H110.934V130.691H112.86V128.766Z" fill="#F0F0F0"/>
<path d="M112.86 131.993H110.934V133.919H112.86V131.993Z" fill="#F0F0F0"/>
<path d="M112.86 135.214H110.934V137.139H112.86V135.214Z" fill="#F0F0F0"/>
<path d="M112.86 138.441H110.934V140.366H112.86V138.441Z" fill="#F0F0F0"/>
<path d="M112.86 141.662H110.934V143.587H112.86V141.662Z" fill="#F0F0F0"/>
<path d="M112.86 144.882H110.934V146.807H112.86V144.882Z" fill="#F0F0F0"/>
<path d="M112.86 148.109H110.934V150.034H112.86V148.109Z" fill="#F0F0F0"/>
<path d="M112.86 151.33H110.934V153.255H112.86V151.33Z" fill="#F0F0F0"/>
<path d="M112.86 154.557H110.934V156.483H112.86V154.557Z" fill="#F0F0F0"/>
<path d="M112.86 157.777H110.934V159.703H112.86V157.777Z" fill="#F0F0F0"/>
<path d="M112.86 160.998H110.934V162.924H112.86V160.998Z" fill="#F0F0F0"/>
<path d="M112.86 164.225H110.934V166.151H112.86V164.225Z" fill="#F0F0F0"/>
<path d="M112.86 170.673H110.934V172.598H112.86V170.673Z" fill="#F0F0F0"/>
<path d="M112.86 173.894H110.934V175.819H112.86V173.894Z" fill="#F0F0F0"/>
<path d="M112.86 177.114H110.934V179.04H112.86V177.114Z" fill="#F0F0F0"/>
<path d="M112.86 180.341H110.934V182.267H112.86V180.341Z" fill="#F0F0F0"/>
<path d="M112.86 186.789H110.934V188.715H112.86V186.789Z" fill="#F0F0F0"/>
<path d="M95.6728 156.476H93.7473V158.401H95.6728V156.476Z" fill="#F0F0F0"/>
<path d="M95.6728 159.703H93.7473V161.628H95.6728V159.703Z" fill="#F0F0F0"/>
<path d="M95.6728 162.923H93.7473V164.849H95.6728V162.923Z" fill="#F0F0F0"/>
<path d="M95.6728 166.144H93.7473V168.069H95.6728V166.144Z" fill="#F0F0F0"/>
<path d="M95.6728 169.371H93.7473V171.297H95.6728V169.371Z" fill="#F0F0F0"/>
<path d="M95.6728 172.592H93.7473V174.517H95.6728V172.592Z" fill="#F0F0F0"/>
<path d="M95.6728 175.819H93.7473V177.744H95.6728V175.819Z" fill="#F0F0F0"/>
<path d="M95.6728 182.26H93.7473V184.186H95.6728V182.26Z" fill="#F0F0F0"/>
<path d="M95.6728 185.487H93.7473V187.413H95.6728V185.487Z" fill="#F0F0F0"/>
<path d="M95.6728 188.708H93.7473V190.634H95.6728V188.708Z" fill="#F0F0F0"/>
<path d="M95.6728 191.935H93.7473V193.861H95.6728V191.935Z" fill="#F0F0F0"/>
<path d="M95.6728 195.156H93.7473V197.081H95.6728V195.156Z" fill="#F0F0F0"/>
<path d="M95.6728 198.376H93.7473V200.301H95.6728V198.376Z" fill="#F0F0F0"/>
<path d="M95.6728 201.603H93.7473V203.529H95.6728V201.603Z" fill="#F0F0F0"/>
<path d="M95.6728 204.824H93.7473V206.749H95.6728V204.824Z" fill="#F0F0F0"/>
<path d="M98.7236 156.476H96.7981V158.401H98.7236V156.476Z" fill="#F0F0F0"/>
<path d="M98.7236 159.703H96.7981V161.628H98.7236V159.703Z" fill="#F0F0F0"/>
<path d="M98.7236 162.923H96.7981V164.849H98.7236V162.923Z" fill="#F0F0F0"/>
<path d="M98.7236 166.144H96.7981V168.069H98.7236V166.144Z" fill="#F0F0F0"/>
<path d="M98.7236 169.371H96.7981V171.297H98.7236V169.371Z" fill="#F0F0F0"/>
<path d="M98.7236 172.592H96.7981V174.517H98.7236V172.592Z" fill="#F0F0F0"/>
<path d="M98.7236 182.26H96.7981V184.186H98.7236V182.26Z" fill="#F0F0F0"/>
<path d="M98.7236 185.487H96.7981V187.413H98.7236V185.487Z" fill="#F0F0F0"/>
<path d="M98.7236 188.708H96.7981V190.634H98.7236V188.708Z" fill="#F0F0F0"/>
<path d="M98.7236 191.935H96.7981V193.861H98.7236V191.935Z" fill="#F0F0F0"/>
<path d="M98.7236 195.156H96.7981V197.081H98.7236V195.156Z" fill="#F0F0F0"/>
<path d="M98.7236 198.376H96.7981V200.301H98.7236V198.376Z" fill="#F0F0F0"/>
<path d="M98.7236 201.603H96.7981V203.529H98.7236V201.603Z" fill="#F0F0F0"/>
<path d="M98.7236 204.824H96.7981V206.749H98.7236V204.824Z" fill="#F0F0F0"/>
<path d="M101.781 156.476H99.8557V158.401H101.781V156.476Z" fill="#F0F0F0"/>
<path d="M101.781 159.703H99.8557V161.628H101.781V159.703Z" fill="#F0F0F0"/>
<path d="M101.781 162.923H99.8557V164.849H101.781V162.923Z" fill="#F0F0F0"/>
<path d="M101.781 166.144H99.8557V168.069H101.781V166.144Z" fill="#F0F0F0"/>
<path d="M101.781 169.371H99.8557V171.297H101.781V169.371Z" fill="#F0F0F0"/>
<path d="M101.781 172.592H99.8557V174.517H101.781V172.592Z" fill="#F0F0F0"/>
<path d="M101.781 179.04H99.8557V180.965H101.781V179.04Z" fill="#F0F0F0"/>
<path d="M101.781 182.26H99.8557V184.186H101.781V182.26Z" fill="#F0F0F0"/>
<path d="M101.781 185.487H99.8557V187.413H101.781V185.487Z" fill="#F0F0F0"/>
<path d="M101.781 188.708H99.8557V190.634H101.781V188.708Z" fill="#F0F0F0"/>
<path d="M101.781 191.935H99.8557V193.861H101.781V191.935Z" fill="#F0F0F0"/>
<path d="M101.781 195.156H99.8557V197.081H101.781V195.156Z" fill="#F0F0F0"/>
<path d="M101.781 198.376H99.8557V200.301H101.781V198.376Z" fill="#F0F0F0"/>
<path d="M101.781 201.603H99.8557V203.529H101.781V201.603Z" fill="#F0F0F0"/>
<path d="M101.781 204.824H99.8557V206.749H101.781V204.824Z" fill="#F0F0F0"/>
<path d="M166.13 138.441H164.205V140.366H166.13V138.441Z" fill="#F0F0F0"/>
<path d="M166.13 141.662H164.205V143.587H166.13V141.662Z" fill="#F0F0F0"/>
<path d="M166.13 144.882H164.205V146.807H166.13V144.882Z" fill="#F0F0F0"/>
<path d="M166.13 148.109H164.205V150.034H166.13V148.109Z" fill="#F0F0F0"/>
<path d="M166.13 151.33H164.205V153.255H166.13V151.33Z" fill="#F0F0F0"/>
<path d="M166.13 154.557H164.205V156.483H166.13V154.557Z" fill="#F0F0F0"/>
<path d="M166.13 157.777H164.205V159.703H166.13V157.777Z" fill="#F0F0F0"/>
<path d="M166.13 160.998H164.205V162.924H166.13V160.998Z" fill="#F0F0F0"/>
<path d="M166.13 164.225H164.205V166.151H166.13V164.225Z" fill="#F0F0F0"/>
<path d="M166.13 167.446H164.205V169.371H166.13V167.446Z" fill="#F0F0F0"/>
<path d="M166.13 170.673H164.205V172.598H166.13V170.673Z" fill="#F0F0F0"/>
<path d="M166.13 173.894H164.205V175.819H166.13V173.894Z" fill="#F0F0F0"/>
<path d="M166.13 177.114H164.205V179.04H166.13V177.114Z" fill="#F0F0F0"/>
<path d="M166.13 183.562H164.205V185.487H166.13V183.562Z" fill="#F0F0F0"/>
<path d="M166.13 186.789H164.205V188.715H166.13V186.789Z" fill="#F0F0F0"/>
<path d="M166.13 190.009H164.205V191.935H166.13V190.009Z" fill="#F0F0F0"/>
<path d="M166.13 193.23H164.205V195.155H166.13V193.23Z" fill="#F0F0F0"/>
<path d="M166.13 199.678H164.205V201.603H166.13V199.678Z" fill="#F0F0F0"/>
<path d="M166.13 202.905H164.205V204.83H166.13V202.905Z" fill="#F0F0F0"/>
<path d="M166.13 206.125H164.205V208.051H166.13V206.125Z" fill="#F0F0F0"/>
<path d="M169.181 138.441H167.256V140.366H169.181V138.441Z" fill="#F0F0F0"/>
<path d="M169.181 141.662H167.256V143.587H169.181V141.662Z" fill="#F0F0F0"/>
<path d="M169.181 144.882H167.256V146.807H169.181V144.882Z" fill="#F0F0F0"/>
<path d="M169.181 148.109H167.256V150.034H169.181V148.109Z" fill="#F0F0F0"/>
<path d="M169.181 151.33H167.256V153.255H169.181V151.33Z" fill="#F0F0F0"/>
<path d="M169.181 154.557H167.256V156.483H169.181V154.557Z" fill="#F0F0F0"/>
<path d="M169.181 157.777H167.256V159.703H169.181V157.777Z" fill="#F0F0F0"/>
<path d="M169.181 160.998H167.256V162.924H169.181V160.998Z" fill="#F0F0F0"/>
<path d="M169.181 164.225H167.256V166.151H169.181V164.225Z" fill="#F0F0F0"/>
<path d="M169.181 167.446H167.256V169.371H169.181V167.446Z" fill="#F0F0F0"/>
<path d="M169.181 170.673H167.256V172.598H169.181V170.673Z" fill="#F0F0F0"/>
<path d="M169.181 173.894H167.256V175.819H169.181V173.894Z" fill="#F0F0F0"/>
<path d="M169.181 177.114H167.256V179.04H169.181V177.114Z" fill="#F0F0F0"/>
<path d="M169.181 186.789H167.256V188.715H169.181V186.789Z" fill="#F0F0F0"/>
<path d="M169.181 190.009H167.256V191.935H169.181V190.009Z" fill="#F0F0F0"/>
<path d="M169.181 196.458H167.256V198.383H169.181V196.458Z" fill="#F0F0F0"/>
<path d="M169.181 199.678H167.256V201.603H169.181V199.678Z" fill="#F0F0F0"/>
<path d="M169.181 202.905H167.256V204.83H169.181V202.905Z" fill="#F0F0F0"/>
<path d="M169.181 206.125H167.256V208.051H169.181V206.125Z" fill="#F0F0F0"/>
<path d="M172.239 138.441H170.313V140.366H172.239V138.441Z" fill="#F0F0F0"/>
<path d="M172.239 141.662H170.313V143.587H172.239V141.662Z" fill="#F0F0F0"/>
<path d="M172.239 144.882H170.313V146.807H172.239V144.882Z" fill="#F0F0F0"/>
<path d="M172.239 148.109H170.313V150.034H172.239V148.109Z" fill="#F0F0F0"/>
<path d="M172.239 151.33H170.313V153.255H172.239V151.33Z" fill="#F0F0F0"/>
<path d="M172.239 154.557H170.313V156.483H172.239V154.557Z" fill="#F0F0F0"/>
<path d="M172.239 157.777H170.313V159.703H172.239V157.777Z" fill="#F0F0F0"/>
<path d="M172.239 160.998H170.313V162.924H172.239V160.998Z" fill="#F0F0F0"/>
<path d="M172.239 164.225H170.313V166.151H172.239V164.225Z" fill="#F0F0F0"/>
<path d="M172.239 167.446H170.313V169.371H172.239V167.446Z" fill="#F0F0F0"/>
<path d="M172.239 170.673H170.313V172.598H172.239V170.673Z" fill="#F0F0F0"/>
<path d="M172.239 173.894H170.313V175.819H172.239V173.894Z" fill="#F0F0F0"/>
<path d="M172.239 177.114H170.313V179.04H172.239V177.114Z" fill="#F0F0F0"/>
<path d="M172.239 180.341H170.313V182.267H172.239V180.341Z" fill="#F0F0F0"/>
<path d="M172.239 186.789H170.313V188.715H172.239V186.789Z" fill="#F0F0F0"/>
<path d="M172.239 193.23H170.313V195.155H172.239V193.23Z" fill="#F0F0F0"/>
<path d="M172.239 196.458H170.313V198.383H172.239V196.458Z" fill="#F0F0F0"/>
<path d="M172.239 199.678H170.313V201.603H172.239V199.678Z" fill="#F0F0F0"/>
<path d="M172.239 202.905H170.313V204.83H172.239V202.905Z" fill="#F0F0F0"/>
<path d="M172.239 206.125H170.313V208.051H172.239V206.125Z" fill="#F0F0F0"/>
<path d="M153.689 156.814H151.763V158.74H153.689V156.814Z" fill="#F0F0F0"/>
<path d="M153.689 160.042H151.763V161.968H153.689V160.042Z" fill="#F0F0F0"/>
<path d="M153.689 163.262H151.763V165.188H153.689V163.262Z" fill="#F0F0F0"/>
<path d="M153.689 166.483H151.763V168.408H153.689V166.483Z" fill="#F0F0F0"/>
<path d="M153.689 169.71H151.763V171.635H153.689V169.71Z" fill="#F0F0F0"/>
<path d="M153.689 172.931H151.763V174.856H153.689V172.931Z" fill="#F0F0F0"/>
<path d="M153.689 182.605H151.763V184.531H153.689V182.605Z" fill="#F0F0F0"/>
<path d="M153.689 185.826H151.763V187.752H153.689V185.826Z" fill="#F0F0F0"/>
<path d="M153.689 189.047H151.763V190.972H153.689V189.047Z" fill="#F0F0F0"/>
<path d="M153.689 192.274H151.763V194.2H153.689V192.274Z" fill="#F0F0F0"/>
<path d="M153.689 195.495H151.763V197.42H153.689V195.495Z" fill="#F0F0F0"/>
<path d="M153.689 198.722H151.763V200.647H153.689V198.722Z" fill="#F0F0F0"/>
<path d="M153.689 201.942H151.763V203.868H153.689V201.942Z" fill="#F0F0F0"/>
<path d="M156.74 156.814H154.814V158.74H156.74V156.814Z" fill="#F0F0F0"/>
<path d="M156.74 160.042H154.814V161.968H156.74V160.042Z" fill="#F0F0F0"/>
<path d="M156.74 163.262H154.814V165.188H156.74V163.262Z" fill="#F0F0F0"/>
<path d="M156.74 166.483H154.814V168.408H156.74V166.483Z" fill="#F0F0F0"/>
<path d="M156.74 169.71H154.814V171.635H156.74V169.71Z" fill="#F0F0F0"/>
<path d="M156.74 172.931H154.814V174.856H156.74V172.931Z" fill="#F0F0F0"/>
<path d="M156.74 182.605H154.814V184.531H156.74V182.605Z" fill="#F0F0F0"/>
<path d="M156.74 185.826H154.814V187.752H156.74V185.826Z" fill="#F0F0F0"/>
<path d="M156.74 189.047H154.814V190.972H156.74V189.047Z" fill="#F0F0F0"/>
<path d="M156.74 192.274H154.814V194.2H156.74V192.274Z" fill="#F0F0F0"/>
<path d="M156.74 195.495H154.814V197.42H156.74V195.495Z" fill="#F0F0F0"/>
<path d="M156.74 198.722H154.814V200.647H156.74V198.722Z" fill="#F0F0F0"/>
<path d="M156.74 205.163H154.814V207.088H156.74V205.163Z" fill="#F0F0F0"/>
<path d="M258.189 142.624H256.264V144.55H258.189V142.624Z" fill="#F0F0F0"/>
<path d="M258.189 145.845H256.264V147.77H258.189V145.845Z" fill="#F0F0F0"/>
<path d="M258.189 149.072H256.264V150.998H258.189V149.072Z" fill="#F0F0F0"/>
<path d="M258.189 152.292H256.264V154.218H258.189V152.292Z" fill="#F0F0F0"/>
<path d="M258.189 155.513H256.264V157.439H258.189V155.513Z" fill="#F0F0F0"/>
<path d="M258.189 158.74H256.264V160.666H258.189V158.74Z" fill="#F0F0F0"/>
<path d="M258.189 161.96H256.264V163.886H258.189V161.96Z" fill="#F0F0F0"/>
<path d="M258.189 165.188H256.264V167.114H258.189V165.188Z" fill="#F0F0F0"/>
<path d="M258.189 168.408H256.264V170.334H258.189V168.408Z" fill="#F0F0F0"/>
<path d="M258.189 171.629H256.264V173.554H258.189V171.629Z" fill="#F0F0F0"/>
<path d="M258.189 174.856H256.264V176.781H258.189V174.856Z" fill="#F0F0F0"/>
<path d="M258.189 181.304H256.264V183.229H258.189V181.304Z" fill="#F0F0F0"/>
<path d="M258.189 184.524H256.264V186.45H258.189V184.524Z" fill="#F0F0F0"/>
<path d="M258.189 187.745H256.264V189.671H258.189V187.745Z" fill="#F0F0F0"/>
<path d="M258.189 190.973H256.264V192.898H258.189V190.973Z" fill="#F0F0F0"/>
<path d="M258.189 194.193H256.264V196.118H258.189V194.193Z" fill="#F0F0F0"/>
<path d="M258.189 197.42H256.264V199.345H258.189V197.42Z" fill="#F0F0F0"/>
<path d="M258.189 200.641H256.264V202.566H258.189V200.641Z" fill="#F0F0F0"/>
<path d="M258.189 203.868H256.264V205.794H258.189V203.868Z" fill="#F0F0F0"/>
<path d="M261.247 142.624H259.322V144.55H261.247V142.624Z" fill="#F0F0F0"/>
<path d="M261.247 145.845H259.322V147.77H261.247V145.845Z" fill="#F0F0F0"/>
<path d="M261.247 149.072H259.322V150.998H261.247V149.072Z" fill="#F0F0F0"/>
<path d="M261.247 152.292H259.322V154.218H261.247V152.292Z" fill="#F0F0F0"/>
<path d="M261.247 155.513H259.322V157.439H261.247V155.513Z" fill="#F0F0F0"/>
<path d="M261.247 158.74H259.322V160.666H261.247V158.74Z" fill="#F0F0F0"/>
<path d="M261.247 161.96H259.322V163.886H261.247V161.96Z" fill="#F0F0F0"/>
<path d="M261.247 165.188H259.322V167.114H261.247V165.188Z" fill="#F0F0F0"/>
<path d="M261.247 168.408H259.322V170.334H261.247V168.408Z" fill="#F0F0F0"/>
<path d="M261.247 171.629H259.322V173.554H261.247V171.629Z" fill="#F0F0F0"/>
<path d="M261.247 174.856H259.322V176.781H261.247V174.856Z" fill="#F0F0F0"/>
<path d="M261.247 178.077H259.322V180.002H261.247V178.077Z" fill="#F0F0F0"/>
<path d="M261.247 181.304H259.322V183.229H261.247V181.304Z" fill="#F0F0F0"/>
<path d="M261.247 184.524H259.322V186.45H261.247V184.524Z" fill="#F0F0F0"/>
<path d="M261.247 187.745H259.322V189.671H261.247V187.745Z" fill="#F0F0F0"/>
<path d="M261.247 190.973H259.322V192.898H261.247V190.973Z" fill="#F0F0F0"/>
<path d="M261.247 194.193H259.322V196.118H261.247V194.193Z" fill="#F0F0F0"/>
<path d="M261.247 197.42H259.322V199.345H261.247V197.42Z" fill="#F0F0F0"/>
<path d="M261.247 200.641H259.322V202.566H261.247V200.641Z" fill="#F0F0F0"/>
<path d="M261.247 203.868H259.322V205.794H261.247V203.868Z" fill="#F0F0F0"/>
<path d="M243.151 155.174H241.226V157.099H243.151V155.174Z" fill="#F0F0F0"/>
<path d="M243.151 158.401H241.226V160.326H243.151V158.401Z" fill="#F0F0F0"/>
<path d="M243.151 161.622H241.226V163.547H243.151V161.622Z" fill="#F0F0F0"/>
<path d="M243.151 164.849H241.226V166.775H243.151V164.849Z" fill="#F0F0F0"/>
<path d="M243.151 168.069H241.226V169.995H243.151V168.069Z" fill="#F0F0F0"/>
<path d="M243.151 171.29H241.226V173.216H243.151V171.29Z" fill="#F0F0F0"/>
<path d="M243.151 174.517H241.226V176.443H243.151V174.517Z" fill="#F0F0F0"/>
<path d="M243.151 177.738H241.226V179.663H243.151V177.738Z" fill="#F0F0F0"/>
<path d="M243.151 180.965H241.226V182.89H243.151V180.965Z" fill="#F0F0F0"/>
<path d="M243.151 184.186H241.226V186.111H243.151V184.186Z" fill="#F0F0F0"/>
<path d="M246.202 155.174H244.277V157.099H246.202V155.174Z" fill="#F0F0F0"/>
<path d="M246.202 158.401H244.277V160.326H246.202V158.401Z" fill="#F0F0F0"/>
<path d="M246.202 161.622H244.277V163.547H246.202V161.622Z" fill="#F0F0F0"/>
<path d="M246.202 164.849H244.277V166.775H246.202V164.849Z" fill="#F0F0F0"/>
<path d="M246.202 168.069H244.277V169.995H246.202V168.069Z" fill="#F0F0F0"/>
<path d="M246.202 171.29H244.277V173.216H246.202V171.29Z" fill="#F0F0F0"/>
<path d="M246.202 174.517H244.277V176.443H246.202V174.517Z" fill="#F0F0F0"/>
<path d="M246.202 177.738H244.277V179.663H246.202V177.738Z" fill="#F0F0F0"/>
<path d="M246.202 180.965H244.277V182.89H246.202V180.965Z" fill="#F0F0F0"/>
<path d="M92.452 75.4207C92.4524 74.4879 92.2346 73.568 91.816 72.7345C91.3974 71.9009 90.7895 71.1768 90.0411 70.6201C89.2927 70.0634 88.4244 69.6895 87.5057 69.5283C86.5869 69.367 85.6432 69.423 84.75 69.6916C84.8399 69.0855 84.8853 68.4737 84.8856 67.861C84.8855 66.0011 84.4756 64.1641 83.6851 62.4806C82.8945 60.7971 81.7426 59.3085 80.3114 58.1207C78.8802 56.9329 77.2049 56.075 75.4045 55.6082C73.6042 55.1414 71.723 55.077 69.895 55.4197C68.6456 53.3718 66.7644 51.7855 64.5351 50.8997C62.3057 50.0138 59.8488 49.8766 57.5346 50.5085C55.2204 51.1404 53.1742 52.5073 51.7044 54.4032C50.2346 56.2991 49.4208 58.6213 49.3855 61.02H49.1957C46.4912 61.02 43.8975 62.0943 41.9852 64.0067C40.0729 65.919 38.9985 68.5127 38.9985 71.2171C38.9985 73.9215 40.0729 76.5152 41.9852 78.4276C43.8975 80.3399 46.4912 81.4142 49.1957 81.4142H86.6416C88.2009 81.3717 89.6818 80.7209 90.7676 79.6009C91.8534 78.4809 92.4579 76.9806 92.452 75.4207Z" fill="#F0F0F0"/>
<path d="M250.182 62.2676C250.182 61.2552 250.584 60.2843 251.3 59.5684C252.016 58.8526 252.987 58.4504 253.999 58.4504C254.369 58.4522 254.736 58.507 255.091 58.6132C255.036 58.2246 255.009 57.8326 255.009 57.4402C255.009 55.3015 255.857 53.25 257.367 51.7351C258.877 50.2203 260.925 49.3656 263.064 49.3585C263.562 49.3608 264.059 49.4085 264.549 49.5008C265.345 48.192 266.546 47.1777 267.969 46.6106C269.392 46.0435 270.961 45.9545 272.44 46.357C273.918 46.7595 275.225 47.6316 276.165 48.8419C277.104 50.0523 277.625 51.5352 277.648 53.0671H277.77C279.496 53.0671 281.152 53.7529 282.372 54.9735C283.593 56.1941 284.279 57.8497 284.279 59.5759C284.279 61.3021 283.593 62.9577 282.372 64.1783C281.152 65.399 279.496 66.0847 277.77 66.0847H253.891C252.896 66.0599 251.951 65.6464 251.257 64.9328C250.564 64.2192 250.178 63.2625 250.182 62.2676Z" fill="#F0F0F0"/>
<path d="M174.165 21.086C174.167 20.4662 174.414 19.8723 174.852 19.434C175.29 18.9957 175.884 18.7487 176.504 18.7469C176.734 18.7453 176.963 18.7796 177.182 18.8486C177.147 18.6107 177.129 18.3705 177.128 18.13C177.128 17.4794 177.256 16.8353 177.505 16.2343C177.754 15.6334 178.119 15.0875 178.58 14.6278C179.04 14.1681 179.586 13.8037 180.188 13.5554C180.789 13.307 181.433 13.1797 182.084 13.1806C182.389 13.1801 182.693 13.2073 182.992 13.2619C183.482 12.4616 184.218 11.8418 185.09 11.4958C185.962 11.1498 186.923 11.0962 187.828 11.3432C188.733 11.5901 189.534 12.1242 190.11 12.8651C190.685 13.606 191.005 14.5138 191.02 15.4519H191.088C191.626 15.4297 192.162 15.5165 192.666 15.707C193.169 15.8975 193.629 16.1878 194.017 16.5605C194.406 16.9332 194.715 17.3806 194.926 17.8758C195.137 18.3709 195.246 18.9036 195.246 19.4419C195.246 19.9802 195.137 20.5129 194.926 21.008C194.715 21.5032 194.406 21.9506 194.017 22.3232C193.629 22.6959 193.169 22.9863 192.666 23.1768C192.162 23.3673 191.626 23.4541 191.088 23.4319H176.443C175.831 23.4177 175.25 23.1639 174.824 22.7251C174.398 22.2863 174.161 21.6977 174.165 21.086Z" fill="#F0F0F0"/>
<path d="M169.5 252.596C242.102 252.596 300.957 249.159 300.957 244.921C300.957 240.682 242.102 237.246 169.5 237.246C96.898 237.246 38.0425 240.682 38.0425 244.921C38.0425 249.159 96.898 252.596 169.5 252.596Z" fill="#F5F5F5"/>
<path d="M286.794 211.373C286.794 211.373 289.974 200.708 283.533 198.579C277.092 196.45 273.234 191.467 273.471 185.826C273.709 180.185 266.901 174.693 261.816 179.982C256.731 185.27 257.409 175.914 250.629 173.642C243.849 171.371 238.107 176.883 239.964 181.921C241.822 186.958 235.13 190.111 227.13 185.826C219.13 181.541 210.302 189.338 211.997 195.44C213.692 201.542 212.309 202.22 207.251 200.186C202.193 198.152 193.115 203.915 196.295 211.373C199.474 218.831 286.794 211.373 286.794 211.373Z" fill="#FF7250"/>
<path opacity="0.3" d="M286.794 211.373C286.794 211.373 289.974 200.708 283.533 198.579C277.092 196.45 273.234 191.467 273.471 185.826C273.709 180.185 266.901 174.693 261.816 179.982C256.731 185.27 257.409 175.914 250.629 173.642C243.849 171.371 238.107 176.883 239.964 181.921C241.822 186.958 235.13 190.111 227.13 185.826C219.13 181.541 210.302 189.338 211.997 195.44C213.692 201.542 212.309 202.22 207.251 200.186C202.193 198.152 193.115 203.915 196.295 211.373C199.474 218.831 286.794 211.373 286.794 211.373Z" fill="white"/>
<path d="M116.386 212.39C119.776 209 116.725 203.237 113.335 202.559C109.945 201.881 106.555 195.915 106.378 192.118C106.202 188.321 100.114 176.639 90.6215 183.853C81.1295 191.067 84.0178 184.918 77.1497 182.89C70.2815 180.863 65.9559 186.694 68.9662 191.067C68.9662 191.067 62.0709 189.338 59.2301 195.779C56.3893 202.22 59.2301 206.22 59.2301 206.22C59.2301 206.22 46.2532 205.834 47.4194 213.862C48.5855 221.889 116.386 212.39 116.386 212.39Z" fill="#FF7250"/>
<path opacity="0.3" d="M116.386 212.39C119.776 209 116.725 203.237 113.335 202.559C109.945 201.881 106.555 195.915 106.378 192.118C106.202 188.321 100.114 176.639 90.6215 183.853C81.1295 191.067 84.0178 184.918 77.1497 182.89C70.2815 180.863 65.9559 186.694 68.9662 191.067C68.9662 191.067 62.0709 189.338 59.2301 195.779C56.3893 202.22 59.2301 206.22 59.2301 206.22C59.2301 206.22 46.2532 205.834 47.4194 213.862C48.5855 221.889 116.386 212.39 116.386 212.39Z" fill="white"/>
<path d="M298.428 212.594V221.882H36.7204V212.594C36.7003 212.223 36.7551 211.851 36.8817 211.502C37.0083 211.152 37.204 210.832 37.4571 210.56C37.7103 210.288 38.0156 210.069 38.355 209.918C38.6944 209.767 39.0608 209.685 39.4324 209.678H295.689C296.063 209.681 296.432 209.76 296.775 209.91C297.118 210.06 297.426 210.278 297.682 210.55C297.938 210.823 298.136 211.144 298.265 211.496C298.393 211.847 298.449 212.22 298.428 212.594Z" fill="#263238"/>
<path d="M67.9087 209.678H51.6367V221.882H67.9087V209.678Z" fill="#FF7250"/>
<path d="M98.4187 209.678H82.8247V221.882H98.4187V209.678Z" fill="#FF7250"/>
<path d="M129.606 209.678H113.334V221.882H129.606V209.678Z" fill="#FF7250"/>
<path d="M160.116 209.678H144.522V221.882H160.116V209.678Z" fill="#FF7250"/>
<path d="M190.626 209.678H175.032V221.882H190.626V209.678Z" fill="#FF7250"/>
<path d="M221.814 209.678H205.542V221.882H221.814V209.678Z" fill="#FF7250"/>
<path d="M252.324 209.678H236.73V221.882H252.324V209.678Z" fill="#FF7250"/>
<path d="M283.512 209.678H267.24V221.882H283.512V209.678Z" fill="#FF7250"/>
<g opacity="0.6">
<path d="M67.9087 209.678H51.6367V221.882H67.9087V209.678Z" fill="white"/>
<path d="M98.4187 209.678H82.8247V221.882H98.4187V209.678Z" fill="white"/>
<path d="M129.606 209.678H113.334V221.882H129.606V209.678Z" fill="white"/>
<path d="M160.116 209.678H144.522V221.882H160.116V209.678Z" fill="white"/>
<path d="M190.626 209.678H175.032V221.882H190.626V209.678Z" fill="white"/>
<path d="M221.814 209.678H205.542V221.882H221.814V209.678Z" fill="white"/>
<path d="M252.324 209.678H236.73V221.882H252.324V209.678Z" fill="white"/>
<path d="M283.512 209.678H267.24V221.882H283.512V209.678Z" fill="white"/>
</g>
<path opacity="0.1" d="M298.428 212.594V221.882H36.7204V212.594C36.7003 212.223 36.7551 211.851 36.8817 211.502C37.0083 211.152 37.204 210.832 37.4571 210.56C37.7103 210.288 38.0156 210.069 38.355 209.918C38.6944 209.767 39.0608 209.685 39.4324 209.678H295.689C296.063 209.681 296.432 209.76 296.775 209.91C297.118 210.06 297.426 210.278 297.682 210.55C297.938 210.823 298.136 211.144 298.265 211.496C298.393 211.847 298.449 212.22 298.428 212.594Z" fill="white"/>
<path d="M134.509 206.526V65.4679L181.718 59.7795L202.464 63.7322L209.244 65.0204L223.801 67.7934L233.503 65.8815L240.283 64.5458L272.217 58.2607V199.319L240.283 205.61L233.503 206.946L223.801 208.858L181.718 200.844L178.979 201.176L170.809 202.159L134.509 206.526Z" fill="#FF7250"/>
<path opacity="0.2" d="M134.509 206.526V65.4679L181.718 59.7795L202.464 63.7322L209.244 65.0204L223.801 67.7934L233.503 65.8815L240.283 64.5458L272.217 58.2607V199.319L240.283 205.61L233.503 206.946L223.801 208.858L181.718 200.844L178.979 201.176L170.809 202.159L134.509 206.526Z" fill="black"/>
<path d="M233.503 137.268V126.786C233.504 126.54 233.45 126.297 233.345 126.074C233.24 125.851 233.088 125.654 232.898 125.497C232.708 125.34 232.485 125.227 232.247 125.166C232.008 125.106 231.759 125.099 231.517 125.146L134.509 143.797V136.889L172.999 129.498C173.225 129.454 173.44 129.364 173.63 129.233C173.82 129.102 173.981 128.933 174.102 128.737C174.224 128.541 174.304 128.322 174.336 128.094C174.369 127.865 174.355 127.633 174.294 127.41L166.897 100.5C166.786 100.095 166.526 99.746 166.169 99.5246C165.811 99.3031 165.383 99.2254 164.971 99.3071L134.509 105.179V98.263L169.846 91.4491C170.259 91.371 170.686 91.451 171.043 91.6733C171.4 91.8956 171.66 92.2439 171.771 92.6491L181.026 126.373C181.138 126.778 181.398 127.126 181.755 127.349C182.111 127.571 182.539 127.651 182.952 127.573L201.108 124.074C201.49 124.002 201.835 123.798 202.082 123.498C202.33 123.199 202.465 122.822 202.464 122.434V82.8249C202.465 82.4363 202.33 82.0597 202.082 81.7601C201.835 81.4605 201.49 81.2568 201.108 81.1841L179.263 77.1568C179.077 77.1263 178.887 77.1263 178.701 77.1568L134.509 84.0724V77.2382L178.775 70.2751C178.961 70.2411 179.152 70.2411 179.338 70.2751L200.491 74.1668C200.732 74.2117 200.98 74.2029 201.217 74.1411C201.454 74.0793 201.675 73.9661 201.863 73.8095C202.051 73.6529 202.203 73.4567 202.307 73.2349C202.411 73.013 202.465 72.771 202.464 72.5261V63.7324L209.244 65.0206V120.488C209.245 120.735 209.3 120.978 209.406 121.201C209.511 121.425 209.664 121.622 209.855 121.779C210.045 121.936 210.268 122.05 210.507 122.111C210.746 122.173 210.995 122.181 211.238 122.135L232.147 118.108C232.53 118.037 232.875 117.833 233.123 117.533C233.37 117.234 233.505 116.856 233.503 116.467V65.8817L240.283 64.5257V114.501C240.284 114.748 240.339 114.991 240.444 115.214C240.55 115.437 240.703 115.634 240.894 115.791C241.084 115.947 241.307 116.06 241.546 116.121C241.785 116.182 242.034 116.189 242.277 116.142L256.372 113.43C256.754 113.357 257.098 113.153 257.346 112.854C257.594 112.554 257.729 112.178 257.728 111.789V77.2111C257.728 76.8232 257.863 76.4476 258.111 76.1491C258.359 75.8507 258.703 75.6483 259.084 75.5771L272.237 72.8651V79.7875L265.864 81.1028C265.483 81.1767 265.139 81.3807 264.892 81.68C264.645 81.9793 264.509 82.3553 264.508 82.7435V109.864C264.508 110.11 264.562 110.353 264.667 110.576C264.771 110.799 264.924 110.996 265.114 111.153C265.304 111.31 265.526 111.423 265.765 111.484C266.004 111.544 266.253 111.551 266.495 111.504L272.217 110.406V117.294L241.639 123.173C241.258 123.248 240.914 123.453 240.666 123.754C240.419 124.054 240.284 124.431 240.283 124.82V172.118C240.284 172.361 240.337 172.601 240.44 172.821C240.543 173.041 240.692 173.237 240.878 173.394C241.064 173.55 241.282 173.665 241.516 173.729C241.751 173.793 241.996 173.805 242.236 173.765L272.217 168.822V175.67L241.707 180.742C241.314 180.803 240.955 181.001 240.695 181.301C240.434 181.602 240.288 181.985 240.283 182.382V205.597L233.503 206.953V147.54C233.504 147.297 233.451 147.056 233.349 146.835C233.247 146.614 233.097 146.418 232.911 146.261C232.725 146.104 232.507 145.99 232.272 145.926C232.037 145.862 231.791 145.851 231.551 145.892L206.404 150.225C206.15 150.269 205.91 150.371 205.702 150.523C205.494 150.674 205.323 150.872 205.204 151.099L178.992 201.177L170.822 202.16L180.843 183.02C180.985 182.746 181.049 182.438 181.027 182.13C181.005 181.822 180.898 181.526 180.719 181.274C180.539 181.023 180.294 180.827 180.009 180.706C179.725 180.586 179.413 180.547 179.107 180.592L134.522 187.372V180.525L185.44 172.775C185.7 172.735 185.948 172.635 186.162 172.481C186.376 172.328 186.552 172.127 186.674 171.894L200.769 144.984C200.888 144.757 201.057 144.561 201.264 144.41C201.471 144.26 201.71 144.159 201.963 144.116L232.134 138.916C232.519 138.845 232.866 138.641 233.116 138.34C233.367 138.039 233.504 137.66 233.503 137.268Z" fill="#FF7250"/>
<path d="M223.787 205.434L182.382 197.515L181.867 197.413L181.338 197.481L178.626 197.813L170.49 198.796L137.898 202.722V68.4781L181.596 63.2168L201.827 67.0679L208.607 68.3561L223.164 71.1291L223.842 71.2511L224.486 71.1291L234.188 69.2171L240.968 67.8611L268.827 62.3761V196.532L239.626 202.288L232.846 203.644L223.787 205.434ZM223.787 208.885L233.49 206.973L240.27 205.617L272.217 199.332V58.3081L240.283 64.5932L233.503 65.9492L223.801 67.8001L209.244 65.0271L202.464 63.7389L181.704 59.7794L134.495 65.4678V206.526L170.795 202.159L178.992 201.176L181.704 200.844L223.787 208.858V208.885Z" fill="#263238"/>
<path opacity="0.1" d="M223.787 205.434L182.382 197.515L181.867 197.413L181.338 197.481L178.626 197.813L170.49 198.796L137.898 202.722V68.4781L181.596 63.2168L201.827 67.0679L208.607 68.3561L223.164 71.1291L223.842 71.2511L224.486 71.1291L234.188 69.2171L240.968 67.8611L268.827 62.3761V196.532L239.626 202.288L232.846 203.644L223.787 205.434ZM223.787 208.885L233.49 206.973L240.27 205.617L272.217 199.332V58.3081L240.283 64.5932L233.503 65.9492L223.801 67.8001L209.244 65.0271L202.464 63.7389L181.704 59.7794L134.495 65.4678V206.526L170.795 202.159L178.992 201.176L181.704 200.844L223.787 208.858V208.885Z" fill="white"/>
<path opacity="0.1" d="M223.801 208.858V67.7933L181.718 59.7793V200.844L223.801 208.858Z" fill="black"/>
<g opacity="0.5">
<path d="M255.213 116.718C255.393 116.701 255.572 116.757 255.71 116.873C255.849 116.989 255.936 117.155 255.952 117.335C255.968 117.514 255.912 117.693 255.796 117.832C255.681 117.97 255.515 118.057 255.335 118.074L237.571 121.26V141.532C237.574 141.694 237.518 141.851 237.415 141.975C237.312 142.1 237.168 142.183 237.009 142.21L203.787 147.939L187.413 178.992C187.373 179.073 187.317 179.145 187.248 179.204C187.18 179.263 187.1 179.308 187.014 179.336C186.928 179.364 186.838 179.374 186.748 179.366C186.658 179.359 186.57 179.333 186.49 179.291C186.41 179.249 186.339 179.191 186.282 179.121C186.224 179.052 186.182 178.971 186.156 178.885C186.13 178.798 186.122 178.707 186.131 178.617C186.141 178.527 186.169 178.44 186.213 178.361L202.763 146.977C202.811 146.885 202.879 146.806 202.963 146.745C203.046 146.684 203.142 146.642 203.244 146.624L236.215 140.929V120.684C236.213 120.523 236.267 120.367 236.369 120.243C236.471 120.119 236.613 120.035 236.771 120.006L255.077 116.718H255.213Z" fill="white"/>
<path d="M185.535 178.7C185.533 178.446 185.608 178.198 185.748 177.986C185.888 177.774 186.088 177.609 186.323 177.511C186.557 177.413 186.815 177.387 187.064 177.436C187.314 177.486 187.543 177.608 187.722 177.787C187.902 177.967 188.024 178.196 188.073 178.445C188.122 178.694 188.096 178.953 187.999 179.187C187.901 179.421 187.736 179.622 187.524 179.762C187.312 179.902 187.063 179.976 186.809 179.975C186.472 179.973 186.149 179.838 185.91 179.6C185.671 179.361 185.536 179.038 185.535 178.7Z" fill="white"/>
<path d="M253.938 117.396C253.937 117.142 254.011 116.893 254.151 116.681C254.292 116.469 254.492 116.304 254.726 116.206C254.961 116.108 255.219 116.082 255.468 116.132C255.717 116.181 255.946 116.303 256.126 116.483C256.305 116.662 256.428 116.891 256.477 117.141C256.526 117.39 256.5 117.648 256.402 117.882C256.304 118.117 256.139 118.317 255.927 118.457C255.716 118.597 255.467 118.672 255.213 118.67C254.875 118.67 254.551 118.536 254.312 118.297C254.073 118.058 253.938 117.734 253.938 117.396Z" fill="white"/>
</g>
<path d="M187.474 158.706C186.764 157.996 185.921 157.432 184.994 157.047C184.066 156.662 183.071 156.464 182.067 156.464C181.062 156.464 180.068 156.662 179.14 157.047C178.212 157.432 177.369 157.996 176.66 158.706C175.95 159.416 175.387 160.258 175.003 161.186C174.619 162.113 174.421 163.106 174.421 164.11C174.421 165.114 174.619 166.107 175.003 167.035C175.387 167.962 175.95 168.804 176.66 169.514L182.084 174.938L187.508 169.514C188.215 168.802 188.776 167.958 189.157 167.029C189.538 166.101 189.733 165.107 189.729 164.103C189.726 163.099 189.526 162.106 189.138 161.18C188.751 160.254 188.186 159.414 187.474 158.706ZM179.867 166.307C179.431 165.872 179.135 165.317 179.015 164.713C178.895 164.11 178.956 163.484 179.192 162.915C179.427 162.346 179.826 161.86 180.338 161.518C180.85 161.176 181.451 160.994 182.067 160.994C182.682 160.994 183.284 161.176 183.796 161.518C184.308 161.86 184.707 162.346 184.942 162.915C185.178 163.484 185.239 164.11 185.119 164.713C184.999 165.317 184.702 165.872 184.267 166.307C183.978 166.596 183.636 166.826 183.258 166.983C182.88 167.14 182.476 167.221 182.067 167.221C181.658 167.221 181.253 167.14 180.876 166.983C180.498 166.826 180.155 166.596 179.867 166.307Z" fill="white"/>
<path opacity="0.2" d="M187.474 158.706C186.758 157.989 185.907 157.422 184.97 157.038C184.033 156.654 183.029 156.46 182.016 156.469V161.004C182.435 160.985 182.855 161.05 183.248 161.197C183.641 161.344 184.001 161.57 184.305 161.86C184.609 162.15 184.85 162.498 185.016 162.884C185.181 163.271 185.266 163.686 185.266 164.106C185.266 164.526 185.181 164.942 185.016 165.328C184.85 165.714 184.609 166.063 184.305 166.353C184.001 166.643 183.641 166.868 183.248 167.015C182.855 167.162 182.435 167.228 182.016 167.208V174.869L182.063 174.917L187.487 169.493C188.913 168.059 189.712 166.118 189.709 164.097C189.707 162.075 188.903 160.136 187.474 158.706Z" fill="black"/>
<path d="M260.616 96.1268C259.907 95.4171 259.064 94.8541 258.137 94.47C257.21 94.0859 256.216 93.8882 255.213 93.8882C254.209 93.8882 253.215 94.0859 252.288 94.47C251.361 94.8541 250.519 95.4171 249.809 96.1268C248.377 97.5619 247.573 99.5065 247.573 101.534C247.573 103.561 248.377 105.506 249.809 106.941L255.233 112.365L260.657 106.941C261.365 106.229 261.926 105.384 262.307 104.454C262.688 103.525 262.883 102.53 262.879 101.525C262.875 100.521 262.673 99.5273 262.285 98.6009C261.897 97.6746 261.33 96.8338 260.616 96.1268ZM253.016 103.734C252.58 103.299 252.282 102.745 252.161 102.141C252.04 101.537 252.101 100.91 252.337 100.341C252.572 99.7719 252.971 99.2853 253.483 98.9428C253.995 98.6004 254.597 98.4176 255.213 98.4176C255.829 98.4176 256.431 98.6004 256.943 98.9428C257.455 99.2853 257.854 99.7719 258.089 100.341C258.324 100.91 258.385 101.537 258.264 102.141C258.143 102.745 257.846 103.299 257.41 103.734C256.826 104.315 256.036 104.642 255.213 104.642C254.389 104.642 253.599 104.315 253.016 103.734Z" fill="white"/>
<path opacity="0.2" d="M260.616 96.1267C259.904 95.4154 259.058 94.8521 258.127 94.4692C257.196 94.0864 256.199 93.8916 255.192 93.8961V98.4319C255.612 98.4123 256.031 98.478 256.425 98.625C256.818 98.772 257.177 98.9973 257.481 99.2873C257.785 99.5773 258.027 99.9259 258.192 100.312C258.357 100.698 258.443 101.114 258.443 101.534C258.443 101.954 258.357 102.369 258.192 102.755C258.027 103.142 257.785 103.49 257.481 103.78C257.177 104.07 256.818 104.295 256.425 104.442C256.031 104.59 255.612 104.655 255.192 104.636V112.297L255.24 112.344L260.664 106.92C262.087 105.482 262.881 103.537 262.872 101.514C262.863 99.4902 262.052 97.5529 260.616 96.1267Z" fill="black"/>
<path d="M62.3962 230.513L66.1524 234.303L75.2308 225.93L71.4747 222.133L62.3962 230.513Z" fill="#EEC1BB"/>
<path d="M67.1221 234.391L62.5659 229.794C62.4904 229.719 62.3919 229.672 62.2861 229.659C62.1804 229.647 62.0736 229.671 61.9829 229.726L57.8742 232.316C57.6987 232.43 57.5752 232.609 57.5308 232.813C57.4864 233.018 57.5245 233.232 57.6369 233.408C57.6693 233.456 57.7055 233.501 57.7454 233.544C59.2437 235.008 60.4099 235.998 62.2608 237.869C63.3999 239.022 66.7221 242.615 68.295 244.202C69.868 245.788 71.6444 244.446 71.1494 243.653C68.8917 240.1 67.5967 237.029 67.5086 235.266C67.4967 234.935 67.3583 234.622 67.1221 234.391Z" fill="#263238"/>
<path opacity="0.2" d="M71.4748 222.14L75.2241 225.93L70.5391 230.249L66.7898 226.459L71.4748 222.14Z" fill="black"/>
<path d="M66.844 235.171C66.8291 235.15 66.821 235.125 66.821 235.1C66.821 235.074 66.8291 235.049 66.844 235.028C66.8577 235.008 66.8779 234.993 66.9013 234.986C66.9247 234.978 66.9499 234.979 66.9728 234.988C67.1965 235.035 69.1559 235.516 69.3526 236.147C69.3786 236.216 69.3835 236.29 69.3666 236.362C69.3496 236.433 69.3117 236.498 69.2576 236.547C69.1811 236.652 69.0777 236.734 68.9585 236.785C68.8392 236.837 68.7084 236.855 68.5796 236.839C68.2215 236.772 67.8979 236.583 67.6643 236.303C67.3491 235.958 67.0739 235.578 66.844 235.171ZM67.2236 235.306C67.5111 235.897 68.0131 236.355 68.6271 236.588C68.7112 236.595 68.7956 236.58 68.8726 236.546C68.9497 236.512 69.0168 236.458 69.0678 236.391C69.1356 236.317 69.1424 236.249 69.1153 236.228C69.0994 236.174 69.0689 236.125 69.0271 236.086C68.4815 235.713 67.8692 235.448 67.2236 235.306Z" fill="#FF7250"/>
<path d="M66.7965 235.164C66.7932 235.142 66.7952 235.12 66.8022 235.098C66.8093 235.077 66.8213 235.058 66.8371 235.042C66.8914 234.995 68.0711 234.005 68.8711 234.093C68.9677 234.099 69.0619 234.126 69.1473 234.172C69.2326 234.217 69.3072 234.281 69.3661 234.357C69.432 234.426 69.4725 234.515 69.4812 234.61C69.4898 234.705 69.4659 234.8 69.4135 234.879C69.0881 235.354 67.5084 235.422 66.9117 235.246L66.8643 235.198C66.8512 235.197 66.8385 235.194 66.8268 235.188C66.8152 235.182 66.8048 235.174 66.7965 235.164ZM68.8711 234.317C68.2666 234.384 67.6979 234.637 67.2439 235.042C67.9219 235.137 69.0339 234.995 69.2305 234.703C69.2305 234.703 69.3051 234.601 69.1898 234.486L69.1491 234.439C69.0749 234.365 68.9758 234.321 68.8711 234.317Z" fill="#FF7250"/>
<path d="M123.823 95.0619C123.823 95.0619 132.291 108.622 133.898 110.324C135.505 112.025 146.102 94.289 146.929 91.9228C147.756 89.5566 158.353 89.4888 159.079 89.7939C159.804 90.099 159.316 95.2179 157.282 96.2688C155.248 97.3197 148.258 97.0485 148.258 97.0485C148.258 97.0485 142.102 116.88 134.861 117.89C127.62 118.9 119.728 100.974 119.728 100.974L123.823 95.0619Z" fill="#EEC1BB"/>
<path d="M117.613 88.3228C122.928 89.272 129.898 103.625 129.898 103.625L123.755 111.666L116.114 104.412L117.613 88.3228Z" fill="#FF7250"/>
<path opacity="0.4" d="M129.898 103.625L123.755 111.666L123.552 111.47L116.094 104.425L116.189 103.395L117.592 88.3228C122.928 89.272 129.898 103.625 129.898 103.625Z" fill="white"/>
<path opacity="0.2" d="M123.552 111.47L116.094 104.425L116.189 103.395L118.772 98.1675C118.772 98.1675 123.518 102.764 123.552 111.47Z" fill="black"/>
<path d="M116.114 135.247C116.114 135.247 103.537 182.212 94.9199 200.688C86.3025 219.163 74.1663 228.852 74.1663 228.852L68.5457 221.923C68.5457 221.923 84.3431 199.454 87.767 185.589C91.1909 171.723 92.3367 143.058 92.3367 143.058L116.114 135.247Z" fill="#263238"/>
<path opacity="0.2" d="M116.114 135.247C116.114 135.247 103.537 182.212 94.9199 200.688C86.3025 219.163 74.1663 228.852 74.1663 228.852L68.5457 221.923C68.5457 221.923 84.3431 199.454 87.767 185.589C91.1909 171.723 92.3367 143.058 92.3367 143.058L116.114 135.247Z" fill="black"/>
<path d="M119.823 240.941L124.881 239.252L121.389 227.401L116.324 229.089L119.823 240.941Z" fill="#EEC1BB"/>
<path d="M125.383 238.432L119.24 240.466C119.14 240.502 119.055 240.57 118.999 240.66C118.942 240.75 118.917 240.856 118.928 240.961L119.436 245.795C119.464 246 119.57 246.185 119.732 246.312C119.894 246.438 120.1 246.496 120.304 246.473C120.362 246.466 120.419 246.453 120.474 246.433C122.447 245.755 123.864 245.131 126.352 244.297C127.891 243.789 132.576 242.399 134.698 241.694C136.82 240.988 136.4 238.792 135.471 238.893C131.288 239.341 127.959 239.144 126.339 238.439C126.032 238.315 125.69 238.313 125.383 238.432Z" fill="#263238"/>
<path opacity="0.2" d="M116.331 229.096L121.389 227.408L123.186 233.517L118.128 235.205L116.331 229.096Z" fill="black"/>
<path d="M125.965 239.015C125.94 239.018 125.914 239.013 125.891 238.999C125.869 238.985 125.852 238.965 125.843 238.941C125.828 238.921 125.82 238.897 125.82 238.873C125.82 238.848 125.828 238.824 125.843 238.805C125.979 238.629 127.281 237.083 127.938 237.184C128.011 237.194 128.08 237.224 128.136 237.27C128.193 237.317 128.234 237.379 128.257 237.449C128.311 237.565 128.335 237.692 128.328 237.82C128.321 237.948 128.283 238.072 128.216 238.181C127.998 238.47 127.687 238.673 127.335 238.757C126.889 238.892 126.43 238.978 125.965 239.015ZM126.257 238.73C126.912 238.739 127.545 238.496 128.027 238.052C128.066 237.978 128.087 237.896 128.087 237.812C128.087 237.728 128.066 237.645 128.027 237.571C127.986 237.476 127.932 237.442 127.898 237.456C127.845 237.436 127.787 237.436 127.735 237.456C127.166 237.783 126.664 238.216 126.257 238.73Z" fill="#FF7250"/>
<path d="M125.945 239.049C125.922 239.046 125.901 239.035 125.884 239.02C125.867 239.004 125.855 238.984 125.85 238.961C125.85 238.886 125.471 237.395 125.891 236.724C125.94 236.639 126.006 236.567 126.086 236.511C126.165 236.455 126.256 236.416 126.352 236.398C126.443 236.367 126.541 236.369 126.631 236.404C126.72 236.439 126.794 236.504 126.84 236.588C127.125 237.083 126.488 238.534 126.06 238.995H125.999C125.988 239.019 125.969 239.038 125.945 239.049ZM126.094 236.812C125.893 237.386 125.869 238.007 126.026 238.595C126.413 238.032 126.779 236.975 126.603 236.663C126.603 236.663 126.542 236.547 126.393 236.602H126.332C126.234 236.643 126.155 236.717 126.108 236.812H126.094Z" fill="#FF7250"/>
<path d="M87.7738 132.163C85.8305 140.984 86.0188 150.142 88.323 158.876C91.2452 169.371 116.202 232.886 116.202 232.886L124.881 230.391L106.527 154.821C106.527 154.821 113.389 145.106 116.114 135.247L87.7738 132.163Z" fill="#263238"/>
<path d="M126.298 231.401L115.389 235.042L112.67 231.299L125.552 227.787L126.298 231.401Z" fill="#FF7250"/>
<path opacity="0.3" d="M126.298 231.401L115.389 235.042L112.67 231.299L125.552 227.787L126.298 231.401Z" fill="white"/>
<path d="M73.8139 232.099L65.7253 223.93L67.8746 219.834L76.7225 229.828L73.8139 232.099Z" fill="#FF7250"/>
<path opacity="0.3" d="M73.8139 232.099L65.7253 223.93L67.8746 219.834L76.7225 229.828L73.8139 232.099Z" fill="white"/>
<path d="M91.1166 85.882C91.6396 91.8229 91.719 97.7946 91.3539 103.747C91.1233 107.903 90.7165 111.829 90.2691 115.389C89.2249 123.714 84.9739 139.159 84.9739 139.159L106.88 144.922L108.867 135.247L110.901 144.922L115.26 142.244C122.04 120.731 122.216 99.0284 121.362 92.7908C121.226 91.7638 120.799 90.7973 120.131 90.0055C119.463 89.2137 118.582 88.6298 117.592 88.3228C116.596 88.0109 115.436 87.6448 114.202 87.3736C113.721 87.2855 113.253 87.1567 112.765 87.0617C108.776 86.3896 104.751 85.9504 100.71 85.7464C99.9509 85.6989 99.1712 85.6786 98.4118 85.6651C95.978 85.6105 93.5429 85.6829 91.1166 85.882Z" fill="#FF7250"/>
<path opacity="0.4" d="M115.26 142.244L110.914 144.922L108.88 135.247L106.893 144.922L84.9871 139.159C84.9871 139.159 89.2381 123.714 90.2822 115.389C90.3907 114.541 90.4924 113.673 90.5941 112.785C90.9128 109.944 91.1908 106.914 91.367 103.747C91.4755 102.012 91.5433 100.269 91.5704 98.5335C91.6475 94.3115 91.5004 90.0884 91.1297 85.882C93.5651 85.6819 96.0092 85.6095 98.4521 85.665C99.2115 85.665 99.9912 85.6989 100.751 85.7464C104.791 85.9504 108.816 86.3896 112.805 87.0617C113.294 87.1566 113.761 87.2855 114.243 87.3736C115.47 87.6719 116.629 88.0109 117.633 88.3228C118.622 88.6298 119.503 89.2137 120.171 90.0055C120.839 90.7973 121.266 91.7638 121.402 92.7908C122.209 99.0284 122.04 120.731 115.26 142.244Z" fill="white"/>
<path d="M103.408 72.2676C103.747 76.2339 103.734 83.4207 100.737 85.7123C101.796 87.0864 103.138 88.2174 104.671 89.029C106.204 89.8407 107.894 90.3142 109.626 90.4176C112.968 90.7092 113.395 88.3836 112.792 87.0276C108.575 85.5225 109.036 82.3291 110.121 79.3934L103.408 72.2676Z" fill="#EEC1BB"/>
<path opacity="0.2" d="M106.148 75.1831L110.114 79.3867C109.855 80.0695 109.654 80.7725 109.511 81.4885C107.883 81.0749 105.822 79.0138 105.829 77.2646C105.802 76.5568 105.91 75.8504 106.148 75.1831Z" fill="black"/>
<path d="M103.578 66.3894C103.32 71.671 102.9 74.7491 105.28 77.7188C108.833 82.2071 115.572 80.5054 117.409 75.4C119.05 70.8032 119.179 62.9316 114.263 60.2874C113.181 59.6946 111.965 59.3892 110.731 59.4002C109.497 59.4112 108.286 59.7383 107.214 60.3503C106.143 60.9623 105.246 61.8387 104.609 62.896C103.973 63.9532 103.618 65.1559 103.578 66.3894Z" fill="#EEC1BB"/>
<path d="M111.382 68.7222C111.307 69.1426 111.524 69.5223 111.809 69.5494C112.094 69.5765 112.351 69.2579 112.399 68.8307C112.446 68.4036 112.256 68.0307 111.978 68.0036C111.7 67.9764 111.436 68.2951 111.382 68.7222Z" fill="#263238"/>
<path d="M116.216 69.2507C116.141 69.671 116.365 70.0439 116.636 70.0778C116.907 70.1117 117.179 69.7795 117.233 69.3524C117.287 68.9252 117.084 68.5591 116.806 68.5252C116.528 68.4913 116.263 68.8439 116.216 69.2507Z" fill="#263238"/>
<path d="M114.657 69.291C115.024 70.6536 115.579 71.9587 116.304 73.1692C115.988 73.347 115.637 73.4537 115.275 73.4818C114.913 73.51 114.549 73.4588 114.209 73.3319L114.657 69.291Z" fill="#D4827D"/>
<path d="M110.053 66.9999C110.099 67.0102 110.146 67.0087 110.191 66.9957C110.236 66.9826 110.277 66.9584 110.311 66.9253C110.521 66.688 110.783 66.5031 111.078 66.3854C111.372 66.2677 111.69 66.2204 112.006 66.2473C112.038 66.2531 112.071 66.2525 112.104 66.2454C112.136 66.2384 112.166 66.225 112.194 66.2061C112.221 66.1872 112.244 66.1632 112.262 66.1353C112.279 66.1075 112.291 66.0764 112.297 66.0439C112.304 66.0113 112.304 65.9776 112.297 65.945C112.291 65.9124 112.277 65.8815 112.258 65.8542C112.239 65.8268 112.215 65.8037 112.187 65.7862C112.158 65.7687 112.127 65.7572 112.094 65.7523C111.696 65.7058 111.294 65.7554 110.92 65.8969C110.546 66.0385 110.211 66.268 109.944 66.5659C109.898 66.6129 109.872 66.6762 109.872 66.7422C109.872 66.8082 109.898 66.8715 109.944 66.9185L110.053 66.9999Z" fill="#263238"/>
<path d="M111.999 75.0615C111.388 74.9404 110.816 74.6737 110.331 74.2842C109.846 73.8947 109.462 73.3938 109.212 72.8241C109.203 72.7908 109.206 72.7552 109.221 72.724C109.236 72.6928 109.262 72.6681 109.293 72.6546C109.309 72.6479 109.326 72.6443 109.343 72.6441C109.36 72.6438 109.377 72.647 109.392 72.6533C109.408 72.6596 109.422 72.6689 109.435 72.6808C109.447 72.6926 109.456 72.7068 109.463 72.7224C109.71 73.2387 110.072 73.6911 110.523 74.044C110.973 74.3968 111.499 74.6406 112.06 74.7564C112.077 74.7588 112.093 74.7647 112.108 74.7736C112.122 74.7824 112.135 74.7942 112.145 74.8081C112.155 74.822 112.163 74.8378 112.167 74.8545C112.171 74.8712 112.171 74.8886 112.168 74.9055C112.166 74.9225 112.16 74.9389 112.151 74.9536C112.142 74.9683 112.13 74.9811 112.116 74.9912C112.103 75.0013 112.087 75.0085 112.07 75.0125C112.053 75.0164 112.036 75.0169 112.019 75.014L111.999 75.0615Z" fill="#263238"/>
<path d="M118.473 67.7998C118.522 67.8168 118.574 67.8168 118.623 67.7998C118.685 67.7767 118.735 67.7308 118.764 67.6716C118.793 67.6123 118.798 67.5441 118.779 67.4811C118.651 67.1005 118.435 66.7559 118.147 66.4763C117.859 66.1967 117.508 65.9902 117.124 65.8742C117.06 65.8619 116.993 65.8746 116.937 65.9099C116.882 65.9452 116.842 66.0004 116.826 66.0641C116.813 66.1286 116.825 66.1956 116.858 66.252C116.892 66.3084 116.946 66.3502 117.009 66.3692C117.31 66.4681 117.584 66.6361 117.809 66.8597C118.034 67.0834 118.204 67.3566 118.304 67.6574C118.319 67.6931 118.342 67.7247 118.371 67.7495C118.401 67.7744 118.436 67.7916 118.473 67.7998Z" fill="#263238"/>
<path d="M104.473 70.8576C104.473 70.8576 107.816 66.5387 106.961 62.5588C108.784 62.3211 110.632 62.7522 112.162 63.7725C112.197 63.1576 112.158 62.5408 112.046 61.9351C112.046 61.9351 116.792 62.2673 119.104 65.2776C119.076 63.5221 118.474 61.8241 117.389 60.4435C118.089 60.3184 118.811 60.4033 119.464 60.6876C119.464 60.6876 115.674 56.6941 108.738 57.745C101.802 58.7959 99.1711 62.5656 99.9236 68.7219C100.676 74.8781 103.673 76.6138 103.673 76.6138C103.673 76.6138 102.948 71.9085 103.381 70.9321C103.815 69.9558 104.473 70.8576 104.473 70.8576Z" fill="#263238"/>
<path d="M100.581 71.9221C101.166 73.1162 102.199 74.0303 103.456 74.4646C105.124 75.0274 106.053 73.5493 105.673 71.9289C105.314 70.4848 104.032 68.4101 102.283 68.5389C100.534 68.6677 99.8829 70.4441 100.581 71.9221Z" fill="#EEC1BB"/>
<path d="M114.27 57.8533C112.628 58.1224 111.013 58.5353 109.443 59.0873C108.319 59.4823 107.231 59.9699 106.188 60.545C101.083 63.3587 99.7813 66.9928 99.7813 66.9928C99.7813 66.9928 99.6185 66.5317 99.4016 65.813C99.1846 65.0944 98.8931 64.1587 98.6287 63.1824C98.1202 61.3518 97.6998 59.4398 97.9507 58.8907C100.127 53.9887 107.029 52.6124 107.958 52.8836C108.521 53.0531 110.67 54.8023 112.317 56.1787C113.151 56.8567 113.85 57.4669 114.141 57.7245L114.27 57.8533Z" fill="#FF7250"/>
<path opacity="0.6" d="M114.121 57.7245C112.512 57.9849 110.941 58.4402 109.443 59.0805C108.493 59.4602 107.409 59.9415 106.188 60.5382C102.317 62.423 100.371 64.3146 99.4082 65.8062C99.1844 65.0943 98.8997 64.1519 98.6353 63.1756C100.54 61.2636 105.639 56.816 112.317 56.1719C113.131 56.8634 113.829 57.4669 114.121 57.7245Z" fill="white"/>
<path d="M99.9034 68.7218C99.9034 68.7218 95.2523 71.983 94.9607 70.2473C94.2082 65.7929 106.548 56.0093 118.589 56.2398C128.481 56.4229 117.843 59.4468 117.843 59.4468C113.904 58.084 99.5915 64.308 99.9034 68.7218Z" fill="#FF7250"/>
<path opacity="0.3" d="M99.9034 68.7218C99.9034 68.7218 95.2523 71.983 94.9607 70.2473C94.2082 65.7929 106.548 56.0093 118.589 56.2398C128.481 56.4229 117.843 59.4468 117.843 59.4468C113.904 58.084 99.5915 64.308 99.9034 68.7218Z" fill="black"/>
<path d="M101.334 83.1025C101.334 83.1025 103.666 85.5298 109.205 88.1401C109.205 88.1401 110.521 87.1299 110.69 84.0721L114.229 87.4011L113.443 92.981L111.09 90.3843L109.87 106.602C109.87 106.602 110.636 95.754 107.972 90.9063L106.188 93.659C106.188 93.659 99.7474 91.4284 97.8625 85.6722L101.334 83.1025Z" fill="#FF7250"/>
<path opacity="0.6" d="M114.229 87.3739L113.443 92.9539L111.09 90.3571L109.87 106.575C109.87 106.575 110.636 95.7269 107.972 90.8792L106.188 93.6319C106.188 93.6319 99.7474 91.4013 97.8625 85.645L101.334 83.1025C101.334 83.1025 103.666 85.5298 109.205 88.1401C109.355 88.018 110.521 86.9536 110.677 84.0721L114.229 87.3739Z" fill="white"/>
<path opacity="0.2" d="M110.114 96.5809C109.917 92.5129 109.205 88.1398 109.205 88.1398C109.354 88.0177 110.521 86.9533 110.677 84.0718C110.881 84.6515 110.95 85.2699 110.881 85.8805C110.812 86.4911 110.605 87.0781 110.277 87.5974L110.114 96.5809Z" fill="black"/>
<path d="M80.6819 143.227C81.2659 144.299 81.5735 145.499 81.5768 146.719C81.665 148.95 81.2107 153.323 80.6819 153.872C80.37 154.191 75.1562 152.726 74.6477 151.431C74.4171 150.841 75.3257 144.841 76.3901 143.227C77.4546 141.614 80.6819 143.227 80.6819 143.227Z" fill="#EEC1BB"/>
<path opacity="0.2" d="M97.693 100.066C97.693 100.066 95.2387 109.558 90.5808 112.785C90.8995 109.944 91.1775 106.914 91.3537 103.748C91.4622 102.012 91.53 100.269 91.5571 98.5337L97.693 100.066Z" fill="black"/>
<path d="M84.9738 98.1675C84.9738 98.1675 78.6752 109.253 77.5158 113.009C76.3564 116.765 76.3767 143.227 76.3767 143.227H80.682C80.682 143.227 83.394 116.941 84.9738 113.545C86.5535 110.148 92.3369 102.317 92.3369 102.317L84.9738 98.1675Z" fill="#EEC1BB"/>
<path d="M92.2081 85.8144C89.3266 85.3534 81.5906 102.249 81.5906 102.249L89.7266 107.354C89.7266 107.354 95.0421 102.405 97.6795 100.066C100.317 97.7269 96.8863 86.567 92.2081 85.8144Z" fill="#FF7250"/>
<path opacity="0.4" d="M92.2081 85.8144C89.3266 85.3534 81.5906 102.249 81.5906 102.249L89.7266 107.354C89.7266 107.354 95.0421 102.405 97.6795 100.066C100.317 97.7269 96.8863 86.567 92.2081 85.8144Z" fill="white"/>
<path d="M81.5769 101.076L91.1096 107.354L88.9943 109.252L80.5464 103.754L81.5769 101.076Z" fill="#FF7250"/>
<path opacity="0.6" d="M81.5769 101.076L91.1096 107.354L88.9943 109.252L80.5464 103.754L81.5769 101.076Z" fill="white"/>
<path d="M122.155 111.09L129.437 102.303L131.098 104.608L124.711 112.405L122.155 111.09Z" fill="#FF7250"/>
<path opacity="0.6" d="M122.155 111.09L129.437 102.303L131.098 104.608L124.711 112.405L122.155 111.09Z" fill="white"/>
<path d="M150.028 90.2759L157.215 80.3093C157.262 80.245 157.327 80.1952 157.401 80.1653C157.475 80.1354 157.556 80.1265 157.635 80.1398L162.327 80.9669C162.399 80.979 162.467 81.0095 162.524 81.0555C162.581 81.1015 162.626 81.1615 162.653 81.2296C162.68 81.2978 162.689 81.3718 162.68 81.4445C162.67 81.5173 162.642 81.5863 162.598 81.6449L155.262 91.6251C155.214 91.6893 155.15 91.7387 155.075 91.7676C155.001 91.7964 154.92 91.8034 154.842 91.7878L150.312 90.9403C150.241 90.929 150.174 90.8998 150.117 90.8555C150.06 90.8111 150.015 90.753 149.987 90.6867C149.958 90.6203 149.947 90.5478 149.954 90.476C149.961 90.4042 149.987 90.3353 150.028 90.2759Z" fill="#263238"/>
<path d="M149.512 89.9905L156.699 80.0239C156.746 79.9585 156.81 79.9077 156.885 79.8777C156.959 79.8476 157.041 79.8396 157.12 79.8544L161.811 80.6748C161.884 80.6869 161.952 80.7174 162.009 80.7634C162.066 80.8094 162.11 80.8694 162.138 80.9375C162.165 81.0056 162.174 81.0796 162.165 81.1524C162.155 81.2251 162.127 81.2942 162.083 81.3528L154.733 91.3465C154.685 91.4101 154.62 91.4591 154.546 91.4879C154.472 91.5166 154.391 91.524 154.313 91.5092L149.784 90.6617C149.712 90.6491 149.646 90.6185 149.589 90.573C149.533 90.5274 149.489 90.4683 149.462 90.4012C149.435 90.3341 149.426 90.2612 149.434 90.1894C149.443 90.1176 149.47 90.0491 149.512 89.9905Z" fill="#263238"/>
<path d="M156.991 80.356L161.486 81.156L154.306 90.8107L149.947 90.0107L156.991 80.356Z" fill="white"/>
<path d="M176.043 42.5442C176.044 39.038 175.035 35.6057 173.136 32.6583C171.237 29.7109 168.529 27.3733 165.335 25.9256C162.142 24.4779 158.599 23.9814 155.13 24.4955C151.662 25.0096 148.415 26.5125 145.779 28.8243C143.143 31.1361 141.229 34.1588 140.267 37.5304C139.305 40.9019 139.334 44.4794 140.353 47.8345C141.371 51.1895 143.335 54.1798 146.01 56.4474C148.684 58.7149 151.955 60.1635 155.432 60.6197L156.313 70.1999L157.994 60.7757C162.797 60.7257 167.387 58.783 170.766 55.3696C174.145 51.9561 176.041 47.3474 176.043 42.5442Z" fill="#FF7250"/>
<path opacity="0.8" d="M176.043 42.5442C176.044 39.038 175.035 35.6057 173.136 32.6583C171.237 29.7109 168.529 27.3733 165.335 25.9256C162.142 24.4779 158.599 23.9814 155.13 24.4955C151.662 25.0096 148.415 26.5125 145.779 28.8243C143.143 31.1361 141.229 34.1588 140.267 37.5304C139.305 40.9019 139.334 44.4794 140.353 47.8345C141.371 51.1895 143.335 54.1798 146.01 56.4474C148.684 58.7149 151.955 60.1635 155.432 60.6197L156.313 70.1999L157.994 60.7757C162.797 60.7257 167.387 58.783 170.766 55.3696C174.145 51.9561 176.041 47.3474 176.043 42.5442Z" fill="white"/>
<path d="M166.7 42.5446L148.909 35.1069L151.825 42.5446L148.909 49.9755L166.7 42.5446Z" fill="#FF7250"/>
<path opacity="0.3" d="M151.825 42.5444H166.7L148.909 49.9753L151.825 42.5444Z" fill="black"/>
</svg>
