<svg width="338" height="216" viewBox="0 0 338 216" fill="none" xmlns="http://www.w3.org/2000/svg">
<path d="M100.803 61.5035H34.8234V16.3695H100.803V61.5035ZM35.3444 60.9825H100.282V16.8905H35.3444V60.9825Z" fill="#EBEBEB"/>
<path d="M39.9813 19.2767C39.9813 19.5363 39.9043 19.7902 39.76 20.0061C39.6158 20.222 39.4107 20.3903 39.1708 20.4896C38.9309 20.589 38.6669 20.615 38.4122 20.5643C38.1576 20.5137 37.9236 20.3886 37.74 20.205C37.5564 20.0214 37.4314 19.7875 37.3807 19.5328C37.33 19.2781 37.356 19.0141 37.4554 18.7742C37.5548 18.5343 37.7231 18.3293 37.939 18.185C38.1549 18.0407 38.4087 17.9637 38.6684 17.9637C39.0166 17.9637 39.3505 18.1021 39.5968 18.3483C39.843 18.5945 39.9813 18.9285 39.9813 19.2767Z" fill="#A6A6A6"/>
<path d="M45.3424 19.2767C45.3424 19.5363 45.2654 19.7902 45.1211 20.0061C44.9768 20.222 44.7718 20.3903 44.5319 20.4896C44.292 20.589 44.028 20.615 43.7733 20.5643C43.5186 20.5137 43.2847 20.3886 43.1011 20.205C42.9175 20.0214 42.7924 19.7875 42.7418 19.5328C42.6911 19.2781 42.7171 19.0141 42.8165 18.7742C42.9159 18.5343 43.0841 18.3293 43.3 18.185C43.516 18.0407 43.7698 17.9637 44.0295 17.9637C44.3777 17.9637 44.7116 18.1021 44.9578 18.3483C45.2041 18.5945 45.3424 18.9285 45.3424 19.2767Z" fill="#EBEBEB"/>
<path d="M50.7087 19.2767C50.7097 19.5378 50.6332 19.7934 50.4887 20.0109C50.3443 20.2285 50.1385 20.3982 49.8974 20.4987C49.6563 20.5991 49.3909 20.6256 49.1347 20.5749C48.8785 20.5242 48.6432 20.3986 48.4585 20.2139C48.2739 20.0293 48.1482 19.7939 48.0975 19.5377C48.0468 19.2816 48.0734 19.0161 48.1738 18.775C48.2742 18.534 48.4439 18.3282 48.6615 18.1837C48.8791 18.0393 49.1346 17.9627 49.3958 17.9638C49.744 17.9638 50.0779 18.1021 50.3241 18.3483C50.5704 18.5945 50.7087 18.9285 50.7087 19.2767Z" fill="#FF7250"/>
<path d="M100.542 21.5847H35.084V22.1057H100.542V21.5847Z" fill="#EBEBEB"/>
<path d="M316.657 179.723H316.136V114.171L330.062 95.165V59.6434H330.583V95.3317L316.657 114.343V179.723Z" fill="#EBEBEB"/>
<path d="M330.323 59.9249C330.026 59.9249 329.735 59.8368 329.489 59.6717C329.242 59.5066 329.049 59.2719 328.936 58.9974C328.823 58.7229 328.793 58.421 328.851 58.1298C328.91 57.8386 329.053 57.5712 329.264 57.3616C329.474 57.152 329.742 57.0095 330.033 56.9521C330.325 56.8948 330.626 56.9253 330.901 57.0397C331.175 57.154 331.409 57.3472 331.573 57.5946C331.737 57.842 331.824 58.1326 331.823 58.4296C331.823 58.6264 331.784 58.8213 331.709 59.0031C331.633 59.1848 331.523 59.3499 331.383 59.4888C331.244 59.6277 331.079 59.7377 330.897 59.8126C330.714 59.8874 330.519 59.9256 330.323 59.9249ZM330.323 57.4502C330.129 57.4502 329.94 57.5076 329.779 57.6152C329.617 57.7229 329.492 57.8758 329.418 58.0548C329.344 58.2338 329.324 58.4307 329.362 58.6207C329.4 58.8107 329.493 58.9852 329.63 59.1222C329.767 59.2592 329.942 59.3525 330.132 59.3903C330.322 59.4281 330.519 59.4087 330.698 59.3346C330.877 59.2604 331.029 59.1349 331.137 58.9738C331.245 58.8127 331.302 58.6234 331.302 58.4296C331.302 58.1699 331.199 57.9207 331.015 57.737C330.832 57.5534 330.582 57.4502 330.323 57.4502Z" fill="#EBEBEB"/>
<path d="M320.247 179.723H319.726V116.469L319.773 116.396L333.652 97.4575V72.6685H334.173V97.6294L320.247 116.635V179.723Z" fill="#EBEBEB"/>
<path d="M333.912 72.9498C333.615 72.9508 333.324 72.8636 333.077 72.6991C332.829 72.5346 332.636 72.3003 332.522 72.0259C332.408 71.7515 332.378 71.4494 332.435 71.1579C332.493 70.8663 332.636 70.5985 332.846 70.3883C333.056 70.1782 333.324 70.0352 333.616 69.9774C333.907 69.9197 334.209 69.9499 334.484 70.0641C334.758 70.1783 334.992 70.3714 335.157 70.619C335.321 70.8665 335.409 71.1573 335.408 71.4545C335.406 71.8507 335.248 72.2302 334.968 72.5103C334.688 72.7904 334.308 72.9484 333.912 72.9498ZM333.912 70.4751C333.718 70.474 333.529 70.5306 333.367 70.6376C333.205 70.7446 333.079 70.8972 333.004 71.0761C332.929 71.255 332.909 71.4521 332.946 71.6424C332.983 71.8327 333.076 72.0078 333.213 72.1453C333.349 72.2828 333.524 72.3766 333.714 72.4148C333.904 72.453 334.101 72.4339 334.281 72.3599C334.46 72.286 334.613 72.1604 334.721 71.9992C334.829 71.8381 334.887 71.6485 334.887 71.4545C334.887 71.1957 334.784 70.9473 334.602 70.7638C334.419 70.5802 334.171 70.4764 333.912 70.4751Z" fill="#EBEBEB"/>
<path d="M313.203 93.0238H312.682V179.723H313.203V93.0238Z" fill="#EBEBEB"/>
<path d="M312.942 93.2844C312.645 93.2854 312.354 93.1982 312.107 93.0337C311.859 92.8692 311.666 92.6349 311.552 92.3605C311.438 92.0861 311.407 91.784 311.465 91.4925C311.523 91.2009 311.666 90.9331 311.876 90.7229C312.086 90.5128 312.354 90.3698 312.646 90.312C312.937 90.2543 313.239 90.2845 313.514 90.3987C313.788 90.5129 314.022 90.706 314.187 90.9535C314.351 91.2011 314.439 91.4919 314.438 91.7891C314.436 92.1853 314.278 92.5648 313.998 92.8449C313.718 93.125 313.338 93.283 312.942 93.2844ZM312.942 90.8097C312.748 90.8086 312.558 90.8652 312.397 90.9722C312.235 91.0792 312.109 91.2318 312.034 91.4107C311.959 91.5896 311.939 91.7867 311.976 91.977C312.013 92.1673 312.106 92.3424 312.243 92.4799C312.379 92.6174 312.554 92.7112 312.744 92.7494C312.934 92.7876 313.131 92.7685 313.311 92.6945C313.49 92.6206 313.643 92.495 313.751 92.3338C313.859 92.1726 313.917 91.9831 313.917 91.7891C313.917 91.5302 313.814 91.2819 313.632 91.0984C313.449 90.9148 313.201 90.811 312.942 90.8097Z" fill="#EBEBEB"/>
<path d="M309.874 179.723H309.353V135.725L299.902 117.891V85.8601H300.423V117.766L309.874 135.6V179.723Z" fill="#EBEBEB"/>
<path d="M300.157 86.1206C299.86 86.1206 299.57 86.0326 299.323 85.8677C299.077 85.7028 298.884 85.4685 298.771 85.1943C298.657 84.9201 298.627 84.6184 298.685 84.3274C298.743 84.0363 298.886 83.769 299.096 83.5591C299.306 83.3493 299.573 83.2064 299.864 83.1485C300.155 83.0906 300.457 83.1203 300.731 83.2338C301.005 83.3474 301.24 83.5397 301.405 83.7865C301.569 84.0332 301.657 84.3233 301.657 84.6201C301.657 85.0181 301.499 85.3997 301.218 85.6811C300.937 85.9625 300.555 86.1206 300.157 86.1206ZM300.157 83.6458C299.963 83.6458 299.773 83.7034 299.612 83.8113C299.451 83.9191 299.326 84.0724 299.252 84.2517C299.178 84.431 299.159 84.6282 299.197 84.8183C299.235 85.0085 299.329 85.183 299.466 85.3197C299.604 85.4565 299.779 85.5494 299.969 85.5866C300.159 85.6238 300.357 85.6037 300.535 85.5287C300.714 85.4538 300.867 85.3274 300.974 85.1657C301.081 85.0039 301.138 84.814 301.136 84.6201C301.136 84.4917 301.111 84.3646 301.062 84.2461C301.013 84.1275 300.94 84.0199 300.849 83.9293C300.758 83.8388 300.65 83.7672 300.531 83.7185C300.413 83.6698 300.285 83.6452 300.157 83.6458Z" fill="#EBEBEB"/>
<path d="M306.565 179.723H306.044V137.637L294.9 117.922V96.7959H295.421V117.782L306.565 137.501V179.723Z" fill="#EBEBEB"/>
<path d="M295.161 97.0564C294.863 97.0574 294.573 96.9701 294.325 96.8057C294.077 96.6412 293.884 96.4069 293.77 96.1325C293.656 95.8581 293.626 95.556 293.684 95.2644C293.741 94.9729 293.884 94.7051 294.094 94.4949C294.305 94.2847 294.572 94.1417 294.864 94.084C295.156 94.0263 295.458 94.0564 295.732 94.1706C296.006 94.2848 296.241 94.478 296.405 94.7255C296.57 94.9731 296.657 95.2639 296.656 95.5611C296.655 95.9572 296.497 96.3368 296.216 96.6169C295.936 96.897 295.557 97.055 295.161 97.0564ZM295.161 94.5816C294.967 94.5806 294.777 94.6372 294.615 94.7441C294.453 94.8511 294.327 95.0038 294.252 95.1826C294.177 95.3615 294.157 95.5586 294.194 95.749C294.231 95.9393 294.324 96.1143 294.461 96.2518C294.598 96.3893 294.772 96.4831 294.962 96.5213C295.153 96.5596 295.35 96.5405 295.529 96.4665C295.708 96.3925 295.862 96.267 295.969 96.1058C296.077 95.9446 296.135 95.755 296.135 95.5611C296.135 95.3022 296.032 95.0539 295.85 94.8703C295.667 94.6868 295.419 94.583 295.161 94.5816Z" fill="#EBEBEB"/>
<path d="M23.6429 179.723H23.1219V145.598L9.19565 126.592V106.533H9.71665V126.42L23.6429 145.431V179.723Z" fill="#EBEBEB"/>
<path d="M9.45609 106.815C9.15888 106.816 8.86806 106.728 8.62051 106.564C8.37296 106.399 8.17984 106.165 8.06562 105.891C7.95141 105.616 7.92126 105.314 7.97899 105.023C8.03672 104.731 8.17973 104.463 8.38989 104.253C8.60005 104.043 8.86788 103.9 9.15943 103.842C9.45098 103.785 9.75311 103.815 10.0275 103.929C10.3019 104.043 10.5362 104.236 10.7006 104.484C10.8651 104.731 10.9524 105.022 10.9513 105.319C10.9513 105.716 10.7938 106.096 10.5134 106.377C10.233 106.657 9.85265 106.815 9.45609 106.815ZM9.45609 104.34C9.26215 104.339 9.07226 104.395 8.9105 104.502C8.74875 104.609 8.62239 104.762 8.54746 104.941C8.47253 105.12 8.45239 105.317 8.48959 105.507C8.52679 105.698 8.61966 105.873 8.75644 106.01C8.89321 106.148 9.06773 106.241 9.25787 106.28C9.44801 106.318 9.64521 106.299 9.82449 106.225C10.0038 106.151 10.1571 106.025 10.2649 105.864C10.3728 105.703 10.4303 105.513 10.4303 105.319C10.4304 105.061 10.3279 104.812 10.1453 104.629C9.96275 104.445 9.71496 104.341 9.45609 104.34Z" fill="#EBEBEB"/>
<path d="M20.0532 179.723H19.5322V147.895L5.60593 128.889V119.558H6.12692V128.717L20.0532 147.729V179.723Z" fill="#EBEBEB"/>
<path d="M5.8769 119.84C5.57991 119.84 5.2896 119.751 5.04274 119.586C4.79588 119.421 4.60356 119.187 4.49015 118.912C4.37674 118.638 4.34733 118.336 4.40565 118.044C4.46397 117.753 4.60739 117.486 4.81776 117.276C5.02813 117.067 5.29597 116.924 5.58738 116.867C5.87878 116.81 6.18064 116.84 6.45472 116.954C6.72881 117.069 6.96279 117.262 7.12703 117.509C7.29128 117.757 7.3784 118.047 7.37737 118.344C7.37599 118.741 7.2173 119.122 6.93606 119.402C6.65481 119.682 6.27395 119.84 5.8769 119.84ZM5.8769 117.365C5.68318 117.365 5.49381 117.422 5.33273 117.53C5.17166 117.638 5.04612 117.79 4.97198 117.969C4.89785 118.148 4.87845 118.345 4.91624 118.535C4.95404 118.725 5.04732 118.9 5.18431 119.037C5.32129 119.174 5.49581 119.267 5.68581 119.305C5.87581 119.343 6.07275 119.323 6.25173 119.249C6.4307 119.175 6.58368 119.05 6.6913 118.888C6.79893 118.727 6.85637 118.538 6.85637 118.344C6.85637 118.085 6.75318 117.835 6.56949 117.652C6.38581 117.468 6.13667 117.365 5.8769 117.365Z" fill="#EBEBEB"/>
<path d="M27.0971 124.284H26.5761V179.723H27.0971V124.284Z" fill="#EBEBEB"/>
<path d="M26.8366 124.544C26.5396 124.544 26.2493 124.456 26.0024 124.291C25.7555 124.126 25.5632 123.891 25.4498 123.617C25.3364 123.342 25.307 123.04 25.3653 122.749C25.4236 122.458 25.5671 122.19 25.7774 121.981C25.9878 121.771 26.2556 121.629 26.547 121.571C26.8384 121.514 27.1403 121.545 27.4144 121.659C27.6885 121.773 27.9224 121.966 28.0867 122.214C28.2509 122.461 28.3381 122.752 28.337 123.049C28.3356 123.446 28.177 123.826 27.8957 124.107C27.6145 124.387 27.2336 124.544 26.8366 124.544ZM26.8366 122.069C26.6428 122.069 26.4535 122.127 26.2924 122.235C26.1313 122.342 26.0058 122.495 25.9316 122.674C25.8575 122.853 25.8381 123.05 25.8759 123.24C25.9137 123.43 26.007 123.605 26.144 123.741C26.2809 123.878 26.4555 123.972 26.6455 124.01C26.8355 124.047 27.0324 124.028 27.2114 123.954C27.3904 123.88 27.5433 123.754 27.651 123.593C27.7586 123.432 27.816 123.243 27.816 123.049C27.816 122.789 27.7128 122.54 27.5292 122.356C27.3455 122.173 27.0963 122.069 26.8366 122.069Z" fill="#EBEBEB"/>
<path d="M30.4263 179.723H29.9053V151.23L29.9313 151.167L39.3562 133.396V101.49H39.8772V133.521L39.8511 133.578L30.4263 151.355V179.723Z" fill="#EBEBEB"/>
<path d="M39.6166 101.75C39.3199 101.75 39.0298 101.662 38.783 101.498C38.5363 101.333 38.3439 101.098 38.2304 100.824C38.1168 100.55 38.0871 100.248 38.145 99.9573C38.2029 99.6662 38.3458 99.3988 38.5556 99.189C38.7655 98.9791 39.0328 98.8362 39.3239 98.7783C39.615 98.7204 39.9167 98.7502 40.1908 98.8637C40.465 98.9773 40.6993 99.1696 40.8642 99.4164C41.0291 99.6631 41.1171 99.9532 41.1171 100.25C41.1171 100.648 40.959 101.03 40.6776 101.311C40.3962 101.592 40.0146 101.75 39.6166 101.75ZM39.6166 99.2757C39.4227 99.2757 39.2331 99.3333 39.0719 99.4412C38.9107 99.549 38.7852 99.7023 38.7112 99.8816C38.6372 100.061 38.6181 100.258 38.6564 100.448C38.6946 100.638 38.7884 100.813 38.9259 100.95C39.0634 101.086 39.2384 101.179 39.4287 101.216C39.6191 101.254 39.8162 101.234 39.9951 101.159C40.174 101.084 40.3266 100.957 40.4336 100.796C40.5406 100.634 40.5971 100.444 40.5961 100.25C40.5961 100.122 40.5707 99.9945 40.5214 99.8759C40.4722 99.7574 40.3999 99.6498 40.3089 99.5592C40.2179 99.4687 40.1099 99.397 39.9911 99.3484C39.8723 99.2997 39.745 99.275 39.6166 99.2757Z" fill="#EBEBEB"/>
<path d="M33.7346 179.723H33.2136V153.131L33.2449 153.069L44.3578 133.412V112.426H44.8788V133.552L44.8423 133.61L33.7346 153.267V179.723Z" fill="#EBEBEB"/>
<path d="M44.6182 112.686C44.321 112.687 44.0302 112.6 43.7826 112.436C43.5351 112.271 43.3419 112.037 43.2277 111.762C43.1135 111.488 43.0834 111.186 43.1411 110.894C43.1988 110.603 43.3418 110.335 43.552 110.125C43.7622 109.915 44.03 109.772 44.3215 109.714C44.6131 109.656 44.9152 109.686 45.1896 109.801C45.464 109.915 45.6983 110.108 45.8627 110.355C46.0272 110.603 46.1145 110.894 46.1135 111.191C46.1121 111.587 45.9541 111.967 45.674 112.247C45.3939 112.527 45.0143 112.685 44.6182 112.686ZM44.6182 110.211C44.4243 110.21 44.2344 110.267 44.0726 110.374C43.9109 110.481 43.7845 110.634 43.7096 110.813C43.6346 110.991 43.6145 111.189 43.6517 111.379C43.6889 111.569 43.7818 111.744 43.9185 111.882C44.0553 112.019 44.2298 112.113 44.42 112.151C44.6101 112.189 44.8073 112.17 44.9866 112.096C45.1659 112.022 45.3192 111.897 45.427 111.736C45.5349 111.574 45.5925 111.385 45.5925 111.191C45.5925 110.932 45.49 110.684 45.3074 110.5C45.1249 110.317 44.8771 110.213 44.6182 110.211Z" fill="#EBEBEB"/>
<path d="M330.979 50.7971L334.626 44.9359L332.834 43.8261C332.573 43.6639 332.363 43.431 332.228 43.1544C332.093 42.8779 332.04 42.5689 332.073 42.2631C332.101 41.9158 332.112 41.5685 332.105 41.2211C332.095 40.9187 332.17 40.6197 332.321 40.3575C332.472 40.0953 332.693 39.8802 332.959 39.7363L334.819 38.736L331.5 32.6924L329.64 33.6927C329.372 33.8338 329.07 33.8978 328.767 33.8776C328.464 33.8574 328.173 33.7537 327.926 33.5781C327.645 33.3853 327.353 33.203 327.051 33.0571C326.783 32.9146 326.56 32.7002 326.407 32.4378C326.254 32.1755 326.178 31.8757 326.186 31.5723L326.254 29.457L319.361 29.2434L319.293 31.3639C319.282 31.6673 319.186 31.9616 319.017 32.2137C318.847 32.4659 318.611 32.6659 318.335 32.7914C318.178 32.8643 318.027 32.9373 317.881 33.0206C317.735 33.104 317.584 33.1821 317.438 33.2707C317.181 33.4293 316.884 33.5132 316.581 33.5132C316.279 33.5132 315.982 33.4293 315.724 33.2707L313.917 32.1506L310.27 38.0118L312.067 39.1319C312.329 39.2938 312.539 39.5265 312.674 39.8032C312.808 40.0799 312.862 40.3891 312.828 40.6949C312.798 41.0414 312.788 41.3893 312.796 41.7369C312.804 42.0404 312.728 42.3402 312.577 42.6032C312.425 42.8661 312.204 43.082 311.937 43.227L310.108 44.1544L313.37 50.2344L315.229 49.2393C315.497 49.0974 315.799 49.0325 316.102 49.0519C316.405 49.0712 316.696 49.1739 316.944 49.3487C317.226 49.538 317.518 49.712 317.819 49.8697C318.087 50.0122 318.31 50.2266 318.463 50.489C318.615 50.7513 318.692 51.0511 318.684 51.3545L318.621 53.4698L325.514 53.6834L325.582 51.5681C325.593 51.2653 325.689 50.9716 325.858 50.7203C326.028 50.4689 326.264 50.27 326.54 50.1458L326.994 49.9166L327.436 49.6613C327.695 49.5029 327.993 49.419 328.296 49.419C328.599 49.419 328.897 49.5029 329.156 49.6613L330.979 50.7971ZM325.144 46.4467C324.159 46.9746 323.039 47.1984 321.926 47.0898C320.813 46.9812 319.758 46.5452 318.893 45.8368C318.028 45.1284 317.393 44.1794 317.067 43.1099C316.742 42.0404 316.74 40.8984 317.064 39.8282C317.387 38.7581 318.021 37.8079 318.884 37.0978C319.748 36.3876 320.802 35.9495 321.915 35.8387C323.027 35.7279 324.148 35.9495 325.134 36.4754C326.121 37.0013 326.929 37.8079 327.457 38.7933C327.807 39.4492 328.024 40.1677 328.096 40.9076C328.167 41.6476 328.092 42.3943 327.875 43.1052C327.658 43.8161 327.302 44.4772 326.829 45.0506C326.356 45.624 325.775 46.0984 325.118 46.4467H325.144Z" fill="#EBEBEB"/>
<path d="M13.7856 102.902L17.9536 100.484L17.2138 99.2028C17.1078 99.0183 17.0556 98.8078 17.0629 98.5951C17.0703 98.3824 17.137 98.1761 17.2555 97.9993C17.3875 97.7979 17.5073 97.5894 17.615 97.3741C17.7116 97.1811 17.8606 97.0193 18.0448 96.9069C18.229 96.7945 18.4412 96.7361 18.6569 96.7385H20.1366V91.9036H18.6569C18.4412 91.906 18.229 91.8476 18.0448 91.7352C17.8606 91.6229 17.7116 91.461 17.615 91.268C17.5073 91.0527 17.3875 90.8443 17.2555 90.6428C17.137 90.4661 17.0703 90.2597 17.0629 90.047C17.0556 89.8343 17.1078 89.6238 17.2138 89.4393L17.9536 88.1577L13.7856 85.7402L13.0458 87.0271C12.9411 87.208 12.7883 87.3564 12.6044 87.4558C12.4204 87.5551 12.2125 87.6015 12.0038 87.5898H11.2692C11.0612 87.6008 10.8541 87.5547 10.6704 87.4565C10.4867 87.3582 10.3335 87.2115 10.2272 87.0323L9.48219 85.7402L5.31421 88.1577L6.05403 89.4445C6.16 89.6291 6.21225 89.8396 6.20489 90.0522C6.19752 90.2649 6.13083 90.4713 6.01234 90.648C5.88141 90.8481 5.76141 91.055 5.65286 91.268C5.55619 91.461 5.40725 91.6229 5.22301 91.7352C5.03877 91.8476 4.82666 91.906 4.61086 91.9036H3.1156V96.7385H4.59523C4.81103 96.7361 5.02314 96.7945 5.20738 96.9069C5.39162 97.0193 5.54057 97.1811 5.63723 97.3741C5.74578 97.5871 5.86578 97.7941 5.99672 97.9941C6.11509 98.1719 6.18168 98.3791 6.18904 98.5925C6.1964 98.806 6.14424 99.0173 6.0384 99.2028L5.29858 100.484L9.46656 102.902L10.2116 101.615C10.3176 101.435 10.4707 101.288 10.6543 101.189C10.8379 101.09 11.0451 101.042 11.2536 101.052C11.3682 101.052 11.488 101.052 11.6079 101.052C11.7277 101.052 11.8475 101.052 11.9673 101.052C12.1757 101.043 12.3827 101.09 12.5662 101.189C12.7497 101.289 12.9029 101.436 13.0093 101.615L13.7856 102.902ZM11.6079 98.2806C10.8249 98.2796 10.0599 98.0465 9.40945 97.6108C8.75899 97.1751 8.25229 96.5563 7.9534 95.8327C7.65451 95.1091 7.57684 94.3131 7.7302 93.5454C7.88357 92.7777 8.2611 92.0726 8.81506 91.5194C9.36903 90.9661 10.0746 90.5895 10.8425 90.4372C11.6104 90.2848 12.4063 90.3635 13.1295 90.6634C13.8527 90.9632 14.4708 91.4707 14.9057 92.1218C15.3405 92.7728 15.5726 93.5381 15.5726 94.3211C15.5733 94.8417 15.4712 95.3573 15.2721 95.8383C15.0731 96.3194 14.781 96.7564 14.4126 97.1243C14.0442 97.4922 13.6068 97.7837 13.1255 97.9821C12.6442 98.1806 12.1285 98.282 11.6079 98.2806Z" fill="#EBEBEB"/>
<path d="M309.66 55.0379L307.248 50.8699L305.971 51.5941C305.786 51.6999 305.575 51.7521 305.361 51.7447C305.148 51.7373 304.94 51.6708 304.763 51.5524C304.561 51.4203 304.353 51.3003 304.137 51.1929C303.944 51.0962 303.783 50.9473 303.67 50.763C303.558 50.5788 303.499 50.3667 303.502 50.1509V48.6713H298.677V50.1509C298.68 50.3667 298.621 50.5788 298.509 50.763C298.397 50.9473 298.235 51.0962 298.042 51.1929C297.825 51.3014 297.615 51.4214 297.411 51.5524C297.235 51.6709 297.028 51.7376 296.816 51.7449C296.603 51.7523 296.392 51.7 296.208 51.5941L294.926 50.8542L292.514 55.0222L293.801 55.762C293.983 55.8714 294.133 56.0289 294.232 56.2172C294.331 56.4056 294.377 56.6176 294.363 56.8301C294.363 56.9499 294.363 57.0697 294.363 57.1844C294.363 57.299 294.363 57.424 294.363 57.5438C294.374 57.7524 294.327 57.9598 294.228 58.1436C294.129 58.3273 293.981 58.4803 293.801 58.5858L292.514 59.3309L294.926 63.4989L296.213 62.759C296.398 62.6531 296.608 62.6008 296.821 62.6082C297.033 62.6155 297.24 62.6822 297.417 62.8007C297.621 62.9327 297.83 63.0525 298.042 63.1602C298.235 63.2569 298.397 63.4058 298.509 63.59C298.621 63.7743 298.68 63.9864 298.677 64.2022V65.6818H303.507V64.2022C303.505 63.9864 303.563 63.7743 303.675 63.59C303.788 63.4058 303.95 63.2569 304.143 63.1602C304.358 63.0491 304.566 62.9292 304.768 62.8007C304.945 62.6822 305.151 62.6155 305.364 62.6082C305.576 62.6008 305.787 62.6531 305.971 62.759L307.258 63.4989L309.67 59.3309L308.384 58.5911C308.205 58.4844 308.058 58.331 307.96 58.1474C307.862 57.9639 307.816 57.757 307.826 57.5491C307.826 57.4292 307.826 57.3094 307.826 57.1896C307.826 57.0697 307.826 56.9551 307.826 56.8353C307.812 56.6227 307.858 56.4105 307.957 56.222C308.056 56.0336 308.206 55.8762 308.389 55.7672L309.66 55.0379ZM305.039 57.1792C305.039 57.9625 304.806 58.7283 304.371 59.3795C303.936 60.0308 303.317 60.5383 302.593 60.8378C301.869 61.1374 301.073 61.2155 300.305 61.0623C299.537 60.9091 298.831 60.5314 298.277 59.9772C297.724 59.4229 297.347 58.7169 297.195 57.9484C297.043 57.18 297.122 56.3837 297.422 55.6603C297.723 54.9368 298.231 54.3188 298.883 53.8843C299.535 53.4499 300.301 53.2185 301.084 53.2196C301.604 53.2196 302.119 53.322 302.599 53.5211C303.079 53.7201 303.515 54.0119 303.882 54.3796C304.25 54.7474 304.541 55.1839 304.739 55.6643C304.938 56.1446 305.039 56.6594 305.039 57.1792Z" fill="#EBEBEB"/>
<path d="M24.8933 140.054C21.5641 133.214 15.7394 129.702 9.1748 131.645C2.61024 133.589 1.59429 142.737 6.49167 145.051C11.389 147.364 16.2968 140.612 18.9018 139.226C21.5068 137.84 24.8933 140.054 24.8933 140.054Z" fill="#FF7250"/>
<path d="M28.1131 158.253C28.1131 157.429 28.0662 156.601 28.0349 155.778C27.9793 154.132 27.9203 152.485 27.8578 150.839C27.7588 147.833 27.4253 144.884 26.1958 142.102C25.0943 139.585 23.2537 137.463 20.9181 136.016C20.0467 135.484 19.1049 135.078 18.1203 134.808C17.2368 133.911 16.1105 133.291 14.8797 133.026C13.3597 132.717 11.7972 132.678 10.2637 132.911C10.2545 132.914 10.2465 132.92 10.2409 132.928C10.2352 132.936 10.2322 132.946 10.2322 132.956C10.2322 132.965 10.2352 132.975 10.2409 132.983C10.2465 132.991 10.2545 132.997 10.2637 133C11.7249 132.81 13.2095 132.914 14.6296 133.307C15.2385 133.476 15.8285 133.706 16.3906 133.995C16.7536 134.184 17.1019 134.4 17.4326 134.641C15.624 134.241 13.7356 134.414 12.0299 135.136C11.6706 135.058 11.303 135.027 10.9358 135.042C10.4556 135.058 9.97867 135.126 9.51345 135.245C8.56377 135.514 7.65562 135.912 6.81468 136.428C6.76779 136.454 6.81468 136.527 6.86157 136.501C7.68831 136.049 8.57377 135.714 9.49261 135.506C9.93862 135.406 10.3914 135.34 10.8472 135.308C11.1009 135.302 11.3548 135.309 11.6079 135.329C9.73909 136.194 8.23678 137.693 7.36694 139.559C7.36694 139.611 7.41904 139.653 7.43988 139.601C7.9578 138.519 8.71293 137.567 9.64917 136.816C10.5854 136.066 11.6787 135.536 12.8478 135.266C12.9937 135.23 13.1396 135.209 13.2907 135.183C13.2376 135.403 13.1976 135.625 13.1708 135.85C13.1292 136.183 13.0719 136.511 13.0041 136.84C12.8721 137.518 12.6981 138.188 12.4831 138.845C12.2598 139.508 11.9935 140.156 11.686 140.784C11.392 141.451 11.0194 142.08 10.5763 142.659C10.5346 142.706 10.6128 142.763 10.644 142.711C11.04 142.091 11.4984 141.523 11.8579 140.883C12.2075 140.271 12.5088 139.634 12.7593 138.976C13.0106 138.311 13.2057 137.626 13.3428 136.928C13.4157 136.558 13.473 136.188 13.5147 135.813C13.5597 135.59 13.5737 135.363 13.5564 135.136C14.3288 135.017 15.1135 135 15.8905 135.084C15.5987 136.72 15.2861 138.418 14.3691 139.835C14.3379 139.882 14.4212 139.929 14.4473 139.877C14.8744 139.125 15.2504 138.345 15.5726 137.543C15.8762 136.765 16.0657 135.947 16.1353 135.115C17.4913 135.295 18.8002 135.734 19.9907 136.407C22.2327 137.711 24.0231 139.669 25.1225 142.018C26.2772 144.549 26.9233 147.282 27.0242 150.063C27.243 153.564 27.2899 157.08 27.6389 160.566C27.6389 160.795 28.0193 160.873 28.0662 160.613C28.1562 159.829 28.1719 159.039 28.1131 158.253Z" fill="#263238"/>
<path d="M20.4232 135.475C20.2018 135.209 19.946 134.974 19.6625 134.776C19.3916 134.552 19.1103 134.334 18.8185 134.136C18.2431 133.734 17.6036 133.432 16.9273 133.245C16.8752 133.245 16.8543 133.318 16.9273 133.328C17.6033 133.513 18.2321 133.84 18.7716 134.287C19.0529 134.49 19.2926 134.709 19.5792 134.938C19.8098 135.181 20.0666 135.398 20.345 135.584C20.3595 135.594 20.3776 135.599 20.3951 135.596C20.4127 135.593 20.4284 135.583 20.4388 135.568C20.4492 135.554 20.4533 135.536 20.4504 135.518C20.4475 135.501 20.4377 135.485 20.4232 135.475Z" fill="#263238"/>
<path d="M9.79999 137.934C9.24844 138.574 8.73856 139.249 8.27347 139.955C7.81587 140.663 7.43512 141.417 7.1377 142.206C7.1377 142.232 7.1377 142.242 7.17416 142.206C7.93545 140.716 8.83555 139.301 9.86251 137.981C9.89898 137.975 9.83125 137.934 9.79999 137.934Z" fill="#263238"/>
<path d="M16.9585 137.277C16.8884 137.705 16.7623 138.122 16.5833 138.517C16.4 138.898 16.1875 139.264 15.9477 139.611C15.9477 139.611 15.9477 139.658 15.9894 139.643C16.5605 138.981 16.923 138.165 17.0314 137.298C17.0522 137.246 16.9689 137.225 16.9585 137.277Z" fill="#263238"/>
<path d="M27.6494 140.226C27.6494 140.226 32.3384 134.302 41.461 136.402C50.1044 138.397 54.0952 154.251 45.3581 156.148C36.621 158.044 38.1631 143.373 34.9798 140.883C32.6405 139.059 29.2801 139.45 27.6494 140.226Z" fill="#FF7250"/>
<path d="M48.484 145.061C47.8926 144.539 47.2659 144.059 46.6084 143.623C45.9934 143.199 45.3216 142.864 44.613 142.628C44.2588 142.088 43.8616 141.577 43.4251 141.101C42.6249 140.238 41.6993 139.501 40.6795 138.913H40.9504C41.4311 138.887 41.9129 138.887 42.3936 138.913C43.3641 138.974 44.3156 139.211 45.2017 139.611C45.2538 139.611 45.2903 139.554 45.2382 139.533C44.339 139.146 43.3986 138.863 42.4352 138.689C41.9657 138.606 41.4898 138.564 41.0129 138.564C40.7576 138.564 40.4919 138.564 40.2523 138.611H40.1064C39.2773 138.192 38.4034 137.869 37.5014 137.647L37.7567 137.579C38.2023 137.481 38.6527 137.406 39.1061 137.355C40.0114 137.26 40.9252 137.279 41.8257 137.413C41.883 137.413 41.8986 137.335 41.8257 137.329C40.9131 137.22 39.9932 137.183 39.0748 137.22C38.3042 137.239 37.5376 137.339 36.7876 137.517C36.2402 137.416 35.6868 137.352 35.1309 137.324C31.958 137.194 28.4986 138.366 26.5448 140.971C24.5911 143.576 24.2108 147.062 23.8669 150.214C23.3341 154.599 23.2172 159.024 23.5178 163.431C23.5178 163.692 23.9034 163.645 23.9138 163.4C24.0336 159.659 24.1639 155.924 24.5234 152.199C24.6849 150.469 24.8724 148.739 25.159 147.03C25.3672 145.56 25.7884 144.128 26.4094 142.779C27.0833 141.397 28.1534 140.247 29.4833 139.476C30.8154 138.715 32.2991 138.258 33.8284 138.137C35.202 138.024 36.5847 138.155 37.913 138.522C37.8716 138.788 37.8716 139.059 37.913 139.325C37.9447 139.662 38.0111 139.996 38.111 140.32C38.2118 140.624 38.339 140.919 38.4913 141.2C38.6632 141.513 38.8716 141.794 39.0644 142.091C39.0644 142.138 39.1686 142.091 39.1321 142.039C38.7588 141.506 38.5177 140.892 38.4288 140.247C38.3712 139.941 38.3346 139.631 38.3194 139.32C38.3194 139.085 38.3194 138.851 38.3194 138.616C39.7632 139.056 41.1116 139.763 42.2946 140.7C42.5134 140.877 42.727 141.065 42.9354 141.258C42.6345 141.533 42.3748 141.851 42.1643 142.201C41.8329 142.661 41.5451 143.151 41.3047 143.665C40.8835 144.677 40.5997 145.74 40.4607 146.827C40.4639 146.836 40.4699 146.844 40.4778 146.85C40.4857 146.856 40.4952 146.859 40.505 146.859C40.5147 146.859 40.5242 146.856 40.5321 146.85C40.5401 146.844 40.546 146.836 40.5492 146.827C40.7201 145.776 41.0727 144.762 41.5912 143.831C41.833 143.371 42.1027 142.925 42.3988 142.498C42.5551 142.279 42.7114 142.06 42.8781 141.852C42.9667 141.742 43.0657 141.628 43.149 141.503C44.2188 142.555 45.0921 143.79 45.728 145.15C45.2963 145.603 44.9361 146.119 44.6599 146.681C44.3328 147.268 44.049 147.877 43.8107 148.505C43.3691 149.715 43.0054 150.952 42.7218 152.209C42.725 152.218 42.731 152.226 42.7389 152.232C42.7469 152.238 42.7563 152.241 42.7661 152.241C42.7758 152.241 42.7853 152.238 42.7933 152.232C42.8012 152.226 42.8072 152.218 42.8104 152.209C43.0882 150.945 43.5204 149.72 44.0972 148.562C44.3682 147.994 44.6599 147.432 44.9621 146.879C45.2754 146.365 45.5607 145.835 45.8165 145.29C46.4235 146.616 46.7769 148.044 46.8585 149.5C46.8585 149.557 46.9471 149.552 46.9471 149.5C46.7792 147.215 46.0798 145.001 44.9048 143.034C45.457 143.269 46.0145 143.498 46.5511 143.785C47.2336 144.148 47.8688 144.594 48.4423 145.113C48.4684 145.165 48.5257 145.097 48.484 145.061Z" fill="#263238"/>
<path d="M47.5567 143.17C47.1984 142.824 46.7911 142.532 46.3479 142.305C45.8987 142.103 45.4334 141.939 44.9569 141.815C44.9048 141.815 44.8839 141.888 44.9569 141.899C45.4257 142.022 45.876 142.208 46.2958 142.451C46.7275 142.673 47.142 142.927 47.5358 143.211C47.5567 143.232 47.6035 143.191 47.5567 143.17Z" fill="#263238"/>
<path d="M32.1299 132.312C32.1299 132.312 33 121.673 40.9088 118.245C47.515 115.364 51.2974 122.788 46.6397 127.332C42.8677 130.989 36.7929 129.327 32.1299 132.312Z" fill="#FF7250"/>
<path d="M45.1653 120.282C43.9616 120.769 42.7873 121.326 41.6485 121.95C40.6994 122.495 39.7858 123.101 38.9133 123.763C39.0435 123.497 39.1582 123.21 39.2936 122.95C39.4972 122.538 39.7215 122.136 39.9657 121.746C40.4505 120.941 41.0352 120.201 41.7058 119.543C41.7475 119.501 41.7058 119.444 41.6433 119.48C40.9768 120.143 40.3636 120.857 39.8094 121.616C39.5356 122.002 39.2851 122.404 39.0592 122.82C38.8276 123.201 38.6521 123.613 38.5382 124.044C38.5069 124.07 38.4756 124.086 38.4496 124.112C37.0688 125.212 35.8033 126.45 34.6724 127.806C34.6724 127.701 34.7141 127.597 34.7401 127.503C34.8912 126.982 35.0527 126.461 35.2194 125.94C35.5578 124.84 36.0395 123.789 36.6522 122.814C36.6834 122.768 36.6053 122.726 36.574 122.773C35.9518 123.742 35.3982 124.753 34.9172 125.8C34.7079 126.308 34.5338 126.83 34.3962 127.363C34.2838 127.712 34.1984 128.069 34.141 128.431C33.7971 128.868 33.4584 129.311 33.1354 129.765C29.7437 134.599 28.0349 140.445 27.6285 146.296C27.5078 148.042 27.4782 149.793 27.5399 151.542C27.5508 153.304 27.7059 155.062 28.0036 156.799C28.0036 156.908 28.1964 156.877 28.1964 156.768C28.1547 155.231 27.9984 153.699 27.9671 152.162C27.9359 150.625 27.9671 149.078 28.113 147.541C28.3627 144.469 28.9426 141.433 29.8427 138.486C30.7622 135.469 32.1172 132.603 33.8648 129.978C34.1983 129.91 34.5265 129.822 34.8547 129.733C35.1829 129.645 35.6466 129.53 36.0374 129.421C36.7978 129.228 37.5364 128.957 38.2412 128.613C38.246 128.61 38.2502 128.607 38.2536 128.602C38.257 128.598 38.2594 128.593 38.2609 128.588C38.2623 128.582 38.2627 128.577 38.262 128.571C38.2613 128.566 38.2596 128.561 38.2568 128.556C38.2541 128.551 38.2504 128.547 38.2461 128.543C38.2417 128.54 38.2367 128.538 38.2314 128.536C38.2261 128.535 38.2205 128.534 38.2151 128.535C38.2096 128.536 38.2043 128.537 38.1995 128.54C37.5002 128.919 36.7433 129.179 35.9592 129.311C35.3445 129.436 34.6984 129.514 34.0784 129.655C34.6515 128.821 35.2611 128.014 35.9176 127.238C37.4262 127.375 38.9471 127.262 40.419 126.904C41.2012 126.714 41.9704 126.474 42.7218 126.185C43.5137 125.883 44.2848 125.487 45.0454 125.143C45.1079 125.117 45.0454 125.029 45.0142 125.06C43.5973 125.834 42.0503 126.34 40.4502 126.555C39.0387 126.779 37.6124 126.898 36.1833 126.909C36.7459 126.263 37.3242 125.633 37.9442 125.044C40.0282 123.064 42.4873 121.246 45.2382 120.298C45.2434 120.35 45.2174 120.262 45.1653 120.282Z" fill="#263238"/>
<path d="M38.7258 120.319C38.3692 120.767 38.0454 121.241 37.7568 121.736C37.4624 122.258 37.2282 122.812 37.0586 123.387H37.0899C37.3556 122.866 37.5796 122.345 37.8453 121.824C38.108 121.313 38.4241 120.831 38.7883 120.387C38.8248 120.334 38.7623 120.272 38.7258 120.319Z" fill="#263238"/>
<path d="M25.9769 130.4C25.93 130.859 24.7838 126.534 18.0942 122.7C12.0194 119.214 4.76711 110.144 10.7221 104.418C15.5309 99.7967 28.1964 109.873 25.9769 130.4Z" fill="#FF7250"/>
<path d="M30.5826 155.184C30.4906 150.684 30.1427 146.192 29.5406 141.732C29.0132 137.634 28.0669 133.601 26.7168 129.697C26.1958 128.29 25.6748 126.904 25.034 125.529C25.0758 124.998 25.0758 124.465 25.034 123.935C24.9975 123.252 24.935 122.575 24.8724 121.897C24.8099 121.22 24.7422 120.538 24.664 119.86C24.5859 119.183 24.4348 118.506 24.4088 117.828C24.4088 117.771 24.3098 117.782 24.3254 117.828C24.4575 118.539 24.5376 119.258 24.5651 119.98C24.6172 120.637 24.6536 121.293 24.6745 121.955C24.6953 122.616 24.6745 123.268 24.6745 123.929C24.6745 124.164 24.6745 124.419 24.6745 124.669C24.0441 123.341 23.372 122.033 22.6426 120.756C23.0958 117.985 22.5071 115.088 21.9392 112.374C21.9392 112.322 21.8455 112.348 21.8559 112.4C22.1337 113.816 22.2819 115.255 22.2987 116.698C22.2987 117.839 22.2675 118.975 22.2675 120.116C22.106 119.84 21.9444 119.569 21.7777 119.298C20.9129 117.881 19.9872 116.491 19.0008 115.13C19.0817 114.472 19.0606 113.806 18.9383 113.155C18.8269 112.426 18.665 111.705 18.4538 110.998C18.2422 110.292 17.9952 109.596 17.7139 108.914C17.4222 108.211 17.0366 107.544 16.7553 106.83C16.7553 106.773 16.6459 106.83 16.6772 106.867C17.0338 107.528 17.3152 108.227 17.516 108.951C17.7368 109.635 17.9195 110.33 18.063 111.035C18.2037 111.743 18.3183 112.447 18.4173 113.16C18.485 113.629 18.5267 114.119 18.6049 114.593C17.1725 112.668 15.6055 110.847 13.9159 109.143C13.8794 109.102 13.8221 109.143 13.8586 109.206C16.3977 112.072 18.6651 115.168 20.6315 118.454C20.7045 118.579 20.7774 118.704 20.8451 118.829C20.4804 118.6 20.0584 118.412 19.7094 118.219C19.0633 117.86 18.4121 117.505 17.7608 117.177L15.8644 116.135C15.5414 115.953 15.2184 115.765 14.8901 115.614C14.4884 115.445 14.1015 115.243 13.7335 115.01C13.6866 114.973 13.6293 115.052 13.6814 115.083C14.3275 115.437 14.8954 115.963 15.5205 116.359C16.1457 116.755 16.7814 117.141 17.4274 117.5C18.6153 118.167 19.9073 118.641 21.0744 119.329C21.8871 120.751 22.6374 122.21 23.3251 123.695C22.6165 123.236 21.8871 122.809 21.1525 122.392C20.6784 122.127 20.2043 121.871 19.725 121.616C19.2472 121.394 18.7962 121.117 18.3808 120.793C18.3391 120.756 18.2818 120.793 18.3183 120.855C19.0981 121.558 19.9627 122.16 20.892 122.648C21.7517 123.169 22.6165 123.632 23.497 124.07C24.2125 125.636 24.8568 127.232 25.4299 128.858C28.2485 136.829 29.2801 145.29 29.775 153.699C29.9261 156.205 29.9991 158.706 30.0303 161.217C30.0616 163.728 29.9313 166.229 29.9365 168.73C29.9365 168.808 30.0564 168.824 30.0668 168.73C30.369 166.51 30.4211 164.249 30.5201 162.009C30.6191 159.769 30.6347 157.461 30.5826 155.184Z" fill="#263238"/>
<path d="M18.4277 119.094C17.2074 118.553 16.0209 117.939 14.8745 117.255C13.7124 116.601 12.5855 115.886 11.4984 115.114C11.4984 115.114 11.462 115.114 11.4984 115.145C12.5244 115.973 13.6053 116.73 14.7338 117.412C15.911 118.077 17.1291 118.667 18.3808 119.178C18.4381 119.178 18.4798 119.115 18.4277 119.094Z" fill="#263238"/>
<path d="M20.3658 110.081C20.2668 109.69 20.147 109.31 20.0167 108.93C20.0204 108.923 20.0223 108.916 20.0223 108.909C20.0223 108.902 20.0204 108.894 20.0167 108.888C19.9334 108.669 19.8448 108.456 19.7562 108.242L19.725 108.164C19.725 108.122 19.6885 108.086 19.6729 108.044C19.6573 108.002 19.6468 108.044 19.6729 108.044C19.6989 108.044 19.7146 108.19 19.7406 108.268C19.7486 108.309 19.7591 108.349 19.7719 108.388C20.2134 109.874 20.5443 111.391 20.7618 112.926C20.7618 112.973 20.8399 112.973 20.8399 112.926C20.7729 111.965 20.6142 111.012 20.3658 110.081Z" fill="#263238"/>
<path d="M37.6525 156.799L37.1732 162.457L35.7144 179.713H20.0584L18.5996 162.457L18.1203 156.799H37.6525Z" fill="#37474F"/>
<path d="M37.6525 156.799L37.1732 162.457H18.5996L18.1203 156.799H37.6525Z" fill="#263238"/>
<path d="M39.1895 154.533H16.5887V159.961H39.1895V154.533Z" fill="#37474F"/>
<path d="M0 179.713L42.2373 179.587L84.4745 179.541L168.949 179.452L253.424 179.541L295.661 179.587L337.898 179.713L295.661 179.843L253.424 179.884L168.949 179.973L84.4745 179.884L42.2373 179.838L0 179.713Z" fill="#263238"/>
<path d="M291.357 28.045H45.6602V192.399H291.357V28.045Z" fill="#EBEBEB"/>
<path d="M289.57 30.0508H47.4472V190.393H289.57V30.0508Z" fill="#263238"/>
<path d="M323.357 204.72H13.6606V216H323.357V204.72Z" fill="#DBDBDB"/>
<path d="M13.6606 204.72L45.6654 192.399H291.357L323.362 204.72H13.6606Z" fill="#EBEBEB"/>
<path d="M48.5204 200.349L69.1728 192.399H267.85L288.502 200.349H48.5204Z" fill="#263238"/>
<path d="M275.894 42.2317H61.1338V178.212H275.894V42.2317Z" fill="white"/>
<path d="M275.894 42.2317H60.9514V47.4625H275.894V42.2317Z" fill="#455A64"/>
<path d="M65.109 44.8472C65.109 45.1038 65.0329 45.3546 64.8904 45.5679C64.7478 45.7813 64.5452 45.9476 64.3082 46.0457C64.0711 46.1439 63.8103 46.1696 63.5586 46.1196C63.307 46.0695 63.0758 45.946 62.8944 45.7645C62.713 45.5831 62.5894 45.3519 62.5394 45.1003C62.4893 44.8487 62.515 44.5878 62.6132 44.3508C62.7114 44.1137 62.8777 43.9111 63.091 43.7686C63.3043 43.626 63.5551 43.5499 63.8117 43.5499C64.1558 43.5499 64.4857 43.6866 64.729 43.9299C64.9723 44.1732 65.109 44.5032 65.109 44.8472Z" fill="#C7C7C7"/>
<path d="M70.4076 44.8472C70.4076 45.1038 70.3315 45.3546 70.1889 45.568C70.0464 45.7813 69.8438 45.9476 69.6067 46.0458C69.3697 46.1439 69.1088 46.1696 68.8572 46.1196C68.6055 46.0695 68.3744 45.946 68.193 45.7645C68.0115 45.5831 67.888 45.352 67.8379 45.1003C67.7879 44.8487 67.8135 44.5878 67.9117 44.3508C68.0099 44.1137 68.1762 43.9111 68.3895 43.7686C68.6029 43.626 68.8537 43.5499 69.1103 43.5499C69.2808 43.5492 69.4498 43.5823 69.6075 43.6473C69.7652 43.7122 69.9085 43.8078 70.0291 43.9284C70.1497 44.049 70.2453 44.1923 70.3102 44.35C70.3752 44.5077 70.4082 44.6767 70.4076 44.8472Z" fill="white"/>
<path d="M75.6905 44.8472C75.6905 45.1038 75.6144 45.3546 75.4719 45.568C75.3293 45.7813 75.1267 45.9476 74.8897 46.0458C74.6526 46.1439 74.3918 46.1696 74.1401 46.1196C73.8885 46.0695 73.6573 45.946 73.4759 45.7645C73.2945 45.5831 73.1709 45.352 73.1209 45.1003C73.0708 44.8487 73.0965 44.5878 73.1947 44.3508C73.2929 44.1137 73.4592 43.9111 73.6725 43.7686C73.8858 43.626 74.1367 43.5499 74.3932 43.5499C74.5638 43.5492 74.7328 43.5823 74.8905 43.6473C75.0482 43.7122 75.1915 43.8078 75.3121 43.9284C75.4327 44.049 75.5282 44.1923 75.5932 44.35C75.6581 44.5077 75.6912 44.6767 75.6905 44.8472Z" fill="#FF7250"/>
<path d="M275.894 47.4625H272.08V178.207H275.894V47.4625Z" fill="#DBDBDB"/>
<path d="M273.982 92.7893C273.721 92.7893 273.47 92.6856 273.286 92.5009C273.101 92.3162 272.997 92.0658 272.997 91.8046V49.2131C272.997 48.9519 273.101 48.7015 273.286 48.5168C273.47 48.3321 273.721 48.2284 273.982 48.2284C274.243 48.2284 274.494 48.3321 274.678 48.5168C274.863 48.7015 274.967 48.9519 274.967 49.2131V91.8046C274.967 92.0658 274.863 92.3162 274.678 92.5009C274.494 92.6856 274.243 92.7893 273.982 92.7893Z" fill="#A6A6A6"/>
<path d="M245.838 81.3743H92.0603V104.684H245.838V81.3743Z" fill="white"/>
<path d="M246.098 104.939H91.7997V81.1138H246.098V104.939ZM92.3207 104.418H245.577V81.6348H92.3207V104.418Z" fill="#DBDBDB"/>
<path d="M105.637 87.6888C105.937 88.5533 106.141 89.4477 106.247 90.3563C106.473 92.1293 106.473 93.9237 106.247 95.6966C106.139 96.6053 105.933 97.4996 105.632 98.3641C105.33 97.5003 105.123 96.6057 105.017 95.6966C104.795 93.9234 104.795 92.1295 105.017 90.3563C105.13 89.4478 105.337 88.5537 105.637 87.6888Z" fill="#37474F"/>
<path d="M110.972 93.0238C110.109 93.3312 109.215 93.5409 108.305 93.649C107.42 93.7616 106.529 93.8173 105.637 93.8157C104.746 93.8201 103.854 93.7644 102.97 93.649C102.059 93.5437 101.163 93.3375 100.297 93.0342C101.164 92.7358 102.06 92.5297 102.97 92.4194C103.855 92.3067 104.746 92.251 105.637 92.2527C106.529 92.2555 107.42 92.3129 108.305 92.4246C109.213 92.5267 110.108 92.7276 110.972 93.0238Z" fill="#37474F"/>
<path d="M109.409 89.2518C109.01 90.0746 108.522 90.8519 107.956 91.5703C107.412 92.2769 106.822 92.947 106.19 93.5761C105.56 94.2088 104.89 94.8004 104.184 95.3475C103.464 95.914 102.685 96.4013 101.86 96.8011C102.26 95.9766 102.747 95.1976 103.314 94.4774C103.861 93.7717 104.453 93.1017 105.085 92.4716C105.717 91.842 106.387 91.2522 107.091 90.7054C107.81 90.1401 108.587 89.6528 109.409 89.2518Z" fill="#37474F"/>
<path d="M109.409 96.8011C108.587 96.4001 107.81 95.9129 107.091 95.3475C106.385 94.8005 105.715 94.2088 105.085 93.5762C104.447 92.946 103.852 92.2742 103.303 91.5651C102.737 90.8449 102.25 90.0659 101.85 89.2415C102.675 89.6394 103.454 90.1268 104.173 90.695C105.587 91.7875 106.855 93.057 107.945 94.4723C108.516 95.1934 109.007 95.9742 109.409 96.8011Z" fill="#37474F"/>
<path d="M126.446 87.6888C126.745 88.5533 126.95 89.4477 127.056 90.3563C127.167 91.2412 127.225 92.132 127.228 93.0239C127.229 93.9174 127.174 94.8101 127.061 95.6966C126.95 96.6048 126.744 97.4989 126.446 98.3641C126.143 97.5003 125.937 96.6057 125.831 95.6966C125.716 94.8104 125.66 93.9175 125.665 93.0239C125.663 92.132 125.719 91.241 125.831 90.3563C125.939 89.4476 126.145 88.5532 126.446 87.6888Z" fill="#37474F"/>
<path d="M131.781 93.0238C130.917 93.3271 130.023 93.5333 129.114 93.6386C128.229 93.751 127.338 93.8067 126.446 93.8053C125.552 93.8095 124.66 93.7538 123.773 93.6386C122.864 93.5327 121.97 93.3265 121.106 93.0238C121.971 92.726 122.865 92.52 123.773 92.4091C124.66 92.2965 125.553 92.2408 126.446 92.2423C127.338 92.2452 128.229 92.3027 129.114 92.4143C130.022 92.5203 130.917 92.7247 131.781 93.0238Z" fill="#37474F"/>
<path d="M130.218 89.2518C129.818 90.0746 129.331 90.8519 128.764 91.5703C128.22 92.2769 127.63 92.947 126.998 93.5761C126.368 94.2088 125.698 94.8004 124.992 95.3475C124.272 95.914 123.493 96.4013 122.669 96.8011C123.069 95.9766 123.556 95.1976 124.122 94.4774C124.669 93.7717 125.261 93.1017 125.894 92.4716C126.523 91.8395 127.193 91.2495 127.9 90.7054C128.618 90.139 129.395 89.6516 130.218 89.2518Z" fill="#37474F"/>
<path d="M130.218 96.8011C129.395 96.4013 128.618 95.914 127.9 95.3475C127.192 94.8032 126.522 94.2113 125.894 93.5762C125.267 92.945 124.682 92.2732 124.143 91.5651C123.577 90.8449 123.089 90.0659 122.69 89.2415C123.515 89.6394 124.294 90.1268 125.013 90.695C126.427 91.7875 127.695 93.057 128.785 94.4723C129.345 95.1949 129.826 95.9757 130.218 96.8011Z" fill="#37474F"/>
<path d="M147.249 87.6888C147.553 88.5525 147.759 89.4471 147.864 90.3563C147.977 91.241 148.032 92.132 148.031 93.0239C148.035 93.9175 147.979 94.8104 147.864 95.6966C147.758 96.6057 147.552 97.5003 147.249 98.3641C146.951 97.4994 146.746 96.6051 146.64 95.6966C146.526 94.8102 146.468 93.9175 146.468 93.0239C146.471 92.132 146.528 91.2412 146.64 90.3563C146.746 89.4477 146.95 88.5533 147.249 87.6888Z" fill="#37474F"/>
<path d="M152.59 93.0238C151.726 93.3265 150.831 93.5327 149.922 93.6386C149.036 93.7512 148.143 93.8069 147.25 93.8053C146.358 93.8093 145.466 93.7536 144.582 93.6386C143.673 93.5333 142.778 93.3271 141.914 93.0238C142.78 92.7255 143.674 92.5194 144.582 92.4091C145.467 92.2966 146.358 92.2409 147.25 92.2423C148.143 92.2451 149.036 92.3025 149.922 92.4143C150.831 92.5208 151.725 92.7252 152.59 93.0238Z" fill="#37474F"/>
<path d="M151.027 89.2518C150.627 90.0746 150.14 90.8519 149.573 91.5703C149.029 92.2769 148.439 92.947 147.807 93.5761C147.177 94.2088 146.507 94.8004 145.801 95.3475C145.081 95.914 144.302 96.4013 143.477 96.8011C143.875 95.9756 144.363 95.1964 144.931 94.4774C145.478 93.773 146.068 93.1031 146.697 92.4716C147.329 91.8407 148.001 91.2508 148.708 90.7054C149.427 90.139 150.204 89.6516 151.027 89.2518Z" fill="#37474F"/>
<path d="M151.027 96.8011C150.204 96.4013 149.427 95.914 148.708 95.3475C148 94.8019 147.328 94.2101 146.697 93.5762C146.066 92.9442 145.476 92.2725 144.931 91.5651C144.363 90.8462 143.875 90.0669 143.477 89.2415C144.303 89.6394 145.082 90.1268 145.801 90.695C147.215 91.7875 148.483 93.057 149.573 94.4723C150.14 95.1939 150.628 95.9747 151.027 96.8011Z" fill="#37474F"/>
<path d="M168.058 87.6888C168.359 88.5532 168.565 89.4476 168.673 90.3563C168.895 92.1295 168.895 93.9234 168.673 95.6966C168.567 96.6057 168.361 97.5003 168.058 98.3641C167.758 97.4996 167.552 96.6053 167.443 95.6966C167.331 94.8101 167.275 93.9174 167.277 93.0239C167.28 92.132 167.337 91.2412 167.449 90.3563C167.555 89.4477 167.759 88.5533 168.058 87.6888Z" fill="#37474F"/>
<path d="M173.398 93.0238C172.535 93.3265 171.64 93.5327 170.731 93.6386C169.844 93.7512 168.952 93.8069 168.058 93.8053C167.166 93.8093 166.275 93.7536 165.391 93.6386C164.481 93.5333 163.587 93.3271 162.723 93.0238C163.588 92.7255 164.482 92.5194 165.391 92.4091C166.275 92.2966 167.166 92.2409 168.058 92.2423C168.952 92.2451 169.844 92.3025 170.731 92.4143C171.639 92.5208 172.534 92.7252 173.398 93.0238Z" fill="#37474F"/>
<path d="M171.835 89.2518C171.436 90.0746 170.948 90.8519 170.382 91.5703C169.836 92.277 169.244 92.947 168.61 93.5761C167.983 94.2113 167.313 94.8031 166.605 95.3475C165.886 95.9139 165.109 96.4013 164.286 96.8011C164.682 95.9745 165.17 95.195 165.74 94.4774C166.285 93.7718 166.875 93.1018 167.506 92.4716C168.137 91.842 168.807 91.2522 169.512 90.7054C170.233 90.1401 171.012 89.6528 171.835 89.2518Z" fill="#37474F"/>
<path d="M171.835 96.8011C171.012 96.4001 170.233 95.9128 169.512 95.3475C168.806 94.8004 168.136 94.2088 167.506 93.5761C166.874 92.9489 166.284 92.2806 165.74 91.5755C165.17 90.8579 164.682 90.0784 164.286 89.2518C165.11 89.6497 165.888 90.1372 166.605 90.7054C167.312 91.248 167.983 91.8381 168.61 92.4716C169.243 93.1037 169.835 93.7754 170.382 94.4826C170.948 95.201 171.436 95.9783 171.835 96.8011Z" fill="#37474F"/>
<path d="M188.867 87.6888C189.165 88.5539 189.371 89.448 189.482 90.3563C189.704 92.1295 189.704 93.9234 189.482 95.6966C189.376 96.6057 189.17 97.5003 188.867 98.3641C188.567 97.4996 188.36 96.6053 188.252 95.6966C188.026 93.9237 188.026 92.1293 188.252 90.3563C188.36 89.4475 188.566 88.5531 188.867 87.6888Z" fill="#37474F"/>
<path d="M194.207 93.0238C193.342 93.3271 192.445 93.5333 191.534 93.6386C190.65 93.7514 189.759 93.8071 188.867 93.8053C187.975 93.8095 187.084 93.7538 186.199 93.6386C185.292 93.5335 184.399 93.3273 183.537 93.0238C184.402 92.7249 185.296 92.5188 186.204 92.4091C187.089 92.2965 187.98 92.2408 188.872 92.2423C189.764 92.245 190.655 92.3024 191.539 92.4143C192.448 92.5207 193.342 92.725 194.207 93.0238Z" fill="#37474F"/>
<path d="M192.644 89.2518C192.244 90.0759 191.755 90.8534 191.185 91.5703C190.091 92.9823 188.824 94.2513 187.413 95.3475C186.695 95.9139 185.918 96.4013 185.095 96.8011C185.491 95.9745 185.978 95.195 186.548 94.4774C187.094 93.7718 187.684 93.1018 188.315 92.4716C188.946 91.842 189.616 91.2522 190.32 90.7054C191.04 90.1389 191.82 89.6516 192.644 89.2518Z" fill="#37474F"/>
<path d="M192.644 96.8011C191.82 96.4013 191.04 95.914 190.32 95.3475C189.615 94.8004 188.945 94.2088 188.315 93.5761C187.682 92.9489 187.092 92.2806 186.548 91.5755C185.978 90.8579 185.491 90.0784 185.095 89.2518C185.919 89.6497 186.696 90.1372 187.413 90.7054C188.121 91.248 188.791 91.8381 189.419 92.4716C190.051 93.1024 190.641 93.7742 191.185 94.4826C191.755 95.1995 192.244 95.977 192.644 96.8011Z" fill="#37474F"/>
<path d="M209.675 87.6888C209.975 88.5533 210.179 89.4477 210.285 90.3563C210.511 92.1293 210.511 93.9237 210.285 95.6966C210.177 96.6053 209.97 97.4996 209.67 98.3641C209.367 97.5003 209.161 96.6057 209.055 95.6966C208.833 93.9234 208.833 92.1295 209.055 90.3563C209.167 89.4478 209.375 88.5537 209.675 87.6888Z" fill="#37474F"/>
<path d="M215.01 93.0238C214.147 93.3277 213.252 93.5339 212.343 93.6386C211.458 93.7512 210.567 93.8069 209.675 93.8053C208.784 93.8097 207.892 93.754 207.008 93.6386C206.097 93.5333 205.201 93.3271 204.335 93.0238C205.202 92.7254 206.098 92.5194 207.008 92.4091C207.893 92.2963 208.784 92.2406 209.675 92.2423C210.567 92.2451 211.458 92.3025 212.343 92.4143C213.252 92.5197 214.146 92.7241 215.01 93.0238Z" fill="#37474F"/>
<path d="M213.447 89.2518C213.052 90.0768 212.564 90.8545 211.994 91.5703C211.451 92.2781 210.861 92.9483 210.228 93.5761C209.598 94.2088 208.928 94.8004 208.222 95.3475C207.503 95.9128 206.726 96.4001 205.903 96.8011C206.299 95.9757 206.785 95.1965 207.352 94.4774C208.448 93.0669 209.717 91.7997 211.129 90.7054C211.848 90.1401 212.625 89.6528 213.447 89.2518Z" fill="#37474F"/>
<path d="M213.447 96.8011C212.625 96.4001 211.848 95.9128 211.129 95.3475C209.72 94.2496 208.452 92.9828 207.352 91.5755C206.785 90.8564 206.299 90.0772 205.903 89.2518C206.727 89.6509 207.504 90.1383 208.222 90.7054C208.927 91.2507 209.597 91.8406 210.228 92.4716C210.86 93.1024 211.45 93.7742 211.994 94.4826C212.564 95.1984 213.052 95.9761 213.447 96.8011Z" fill="#37474F"/>
<path d="M195.244 88.314V116.688H187.226V88.314C187.226 77.5241 179.03 68.7505 168.949 68.7505C158.868 68.7505 150.672 77.5241 150.672 88.314V116.688H142.654V88.314C142.654 72.8612 154.45 60.3052 168.949 60.3052C183.448 60.3052 195.244 72.8612 195.244 88.314Z" fill="#455A64"/>
<path d="M142.654 95.6913L150.672 96.0143V116.687H142.654V95.6913Z" fill="#263238"/>
<path d="M195.244 97.8326V116.688H187.226V97.5044L195.244 97.8326Z" fill="#263238"/>
<path d="M205.523 100.531H132.38V166.891H205.523V100.531Z" fill="#FF7250"/>
<path opacity="0.1" d="M205.518 100.531H168.949V166.891H205.518V100.531Z" fill="black"/>
<path d="M172.044 136.142L175.102 150.662H162.108L165.172 136.142C163.974 135.395 163.052 134.279 162.545 132.962C162.038 131.644 161.973 130.198 162.362 128.841C162.75 127.484 163.569 126.29 164.696 125.44C165.823 124.591 167.196 124.131 168.608 124.131C170.019 124.131 171.392 124.591 172.519 125.44C173.646 126.29 174.466 127.484 174.854 128.841C175.242 130.198 175.178 131.644 174.671 132.962C174.164 134.279 173.242 135.395 172.044 136.142Z" fill="#263238"/>
<path d="M147.703 136.116C147.703 136.116 143.879 166.729 137.595 173.627C130.051 181.89 124.57 180.682 121.528 184.943C118.485 180.676 113.01 181.89 105.455 173.622C99.1718 166.729 95.3529 136.11 95.3529 136.11C111.91 128.077 121.538 119.068 121.538 119.068C121.825 119.35 131.401 128.207 147.703 136.116Z" fill="#EBEBEB"/>
<path d="M121.539 119.074V184.938C118.496 180.671 113.02 181.885 105.466 173.617C99.1826 166.724 95.3637 136.105 95.3637 136.105C111.911 128.076 121.539 119.068 121.539 119.068V119.074Z" fill="#DBDBDB"/>
<path d="M143.644 138.585C143.644 138.585 140.414 164.442 135.105 170.267C128.723 177.259 124.096 176.232 121.523 179.832C118.949 176.232 114.322 177.259 107.945 170.267C102.636 164.442 99.4115 138.585 99.4115 138.585C113.4 131.812 121.523 124.179 121.523 124.179C121.523 124.179 129.655 131.791 143.644 138.585Z" fill="#DBDBDB"/>
<path d="M99.4167 138.585C99.4167 138.585 102.647 164.442 107.956 170.267C114.328 177.253 118.933 176.232 121.538 179.822V124.19C121.283 124.419 113.202 131.895 99.4167 138.585Z" fill="#C7C7C7"/>
<path d="M128.778 159.257C132.782 155.252 132.782 148.76 128.778 144.756C124.774 140.752 118.282 140.752 114.277 144.756C110.273 148.76 110.273 155.252 114.277 159.257C118.282 163.261 124.774 163.261 128.778 159.257Z" fill="#FF7250"/>
<path d="M120.361 158.669L115.792 153.918L117.485 152.287L120.001 154.908L125.43 146.582L127.399 147.864L120.361 158.669Z" fill="white"/>
<path d="M86.1557 187.403L87.3719 181.175L160.125 195.383C160.79 195.512 161.375 195.901 161.754 196.463C162.132 197.024 162.271 197.713 162.141 198.378L161.904 199.595C161.774 200.259 161.386 200.845 160.824 201.223C160.262 201.601 159.573 201.741 158.909 201.611L86.1557 187.403Z" fill="#FF7250"/>
<path opacity="0.1" d="M87.3665 181.169L86.1493 187.402L94.934 189.117L96.1513 182.884L87.3665 181.169Z" fill="black"/>
<path d="M59.5395 173.226L57.3982 184.302C57.036 186.159 57.043 188.069 57.4189 189.924C57.7948 191.778 58.5322 193.54 59.589 195.109C60.6459 196.678 62.0014 198.024 63.5783 199.069C65.1552 200.114 66.9226 200.839 68.7794 201.201C70.6363 201.563 72.5464 201.556 74.4005 201.18C76.2547 200.804 78.0167 200.067 79.5858 199.01C81.155 197.953 82.5007 196.598 83.546 195.021C84.5913 193.444 85.3157 191.677 85.678 189.82L87.8349 178.769C88.57 175.017 87.7845 171.127 85.651 167.954C83.5176 164.781 80.2111 162.585 76.4589 161.85C72.7067 161.115 68.8162 161.901 65.6432 164.034C62.4702 166.167 60.2747 169.474 59.5395 173.226ZM83.2918 175.993C82.651 179.28 79.7803 181.651 76.2323 182.218C79.3062 184.089 81.0776 187.355 80.4315 190.643C79.5771 195.04 74.7266 197.801 69.6052 196.801C64.4838 195.801 61.04 191.419 61.8997 187.027C62.5405 183.74 65.4112 181.369 68.9644 180.775C65.8853 178.915 64.1191 175.638 64.7599 172.351C65.6196 167.948 70.4597 165.197 75.5758 166.198C80.692 167.198 84.1723 171.595 83.3127 175.993H83.2918Z" fill="#FF7250"/>
<path d="M87.913 178.361L85.5993 190.209C85.4747 190.847 85.891 191.466 86.5293 191.59L87.0917 191.7C87.73 191.825 88.3484 191.408 88.4731 190.77L90.7867 178.922C90.9114 178.284 90.495 177.666 89.8568 177.541L89.2943 177.431C88.6561 177.307 88.0377 177.723 87.913 178.361Z" fill="#FF7250"/>
<path d="M90.7868 178.924L88.4731 190.771C88.3485 191.409 88.7649 192.028 89.4031 192.153L89.9656 192.262C90.6038 192.387 91.2222 191.971 91.3469 191.332L93.6606 179.485C93.7852 178.847 93.3688 178.228 92.7306 178.103L92.1681 177.994C91.5299 177.869 90.9115 178.285 90.7868 178.924Z" fill="#FF7250"/>
<path d="M142.738 189.315L144.905 189.737L146.129 183.443L147.984 183.802L147.343 187.085L149.505 187.507L150.146 184.224L151.787 184.542L150.771 189.731L152.939 190.159L153.955 184.969L156.278 185.423L154.929 192.352L157.096 192.774L158.451 185.845L160.649 186.277L158.92 195.134L139.56 191.352L141.284 182.495L143.962 183.016L142.738 189.315Z" fill="#FF7250"/>
<path d="M217.402 156.872L203.205 168.334C200.48 170.512 198.13 172.471 197.01 173.601C196.721 173.839 196.487 174.138 196.327 174.477C196.327 174.477 196.327 174.477 196.327 174.508C196.426 175.753 213.202 198.036 214.041 198.614C214.88 199.193 216.61 196.827 216.646 195.447C216.683 194.066 214.078 182.656 214.078 182.656L228.145 171.059L217.402 156.872Z" fill="#C95F50"/>
<path d="M206.101 165.995L203.189 168.344C200.464 170.522 198.114 172.481 196.994 173.612C196.733 173.875 196.504 174.169 196.312 174.487C196.312 174.487 196.312 174.487 196.312 174.518C196.411 175.763 213.187 198.046 214.026 198.625C214.864 199.203 216.594 196.838 216.631 195.457C216.667 194.076 214.062 182.667 214.062 182.667L217.053 180.317L206.101 165.995Z" fill="#EBEBEB"/>
<path d="M214.01 198.64C213.161 198.062 196.39 175.784 196.296 174.529C196.249 174.055 199.354 171.403 203.194 168.35L203.319 168.251L214.276 182.505L214.031 182.682C214.031 182.682 216.636 194.082 216.599 195.473C216.563 196.864 214.854 199.224 214.01 198.64Z" fill="#FF7250"/>
<path d="M214.682 197.739C211.947 193.915 200.558 178.749 197.562 175.175C197.562 175.143 197.52 175.175 197.562 175.175C200.167 179.025 211.702 194.102 214.646 197.77C214.687 197.848 214.745 197.848 214.682 197.739Z" fill="#263238"/>
<path d="M214.911 183.922C214.073 182.239 212.489 180.598 210.582 180.275C210.509 180.275 210.493 180.364 210.545 180.406C212.061 181.468 213.459 182.691 214.713 184.052C214.733 184.074 214.759 184.088 214.787 184.091C214.816 184.095 214.844 184.088 214.868 184.073C214.892 184.057 214.91 184.033 214.918 184.005C214.926 183.978 214.923 183.948 214.911 183.922Z" fill="#263238"/>
<path d="M215.073 185.475C214.234 183.787 212.645 182.151 210.743 181.828C210.67 181.828 210.655 181.922 210.702 181.958C212.217 183.021 213.615 184.244 214.87 185.605C214.878 185.618 214.889 185.63 214.902 185.639C214.915 185.648 214.93 185.654 214.946 185.658C214.961 185.661 214.977 185.662 214.993 185.659C215.008 185.656 215.023 185.65 215.036 185.642C215.05 185.633 215.061 185.622 215.07 185.609C215.079 185.596 215.086 185.581 215.089 185.566C215.093 185.55 215.093 185.534 215.09 185.519C215.087 185.503 215.081 185.488 215.073 185.475Z" fill="#263238"/>
<path d="M215.229 187.022C214.396 185.339 212.807 183.703 210.905 183.375C210.832 183.375 210.811 183.469 210.863 183.505C212.378 184.57 213.775 185.792 215.031 187.152C215.04 187.165 215.051 187.177 215.064 187.185C215.077 187.194 215.091 187.2 215.106 187.203C215.122 187.207 215.137 187.207 215.153 187.204C215.168 187.201 215.182 187.195 215.195 187.186C215.208 187.178 215.22 187.167 215.228 187.154C215.237 187.141 215.243 187.127 215.246 187.111C215.249 187.096 215.25 187.08 215.247 187.065C215.244 187.05 215.238 187.035 215.229 187.022Z" fill="#263238"/>
<path d="M225.06 143.212C224.055 148.177 203.46 167.98 203.46 167.98L217.819 184.553C217.819 184.553 247.057 155.377 245.53 144.399C244.202 134.86 229.9 96.4989 229.9 96.4989H213.447C213.447 96.4989 226.045 138.33 225.06 143.212Z" fill="#37474F"/>
<path d="M225.06 143.212C224.055 148.177 203.46 167.98 203.46 167.98L217.819 184.553C217.819 184.553 247.057 155.377 245.53 144.399C244.202 134.86 229.9 96.4989 229.9 96.4989H213.447C213.447 96.4989 226.045 138.33 225.06 143.212Z" fill="#37474F"/>
<path d="M219.449 180.614C217.542 178.238 218.126 178.895 216.193 176.54C215.245 175.388 209.019 167.829 207.946 166.906C207.946 166.906 207.883 166.907 207.899 166.948C208.618 168.162 214.974 175.612 215.943 176.748C217.923 179.061 217.381 178.379 219.382 180.671C219.423 180.713 219.486 180.656 219.449 180.614Z" fill="#263238"/>
<path d="M227.108 140.794C226.868 139.554 226.587 138.319 226.342 137.085C225.804 134.563 225.236 132.05 224.638 129.546C223.451 124.576 222.16 119.633 220.767 114.718C219.366 109.79 217.881 104.866 216.167 100.031C215.959 99.4322 215.74 98.8383 215.521 98.2444C215.521 98.2347 215.517 98.2254 215.51 98.2186C215.503 98.2117 215.494 98.2079 215.484 98.2079C215.475 98.2079 215.466 98.2117 215.459 98.2186C215.452 98.2254 215.448 98.2347 215.448 98.2444C216.933 103.09 218.459 107.919 219.845 112.785C221.231 117.652 222.507 122.518 223.716 127.415C224.321 129.874 224.883 132.344 225.436 134.813C225.706 136.027 225.956 137.246 226.227 138.46C226.549 139.696 226.781 140.953 226.92 142.222C226.958 143.424 226.619 144.608 225.951 145.608C225.331 146.619 224.607 147.567 223.904 148.521C222.497 150.427 209.087 165.375 208.654 165.781C208.618 165.813 208.654 165.859 208.706 165.828C210.504 164.213 221.882 151.897 223.325 149.99C224.044 149.047 224.737 148.093 225.409 147.124C226.094 146.25 226.645 145.279 227.045 144.243C227.362 143.118 227.383 141.93 227.108 140.794Z" fill="#263238"/>
<path d="M227.071 96.4989L224.081 135.756C221.226 122.32 213.447 96.4989 213.447 96.4989H227.071Z" fill="#263238"/>
<path d="M254.122 204.71C253.147 205.023 225.258 204.59 224.211 203.902C224.041 203.57 223.949 203.203 223.94 202.829C223.938 202.819 223.938 202.808 223.94 202.798C223.737 201.235 223.638 198.171 223.586 194.681L222.971 191.664H240.847L241.545 194.905C241.545 194.905 252.147 199.849 253.226 200.73C254.304 201.61 255.106 204.403 254.122 204.71Z" fill="#EBEBEB"/>
<path d="M254.122 204.71C253.142 205.023 225.258 204.59 224.211 203.903C223.805 203.647 223.633 199.578 223.565 194.66V194.504L241.555 194.582V194.889C241.555 194.889 252.152 199.828 253.225 200.709C254.299 201.589 255.101 204.403 254.122 204.71Z" fill="#FF7250"/>
<path d="M253.825 203.626C249.136 203.439 230.156 203.105 225.498 203.293C225.462 203.293 225.462 203.319 225.498 203.324C230.151 203.611 249.12 203.772 253.825 203.705C253.924 203.699 253.924 203.632 253.825 203.626Z" fill="#263238"/>
<path d="M243.056 194.967C241.211 194.592 238.945 194.842 237.507 196.14C237.455 196.187 237.507 196.265 237.585 196.249C239.362 195.707 241.193 195.357 243.045 195.207C243.061 195.208 243.077 195.205 243.091 195.2C243.106 195.195 243.12 195.186 243.131 195.176C243.143 195.165 243.152 195.152 243.159 195.138C243.166 195.124 243.17 195.108 243.17 195.092C243.171 195.077 243.169 195.061 243.163 195.046C243.158 195.031 243.15 195.018 243.139 195.006C243.128 194.995 243.115 194.985 243.101 194.979C243.087 194.972 243.071 194.968 243.056 194.967Z" fill="#263238"/>
<path d="M244.374 195.791C242.535 195.415 240.263 195.666 238.83 196.963C238.778 197.015 238.83 197.093 238.909 197.072C240.684 196.53 242.513 196.181 244.363 196.03C244.395 196.032 244.426 196.02 244.45 195.999C244.473 195.977 244.487 195.947 244.488 195.916C244.49 195.884 244.478 195.853 244.457 195.829C244.436 195.806 244.406 195.792 244.374 195.791Z" fill="#263238"/>
<path d="M245.697 196.619C243.853 196.244 241.586 196.494 240.154 197.786C240.096 197.838 240.154 197.916 240.232 197.901C242.008 197.361 243.837 197.012 245.687 196.859C245.702 196.859 245.718 196.857 245.733 196.851C245.748 196.846 245.761 196.838 245.773 196.827C245.785 196.817 245.794 196.804 245.801 196.789C245.807 196.775 245.811 196.76 245.812 196.744C245.812 196.728 245.81 196.713 245.805 196.698C245.799 196.683 245.791 196.669 245.78 196.658C245.77 196.646 245.757 196.637 245.743 196.63C245.728 196.623 245.713 196.62 245.697 196.619Z" fill="#263238"/>
<path d="M228.343 96.4989C227.701 99.2075 227.228 101.953 226.926 104.72C226.587 108.169 226.155 111.222 225.696 111.603C225.238 111.983 222.57 113.687 221.695 114.208C221.695 114.208 229.812 138.819 231.906 147.03C234.944 158.92 242.217 194.603 242.217 194.603H222.836C222.836 194.603 216.943 160.639 214.364 149.312C212.155 139.606 203.694 110.488 203.694 110.488C202.802 108.243 202.401 105.832 202.518 103.419C202.636 101.006 203.27 98.6463 204.377 96.4989C204.377 96.4989 228.343 96.4885 228.343 96.4989Z" fill="#37474F"/>
<path d="M241.508 190.852C238.46 190.852 239.336 190.799 236.298 190.815C234.808 190.815 225.014 190.888 223.628 191.143C223.619 191.143 223.611 191.147 223.606 191.152C223.6 191.158 223.596 191.166 223.596 191.175C223.596 191.183 223.6 191.191 223.606 191.197C223.611 191.203 223.619 191.206 223.628 191.206C225.024 191.414 234.814 191.175 236.304 191.138C239.351 191.06 238.476 191.05 241.514 190.94C241.523 190.936 241.53 190.93 241.535 190.922C241.541 190.913 241.543 190.904 241.543 190.894C241.542 190.884 241.538 190.875 241.532 190.867C241.526 190.86 241.518 190.854 241.508 190.852Z" fill="#263238"/>
<path d="M227.056 110.628C225.174 111.664 223.385 112.862 221.71 114.208C221.7 114.219 221.694 114.233 221.693 114.248C221.692 114.263 221.696 114.278 221.704 114.291C221.712 114.303 221.725 114.313 221.739 114.318C221.754 114.322 221.769 114.322 221.783 114.317C223.596 113.181 225.43 112.077 227.196 110.842C227.218 110.821 227.232 110.793 227.235 110.763C227.238 110.733 227.231 110.702 227.214 110.677C227.198 110.652 227.173 110.633 227.144 110.624C227.115 110.615 227.084 110.617 227.056 110.628Z" fill="#263238"/>
<path d="M225.576 97.2387C225.576 97.171 225.441 97.1762 225.451 97.2387C225.789 99.4053 226.016 101.588 226.134 103.777C226.201 104.788 226.253 110.441 224.456 110.305C224.154 110.305 223.935 110.024 223.846 109.592C223.766 109.018 223.755 108.438 223.815 107.862C223.815 106.674 223.815 105.491 223.721 104.303C223.583 102.11 223.22 99.9364 222.638 97.817C222.638 97.8018 222.632 97.7872 222.621 97.7765C222.61 97.7657 222.596 97.7597 222.58 97.7597C222.565 97.7597 222.551 97.7657 222.54 97.7765C222.529 97.7872 222.523 97.8018 222.523 97.817C223.043 100.826 223.336 103.871 223.398 106.924C223.398 108.398 223.018 110.675 224.555 110.66C226.092 110.644 226.55 106.867 226.582 105.851C226.621 102.949 226.283 100.054 225.576 97.2387Z" fill="#263238"/>
<path d="M224.524 110.462C224.428 110.858 224.359 111.26 224.315 111.665C224.258 111.986 224.258 112.314 224.315 112.634C224.321 112.647 224.329 112.657 224.34 112.665C224.351 112.672 224.365 112.676 224.378 112.676C224.391 112.676 224.404 112.672 224.415 112.665C224.427 112.657 224.435 112.647 224.44 112.634C224.58 112.324 224.668 111.993 224.701 111.655C224.779 111.28 224.862 110.91 224.93 110.529C224.939 110.476 224.926 110.42 224.895 110.376C224.863 110.331 224.815 110.301 224.761 110.292C224.707 110.283 224.652 110.296 224.607 110.328C224.563 110.36 224.533 110.408 224.524 110.462Z" fill="#263238"/>
<path d="M206.461 110.363C208.13 110.27 209.78 109.958 211.369 109.435C213.172 108.859 214.807 107.85 216.13 106.497C216.88 105.753 217.498 104.888 217.959 103.939C217.959 103.902 218.032 103.939 218.022 103.97C217.739 104.89 217.302 105.755 216.73 106.528C216.138 107.294 215.435 107.968 214.646 108.529C213.083 109.675 211.243 110.385 209.316 110.587C208.365 110.734 207.396 110.72 206.45 110.545C206.299 110.524 206.341 110.373 206.461 110.363Z" fill="#263238"/>
<path d="M220.569 180.171C220.522 179.723 220.46 179.275 220.397 178.827C220.278 177.972 220.132 177.113 219.996 176.258C219.736 174.534 219.439 172.815 219.131 171.101C218.527 167.678 217.824 164.265 217.084 160.868C216.662 158.951 216.177 157.054 215.662 155.137C215.63 155.002 215.443 155.069 215.464 155.194C215.776 156.935 216.078 158.67 216.433 160.404C216.787 162.139 217.141 163.848 217.475 165.573C218.152 168.98 218.782 172.403 219.46 175.81C219.647 176.774 219.824 177.738 220.012 178.702C220.106 179.181 220.199 179.666 220.304 180.14C220.408 180.614 220.554 181.088 220.632 181.567C220.632 181.614 220.71 181.593 220.705 181.567C220.632 181.104 220.627 180.656 220.569 180.171Z" fill="#263238"/>
<path d="M233.938 154.418C233.292 151.204 232.422 148.031 231.547 144.868C229.786 138.512 227.712 132.245 225.644 125.977C225.047 124.174 224.449 122.37 223.852 120.564C223.555 119.662 222.096 114.791 221.914 114.312C221.911 114.304 221.905 114.297 221.898 114.292C221.891 114.287 221.883 114.285 221.875 114.285C221.866 114.285 221.858 114.287 221.851 114.292C221.844 114.297 221.838 114.304 221.835 114.312C222.257 115.969 222.831 118.386 223.315 120.043C223.8 121.7 224.315 123.278 224.821 124.888C225.811 128.061 226.816 131.234 227.775 134.412C229.676 140.7 231.562 146.989 233.105 153.376C233.537 155.168 233.969 156.955 234.36 158.753C234.751 160.55 235.095 162.353 235.47 164.15C235.47 164.203 235.564 164.187 235.559 164.15C235.235 160.889 234.595 157.648 233.938 154.418Z" fill="#263238"/>
<path d="M221.887 171.241C220.819 165.109 219.543 159.008 218.126 152.944C216.709 146.879 215.12 140.794 213.374 134.787C211.629 128.78 209.696 122.804 207.643 116.917C206.598 114.139 205.719 111.302 205.012 108.419C204.372 105.554 204.049 102.454 204.715 99.5625C204.878 98.8287 205.099 98.1092 205.377 97.4107C205.377 97.3639 205.325 97.3222 205.304 97.3691C202.975 102.803 204.486 108.742 206.263 114.098C207.232 117.032 208.269 119.944 209.232 122.882C210.196 125.821 211.155 128.926 212.061 131.968C213.849 137.996 215.51 144.061 216.995 150.167C218.48 156.273 219.809 162.421 220.976 168.6C222.143 174.779 223.127 181.026 224.128 187.252C224.258 188.064 224.357 188.877 224.466 189.69C224.466 189.737 224.539 189.737 224.534 189.69C223.763 183.516 222.95 177.368 221.887 171.241Z" fill="#263238"/>
<path d="M221.492 70.7668C223.774 79.1028 230.349 89.1581 233.474 90.5647C236.194 91.7735 248.813 87.1053 253.575 84.0731C254.929 83.2083 249.328 75.4089 247.698 75.9508C242.368 77.7274 236.569 80.3532 236.121 80.2021C235.215 79.8947 229.557 72.955 225.436 68.2869C220.814 63.0405 220.585 67.4481 221.492 70.7668Z" fill="#C95F50"/>
<path d="M262.572 77.0032C263.645 76.5551 271.903 76.2946 271.903 74.5024C271.903 72.7101 261.39 73.2103 261.39 73.2103L262.572 77.0032Z" fill="#C95F50"/>
<path d="M246.734 77.2115C248.177 75.4193 249.448 73.4864 250.704 73.1321C251.569 72.8873 260.921 73.2884 262.379 73.1999C263.838 73.1113 269.053 73.2468 269.152 74.5284C269.324 76.3363 263.156 76.3206 262.499 77.248C260.223 80.4417 251.558 85.1672 251.558 85.1672L246.734 77.2115Z" fill="#C95F50"/>
<path d="M269.314 74.5544C269.218 74.2217 269.006 73.9348 268.715 73.7469C268.032 73.3732 267.263 73.1847 266.485 73.1998C265.345 73.0974 264.198 73.0886 263.057 73.1738C263.057 73.1738 263.057 73.2102 263.057 73.2154C263.916 73.2154 264.766 73.2154 265.62 73.3092C266.404 73.3384 267.182 73.4573 267.939 73.6635C268.278 73.7509 268.587 73.9314 268.829 74.1845C268.913 74.2797 268.971 74.3949 268.998 74.519C269.024 74.6431 269.018 74.7719 268.98 74.893C268.736 75.6798 267.178 75.935 266.459 76.0757C265.521 76.2841 264.547 76.4665 263.604 76.6592C263.562 76.6592 263.604 76.7322 263.604 76.7217C264.583 76.529 265.615 76.456 266.6 76.2789C267.422 76.1986 268.21 75.9119 268.892 75.4453C269.04 75.3529 269.159 75.2198 269.234 75.0618C269.309 74.9039 269.336 74.7277 269.314 74.5544Z" fill="#263238"/>
<path d="M246.374 76.107L253.773 86.9385C253.773 86.9385 242.311 92.6695 237.924 92.5809C233.756 92.4819 232.24 91.8671 230.922 90.622C230.104 89.8509 225.462 83.2915 221.674 72.387C218.496 63.2487 223.2 64.5721 227.405 69.657C229.489 72.1786 236.178 79.6966 236.512 79.6706C236.845 79.6445 246.374 76.107 246.374 76.107Z" fill="#FF7250"/>
<path d="M244.098 77.8681C245.207 79.4728 246.27 81.1087 247.317 82.7551C247.838 83.5574 249.756 86.8397 250.313 87.7723C250.313 87.8088 250.235 87.8713 250.209 87.8348C249.631 87.0116 247.541 83.7346 247.036 82.9218C245.994 81.2598 245.009 79.5926 244.051 77.8994C244.049 77.8963 244.047 77.8929 244.047 77.8892C244.046 77.8856 244.046 77.8819 244.047 77.8782C244.047 77.8746 244.049 77.8712 244.051 77.8681C244.053 77.865 244.055 77.8624 244.059 77.8603C244.062 77.8583 244.065 77.8568 244.069 77.8561C244.072 77.8554 244.076 77.8554 244.08 77.8561C244.083 77.8569 244.087 77.8583 244.09 77.8604C244.093 77.8624 244.096 77.8651 244.098 77.8681Z" fill="#263238"/>
<path opacity="0.1" d="M240.143 92.3048C239.417 92.4835 238.672 92.5761 237.924 92.5809C233.756 92.4819 232.24 91.8672 230.922 90.622C230.109 89.8509 225.462 83.2968 221.679 72.3871C221.085 70.8767 220.733 69.2819 220.637 67.6616C220.637 67.5626 220.637 67.4584 220.637 67.3647C220.632 67.2727 220.632 67.1805 220.637 67.0885C220.645 67.0133 220.658 66.9385 220.674 66.8645C220.727 66.5245 220.887 66.2104 221.132 65.9684C223.721 69.4382 235.861 85.834 240.143 92.3048Z" fill="black"/>
<path d="M267.303 71.6631H239.252V73.1688H267.303V71.6631Z" fill="#C7C7C7"/>
<path d="M267.303 71.6631V73.1688H250.266L251.418 71.6631H267.303Z" fill="#A6A6A6"/>
<path d="M252.658 73.1686H271.419L281.182 56.5905H262.421L252.658 73.1686Z" fill="#C7C7C7"/>
<path d="M266.219 64.8692C265.87 65.6351 266.125 66.4322 266.792 66.6718C267.165 66.7581 267.557 66.7071 267.896 66.5282C268.235 66.3493 268.498 66.0544 268.637 65.6976C268.986 64.9317 268.73 64.1346 268.064 63.8949C267.69 63.8098 267.299 63.8613 266.961 64.0401C266.622 64.2188 266.359 64.513 266.219 64.8692Z" fill="white"/>
<path d="M202.569 102.209C202.637 102.282 231.938 102.073 232.203 101.771C232.568 101.344 225.628 69.6674 222.58 65.7756C221.929 64.942 219.804 64.7336 218.001 64.9732C217.531 65.0316 217.067 65.131 216.615 65.2702H216.568C216.202 65.3846 215.859 65.5608 215.552 65.7912C210.577 69.8498 206.497 83.8959 205.554 88.1107C203.991 95.0608 202.324 101.933 202.569 102.209Z" fill="#EBEBEB"/>
<path d="M216.256 65.3433C216.256 65.3433 218.168 78.3682 218.621 81.7651C219.074 85.162 218.621 102.996 218.621 102.996L200.235 104.559C200.235 104.559 204.09 92.7008 204.127 91.9506C204.127 91.9506 207.175 77.7013 210.321 71.8193C211.727 69.1985 213.767 66.9719 216.256 65.3433Z" fill="#FF7250"/>
<path d="M222.377 65.5725C222.377 65.5725 224.862 78.7642 225.081 79.853C225.3 80.9419 228.483 102.381 228.483 102.381L233.084 102.48L230.588 92.6852C230.588 92.6852 225.248 67.5992 222.377 65.5725Z" fill="#FF7250"/>
<path d="M221.341 69.7873C219.944 69.9488 217.298 68.0055 216.558 65.9475C216.511 65.8017 216.928 64.4627 217.355 62.8216C217.61 61.816 217.876 60.6959 218.037 59.6539C218.069 59.4403 224.321 62.2589 224.321 62.2589C223.74 63.5011 223.315 64.8099 223.055 66.1559C223.042 66.3015 223.042 66.448 223.055 66.5936V66.6665C223.034 67.5053 222.841 69.6206 221.341 69.7873Z" fill="#C95F50"/>
<path d="M223.034 66.6041C223.036 66.6284 223.036 66.6528 223.034 66.6771C222.808 66.669 222.584 66.6446 222.362 66.6041C218.532 65.9112 218.277 60.9357 218.272 59.6853C219.408 60.0344 224.326 62.2903 224.326 62.2903C223.746 63.5344 223.321 64.845 223.06 66.1926C223.042 66.329 223.033 66.4665 223.034 66.6041Z" fill="#263238"/>
<path d="M218.11 51.3441C217.105 53.5844 217.49 60.4615 218.954 62.1652C221.08 64.6399 224.982 65.3433 227.191 62.6862C229.333 60.1177 228.676 51.1617 226.999 49.5675C224.529 47.223 219.59 48.0409 218.11 51.3441Z" fill="#C95F50"/>
<path d="M223.174 56.2153C223.174 56.2153 223.138 56.2153 223.143 56.257C223.18 56.7207 223.143 57.2521 222.737 57.4293C222.737 57.4293 222.737 57.4605 222.737 57.4553C223.247 57.3563 223.284 56.6582 223.174 56.2153Z" fill="#263238"/>
<path d="M222.737 55.7517C221.992 55.7517 222.007 57.2313 222.7 57.247C223.393 57.2626 223.362 55.7673 222.737 55.7517Z" fill="#263238"/>
<path d="M226.029 56.1893C226.029 56.1893 226.066 56.2154 226.066 56.231C226.066 56.6947 226.123 57.2313 226.545 57.3772C226.545 57.3772 226.545 57.4085 226.545 57.4032C226.029 57.3407 225.946 56.6582 226.029 56.1893Z" fill="#263238"/>
<path d="M226.436 55.7047C227.181 55.637 227.259 57.1323 226.566 57.1948C225.873 57.2573 225.811 55.7568 226.436 55.7047Z" fill="#263238"/>
<path d="M222.138 55.0953C222.341 55.038 222.518 54.9547 222.716 54.8817C222.93 54.8368 223.123 54.7212 223.263 54.5535C223.297 54.4931 223.31 54.4232 223.301 54.3546C223.291 54.2859 223.26 54.2222 223.211 54.1732C223.096 54.0913 222.962 54.0414 222.822 54.0286C222.682 54.0157 222.541 54.0405 222.414 54.1002C222.137 54.1857 221.903 54.3716 221.757 54.6212C221.73 54.6785 221.72 54.7422 221.728 54.805C221.735 54.8679 221.76 54.9273 221.8 54.9767C221.839 55.026 221.892 55.0633 221.952 55.0843C222.011 55.1053 222.076 55.1091 222.138 55.0953Z" fill="#263238"/>
<path d="M227.009 54.444C226.807 54.4058 226.607 54.3572 226.41 54.2981C226.193 54.2741 225.991 54.1809 225.831 54.0324C225.789 53.9762 225.766 53.9076 225.766 53.837C225.766 53.7665 225.789 53.6979 225.831 53.6417C225.937 53.5493 226.064 53.4863 226.201 53.4588C226.338 53.4314 226.48 53.4406 226.613 53.4854C226.894 53.5378 227.146 53.6917 227.322 53.9178C227.357 53.971 227.377 54.0332 227.379 54.0973C227.381 54.1614 227.364 54.2247 227.332 54.2798C227.299 54.3349 227.251 54.3796 227.194 54.4087C227.137 54.4377 227.073 54.45 227.009 54.444Z" fill="#263238"/>
<path d="M223.023 60.5032C223.133 60.6126 223.247 60.7584 223.414 60.7741C223.595 60.7714 223.773 60.7287 223.935 60.649C223.935 60.649 223.961 60.649 223.935 60.6751C223.869 60.7664 223.779 60.8383 223.676 60.8832C223.572 60.9281 223.458 60.9444 223.346 60.9304C223.252 60.9077 223.166 60.8575 223.1 60.7861C223.034 60.7146 222.991 60.6252 222.976 60.5292C222.971 60.4979 223.002 60.4875 223.023 60.5032Z" fill="#263238"/>
<path d="M223.492 59.1122C223.609 59.2922 223.762 59.4462 223.942 59.5646C224.121 59.6829 224.323 59.763 224.534 59.7999C224.722 59.8284 224.914 59.8284 225.102 59.7999C225.138 59.8053 225.175 59.8053 225.211 59.7999H225.31C225.335 59.7953 225.358 59.7826 225.375 59.7638C225.392 59.7449 225.402 59.721 225.404 59.6957C225.407 59.6801 225.407 59.6643 225.404 59.6488V59.6071C225.404 59.2476 225.368 58.7058 225.368 58.7058C225.498 58.7683 226.17 59.06 226.154 58.8725C226.093 57.2633 225.87 55.6645 225.488 54.1002C225.488 54.0891 225.483 54.0785 225.475 54.0707C225.468 54.0629 225.457 54.0585 225.446 54.0585C225.435 54.0585 225.424 54.0629 225.416 54.0707C225.409 54.0785 225.404 54.0891 225.404 54.1002C225.451 55.585 225.759 57.0542 225.831 58.5495C225.593 58.4419 225.34 58.3683 225.081 58.3307C225.029 58.3307 225.18 59.3726 225.165 59.5394C224.873 59.573 224.577 59.5474 224.295 59.4642C224.013 59.3809 223.75 59.2417 223.523 59.0548C223.503 59.0444 223.466 59.0757 223.492 59.1122Z" fill="#263238"/>
<path d="M224.909 59.6436C224.716 59.8987 224.461 60.1011 224.169 60.2323C224.004 60.2979 223.822 60.3106 223.648 60.2688C223.279 60.175 223.268 59.8364 223.331 59.5446C223.367 59.3894 223.421 59.239 223.492 59.0966C223.894 59.4252 224.391 59.6168 224.909 59.6436Z" fill="#263238"/>
<path d="M224.175 60.2323C224.009 60.2978 223.827 60.3106 223.654 60.2687C223.284 60.175 223.273 59.8363 223.336 59.5446C223.532 59.5491 223.722 59.6193 223.874 59.7439C224.026 59.8685 224.132 60.0405 224.175 60.2323Z" fill="#FF9BBC"/>
<path d="M217.537 57.2886C217.537 57.2886 215.875 53.1623 216.443 51.0366C216.698 50.0728 218.142 49.6299 218.142 49.6299C218.103 49.2155 218.179 48.7983 218.363 48.4249C218.547 48.0515 218.831 47.7364 219.184 47.5147C220.523 46.6081 223.294 47.3115 223.294 47.3115C223.294 47.3115 225.545 44.9774 227.952 46.4414C230.359 47.9054 228.202 50.5521 228.202 50.5521C228.202 50.5521 228.931 52.0474 226.446 52.7194C223.961 53.3915 219.6 51.6201 219.6 51.6201C219.554 53.2373 219.268 54.8387 218.751 56.3716C218.651 56.6204 218.485 56.8372 218.272 56.9988C218.058 57.1603 217.804 57.2605 217.537 57.2886Z" fill="#263238"/>
<path d="M223.753 47.4105C223.214 47.0842 222.615 46.8698 221.992 46.78C221.438 46.6889 220.873 46.6889 220.319 46.78C219.825 46.8384 219.356 47.0295 218.961 47.3332C218.567 47.6368 218.262 48.0416 218.079 48.5045C218 48.7482 217.971 49.0051 217.994 49.2602C218.016 49.5152 218.089 49.7632 218.209 49.9894C218.209 49.9894 218.246 49.9894 218.235 49.9894C217.761 49.1506 218.235 48.0565 218.975 47.5407C219.837 47.0087 220.863 46.8087 221.861 46.978C222.502 47.0753 223.128 47.2503 223.727 47.499C223.732 47.5007 223.739 47.5013 223.745 47.5006C223.751 47.5 223.756 47.4982 223.762 47.4953C223.767 47.4924 223.772 47.4884 223.776 47.4837C223.779 47.479 223.782 47.4736 223.784 47.4678C223.786 47.4619 223.786 47.4558 223.786 47.4498C223.785 47.4438 223.783 47.438 223.78 47.4326C223.777 47.4273 223.773 47.4226 223.769 47.4188C223.764 47.415 223.758 47.4122 223.753 47.4105Z" fill="#263238"/>
<path d="M229.609 47.9732C229.546 47.6119 229.395 47.2717 229.169 46.9834C228.942 46.6951 228.648 46.4677 228.311 46.3217C227.552 45.9442 226.687 45.834 225.857 46.0091C225.023 46.1871 224.252 46.5846 223.622 47.1605C223.622 47.1605 223.622 47.1969 223.622 47.1605C224.187 46.6545 224.877 46.31 225.621 46.1633C226.364 46.0166 227.134 46.0731 227.848 46.3269C228.18 46.4163 228.485 46.5867 228.736 46.8229C228.987 47.0591 229.175 47.3537 229.284 47.6804C229.393 48.0071 229.419 48.3557 229.36 48.695C229.301 49.0343 229.159 49.3537 228.947 49.6248C228.448 50.2605 227.78 50.7426 227.019 51.0158C227.019 51.0158 227.019 51.0523 227.019 51.0419C227.731 50.8265 228.378 50.436 228.9 49.9061C229.149 49.6527 229.34 49.3492 229.463 49.016C229.585 48.6827 229.634 48.3272 229.609 47.9732Z" fill="#263238"/>
<path d="M219.111 57.1115C219.111 57.1115 217.819 54.7722 216.771 55.2151C215.724 55.6579 216.537 58.9298 217.652 59.4873C217.79 59.5678 217.944 59.6196 218.103 59.6395C218.262 59.6595 218.423 59.6472 218.577 59.6034C218.731 59.5597 218.875 59.4853 219 59.3848C219.125 59.2843 219.228 59.1597 219.303 59.0184L219.111 57.1115Z" fill="#C95F50"/>
<path d="M217.027 56.1372C217.027 56.1372 217.027 56.1372 217.027 56.1685C217.381 56.3928 217.683 56.6892 217.915 57.0385C218.146 57.3877 218.302 57.7818 218.371 58.1951C218.332 58.1092 218.275 58.0326 218.204 57.9707C218.133 57.9087 218.049 57.8629 217.959 57.8362C217.868 57.8095 217.773 57.8026 217.679 57.816C217.586 57.8294 217.497 57.8627 217.417 57.9138C217.417 57.9138 217.417 57.9659 217.417 57.9607C217.566 57.9301 217.72 57.9463 217.859 58.0069C217.998 58.0675 218.115 58.1697 218.194 58.2993C218.319 58.5185 218.423 58.7487 218.506 58.9871C218.538 59.0652 218.673 59.0392 218.652 58.9506C218.782 57.9086 218.131 56.3717 217.027 56.1372Z" fill="#263238"/>
<path d="M212.562 68.3442C205.184 76.628 199.636 88.2932 199.688 91.044C199.761 94.0658 203.606 104.71 207.268 109.711C207.742 110.352 210.597 110.081 212.999 108.753C215.547 107.351 217.636 104.85 217.136 104.105C215.255 101.308 210.801 90.4709 210.842 88.7777C210.879 87.2147 214.531 77.6179 215.922 72.0693C217.282 66.7291 215.995 64.4732 212.562 68.3442Z" fill="#C95F50"/>
<path d="M202.814 108.883L216.553 102.173C216.553 102.173 211.15 90.1167 211.15 88.8142C211.15 87.5117 214.703 77.321 216.042 72.6112C217.381 67.9014 216.865 62.608 210.999 69.7301C205.132 76.8521 200.006 87.444 199.422 90.2574C198.839 93.0708 202.814 108.883 202.814 108.883Z" fill="#FF7250"/>
<path d="M211.838 85.3547C212.119 84.4621 212.411 83.5712 212.713 82.682C213.051 81.6869 213.401 80.697 213.755 79.7123C214.109 78.7276 214.51 77.8107 214.896 76.8625C214.896 76.7947 215.042 76.8625 215.021 76.9094C214.562 78.1754 214.135 79.457 213.708 80.7387C214.031 80.1552 214.354 79.5769 214.698 79.0038C214.705 78.9972 214.714 78.9929 214.724 78.9917C214.733 78.9905 214.743 78.9923 214.752 78.9968C214.76 79.0014 214.767 79.0086 214.772 79.0173C214.776 79.026 214.777 79.0358 214.776 79.0454C214.39 79.754 213.984 80.4469 213.572 81.1294C213.473 81.4368 213.369 81.7494 213.265 82.0568C212.687 83.7761 212.134 85.5058 211.64 87.2668C211.517 87.6566 211.435 88.0582 211.395 88.4651C211.374 88.9289 211.443 89.3925 211.598 89.8301C211.848 90.6376 212.119 91.4348 212.411 92.2267C212.984 93.8261 213.609 95.3996 214.26 96.9625C215.005 98.7444 215.854 100.5 216.698 102.235C216.698 102.235 216.177 102.37 216.177 102.381C216.177 102.391 216.136 102.381 216.146 102.355C216.157 102.329 216.469 102.183 216.48 102.183C215.62 100.682 214.802 99.208 214.078 97.6294C213.354 96.0508 212.723 94.5034 212.145 92.8675C211.848 92.0339 211.561 91.2003 211.301 90.3563C211.005 89.5739 210.924 88.7266 211.066 87.9024C211.259 87.0375 211.572 86.1935 211.838 85.3547Z" fill="#263238"/>
<path d="M202.579 105.012C203.066 104.749 203.567 104.512 204.08 104.303C204.528 104.095 204.971 103.881 205.424 103.678C206.404 103.235 207.383 102.787 208.368 102.35C209.352 101.912 210.332 101.469 211.317 101.042C212.301 100.615 213.27 100.156 214.271 99.7864C214.307 99.7864 214.333 99.8281 214.302 99.8489C213.39 100.412 212.416 100.891 211.457 101.355C210.499 101.818 209.556 102.266 208.592 102.699C207.628 103.131 206.617 103.553 205.622 103.954C205.143 104.147 204.658 104.324 204.168 104.507C203.66 104.726 203.138 104.912 202.605 105.064C202.599 105.065 202.593 105.063 202.587 105.06C202.582 105.057 202.577 105.053 202.575 105.047C202.572 105.041 202.571 105.035 202.572 105.029C202.572 105.022 202.575 105.017 202.579 105.012Z" fill="#263238"/>
</svg>
