<svg width="584" height="700" viewBox="0 0 584 700" fill="none" xmlns="http://www.w3.org/2000/svg">
<ellipse cx="291.666" cy="670.833" rx="250.833" ry="29.1667" fill="#F4F4F4"/>
<circle cx="291.667" cy="291.667" r="291.667" fill="#1B0B0B"/>
<path d="M378.291 203.292C382.4 199.38 387.867 197.218 393.54 197.261C399.213 197.304 404.647 199.549 408.696 203.522C412.745 207.495 415.092 212.886 415.242 218.557C415.392 224.228 413.333 229.735 409.5 233.917L293.125 379.459C291.124 381.614 288.708 383.344 286.023 384.544C283.339 385.745 280.439 386.392 277.499 386.446C274.558 386.501 271.637 385.962 268.909 384.861C266.182 383.761 263.704 382.122 261.625 380.042L184.45 302.867C182.3 300.864 180.577 298.449 179.381 295.766C178.185 293.083 177.543 290.186 177.491 287.249C177.439 284.312 177.979 281.394 179.079 278.67C180.18 275.947 181.817 273.472 183.894 271.395C185.972 269.318 188.446 267.68 191.17 266.58C193.894 265.48 196.811 264.94 199.748 264.991C202.685 265.043 205.582 265.686 208.265 266.882C210.949 268.077 213.364 269.801 215.366 271.95L276.441 332.996L377.737 203.934C377.92 203.709 378.114 203.495 378.32 203.292H378.291Z" fill="white"/>
</svg>
