<svg width="50" height="50" viewBox="0 0 50 50" fill="none" xmlns="http://www.w3.org/2000/svg">
<path d="M24.9994 4.16663C13.4994 4.16663 4.16602 13.5 4.16602 25C4.16602 36.5 13.4994 45.8333 24.9994 45.8333C36.4994 45.8333 45.8327 36.5 45.8327 25C45.8327 13.5 36.4994 4.16663 24.9994 4.16663ZM24.9994 12.5C29.0202 12.5 32.291 15.7708 32.291 19.7916C32.291 23.8125 29.0202 27.0833 24.9994 27.0833C20.9785 27.0833 17.7077 23.8125 17.7077 19.7916C17.7077 15.7708 20.9785 12.5 24.9994 12.5ZM24.9994 41.6666C20.7702 41.6666 15.7702 39.9583 12.2077 35.6666C15.8569 32.8035 20.3611 31.2475 24.9994 31.2475C29.6376 31.2475 34.1418 32.8035 37.791 35.6666C34.2285 39.9583 29.2285 41.6666 24.9994 41.6666Z" fill="#1B0B0B"/>
</svg>
