<svg width="74" height="100" viewBox="0 0 74 100" fill="none" xmlns="http://www.w3.org/2000/svg">
<path d="M73.6607 43.5268C73.6607 43.0357 73.2589 42.6339 72.7679 42.6339H66.0714C65.5804 42.6339 65.1786 43.0357 65.1786 43.5268C65.1786 59.1853 52.4888 71.875 36.8304 71.875C21.1719 71.875 8.48214 59.1853 8.48214 43.5268C8.48214 43.0357 8.08036 42.6339 7.58929 42.6339H0.892857C0.401786 42.6339 0 43.0357 0 43.5268C0 62.3549 14.1295 77.8906 32.3661 80.0893V91.5179H16.1496C14.6205 91.5179 13.3929 93.1138 13.3929 95.0893V99.1071C13.3929 99.5982 13.7054 100 14.0848 100H59.5759C59.9554 100 60.2679 99.5982 60.2679 99.1071V95.0893C60.2679 93.1138 59.0402 91.5179 57.5112 91.5179H40.8482V80.1451C59.2969 78.1362 73.6607 62.5112 73.6607 43.5268ZM36.8304 62.5C47.3103 62.5 55.8036 54.1071 55.8036 43.75V18.75C55.8036 8.39286 47.3103 0 36.8304 0C26.3504 0 17.8571 8.39286 17.8571 18.75V43.75C17.8571 54.1071 26.3504 62.5 36.8304 62.5ZM26.3393 18.75C26.3393 13.1027 31.0156 8.48214 36.8304 8.48214C42.6451 8.48214 47.3214 13.1027 47.3214 18.75V43.75C47.3214 49.3973 42.6451 54.0179 36.8304 54.0179C31.0156 54.0179 26.3393 49.3973 26.3393 43.75V18.75Z" fill="white"/>
</svg>
