<svg width="22" height="18" viewBox="0 0 22 18" fill="none" xmlns="http://www.w3.org/2000/svg">
<path d="M10.8281 1.5C9.23438 1.5 7.74414 1.77148 6.35742 2.31445C4.9707 2.85742 3.86914 3.58984 3.05273 4.51172C2.23633 5.43359 1.82812 6.42969 1.82812 7.5C1.82812 8.375 2.10742 9.20898 2.66602 10.002C3.22461 10.7949 4.01172 11.4805 5.02734 12.0586L6.04688 12.6445L5.73047 13.7695C5.54297 14.4805 5.26953 15.1523 4.91016 15.7852C6.09766 15.293 7.17188 14.625 8.13281 13.7812L8.63672 13.3359L9.30469 13.4062C9.84375 13.4688 10.3516 13.5 10.8281 13.5C12.4219 13.5 13.9121 13.2285 15.2988 12.6855C16.6855 12.1426 17.7871 11.4102 18.6035 10.4883C19.4199 9.56641 19.8281 8.57031 19.8281 7.5C19.8281 6.42969 19.4199 5.43359 18.6035 4.51172C17.7871 3.58984 16.6855 2.85742 15.2988 2.31445C13.9121 1.77148 12.4219 1.5 10.8281 1.5ZM21.3281 7.5C21.3281 8.85938 20.8594 10.1152 19.9219 11.2676C18.9844 12.4199 17.7109 13.3301 16.1016 13.998C14.4922 14.666 12.7344 15 10.8281 15C10.2812 15 9.71484 14.9688 9.12891 14.9062C7.58203 16.2734 5.78516 17.2188 3.73828 17.7422C3.35547 17.8516 2.91016 17.9375 2.40234 18H2.34375C2.22656 18 2.12109 17.959 2.02734 17.877C1.93359 17.7949 1.87109 17.6875 1.83984 17.5547V17.543C1.81641 17.5117 1.81445 17.4648 1.83398 17.4023C1.85352 17.3398 1.86133 17.3008 1.85742 17.2852C1.85352 17.2695 1.87109 17.2324 1.91016 17.1738L1.98047 17.0684L2.0625 16.9688L2.15625 16.8633C2.21094 16.8008 2.33203 16.666 2.51953 16.459C2.70703 16.252 2.8418 16.1035 2.92383 16.0137C3.00586 15.9238 3.12695 15.7695 3.28711 15.5508C3.44727 15.332 3.57422 15.1328 3.66797 14.9531C3.76172 14.7734 3.86719 14.543 3.98438 14.2617C4.10156 13.9805 4.20312 13.6836 4.28906 13.3711C3.0625 12.6758 2.0957 11.8164 1.38867 10.793C0.681641 9.76953 0.328125 8.67188 0.328125 7.5C0.328125 6.14062 0.796875 4.88477 1.73438 3.73242C2.67188 2.58008 3.94531 1.66992 5.55469 1.00195C7.16406 0.333984 8.92188 0 10.8281 0C12.7344 0 14.4922 0.333984 16.1016 1.00195C17.7109 1.66992 18.9844 2.58008 19.9219 3.73242C20.8594 4.88477 21.3281 6.14062 21.3281 7.5Z" fill="white"/>
</svg>
