<svg width="70" height="70" viewBox="0 0 70 70" fill="none" xmlns="http://www.w3.org/2000/svg">
<path d="M21.8753 19.6875V18.1606C21.8753 10.5744 27.7203 4.375 35.0003 4.375C42.2803 4.375 48.1253 10.5744 48.1253 18.1606V19.6919H57.0853C57.6272 19.6924 58.1497 19.8941 58.5514 20.2578C58.9531 20.6215 59.2055 21.1214 59.2597 21.6606L63.1972 61.0356C63.2277 61.3396 63.1943 61.6467 63.0989 61.9369C63.0036 62.2272 62.8485 62.4943 62.6437 62.721C62.4388 62.9477 62.1888 63.129 61.9096 63.2531C61.6304 63.3773 61.3284 63.4416 61.0228 63.4419H8.97782C8.67229 63.4416 8.37021 63.3773 8.09104 63.2531C7.81187 63.129 7.56181 62.9477 7.35696 62.721C7.15212 62.4943 6.99703 62.2272 6.9017 61.9369C6.80636 61.6467 6.77289 61.3396 6.80345 61.0356L10.7409 21.6606C10.7951 21.1214 11.0475 20.6215 11.4493 20.2578C11.851 19.8941 12.3734 19.6924 12.9153 19.6919H21.8753V19.6875ZM26.2503 19.6875H43.7503V18.1606C43.7503 12.9369 39.8041 8.75 35.0003 8.75C30.1966 8.75 26.2503 12.9369 26.2503 18.1606V19.6919V19.6875ZM21.8753 24.0625H14.8972L11.3972 59.0625H58.6034L55.0991 24.0625H48.1253V30.625C48.1253 31.2052 47.8949 31.7616 47.4846 32.1718C47.0744 32.582 46.518 32.8125 45.9378 32.8125C45.3577 32.8125 44.8013 32.582 44.391 32.1718C43.9808 31.7616 43.7503 31.2052 43.7503 30.625V24.0625H26.2503V30.625C26.2503 31.2052 26.0199 31.7616 25.6096 32.1718C25.1994 32.582 24.643 32.8125 24.0628 32.8125C23.4827 32.8125 22.9263 32.582 22.516 32.1718C22.1058 31.7616 21.8753 31.2052 21.8753 30.625V24.0625Z" fill="#1B0B0B"/>
</svg>
