<svg width="22" height="17" viewBox="0 0 22 17" fill="none" xmlns="http://www.w3.org/2000/svg">
<path d="M0.849998 3.58456e-05C0.624565 3.58456e-05 0.408364 0.0895891 0.248959 0.248995C0.0895531 0.4084 0 0.624601 0 0.850034C0 1.07547 0.0895531 1.29167 0.248959 1.45107C0.408364 1.61048 0.624565 1.70003 0.849998 1.70003H2.73699L4.96739 10.625C5.15694 11.3815 5.83439 11.9 6.61384 11.9H17.2133C17.9809 11.9 18.6328 11.39 18.8343 10.6505L21.0375 2.55003H19.2576L17.2125 10.2H6.61299L4.38344 1.27503C4.29134 0.908879 4.07904 0.584221 3.78052 0.353052C3.482 0.121883 3.11455 -0.00242499 2.73699 3.58456e-05H0.849998ZM16.15 11.9C14.7517 11.9 13.6 13.0518 13.6 14.45C13.6 15.8483 14.7517 17 16.15 17C17.5482 17 18.7 15.8483 18.7 14.45C18.7 13.0518 17.5482 11.9 16.15 11.9ZM8.49998 11.9C7.10174 11.9 5.94999 13.0518 5.94999 14.45C5.94999 15.8483 7.10174 17 8.49998 17C9.89823 17 11.05 15.8483 11.05 14.45C11.05 13.0518 9.89823 11.9 8.49998 11.9ZM11.05 3.58456e-05V4.25003H8.49998L11.9 7.65002L15.3 4.25003H12.75V3.58456e-05H11.05ZM8.49998 13.6C8.97938 13.6 9.34998 13.9706 9.34998 14.45C9.34998 14.9294 8.97938 15.3 8.49998 15.3C8.02058 15.3 7.64998 14.9294 7.64998 14.45C7.64998 13.9706 8.02058 13.6 8.49998 13.6ZM16.15 13.6C16.6294 13.6 17 13.9706 17 14.45C17 14.9294 16.6294 15.3 16.15 15.3C15.6706 15.3 15.3 14.9294 15.3 14.45C15.3 13.9706 15.6706 13.6 16.15 13.6Z" fill="white"/>
</svg>
