<svg width="49" height="54" viewBox="0 0 49 54" fill="none" xmlns="http://www.w3.org/2000/svg">
<path d="M14.1538 2.16669V9.30955" stroke="#1B0B0B" stroke-width="3" stroke-miterlimit="10" stroke-linecap="round" stroke-linejoin="round"/>
<path d="M33.2031 2.16669V9.30955" stroke="#1B0B0B" stroke-width="3" stroke-miterlimit="10" stroke-linecap="round" stroke-linejoin="round"/>
<path d="M3.43994 19.0476H43.9161" stroke="#1B0B0B" stroke-width="3" stroke-miterlimit="10" stroke-linecap="round" stroke-linejoin="round"/>
<path d="M47.4881 42.6429C47.4881 44.4286 46.9881 46.119 46.1071 47.5476C44.4642 50.3095 41.4404 52.1667 37.9642 52.1667C35.5595 52.1667 33.369 51.2857 31.7023 49.7857C30.9642 49.1667 30.3214 48.4048 29.8214 47.5476C28.9404 46.119 28.4404 44.4286 28.4404 42.6429C28.4404 37.381 32.7023 33.119 37.9642 33.119C40.8214 33.119 43.369 34.3809 45.1071 36.3571C46.5833 38.0476 47.4881 40.2381 47.4881 42.6429Z" stroke="#1B0B0B" stroke-width="3" stroke-miterlimit="10" stroke-linecap="round" stroke-linejoin="round"/>
<path d="M34.2495 42.6429L36.6067 45L41.6781 40.3095" stroke="#1B0B0B" stroke-width="3" stroke-linecap="round" stroke-linejoin="round"/>
<path d="M45.1072 17.6429V36.3571C43.3691 34.3809 40.8214 33.1191 37.9643 33.1191C32.7024 33.1191 28.4405 37.381 28.4405 42.6429C28.4405 44.4286 28.9405 46.1191 29.8214 47.5476C30.3214 48.4048 30.9643 49.1667 31.7024 49.7857H14.1548C5.82143 49.7857 2.25 45.0238 2.25 37.881V17.6429C2.25 10.5 5.82143 5.73811 14.1548 5.73811H33.2024C41.5357 5.73811 45.1072 10.5 45.1072 17.6429Z" stroke="#1B0B0B" stroke-width="3" stroke-miterlimit="10" stroke-linecap="round" stroke-linejoin="round"/>
<path d="M23.6671 30.0239H23.6885" stroke="#1B0B0B" stroke-width="4" stroke-linecap="round" stroke-linejoin="round"/>
<path d="M14.8561 30.0239H14.8775" stroke="#1B0B0B" stroke-width="4" stroke-linecap="round" stroke-linejoin="round"/>
<path d="M14.8561 37.1667H14.8775" stroke="#1B0B0B" stroke-width="4" stroke-linecap="round" stroke-linejoin="round"/>
</svg>
