<svg width="70" height="70" viewBox="0 0 70 70" fill="none" xmlns="http://www.w3.org/2000/svg">
<path d="M61.25 13.125C61.25 11.9647 60.7891 10.8519 59.9686 10.0314C59.1481 9.21094 58.0353 8.75 56.875 8.75H48.125V4.375H43.75V8.75H26.25V4.375H21.875V8.75H13.125C11.9647 8.75 10.8519 9.21094 10.0314 10.0314C9.21094 10.8519 8.75 11.9647 8.75 13.125V56.875C8.75 58.0353 9.21094 59.1481 10.0314 59.9686C10.8519 60.7891 11.9647 61.25 13.125 61.25H21.875V56.875H13.125V13.125H21.875V17.5H26.25V13.125H43.75V17.5H48.125V13.125H56.875V26.25H61.25V13.125Z" fill="#1B0B0B"/>
<path d="M45.9375 32.8125L51.5134 43.6144L63.4375 45.3447L54.6875 53.7534L56.875 65.625L45.9375 60.0206L35 65.625L37.1875 53.7534L28.4375 45.3447L40.6875 43.6144L45.9375 32.8125Z" fill="#1B0B0B"/>
</svg>
