<svg width="10" height="9" viewBox="0 0 10 9" fill="none" xmlns="http://www.w3.org/2000/svg">
<path d="M0.399999 0.375017C0.293913 0.375017 0.192171 0.41716 0.117157 0.492174C0.0421426 0.567188 0 0.66893 0 0.775016C0 0.881102 0.0421426 0.982844 0.117157 1.05786C0.192171 1.13287 0.293913 1.17502 0.399999 1.17502H1.288L2.33759 5.37501C2.42679 5.73101 2.74559 5.97501 3.11239 5.97501H8.10038C8.46158 5.97501 8.76838 5.73501 8.86318 5.38701L9.89998 1.57501H9.06238L8.09998 5.17501H3.11199L2.0628 0.975016C2.01946 0.802708 1.91955 0.649928 1.77907 0.541142C1.63859 0.432356 1.46567 0.373859 1.288 0.375017H0.399999ZM7.59998 5.97501C6.94199 5.97501 6.39999 6.517 6.39999 7.175C6.39999 7.833 6.94199 8.375 7.59998 8.375C8.25798 8.375 8.79998 7.833 8.79998 7.175C8.79998 6.517 8.25798 5.97501 7.59998 5.97501ZM3.99999 5.97501C3.34199 5.97501 2.79999 6.517 2.79999 7.175C2.79999 7.833 3.34199 8.375 3.99999 8.375C4.65799 8.375 5.19999 7.833 5.19999 7.175C5.19999 6.517 4.65799 5.97501 3.99999 5.97501ZM5.19999 0.375017V2.37501H3.99999L5.59999 3.97501L7.19998 2.37501H5.99999V0.375017H5.19999ZM3.99999 6.775C4.22559 6.775 4.39999 6.9494 4.39999 7.175C4.39999 7.4006 4.22559 7.575 3.99999 7.575C3.77439 7.575 3.59999 7.4006 3.59999 7.175C3.59999 6.9494 3.77439 6.775 3.99999 6.775ZM7.59998 6.775C7.82558 6.775 7.99998 6.9494 7.99998 7.175C7.99998 7.4006 7.82558 7.575 7.59998 7.575C7.37438 7.575 7.19998 7.4006 7.19998 7.175C7.19998 6.9494 7.37438 6.775 7.59998 6.775Z" fill="#1B0B0B"/>
</svg>
