<svg width="50" height="50" viewBox="0 0 50 50" fill="none" xmlns="http://www.w3.org/2000/svg">
<path d="M4.16602 4.16667H7.79103C10.041 4.16667 11.8119 6.10417 11.6244 8.33333L9.89518 29.0833C9.60352 32.4791 12.291 35.3958 15.7077 35.3958H37.8952C40.8952 35.3958 43.5202 32.9375 43.7494 29.9583L44.8743 14.3333C45.1243 10.875 42.4993 8.06249 39.0202 8.06249H12.1244" stroke="#1B0B0B" stroke-width="3" stroke-miterlimit="10" stroke-linecap="round" stroke-linejoin="round"/>
<path d="M33.8542 45.8333C35.2924 45.8333 36.4583 44.6674 36.4583 43.2292C36.4583 41.7909 35.2924 40.625 33.8542 40.625C32.4159 40.625 31.25 41.7909 31.25 43.2292C31.25 44.6674 32.4159 45.8333 33.8542 45.8333Z" stroke="#1B0B0B" stroke-width="3" stroke-miterlimit="10" stroke-linecap="round" stroke-linejoin="round"/>
<path d="M17.1882 45.8333C18.6264 45.8333 19.7923 44.6674 19.7923 43.2292C19.7923 41.7909 18.6264 40.625 17.1882 40.625C15.7499 40.625 14.584 41.7909 14.584 43.2292C14.584 44.6674 15.7499 45.8333 17.1882 45.8333Z" stroke="#1B0B0B" stroke-width="3" stroke-miterlimit="10" stroke-linecap="round" stroke-linejoin="round"/>
<path d="M18.75 16.6667H43.75" stroke="#1B0B0B" stroke-width="3" stroke-miterlimit="10" stroke-linecap="round" stroke-linejoin="round"/>
</svg>
