<svg width="50" height="50" viewBox="0 0 50 50" fill="none" xmlns="http://www.w3.org/2000/svg">
<path d="M24.9998 37.9167C29.6022 37.9167 33.3332 34.1857 33.3332 29.5833C33.3332 24.981 29.6022 21.25 24.9998 21.25C20.3975 21.25 16.6665 24.981 16.6665 29.5833C16.6665 34.1857 20.3975 37.9167 24.9998 37.9167Z" stroke="#1B0B0B" stroke-width="3" stroke-miterlimit="10" stroke-linecap="round" stroke-linejoin="round"/>
<path d="M25.5207 26.9792V28.9167C25.5207 29.6458 25.1457 30.3333 24.4998 30.7083L22.9165 31.6667" stroke="#1B0B0B" stroke-width="3" stroke-miterlimit="10" stroke-linecap="round" stroke-linejoin="round"/>
<path d="M16.6669 45.8333H33.3335C41.7085 45.8333 43.2085 42.4792 43.646 38.3958L45.2085 21.7292C45.771 16.6458 44.3127 12.5 35.4169 12.5H14.5835C5.68771 12.5 4.22938 16.6458 4.79188 21.7292L6.35438 38.3958C6.79188 42.4792 8.29188 45.8333 16.6669 45.8333Z" stroke="#1B0B0B" stroke-width="3" stroke-miterlimit="10" stroke-linecap="round" stroke-linejoin="round"/>
<path d="M16.6665 12.5V10.8333C16.6665 7.14583 16.6665 4.16666 23.3332 4.16666H26.6665C33.3332 4.16666 33.3332 7.14583 33.3332 10.8333V12.5" stroke="#1B0B0B" stroke-width="3" stroke-miterlimit="10" stroke-linecap="round" stroke-linejoin="round"/>
<path d="M45.104 22.9167C41.4998 25.5417 37.4998 27.375 33.354 28.4167" stroke="#1B0B0B" stroke-width="3" stroke-miterlimit="10" stroke-linecap="round" stroke-linejoin="round"/>
<path d="M5.4585 23.4792C8.93766 25.8542 12.7293 27.5417 16.6668 28.5" stroke="#1B0B0B" stroke-width="3" stroke-miterlimit="10" stroke-linecap="round" stroke-linejoin="round"/>
</svg>
