<svg width="23" height="23" viewBox="0 0 23 23" fill="none" xmlns="http://www.w3.org/2000/svg">
<path d="M22.2057 6.68098C22.0063 6.02152 22.2291 5.32254 22.1051 4.6523C22.0027 4.08809 21.7493 3.55801 21.4474 3.07465C20.9012 2.19957 19.7943 1.80426 18.8168 1.68207C18.1556 1.59941 17.4566 1.68746 16.8528 1.34605C16.4126 1.09809 15.9454 0.835742 15.4638 0.648867C14.2545 0.183477 12.8673 0.120586 11.5826 0.0828516L11.4999 0.0810547L11.4173 0.0828516C10.1343 0.120586 8.74711 0.183477 7.53782 0.648867C7.05625 0.833945 6.58907 1.09629 6.14883 1.34605C5.54508 1.68746 4.8461 1.59941 4.18305 1.68207C3.20735 1.80246 2.10047 2.19777 1.55422 3.07465C1.25235 3.55801 1.00078 4.08809 0.896565 4.6523C0.772581 5.32254 0.995394 6.02152 0.79594 6.68098C0.751019 6.83012 0.562347 7.05113 0.636019 7.21824C0.711487 7.39254 1.12657 7.52012 1.28289 7.60996C1.80578 7.91723 2.38078 8.13465 2.96297 8.30715C3.35289 8.42395 3.75899 8.66473 4.18125 8.60543C4.36274 8.58027 4.50289 8.5066 4.52985 8.31973C4.61071 7.74832 4.81196 7.16613 4.99883 6.62348C5.04914 6.47613 5.12461 6.21379 5.33664 6.23176C5.48039 6.24434 5.56125 6.5534 5.55227 6.6666C5.51813 7.09605 5.4175 7.52191 5.40133 7.95316C5.38336 8.40598 5.51274 8.77434 5.65649 9.19301C5.81821 9.6584 6.01586 10.113 6.15602 10.5856C6.30516 11.1013 6.21532 11.6457 6.06438 12.1507C5.70141 13.3546 5.20907 14.4561 4.7275 15.6132C4.54602 16.0463 4.38789 16.4883 4.21 16.9232C4.12927 17.1202 4.04299 17.315 3.95125 17.5071C3.70149 18.0318 3.16602 18.4254 3.2343 19.0794C3.34211 20.1072 4.30524 20.7038 5.10485 21.1979C7.00414 22.3731 9.26821 22.9301 11.5017 22.9193C13.737 22.9301 16.0011 22.3749 17.9022 21.1979C18.7 20.7038 19.6649 20.1072 19.7727 19.0794C19.841 18.4271 19.3038 18.0318 19.0558 17.5071C18.9659 17.3167 18.8779 17.119 18.7988 16.9232C18.6227 16.4883 18.4628 16.0463 18.2813 15.6132C17.798 14.4561 17.3056 13.3546 16.9445 12.1507C16.7935 11.6457 16.7019 11.1013 16.8528 10.5856C16.9912 10.1112 17.1906 9.6584 17.3505 9.19301C17.4961 8.77434 17.6237 8.40598 17.6075 7.95316C17.5931 7.52012 17.4907 7.09605 17.4566 6.6666C17.4494 6.55519 17.5284 6.24434 17.6704 6.23176C17.8842 6.21559 17.9597 6.47613 18.01 6.62348C18.1969 7.16793 18.3981 7.75012 18.479 8.31973C18.5059 8.5066 18.6461 8.58027 18.8276 8.60543C19.2516 8.66473 19.6541 8.42395 20.0459 8.30715C20.628 8.13465 21.2013 7.91723 21.7259 7.60996C21.8805 7.52012 22.2956 7.39254 22.3728 7.21824C22.4393 7.05113 22.2524 6.83012 22.2057 6.68098V6.68098Z" fill="#FCC21B"/>
<path d="M9.67449 4.80979C9.2073 5.01643 8.67004 4.98229 8.19746 4.80799L8.16691 4.79721C7.89918 4.69479 7.61527 4.51869 7.39605 4.33182C6.69527 3.72268 6.62519 2.66072 6.90191 1.83057C6.97379 1.61314 7.22176 1.32025 7.48051 1.37416C7.51824 1.38314 7.55777 1.39752 7.5973 1.41729C7.85605 1.55205 8.05012 1.76947 8.28551 1.93658C8.69519 2.22768 9.11926 2.35525 9.58105 2.53494C9.90449 2.65893 10.2369 2.76135 10.5729 2.83322C10.6628 2.85119 10.7634 2.88174 10.8461 2.91229C10.9754 2.9608 10.9826 3.10455 10.988 3.22315C11.0042 3.52682 10.6879 3.91135 10.51 4.13416C10.2854 4.41268 10.0105 4.66244 9.67449 4.80979V4.80979ZM15.4784 4.33002C15.261 4.51869 14.9771 4.69299 14.7075 4.79541L14.6788 4.80619C14.208 4.98049 13.6689 5.01463 13.2018 4.80799C12.8657 4.66065 12.5908 4.41268 12.3644 4.12877C12.1865 3.90775 11.8703 3.52143 11.8864 3.21775C11.8936 3.09916 11.9008 2.95541 12.0302 2.90689C12.1146 2.87455 12.2153 2.8458 12.3033 2.82783C12.6411 2.75596 12.9736 2.65354 13.297 2.52955C13.7588 2.35166 14.1828 2.22229 14.5925 1.93119C14.8279 1.76408 15.0238 1.54486 15.2807 1.41189C15.3203 1.39213 15.3598 1.37596 15.3975 1.36877C15.6563 1.31486 15.9025 1.60955 15.9743 1.82518C16.2511 2.65893 16.181 3.72088 15.4784 4.33002V4.33002Z" fill="white"/>
<path d="M11.4445 19.3577C11.9089 19.3577 12.2854 18.9812 12.2854 18.5167C12.2854 18.0523 11.9089 17.6758 11.4445 17.6758C10.98 17.6758 10.6035 18.0523 10.6035 18.5167C10.6035 18.9812 10.98 19.3577 11.4445 19.3577Z" fill="#F79329"/>
<path d="M11.4445 15.0364C11.9089 15.0364 12.2854 14.6599 12.2854 14.1954C12.2854 13.731 11.9089 13.3545 11.4445 13.3545C10.98 13.3545 10.6035 13.731 10.6035 14.1954C10.6035 14.6599 10.98 15.0364 11.4445 15.0364Z" fill="#F79329"/>
<path d="M11.4445 10.717C11.9089 10.717 12.2854 10.3405 12.2854 9.87609C12.2854 9.41166 11.9089 9.03516 11.4445 9.03516C10.98 9.03516 10.6035 9.41166 10.6035 9.87609C10.6035 10.3405 10.98 10.717 11.4445 10.717Z" fill="#F79329"/>
<path d="M11.4445 6.39477C11.9089 6.39477 12.2854 6.01827 12.2854 5.55383C12.2854 5.08939 11.9089 4.71289 11.4445 4.71289C10.98 4.71289 10.6035 5.08939 10.6035 5.55383C10.6035 6.01827 10.98 6.39477 11.4445 6.39477Z" fill="#F79329"/>
</svg>
