<svg width="50" height="50" viewBox="0 0 50 50" fill="none" xmlns="http://www.w3.org/2000/svg">
<path d="M22.916 8.33325H8.33268C7.22761 8.33325 6.16781 8.77224 5.3864 9.55364C4.605 10.335 4.16602 11.3949 4.16602 12.4999V41.6666C4.16602 42.7717 4.605 43.8315 5.3864 44.6129C6.16781 45.3943 7.22761 45.8333 8.33268 45.8333H37.4993C38.6044 45.8333 39.6642 45.3943 40.4456 44.6129C41.227 43.8315 41.666 42.7717 41.666 41.6666V27.0833" stroke="#1B0B0B" stroke-width="2" stroke-linecap="round" stroke-linejoin="round"/>
<path d="M38.541 5.20824C39.3698 4.37943 40.4939 3.91382 41.666 3.91382C42.8381 3.91382 43.9622 4.37943 44.791 5.20824C45.6198 6.03704 46.0854 7.16113 46.0854 8.33324C46.0854 9.50534 45.6198 10.6294 44.791 11.4582L24.9993 31.2499L16.666 33.3332L18.7493 24.9999L38.541 5.20824Z" stroke="#1B0B0B" stroke-width="2" stroke-linecap="round" stroke-linejoin="round"/>
</svg>
