<svg width="21" height="20" viewBox="0 0 21 20" fill="none" xmlns="http://www.w3.org/2000/svg">
<path d="M6.5501 1.66699H14.4418C14.9834 1.66699 15.4668 1.68368 15.9001 1.74201C18.2084 2.00035 18.8334 3.08367 18.8334 6.05033V11.317C18.8334 14.2837 18.2084 15.367 15.9001 15.6253C15.4668 15.6837 14.9918 15.7003 14.4418 15.7003H6.5501C6.00844 15.7003 5.5251 15.6837 5.09177 15.6253C2.78344 15.367 2.15845 14.2837 2.15845 11.317V6.05033C2.15845 3.08367 2.78344 2.00035 5.09177 1.74201C5.5251 1.68368 6.00844 1.66699 6.5501 1.66699Z" stroke="#1B0B0B" stroke-width="1.5" stroke-linecap="round" stroke-linejoin="round"/>
<path d="M11.8169 6.93359H14.8836" stroke="#1B0B0B" stroke-width="1.5" stroke-linecap="round" stroke-linejoin="round"/>
<path d="M6.1167 11.7588H6.13336H14.8917" stroke="#1B0B0B" stroke-width="1.5" stroke-linecap="round" stroke-linejoin="round"/>
<path d="M6.33325 18.333H14.6666" stroke="#1B0B0B" stroke-width="1.5" stroke-linecap="round" stroke-linejoin="round"/>
<path d="M6.49559 6.91667H6.50307" stroke="#1B0B0B" stroke-width="2" stroke-linecap="round" stroke-linejoin="round"/>
<path d="M9.24534 6.91667H9.25283" stroke="#1B0B0B" stroke-width="2" stroke-linecap="round" stroke-linejoin="round"/>
</svg>
