<svg width="100" height="100" viewBox="0 0 100 100" fill="none" xmlns="http://www.w3.org/2000/svg">
<path d="M68.75 40.625C68.75 39.7962 69.0792 39.0013 69.6653 38.4153C70.2513 37.8292 71.0462 37.5 71.875 37.5H78.125C78.9538 37.5 79.7487 37.8292 80.3347 38.4153C80.9208 39.0013 81.25 39.7962 81.25 40.625V46.875C81.25 47.7038 80.9208 48.4987 80.3347 49.0847C79.7487 49.6708 78.9538 50 78.125 50H71.875C71.0462 50 70.2513 49.6708 69.6653 49.0847C69.0792 48.4987 68.75 47.7038 68.75 46.875V40.625Z" fill="white"/>
<path d="M21.875 0C22.7038 0 23.4987 0.32924 24.0847 0.915291C24.6708 1.50134 25 2.2962 25 3.125V6.25H75V3.125C75 2.2962 75.3292 1.50134 75.9153 0.915291C76.5013 0.32924 77.2962 0 78.125 0C78.9538 0 79.7487 0.32924 80.3347 0.915291C80.9208 1.50134 81.25 2.2962 81.25 3.125V6.25H87.5C90.8152 6.25 93.9946 7.56696 96.3388 9.91117C98.683 12.2554 100 15.4348 100 18.75V87.5C100 90.8152 98.683 93.9946 96.3388 96.3388C93.9946 98.683 90.8152 100 87.5 100H12.5C9.18479 100 6.00537 98.683 3.66117 96.3388C1.31696 93.9946 0 90.8152 0 87.5V18.75C0 15.4348 1.31696 12.2554 3.66117 9.91117C6.00537 7.56696 9.18479 6.25 12.5 6.25H18.75V3.125C18.75 2.2962 19.0792 1.50134 19.6653 0.915291C20.2513 0.32924 21.0462 0 21.875 0V0ZM6.25 25V87.5C6.25 89.1576 6.90848 90.7473 8.08058 91.9194C9.25268 93.0915 10.8424 93.75 12.5 93.75H87.5C89.1576 93.75 90.7473 93.0915 91.9194 91.9194C93.0915 90.7473 93.75 89.1576 93.75 87.5V25H6.25Z" fill="white"/>
</svg>
