<svg width="100" height="100" viewBox="0 0 100 100" fill="none" xmlns="http://www.w3.org/2000/svg">
<path d="M49.9993 58.3337C52.2095 58.3337 54.3291 57.4557 55.8919 55.8929C57.4547 54.3301 58.3327 52.2105 58.3327 50.0003C58.3327 47.7902 57.4547 45.6706 55.8919 44.1078C54.3291 42.545 52.2095 41.667 49.9993 41.667C47.7892 41.667 45.6696 42.545 44.1068 44.1078C42.544 45.6706 41.666 47.7902 41.666 50.0003C41.666 52.2105 42.544 54.3301 44.1068 55.8929C45.6696 57.4557 47.7892 58.3337 49.9993 58.3337Z" stroke="#B9B9B9" stroke-width="6.25" stroke-linecap="round" stroke-linejoin="round"/>
<path d="M87.5 50C79.6292 62.4625 65.4917 75 50 75C34.5083 75 20.3708 62.4625 12.5 50C22.0792 38.1583 33.3 25 50 25C66.7 25 77.9208 38.1583 87.5 50Z" stroke="#B9B9B9" stroke-width="6.25" stroke-linecap="round" stroke-linejoin="round"/>
</svg>
