<svg width="50" height="50" viewBox="0 0 50 50" fill="none" xmlns="http://www.w3.org/2000/svg">
<path d="M21.875 22.2437C21.173 23.0386 20.8005 24.0711 20.8334 25.131C20.8662 26.1909 21.302 27.1984 22.0518 27.9482C22.8016 28.698 23.8091 29.1338 24.869 29.1666C25.9289 29.1995 26.9614 28.827 27.7562 28.125M6.25 6.25L43.75 43.75L6.25 6.25Z" stroke="#B9B9B9" stroke-width="2" stroke-linecap="round" stroke-linejoin="round"/>
<path d="M25 12.5C33.35 12.5 38.9604 19.0792 43.75 25C43.0635 26.0849 42.3136 27.1284 41.5042 28.125M15.3375 15.7521C11.8333 18.2083 8.91458 21.7083 6.25 25C10.1854 31.2312 17.2542 37.5 25 37.5C28.2292 37.5 31.3396 36.4104 34.1562 34.6875L15.3375 15.7521Z" stroke="#B9B9B9" stroke-width="2" stroke-linecap="round" stroke-linejoin="round"/>
</svg>
