<svg width="100" height="100" viewBox="0 0 100 100" fill="none" xmlns="http://www.w3.org/2000/svg">
<path d="M12.5 12.5L87.5 87.5M43.75 44.4875C42.3461 46.0771 41.6011 48.1422 41.6668 50.262C41.7325 52.3818 42.6039 54.3968 44.1035 55.8964C45.6032 57.3961 47.6182 58.2675 49.738 58.3332C51.8578 58.3989 53.9229 57.6539 55.5125 56.25" stroke="#B9B9B9" stroke-width="6.25" stroke-linecap="round" stroke-linejoin="round"/>
<path d="M30.675 31.5042C23.6667 36.4167 17.8292 43.4167 12.5 50C20.3708 62.4625 34.5083 75 50 75C56.4583 75 62.6792 72.8208 68.3125 69.375M50 25C66.7 25 77.9208 38.1583 87.5 50C86.1271 52.1699 84.6272 54.2569 83.0083 56.25" stroke="#B9B9B9" stroke-width="6.25" stroke-linecap="round" stroke-linejoin="round"/>
</svg>
