<svg width="100" height="100" viewBox="0 0 100 100" fill="none" xmlns="http://www.w3.org/2000/svg">
<path d="M11.1111 100C8.05556 100 5.43889 98.913 3.26111 96.7389C1.08704 94.5611 0 91.9444 0 88.8889V11.1111C0 8.05556 1.08704 5.43889 3.26111 3.26111C5.43889 1.08704 8.05556 0 11.1111 0H72.2222L100 27.7778V88.8889C100 91.9444 98.913 94.5611 96.7389 96.7389C94.5611 98.913 91.9444 100 88.8889 100H11.1111ZM11.1111 88.8889H88.8889V33.3333H66.6667V11.1111H11.1111V88.8889ZM22.2222 77.7778H77.7778V66.6667H22.2222V77.7778ZM22.2222 33.3333H50V22.2222H22.2222V33.3333ZM22.2222 55.5556H77.7778V44.4444H22.2222V55.5556ZM11.1111 11.1111V33.3333V11.1111V88.8889V11.1111Z" fill="white"/>
</svg>
