<svg width="23" height="23" viewBox="0 0 23 23" fill="none" xmlns="http://www.w3.org/2000/svg">
<path d="M6.05157 11.9942C5.55922 11.624 5.01836 11.3455 4.41461 11.1999C4.26008 11.1622 3.68149 11.0149 3.19813 11.0023C2.75789 10.9897 2.29789 11.0652 2.13617 11.3724C2.04453 11.5467 2.04813 11.7084 2.02657 11.9007C1.8936 13.0166 2.38235 14.4074 3.2143 15.1782C3.52157 15.4621 3.9636 15.6831 4.36789 15.7658C5.38133 15.9724 6.23125 15.7478 6.67867 14.9536C6.76492 14.8027 6.82781 14.6392 6.86914 14.472C6.94461 14.172 6.9518 13.8539 6.8925 13.5484C6.81344 13.1208 6.49719 12.3302 6.05157 11.9942V11.9942ZM14.8113 13.5646C14.2435 13.4191 13.0145 13.2484 12.1663 13.3562C11.7602 13.3975 11.3595 13.4838 11.0469 13.6778C10.5797 13.9671 10.4395 14.5601 10.497 15.0794C10.5851 15.888 10.9732 16.6786 11.5967 17.2141C12.231 17.7621 13.0791 17.9562 13.8913 18.064C14.2741 18.1143 14.6748 18.1502 15.0557 18.1017C15.4456 18.0514 15.814 17.9149 16.1213 17.6166C16.6208 17.1368 16.9604 16.3695 16.964 15.6706C16.9658 14.4163 15.9272 13.8485 14.8113 13.5646V13.5646Z" fill="#40C0E7"/>
<path d="M19.917 9.91713C19.5307 10.3951 19.1264 10.8587 18.7347 11.3331C18.4508 11.6817 18.1381 12.3214 17.6997 12.4903C17.5146 12.5621 17.3708 12.4687 17.2055 12.4058C17.0618 12.3501 16.9144 12.2962 16.7707 12.2441C16.5676 12.1686 16.361 12.0806 16.1526 12.0267C14.9451 11.7122 13.7322 11.5092 12.4815 11.5595C11.8472 11.5864 11.2902 11.6134 10.6685 11.7499C10.3055 11.8308 9.99108 11.9979 9.61373 12.0195C9.29569 12.0392 8.96865 12.0231 8.66319 11.926C8.35412 11.8272 8.1924 11.6224 7.94084 11.4355C7.50779 11.1156 7.17537 10.7275 6.69561 10.4616C6.33803 10.2639 5.96069 10.1076 5.57076 9.98541C5.29404 9.89737 4.87358 9.87041 4.64537 9.67276C4.60764 9.64041 4.53037 9.56135 4.53217 9.51104C4.53397 9.43557 4.64717 9.38526 4.69748 9.34752C5.63904 8.67549 6.5824 8.0358 7.58147 7.44643C7.99115 7.20385 8.39186 6.93971 8.8267 6.73666C9.48615 6.4294 10.3127 6.30362 11.0315 6.43838C11.6352 6.54979 11.7736 7.13018 12.0629 7.5758C12.336 7.99807 12.9146 8.19752 13.3566 7.93159C13.9137 7.59737 13.9604 6.73666 13.6513 6.21198C13.2488 5.52737 12.1545 5.27041 11.4322 5.14463C11.0279 5.07455 10.6092 5.0512 10.1977 5.06557C7.84022 5.14104 5.88881 6.7726 3.83139 7.72135C3.08928 8.06456 2.30944 8.33768 1.60147 8.75456C0.694045 9.02049 -0.159471 9.50924 0.208888 10.4149C0.291545 10.6161 0.415529 10.803 0.487404 11.0096C0.568263 11.2414 0.517951 11.4301 0.516154 11.6655C0.514357 11.8721 0.523342 12.0806 0.54131 12.2872C0.579045 12.7167 0.652717 13.1425 0.762326 13.5612C0.981545 14.3931 1.33912 15.2035 1.86561 15.8881C2.35975 16.5314 3.0192 17.0597 3.80803 17.2897C4.02186 17.3526 4.24647 17.3939 4.46928 17.4119C5.99662 17.5341 7.23287 16.9914 7.93725 15.606C8.16186 15.1676 8.12412 14.4776 8.81951 14.6465C9.2292 14.7471 9.18069 15.4353 9.23998 15.7516C9.39451 16.5799 9.76287 17.3562 10.3828 17.9366C10.4367 17.9869 10.4906 18.0354 10.5481 18.0839C11.6747 19.0183 13.1769 19.6005 14.645 19.6041C15.0619 19.6059 15.4859 19.5376 15.883 19.4064C16.6287 19.1567 17.3313 18.7128 17.8416 18.1073C18.2585 17.6131 18.4903 17.0058 18.6269 16.3823C18.6915 16.0894 18.7095 15.7821 18.8119 15.5C18.9629 15.076 19.324 14.6842 19.3222 14.2171C19.3205 14.032 19.227 13.8595 19.2899 13.6762C19.3546 13.4929 19.484 13.3132 19.5756 13.1425C19.9296 12.4849 20.2494 11.8092 20.6286 11.166C20.749 10.9629 20.8622 10.7527 21.0041 10.564C21.0814 10.4598 21.2575 10.2082 21.4012 10.2819C21.5396 10.352 21.4785 10.6485 21.4839 10.7689C21.5037 11.2127 21.7894 11.82 22.341 11.59C22.6824 11.4481 22.8585 11.2001 22.8747 10.8246C22.9034 10.1795 22.801 9.50745 22.5243 8.92166C21.8882 7.55963 20.3914 9.32596 19.917 9.91713V9.91713ZM6.8699 14.4722C6.82858 14.6393 6.76569 14.801 6.67944 14.9538C6.23201 15.748 5.38209 15.9726 4.36865 15.766C3.96436 15.6833 3.52412 15.4623 3.21506 15.1784C2.3849 14.4075 1.89436 13.0167 2.02733 11.9009C2.05069 11.7086 2.04529 11.5487 2.13694 11.3726C2.29865 11.0653 2.75865 10.9899 3.19889 11.0024C3.68045 11.0168 4.26084 11.1642 4.41537 11.2001C5.01912 11.3456 5.55998 11.6224 6.05233 11.9943C6.49795 12.3303 6.8124 13.121 6.89326 13.5486C6.95256 13.8541 6.94537 14.1721 6.8699 14.4722V14.4722ZM16.1202 17.6149C15.813 17.9132 15.4428 18.0498 15.0547 18.1001C14.6737 18.1486 14.273 18.1145 13.8903 18.0624C13.0799 17.9546 12.2318 17.7605 11.5957 17.2124C10.9722 16.6752 10.584 15.8864 10.496 15.0778C10.4385 14.5567 10.5787 13.9637 11.0458 13.6762C11.3585 13.4821 11.7592 13.3977 12.1653 13.3546C13.0134 13.2467 14.2425 13.4192 14.8103 13.563C15.9262 13.8469 16.9647 14.4147 16.9612 15.6671C16.9594 16.3679 16.6197 17.1352 16.1202 17.6149V17.6149Z" fill="#855C52"/>
<path d="M15.9054 15.4933C15.6431 15.2363 15.3844 15.6424 14.5973 16.0647C14.1751 16.2911 13.6072 16.4133 13.158 16.5822C13.0484 16.6235 12.9172 16.6505 12.84 16.7475C12.5345 17.1248 13.3665 17.247 13.5587 17.2956C14.3008 17.486 15.7437 17.3441 15.9881 16.2408C16.0438 15.9892 16.0762 15.6604 15.9054 15.4933ZM6.09811 13.8617C6.09092 13.8563 6.08193 13.8509 6.07475 13.8456C5.85014 13.7126 5.67764 14.0414 5.54287 14.1654C5.38834 14.3074 5.19787 14.4421 5.011 14.5571C4.86365 14.647 4.57076 14.744 4.51686 14.9255C4.41264 15.2848 5.01818 15.2022 5.19428 15.1806C5.586 15.1285 6.02084 14.9093 6.1574 14.5104C6.2167 14.3361 6.26881 13.9929 6.09811 13.8617Z" fill="white"/>
<path d="M4.27458 10.2924C4.31951 10.0462 4.02662 9.96716 3.84872 9.91325C3.47497 9.80185 3.09404 9.71021 2.72029 9.5988C2.30162 9.47302 1.99794 9.2556 1.54513 9.2556C1.28279 9.2556 0.889272 9.33286 0.741928 9.57364C0.583803 9.83419 0.598178 10.2061 0.752709 10.4613C0.952162 10.7901 0.90185 11.1279 0.910834 11.4909C0.916225 11.7515 0.876693 12.1378 1.05099 12.348C1.17318 12.4936 1.30794 12.4576 1.39599 12.3049C1.51279 12.1001 1.41755 11.7964 1.47685 11.57C1.59365 11.1243 1.91529 10.7686 2.31419 10.5511C2.80294 10.2852 3.3456 10.4379 3.86669 10.4775C4.02662 10.4883 4.23685 10.4918 4.27458 10.2924V10.2924ZM13.6704 12.1396C13.1386 11.994 12.2833 12.0677 12.0137 12.0659C11.613 12.0641 11.2249 12.1504 10.8422 12.242C10.5834 12.3031 10.3247 12.3678 10.0857 12.4307C9.54302 12.5744 8.21333 11.8449 8.37865 13.0129C8.4613 13.6022 9.35076 13.6597 9.78919 13.5429C10.1576 13.4459 10.4936 13.2033 10.8386 13.047C11.2914 12.844 11.755 12.7182 12.2455 12.6409C12.6552 12.5762 13.0649 12.5475 13.4782 12.5924C13.6543 12.6122 14.2185 12.8332 14.1035 12.4504C14.055 12.2959 13.8897 12.2007 13.6704 12.1396V12.1396ZM12.5115 5.8038C12.1503 5.90802 12.409 6.27279 12.5312 6.47044C12.6714 6.69864 12.6588 6.98794 12.9607 7.0688C13.1961 7.13169 13.5087 7.04005 13.5698 6.7813C13.6668 6.36443 13.2572 5.93677 12.887 5.82716C12.7846 5.79661 12.6768 5.78404 12.569 5.79482C12.5492 5.79482 12.5294 5.79841 12.5115 5.8038V5.8038ZM20.822 9.25919C20.7879 9.30411 20.7591 9.34724 20.7358 9.38857C20.6423 9.54849 20.5704 9.84677 20.8436 9.86474C20.9693 9.87193 21.1203 9.76771 21.2371 9.72279C21.5084 9.61677 21.733 9.33107 22.0511 9.36161C22.4176 9.39575 22.3242 9.00224 22.1661 8.81896C21.7797 8.36974 21.1185 8.86747 20.822 9.25919V9.25919Z" fill="#B89278"/>
</svg>
