<svg width="23" height="23" viewBox="0 0 23 23" fill="none" xmlns="http://www.w3.org/2000/svg">
<path d="M20.5831 17.65C20.8751 20.2869 19.6352 22.5779 16.603 22.7486C12.4882 22.9373 8.37333 22.9373 4.25849 22.7486C1.22626 22.5779 -0.0180749 20.2869 0.278409 17.65C0.489542 15.651 0.700675 13.652 0.853409 11.6484C1.06903 8.98458 2.30888 6.81485 4.98173 6.81934H15.8888C18.5616 6.81934 19.8015 8.98907 20.0171 11.6484C20.1563 13.652 20.372 15.651 20.5831 17.65V17.65Z" fill="#8E6049"/>
<path d="M16.4234 13.1037C16.4099 11.9852 16.347 10.8711 16.2661 10.0355C16.1898 9.2 16.0909 8.63848 16.0909 8.63848C16.082 8.58008 16.0595 8.52168 16.0325 8.47227V5.64668C16.0325 2.55605 13.5169 0.0449219 10.4263 0.0449219C7.33566 0.0449219 4.82003 2.56055 4.82003 5.64668V8.47227C4.79308 8.52617 4.77511 8.58008 4.76164 8.63848C4.76164 8.63848 4.66281 9.19551 4.58644 10.0355C4.50558 10.8711 4.4382 11.9896 4.42921 13.1037C4.42023 13.6607 4.42472 14.2223 4.43371 14.7434C4.45617 15.2645 4.4382 15.7541 4.51457 16.1719C4.58644 16.5896 4.71671 16.94 4.84699 17.1826C4.90539 17.3039 4.96828 17.4027 5.0132 17.4656C5.06261 17.533 5.08507 17.5645 5.08507 17.5645C5.10753 17.5914 5.13 17.6184 5.16144 17.6408C5.31417 17.7531 5.5298 17.7172 5.6421 17.5645C5.6421 17.5645 5.66906 17.5285 5.71398 17.4656C5.7589 17.3982 5.82179 17.3039 5.88019 17.1826C6.01046 16.94 6.14074 16.5896 6.21261 16.1719C6.29347 15.7541 6.2755 15.2645 6.29347 14.7434C6.30246 14.2223 6.30695 13.6607 6.29796 13.1037C6.28449 11.9852 6.2216 10.8711 6.14074 10.0355C6.06437 9.2 5.96554 8.63848 5.96554 8.63848C5.95656 8.58008 5.9341 8.52168 5.90714 8.47227V5.64668C5.90714 3.15801 7.93312 1.13203 10.4218 1.13203C12.9105 1.13203 14.9364 3.15801 14.9364 5.64668V8.47227C14.9095 8.52617 14.8915 8.58008 14.878 8.63848C14.878 8.63848 14.7792 9.19551 14.7028 10.0355C14.622 10.8711 14.5546 11.9896 14.5456 13.1037C14.5366 13.6607 14.5411 14.2223 14.5501 14.7434C14.5726 15.2645 14.5546 15.7541 14.631 16.1719C14.7028 16.5896 14.8331 16.94 14.9634 17.1826C15.0218 17.3039 15.0847 17.4027 15.1296 17.4656C15.179 17.533 15.2015 17.5645 15.2015 17.5645C15.2239 17.5914 15.2464 17.6184 15.2778 17.6408C15.4306 17.7531 15.6462 17.7172 15.7585 17.5645C15.7585 17.5645 15.7855 17.5285 15.8304 17.4656C15.8753 17.3982 15.9382 17.3039 15.9966 17.1826C16.1269 16.94 16.2571 16.5896 16.329 16.1719C16.4099 15.7541 16.3919 15.2645 16.4099 14.7434C16.4278 14.2223 16.4323 13.6652 16.4234 13.1037Z" fill="#68442A"/>
<path d="M5.36826 10.799C5.55682 10.799 5.70967 10.6462 5.70967 10.4576C5.70967 10.2691 5.55682 10.1162 5.36826 10.1162C5.17971 10.1162 5.02686 10.2691 5.02686 10.4576C5.02686 10.6462 5.17971 10.799 5.36826 10.799Z" fill="#422714"/>
<path d="M5.36826 12.4885C5.55682 12.4885 5.70967 12.3356 5.70967 12.1471C5.70967 11.9585 5.55682 11.8057 5.36826 11.8057C5.17971 11.8057 5.02686 11.9585 5.02686 12.1471C5.02686 12.3356 5.17971 12.4885 5.36826 12.4885Z" fill="#422714"/>
<path d="M15.4845 10.799C15.673 10.799 15.8259 10.6462 15.8259 10.4576C15.8259 10.2691 15.673 10.1162 15.4845 10.1162C15.2959 10.1162 15.1431 10.2691 15.1431 10.4576C15.1431 10.6462 15.2959 10.799 15.4845 10.799Z" fill="#422714"/>
<path d="M15.4845 12.4885C15.673 12.4885 15.8259 12.3356 15.8259 12.1471C15.8259 11.9585 15.673 11.8057 15.4845 11.8057C15.2959 11.8057 15.1431 11.9585 15.1431 12.1471C15.1431 12.3356 15.2959 12.4885 15.4845 12.4885Z" fill="#422714"/>
<path d="M6.13193 13.1797H4.60908C4.11943 13.1797 3.72412 13.575 3.72412 14.0646V14.6801C3.72412 15.1697 4.11943 15.565 4.60908 15.565H6.13193C6.62158 15.565 7.01689 15.1697 7.01689 14.6801V14.0646C7.01689 13.575 6.61709 13.1797 6.13193 13.1797ZM6.56318 14.6801C6.56318 14.9182 6.37002 15.1113 6.13193 15.1113H5.59736V14.6396C5.59736 14.5139 5.49404 14.4105 5.36826 14.4105C5.24248 14.4105 5.13916 14.5139 5.13916 14.6396V15.1113H4.60459C4.3665 15.1113 4.17334 14.9182 4.17334 14.6801V14.0646C4.17334 13.8266 4.3665 13.6334 4.60459 13.6334H6.12744C6.36553 13.6334 6.55869 13.8266 6.55869 14.0646V14.6801H6.56318ZM16.2483 13.1797H14.7255C14.2358 13.1797 13.8405 13.575 13.8405 14.0646V14.6801C13.8405 15.1697 14.2358 15.565 14.7255 15.565H16.2483C16.738 15.565 17.1333 15.1697 17.1333 14.6801V14.0646C17.1333 13.575 16.738 13.1797 16.2483 13.1797ZM16.6796 14.6801C16.6796 14.9182 16.4864 15.1113 16.2483 15.1113H15.7138V14.6396C15.7138 14.5139 15.6105 14.4105 15.4847 14.4105C15.3589 14.4105 15.2556 14.5139 15.2556 14.6396V15.1113H14.721C14.4829 15.1113 14.2897 14.9182 14.2897 14.6801V14.0646C14.2897 13.8266 14.4829 13.6334 14.721 13.6334H16.2438C16.4819 13.6334 16.6751 13.8266 16.6751 14.0646V14.6801H16.6796Z" fill="#D1CFC3"/>
<path d="M22.7216 17.65C22.5104 15.651 22.2993 13.652 22.1466 11.6484C21.931 8.98458 20.6911 6.81485 18.0183 6.81934H15.8755C18.5483 6.81934 19.7882 8.98907 20.0038 11.6484C20.1521 13.652 20.3677 15.651 20.5788 17.65C20.8708 20.2869 19.631 22.5779 16.5987 22.7486C14.9007 22.825 13.1981 22.8699 11.4956 22.8834C13.9124 22.9014 16.3247 22.8565 18.737 22.7486C21.7737 22.5779 23.0181 20.2869 22.7216 17.65V17.65Z" fill="#68442A"/>
<path d="M10.4264 1.13164C9.90078 1.13164 9.39766 1.22148 8.93047 1.3877C7.72656 2.41641 6.96289 3.94375 6.96289 5.64629V6.81875H8.05449V5.64629C8.05449 3.52598 9.52344 1.74258 11.4955 1.26191C11.1541 1.17656 10.7947 1.13164 10.4264 1.13164V1.13164ZM12.5691 0.0400391C12.2008 0.0400391 11.8459 0.0759766 11.5 0.143359C12.4658 0.332031 13.3463 0.767773 14.0695 1.3877C15.826 2.00762 17.0838 3.6832 17.0838 5.64629V6.81875H18.0227C18.0721 6.81875 18.126 6.81875 18.1754 6.82324V5.65078C18.1754 2.55566 15.6598 0.0400391 12.5691 0.0400391Z" fill="#422714"/>
</svg>
