<svg width="21" height="20" viewBox="0 0 21 20" fill="none" xmlns="http://www.w3.org/2000/svg">
<path d="M10.5 1.66699V7.50033L12.1667 5.83366" stroke="#1B0B0B" stroke-width="1.5" stroke-linecap="round" stroke-linejoin="round"/>
<path d="M10.4999 7.49967L8.83325 5.83301" stroke="#1B0B0B" stroke-width="1.5" stroke-linecap="round" stroke-linejoin="round"/>
<path d="M2.1499 10.833H5.8249C6.14157 10.833 6.4249 11.008 6.56657 11.2913L7.54157 13.2413C7.8249 13.808 8.3999 14.1663 9.03324 14.1663H11.9749C12.6082 14.1663 13.1832 13.808 13.4666 13.2413L14.4416 11.2913C14.5832 11.008 14.8749 10.833 15.1832 10.833H18.8166" stroke="#1B0B0B" stroke-width="1.5" stroke-linecap="round" stroke-linejoin="round"/>
<path d="M6.33341 3.44141C3.38341 3.87474 2.16675 5.60807 2.16675 9.16641V12.4997C2.16675 16.6664 3.83341 18.3331 8.00008 18.3331H13.0001C17.1667 18.3331 18.8334 16.6664 18.8334 12.4997V9.16641C18.8334 5.60807 17.6167 3.87474 14.6667 3.44141" stroke="#1B0B0B" stroke-width="1.5" stroke-linecap="round" stroke-linejoin="round"/>
</svg>
