<svg width="50" height="50" viewBox="0 0 50 50" fill="none" xmlns="http://www.w3.org/2000/svg">
<path d="M5.7334 42.9698H44.2709V29.326M7.74381 39.2583L23.3584 23.6458L28.6792 28.9667L44.2709 13.375V24.8917M32.6657 13.374H44.2709" stroke="#1B0B0B" stroke-width="3" stroke-linecap="round" stroke-linejoin="round"/>
<path d="M17.1342 12.9187H8.00088C6.74616 12.9187 5.729 13.9359 5.729 15.1906V22.4781C5.729 23.7328 6.74616 24.75 8.00088 24.75H17.1342C18.3889 24.75 19.4061 23.7328 19.4061 22.4781V15.1906C19.4061 13.9359 18.3889 12.9187 17.1342 12.9187Z" stroke="#1B0B0B" stroke-width="2" stroke-linecap="round" stroke-linejoin="round"/>
<path d="M8.91859 16.8625H19.405M5.729 20.8063H16.2155" stroke="#1B0B0B" stroke-width="2" stroke-linecap="round" stroke-linejoin="round"/>
<path d="M12.5583 10.8635C13.6168 10.8635 14.4749 10.0054 14.4749 8.94687C14.4749 7.88833 13.6168 7.0302 12.5583 7.0302C11.4997 7.0302 10.6416 7.88833 10.6416 8.94687C10.6416 10.0054 11.4997 10.8635 12.5583 10.8635Z" stroke="#1B0B0B" stroke-width="2" stroke-linecap="round" stroke-linejoin="round"/>
</svg>
