<svg width="21" height="19" viewBox="0 0 21 19" fill="none" xmlns="http://www.w3.org/2000/svg">
<path d="M18.6556 10.1134L10.6925 18L2.72946 10.1134C2.20422 9.60227 1.7905 8.98794 1.51435 8.30909C1.23819 7.63023 1.10559 6.90155 1.12489 6.16893C1.14419 5.43631 1.31497 4.71562 1.62648 4.05224C1.93799 3.38886 2.38348 2.79717 2.93489 2.31442C3.48631 1.83168 4.13171 1.46833 4.83045 1.24727C5.52919 1.0262 6.26613 0.952212 6.99487 1.02995C7.72361 1.10769 8.42836 1.33547 9.06475 1.69896C9.70113 2.06245 10.2554 2.55376 10.6925 3.14197C11.1316 2.55803 11.6865 2.07101 12.3224 1.71138C12.9584 1.35175 13.6617 1.12726 14.3884 1.05195C15.1151 0.976639 15.8495 1.05214 16.5457 1.27372C17.2419 1.4953 17.8848 1.85819 18.4343 2.33968C18.9838 2.82117 19.4279 3.41089 19.739 4.07194C20.0501 4.73299 20.2214 5.45114 20.2422 6.18143C20.263 6.91172 20.1328 7.63844 19.8598 8.31611C19.5868 8.99377 19.1768 9.6078 18.6556 10.1197" stroke="white" stroke-width="1.25" stroke-linecap="round" stroke-linejoin="round"/>
</svg>
