<svg width="40" height="50" viewBox="0 0 40 50" fill="none" xmlns="http://www.w3.org/2000/svg">
<path d="M32.5 17.5V12.5C32.5 5.5 27 0 20 0C13 0 7.5 5.5 7.5 12.5V17.5C3.25 17.5 0 20.75 0 25V42.5C0 46.75 3.25 50 7.5 50H32.5C36.75 50 40 46.75 40 42.5V25C40 20.75 36.75 17.5 32.5 17.5ZM12.5 12.5C12.5 8.25 15.75 5 20 5C24.25 5 27.5 8.25 27.5 12.5V17.5H12.5V12.5ZM22.75 33.75L22.5 34V37.5C22.5 39 21.5 40 20 40C18.5 40 17.5 39 17.5 37.5V34C16 32.5 15.75 30.25 17.25 28.75C18.75 27.25 21 27 22.5 28.5C24 29.75 24.25 32.25 22.75 33.75Z" fill="#C4C4C4"/>
</svg>
