<svg width="50" height="50" viewBox="0 0 50 50" fill="none" xmlns="http://www.w3.org/2000/svg">
<path d="M16.666 37.5C14.3743 37.5 12.5202 39.375 12.5202 41.6666C12.5202 43.9583 14.3743 45.8333 16.666 45.8333C18.9577 45.8333 20.8327 43.9583 20.8327 41.6666C20.8327 39.375 18.9577 37.5 16.666 37.5ZM4.16602 4.16663V8.33329H8.33268L15.8327 24.1458L13.0202 29.25C12.6868 29.8333 12.4993 30.5208 12.4993 31.25C12.4993 33.5416 14.3743 35.4166 16.666 35.4166H41.666V31.25H17.541C17.2494 31.25 17.0202 31.0208 17.0202 30.7291L17.0827 30.4791L18.9577 27.0833H34.4785C36.041 27.0833 37.416 26.2291 38.1243 24.9375L45.5827 11.4166C45.7494 11.125 45.8327 10.7708 45.8327 10.4166C45.8327 9.27079 44.8952 8.33329 43.7494 8.33329H12.9368L10.9785 4.16663H4.16602ZM37.4994 37.5C35.2077 37.5 33.3535 39.375 33.3535 41.6666C33.3535 43.9583 35.2077 45.8333 37.4994 45.8333C39.791 45.8333 41.666 43.9583 41.666 41.6666C41.666 39.375 39.791 37.5 37.4994 37.5Z" fill="#C4C4C4"/>
</svg>
