<svg width="24" height="24" viewBox="0 0 24 24" fill="none" xmlns="http://www.w3.org/2000/svg">
<path fill-rule="evenodd" clip-rule="evenodd" d="M0.333984 11.9997C0.333984 5.55967 5.54898 0.333008 12.0007 0.333008C18.4407 0.333008 23.6673 5.55967 23.6673 11.9997C23.6673 18.4397 18.4407 23.6663 12.0007 23.6663C5.54898 23.6663 0.333984 18.4397 0.333984 11.9997ZM6.77399 13.3997C6.00399 13.3997 5.37399 12.7697 5.37399 11.9997C5.37399 11.2297 6.00399 10.6008 6.77399 10.6008C7.54398 10.6008 8.16232 11.2297 8.16232 11.9997C8.16232 12.7697 7.54398 13.3997 6.77399 13.3997ZM10.6007 11.9997C10.6007 12.7697 11.2307 13.3997 12.0007 13.3997C12.7707 13.3997 13.389 12.7697 13.389 11.9997C13.389 11.2297 12.7707 10.6008 12.0007 10.6008C11.2307 10.6008 10.6007 11.2297 10.6007 11.9997ZM15.8273 11.9997C15.8273 12.7697 16.4457 13.3997 17.2273 13.3997C17.9973 13.3997 18.6157 12.7697 18.6157 11.9997C18.6157 11.2297 17.9973 10.6008 17.2273 10.6008C16.4457 10.6008 15.8273 11.2297 15.8273 11.9997Z" fill="white"/>
</svg>
