<svg width="17" height="16" viewBox="0 0 17 16" fill="none" xmlns="http://www.w3.org/2000/svg">
<g clip-path="url(#clip0_1360_761)">
<path d="M3.5354 8.06742L5.55249 10.0845L3.46669 12.1703C2.90481 12.7322 2.61377 13.5972 2.72695 13.7104C2.84014 13.8236 3.70518 13.5326 4.26705 12.9707L6.35286 10.8849L8.36995 12.902C8.67312 13.2051 9.11373 13.2173 9.4169 12.9141C9.5988 12.7322 9.68369 12.526 9.69581 12.2471L9.80091 9.67624C9.809 9.52263 9.82517 9.41753 9.98686 9.28818L11.5512 8.08763C11.6523 8.01083 11.7129 7.97445 11.8382 8.00274L13.544 8.2857C13.9927 8.3625 14.3121 8.23719 14.5223 8.027C14.8295 7.71978 14.8659 7.2145 14.5061 6.85474L9.57859 1.92722C9.22287 1.5715 8.71354 1.60384 8.40633 1.91105C8.19613 2.12125 8.07082 2.44059 8.14763 2.88928L8.43059 4.59511C8.45888 4.72042 8.4225 4.78106 8.3457 4.88211L7.14515 6.44647C7.01984 6.6122 6.91474 6.62837 6.75709 6.63241L4.18621 6.73751C3.90729 6.74964 3.70114 6.83453 3.51924 7.01643C3.21607 7.3196 3.22819 7.76021 3.5354 8.06742Z" fill="#CCC7D1"/>
</g>
<defs>
<clipPath id="clip0_1360_761">
<rect width="16" height="16" fill="white" transform="translate(0.333984)"/>
</clipPath>
</defs>
</svg>
