<svg width="24" height="24" viewBox="0 0 24 24" fill="none" xmlns="http://www.w3.org/2000/svg">
<path d="M7.49976 7.67001V6.70001C7.49976 4.45001 9.30976 2.24001 11.5598 2.03001C14.2398 1.77001 16.4998 3.88001 16.4998 6.51001V7.89001" fill="#1B0B0B"/>
<path d="M8.99958 22.0015H14.9996C19.0196 22.0015 19.7396 20.3915 19.9496 18.4315L20.6996 12.4315C20.9696 9.99147 20.2696 8.00146 15.9996 8.00146H7.99958C3.72958 8.00146 3.02958 9.99147 3.29958 12.4315L4.04958 18.4315C4.25958 20.3915 4.97958 22.0015 8.99958 22.0015Z" fill="#1B0B0B"/>
<path d="M15.4952 11.999H15.5042" stroke="white" stroke-width="2" stroke-linecap="round" stroke-linejoin="round"/>
<path fill-rule="evenodd" clip-rule="evenodd" d="M8.49451 11.999H8.50349H8.49451Z" fill="white"/>
<path d="M8.49451 11.999H8.50349" stroke="white" stroke-width="2" stroke-linecap="round" stroke-linejoin="round"/>
</svg>
