<svg width="70" height="70" viewBox="0 0 70 70" fill="none" xmlns="http://www.w3.org/2000/svg">
<path d="M26.2498 29.1667C29.4715 29.1667 32.0832 26.555 32.0832 23.3333C32.0832 20.1117 29.4715 17.5 26.2498 17.5C23.0282 17.5 20.4165 20.1117 20.4165 23.3333C20.4165 26.555 23.0282 29.1667 26.2498 29.1667Z" stroke="#292D32" stroke-width="5" stroke-linecap="round" stroke-linejoin="round"/>
<path d="M35.0002 5.83334H26.2502C11.6668 5.83334 5.8335 11.6667 5.8335 26.25V43.75C5.8335 58.3333 11.6668 64.1667 26.2502 64.1667H43.7502C58.3335 64.1667 64.1668 58.3333 64.1668 43.75V32.0833" stroke="#292D32" stroke-width="5" stroke-linecap="round" stroke-linejoin="round"/>
<path d="M47.0165 14.9042C46.054 11.8708 47.1915 8.10833 50.3415 7.0875C52.004 6.5625 54.0748 7 55.2415 8.60416C56.3498 6.94166 58.479 6.53333 60.1415 7.0875C63.3207 8.10833 64.4582 11.8708 63.4957 14.9042C61.979 19.6875 56.729 22.1958 55.2707 22.1958C53.7832 22.1958 48.5623 19.7458 47.0165 14.9042Z" stroke="#292D32" stroke-width="5" stroke-linecap="round" stroke-linejoin="round"/>
<path d="M7.7876 55.2708L22.1668 45.6167C24.4709 44.0708 27.7959 44.2458 29.8668 46.025L30.8293 46.8708C33.1043 48.825 36.7793 48.825 39.0543 46.8708L51.1876 36.4583C53.4626 34.5042 57.1376 34.5042 59.4126 36.4583L64.1668 40.5417" stroke="#292D32" stroke-width="5" stroke-linecap="round" stroke-linejoin="round"/>
</svg>
