<svg width="50" height="50" viewBox="0 0 50 50" fill="none" xmlns="http://www.w3.org/2000/svg">
<path d="M25.3333 22.6458C25.125 22.625 24.875 22.625 24.6458 22.6458C19.6875 22.4792 15.75 18.4167 15.75 13.4167C15.75 8.31249 19.875 4.16666 25 4.16666C30.1042 4.16666 34.25 8.31249 34.25 13.4167C34.2292 18.4167 30.2917 22.4792 25.3333 22.6458Z" stroke="#1B0B0B" stroke-width="3" stroke-linecap="round" stroke-linejoin="round"/>
<path d="M14.9165 30.3333C9.87484 33.7083 9.87484 39.2083 14.9165 42.5625C20.6457 46.3958 30.0415 46.3958 35.7707 42.5625C40.8123 39.1875 40.8123 33.6875 35.7707 30.3333C30.0623 26.5208 20.6665 26.5208 14.9165 30.3333Z" stroke="#1B0B0B" stroke-width="3" stroke-linecap="round" stroke-linejoin="round"/>
</svg>
