<svg width="19" height="23" viewBox="0 0 19 23" fill="none" xmlns="http://www.w3.org/2000/svg">
<path d="M2.20833 12.542L3.77083 7.85449H15.2292L16.7917 12.542H2.20833ZM15.2292 17.7503C14.3958 17.7503 13.6667 17.0212 13.6667 16.1878C13.6667 15.3545 14.3958 14.6253 15.2292 14.6253C16.0625 14.6253 16.7917 15.3545 16.7917 16.1878C16.7917 17.0212 16.0625 17.7503 15.2292 17.7503ZM3.77083 17.7503C2.9375 17.7503 2.20833 17.0212 2.20833 16.1878C2.20833 15.3545 2.9375 14.6253 3.77083 14.6253C4.60417 14.6253 5.33333 15.3545 5.33333 16.1878C5.33333 17.0212 4.60417 17.7503 3.77083 17.7503ZM16.6875 7.33366C16.4792 6.70866 15.8542 6.29199 15.2292 6.29199H3.77083C3.04167 6.29199 2.52083 6.70866 2.3125 7.33366L0.125 13.5837V21.917C0.125 22.542 0.541667 22.9587 1.16667 22.9587H2.20833C2.83333 22.9587 3.25 22.542 3.25 21.917V20.8753H15.75V21.917C15.75 22.542 16.1667 22.9587 16.7917 22.9587H17.8333C18.4583 22.9587 18.875 22.542 18.875 21.917V13.5837L16.6875 7.33366ZM5.33333 0.0419922L9.5 4.72949L13.6667 0.0419922H5.33333Z" fill="black"/>
</svg>
