<svg width="32" height="32" viewBox="0 0 32 32" fill="none" xmlns="http://www.w3.org/2000/svg">
<g clip-path="url(#clip0_1334_712)">
<path d="M17.6231 10.038L16.6688 9.05587C16.6312 9.02338 16.5873 8.99902 16.5399 8.98432C16.4924 8.96961 16.4424 8.96488 16.3931 8.97041C16.3437 8.97594 16.296 8.99162 16.253 9.01646C16.21 9.04131 16.1725 9.07478 16.1431 9.11477C15.7504 9.6501 14.8159 10.6913 14.4617 11.0448C15.4183 10.9409 16.8923 10.9368 17.4447 10.5939C17.6544 10.4642 17.8118 10.198 17.6231 10.038V10.038ZM30.3273 21.336C30.1603 21.5764 27.0533 24.1187 17.14 21.389C14.1385 20.5624 5.16896 17.9812 5.15778 17.751C5.15778 17.751 5.06859 18.0496 5.01607 18.3418C4.97808 18.5524 4.98795 18.752 5.09417 18.9057C5.81928 19.9511 7.94593 20.2376 10.984 20.8712L11.4171 20.9614L11.7035 21.021C12.1674 21.1175 13.5403 21.4213 15.1397 21.7752C17.3268 22.2588 21.7091 23.2058 21.835 23.2301C23.4921 23.5462 25.2844 23.5621 27.2662 23.2112C29.7745 22.7661 30.3273 21.336 30.3273 21.336Z" fill="#8899A6"/>
<path d="M30.327 21.3365C30.327 21.3365 30.5405 21.0779 30.6298 20.5388C30.7191 19.9996 30.5494 19.2124 29.7528 18.6579C28.9565 18.1039 26.3413 16.6727 25.399 16.0282C24.9401 15.7142 24.8259 15.2784 23.9638 14.7101C23.9638 14.7101 20.6085 12.4125 19.8722 11.9168C18.2975 10.8563 18.3044 9.90568 17.5179 9.74218C16.9933 9.63308 13.3613 11.8686 11.7665 11.5358C10.6643 11.3063 9.7199 9.3828 9.07816 8.9138C8.56687 8.53999 7.78413 9.20206 7.33295 9.83518C6.88178 10.4683 6.10074 13.1192 5.95071 13.8395C5.80068 14.5599 5.56039 15.3827 5.79878 15.9906L6.03631 16.5981C6.03631 16.5981 19.3716 20.9042 22.8178 21.4073C28.694 22.2654 30.327 21.3365 30.327 21.3365V21.3365Z" fill="#BE1931"/>
<path d="M18.0386 10.0486C17.8921 9.89656 17.7355 9.787 17.5175 9.7412C16.993 9.6321 13.3612 11.8681 11.7661 11.5348C10.6639 11.3054 9.71926 9.38124 9.0778 8.91281C8.87832 8.76725 8.63695 8.7817 8.39062 8.88867C9.17671 9.50222 10.2973 11.9225 11.6314 12.2002C13.2399 12.5363 16.5575 10.6238 18.0386 10.0486Z" fill="#A0041E"/>
<path d="M13.4971 17.5008C13.3784 16.5136 12.7314 14.3832 11.6044 13.4753C10.5486 12.6253 7.39439 11.2842 6.79574 11.0307C6.3896 12.011 5.97374 13.5836 5.8668 14.0965C5.72564 14.7735 5.53629 15.549 5.78599 16.123C5.87578 16.3294 5.9778 16.3922 5.9778 16.3922C5.9778 16.3922 13.5017 17.5397 13.4971 17.5008V17.5008Z" fill="#DD2E44"/>
<path d="M18.1533 12.6833C18.0408 12.7385 17.9125 12.7525 17.7908 12.7228C17.6691 12.6931 17.5616 12.6217 17.4871 12.521C17.4126 12.4203 17.3758 12.2966 17.3831 12.1715C17.3904 12.0465 17.4413 11.9279 17.5269 11.8365L18.3769 10.9185C18.4753 10.822 18.607 10.7672 18.7448 10.7652C18.8826 10.7633 19.0158 10.8144 19.1169 10.908C19.218 11.0015 19.2793 11.1304 19.288 11.2679C19.2967 11.4054 19.2522 11.541 19.1637 11.6466L18.3138 12.5646C18.2681 12.6138 18.2137 12.6541 18.1533 12.6833ZM19.7796 14.0709C19.6733 14.1229 19.5528 14.1382 19.4369 14.1144C19.3209 14.0907 19.2162 14.0292 19.1389 13.9396C19.0616 13.85 19.0162 13.7373 19.0098 13.6191C19.0033 13.501 19.0362 13.384 19.1032 13.2865L19.8481 12.195C19.9301 12.0825 20.0527 12.0062 20.19 11.9825C20.3273 11.9588 20.4684 11.9894 20.5835 12.0679C20.6985 12.1465 20.7785 12.2667 20.8064 12.4032C20.8344 12.5396 20.8081 12.6816 20.7332 12.7991L19.9883 13.8906C19.9358 13.968 19.8638 14.0302 19.7796 14.0709ZM21.5921 15.1478C21.4907 15.1972 21.3764 15.2133 21.2653 15.1939C21.1542 15.1744 21.0521 15.1204 20.9736 15.0395C20.895 14.9587 20.844 14.855 20.8278 14.7435C20.8116 14.6319 20.831 14.518 20.8833 14.4181L21.4404 13.3478C21.5106 13.2302 21.6231 13.1439 21.7549 13.1065C21.8867 13.0692 22.0278 13.0836 22.1492 13.1469C22.2707 13.2102 22.3634 13.3176 22.4083 13.447C22.4532 13.5764 22.4469 13.7181 22.3907 13.843L21.8333 14.9127C21.7806 15.0153 21.696 15.0978 21.5921 15.1478V15.1478ZM23.4256 16.0861C23.3261 16.1338 23.2143 16.1497 23.1054 16.1316C22.9965 16.1134 22.8959 16.0621 22.8172 15.9847C22.7385 15.9073 22.6856 15.8075 22.6657 15.6989C22.6458 15.5904 22.6598 15.4783 22.706 15.378L23.1069 14.5116C23.1705 14.3891 23.2789 14.2958 23.4096 14.2512C23.5402 14.2065 23.683 14.214 23.8083 14.2719C23.9337 14.3299 24.0318 14.4339 24.0824 14.5623C24.133 14.6908 24.1322 14.8338 24.08 14.9617L23.6791 15.8281C23.6269 15.9407 23.5374 16.0319 23.4256 16.0861V16.0861ZM5.73004 16.2059C5.73004 16.2059 6.28846 16.3703 6.75158 16.2274C7.2147 16.0845 8.21159 16.196 8.93279 16.3463C9.65398 16.4967 12.3784 17.0172 14.2047 17.6617C16.0311 18.3062 19.1948 19.9194 20.3027 20.2944C21.4103 20.6688 23.1536 21.1824 24.5104 21.3456C25.8672 21.5088 27.0902 21.6111 27.8549 21.6354C28.8408 21.667 29.6869 21.5618 30.3269 21.3356C30.1753 21.5622 29.2593 22.5227 26.9968 22.7994C24.8338 23.0633 23.2919 22.9619 21.9324 22.7021C20.5729 22.4423 13.0366 20.7508 11.8128 20.4957C10.5889 20.2406 6.93888 19.496 6.22342 19.0903C5.20709 18.5143 5.05295 18.1218 5.09632 17.915C5.20116 17.4095 5.31488 16.1192 5.73004 16.2059V16.2059Z" fill="#CCD6DD"/>
<path d="M29.753 18.6576C28.9567 18.1036 26.3414 16.6724 25.3992 16.0279C25.2146 15.9014 25.0848 15.7547 24.9408 15.5888C24.8979 15.6336 24.8471 15.6724 24.8163 15.7263C24.3727 16.5026 25.0413 17.8775 26.7256 18.839C28.0759 19.6099 29.7781 19.8843 30.4993 19.5529C30.3647 19.2362 30.1312 18.9204 29.753 18.6576Z" fill="#DD2E44"/>
</g>
<defs>
<clipPath id="clip0_1334_712">
<rect width="23" height="23" fill="white" transform="translate(0.898438 10.9062) rotate(-25.7911)"/>
</clipPath>
</defs>
</svg>
