<svg width="50" height="50" viewBox="0 0 50 50" fill="none" xmlns="http://www.w3.org/2000/svg">
<path d="M23.9577 45.3138C12.1868 45.3138 2.60352 35.7305 2.60352 23.9596C2.60352 12.1888 12.1868 2.60547 23.9577 2.60547C35.7285 2.60547 45.3119 12.1888 45.3119 23.9596C45.3119 35.7305 35.7285 45.3138 23.9577 45.3138ZM23.9577 5.73047C13.8952 5.73047 5.72852 13.918 5.72852 23.9596C5.72852 34.0013 13.8952 42.1888 23.9577 42.1888C34.0202 42.1888 42.1869 34.0013 42.1869 23.9596C42.1869 13.918 34.0202 5.73047 23.9577 5.73047Z" fill="#727C8E"/>
<path d="M45.8332 47.3948C45.4373 47.3948 45.0415 47.249 44.729 46.9365L37.3745 39.7074C36.7703 39.1032 36.7703 38.1032 37.3745 37.499C37.9787 36.8949 38.9787 36.8949 39.5828 37.499L46.9373 44.7281C47.5415 45.3323 47.5415 46.3323 46.9373 46.9365C46.6248 47.249 46.229 47.3948 45.8332 47.3948Z" fill="#727C8E"/>
</svg>
