<svg width="24" height="24" viewBox="0 0 24 24" fill="none" xmlns="http://www.w3.org/2000/svg">
<path d="M18.07 8.50965L9.51 4.22965C3.76 1.34965 1.4 3.70965 4.28 9.45965L5.15 11.1996C5.4 11.7096 5.4 12.2996 5.15 12.8096L4.28 14.5396C1.4 20.2896 3.75 22.6496 9.51 19.7696L18.07 15.4896C21.91 13.5696 21.91 10.4296 18.07 8.50965ZM14.84 12.7496H9.44C9.03 12.7496 8.69 12.4096 8.69 11.9996C8.69 11.5896 9.03 11.2496 9.44 11.2496H14.84C15.25 11.2496 15.59 11.5896 15.59 11.9996C15.59 12.4096 15.25 12.7496 14.84 12.7496Z" fill="#1D272F"/>
</svg>
