<svg width="28" height="28" viewBox="0 0 28 28" fill="none" xmlns="http://www.w3.org/2000/svg">
<rect width="28" height="28" rx="14" fill="white"/>
<path d="M19.5043 8.50599C19.2125 8.20652 18.7807 8.09495 18.378 8.21239L8.98832 10.9429C8.56348 11.0609 8.26236 11.3997 8.18124 11.8302C8.09838 12.2682 8.38783 12.8243 8.76598 13.0568L11.7019 14.8613C12.0031 15.0463 12.3917 14.9999 12.6409 14.7486L16.0029 11.3657C16.1721 11.1895 16.4522 11.1895 16.6214 11.3657C16.7907 11.536 16.7907 11.812 16.6214 11.9881L13.2537 15.3716C13.0039 15.6223 12.9572 16.0128 13.141 16.3158L14.9349 19.2812C15.145 19.6335 15.5068 19.8332 15.9037 19.8332C15.9503 19.8332 16.0029 19.8332 16.0495 19.8273C16.5047 19.7686 16.8665 19.4574 17.0008 19.017L19.7844 9.6393C19.907 9.24 19.7961 8.80547 19.5043 8.50599Z" fill="#1B0B0B"/>
</svg>
