<svg width="52" height="52" viewBox="0 0 52 52" fill="none" xmlns="http://www.w3.org/2000/svg">
<path d="M25.996 35.297C31.1321 35.297 35.2957 31.134 35.2957 25.9986C35.2957 20.8632 31.1321 16.7002 25.996 16.7002C20.8599 16.7002 16.6963 20.8632 16.6963 25.9986C16.6963 31.134 20.8599 35.297 25.996 35.297Z" stroke="#748A9D" stroke-width="2" stroke-linecap="round" stroke-linejoin="round"/>
<path d="M51 28.1735V23.8265C51 23.304 50.7924 22.803 50.4229 22.4335C50.0534 22.0641 49.5523 21.8565 49.0297 21.8565H46.6939C46.2686 21.8624 45.8527 21.7316 45.5075 21.4833C45.1623 21.2349 44.906 20.8823 44.7764 20.4773C44.2593 18.7289 43.4985 17.0621 42.5164 15.5258C42.2856 15.1514 42.189 14.7097 42.2425 14.2732C42.2959 13.8366 42.4964 13.4313 42.8108 13.1237C43.1797 12.7539 43.3869 12.2529 43.3869 11.7306C43.3869 11.2083 43.1797 10.7073 42.8108 10.3375L41.6612 9.18814C41.4784 9.00493 41.2613 8.85953 41.0222 8.76035C40.7831 8.66118 40.5268 8.61023 40.268 8.61023C40.0091 8.61023 39.7529 8.66118 39.5138 8.76035C39.2747 8.85953 39.0576 9.00493 38.8748 9.18814V9.18814C38.5672 9.50196 38.1621 9.70177 37.7259 9.75483C37.2897 9.80789 36.8484 9.71106 36.4745 9.48011C34.9376 8.49804 33.2697 7.73809 31.5201 7.22276C31.1146 7.0931 30.7616 6.83643 30.5132 6.4908C30.2648 6.14516 30.1342 5.72883 30.1406 5.30326V2.97001C30.1406 2.44792 29.9334 1.9473 29.5644 1.57791C29.1954 1.20853 28.6948 1.00061 28.1726 1H23.8228C23.3007 1.00061 22.8001 1.20853 22.4311 1.57791C22.0621 1.9473 21.8548 2.44792 21.8548 2.97001V5.30565C21.8614 5.731 21.7309 6.14716 21.4824 6.49248C21.234 6.8378 20.8808 7.09386 20.4754 7.22276C18.7261 7.7399 17.0582 8.50051 15.5209 9.48236C15.1471 9.7133 14.7058 9.81027 14.2696 9.75721C13.8334 9.70416 13.4282 9.50435 13.1207 9.19053V9.19053C12.9379 9.00731 12.7207 8.86192 12.4816 8.76274C12.2426 8.66356 11.9862 8.61247 11.7274 8.61247C11.4686 8.61247 11.2123 8.66356 10.9732 8.76274C10.7342 8.86192 10.517 9.00731 10.3342 9.19053L9.18466 10.3399C8.81571 10.7096 8.60849 11.2105 8.60849 11.7328C8.60849 12.2551 8.81571 12.7562 9.18466 13.1259V13.1259C9.49907 13.4335 9.69949 13.8389 9.75297 14.2754C9.80645 14.712 9.70979 15.1537 9.47892 15.5281C8.49688 17.0643 7.73609 18.7312 7.21894 20.4795C7.08937 20.8845 6.83307 21.2372 6.48785 21.4855C6.14263 21.7338 5.72679 21.8648 5.30155 21.8589H2.97029C2.44773 21.8589 1.94658 22.0663 1.57708 22.4358C1.20758 22.8052 1 23.3064 1 23.8289V28.1758C1 28.6982 1.20758 29.1994 1.57708 29.5688C1.94658 29.9383 2.44773 30.1458 2.97029 30.1458H5.30611C5.73144 30.1395 6.14754 30.2702 6.49283 30.5186C6.83813 30.7669 7.09432 31.1198 7.22357 31.525C7.74117 33.2732 8.50195 34.9401 9.48355 36.4766C9.71442 36.8509 9.81101 37.2927 9.75753 37.7292C9.70405 38.1658 9.50363 38.5711 9.18922 38.8787V38.8787C8.82041 39.2481 8.61326 39.7486 8.61326 40.2705C8.61326 40.7925 8.82041 41.2931 9.18922 41.6625L10.3388 42.8119C10.5217 42.9948 10.7389 43.1399 10.978 43.2389C11.217 43.3379 11.4733 43.3889 11.732 43.3889C11.9908 43.3889 12.247 43.3379 12.4861 43.2389C12.7251 43.1399 12.9423 42.9948 13.1252 42.8119V42.8119C13.4325 42.4977 13.8376 42.2974 14.2738 42.2439C14.71 42.1904 15.1514 42.287 15.5255 42.5176C17.0628 43.4995 18.7306 44.2602 20.4799 44.7772C20.885 44.9068 21.2377 45.163 21.4861 45.5082C21.7344 45.8534 21.8653 46.2692 21.8594 46.6943V49.03C21.8591 49.2886 21.9098 49.5447 22.0086 49.7837C22.1073 50.0227 22.2522 50.2398 22.435 50.4228C22.6178 50.6058 22.8348 50.751 23.0738 50.85C23.3127 50.949 23.5687 51 23.8274 51H28.1772C28.4358 51 28.692 50.949 28.9309 50.85C29.1698 50.751 29.3868 50.6058 29.5696 50.4228C29.7524 50.2398 29.8973 50.0227 29.9961 49.7837C30.0948 49.5447 30.1455 49.2886 30.1452 49.03V46.6943C30.1393 46.2692 30.2701 45.8534 30.5185 45.5082C30.7669 45.163 31.1196 44.9068 31.5247 44.7772C33.274 44.2602 34.9419 43.4995 36.4792 42.5176C36.8532 42.287 37.2946 42.1904 37.7309 42.2439C38.1671 42.2974 38.5721 42.4977 38.8793 42.8119V42.8119C39.2491 43.1808 39.7502 43.3879 40.2726 43.3879C40.795 43.3879 41.296 43.1808 41.6658 42.8119L42.8153 41.6625C43.1842 41.2931 43.3913 40.7925 43.3913 40.2705C43.3913 39.7486 43.1842 39.2481 42.8153 38.8787V38.8787C42.5009 38.5711 42.3005 38.1658 42.247 37.7292C42.1935 37.2927 42.2902 36.8509 42.5211 36.4766C43.5027 34.9401 44.2635 33.2732 44.7811 31.525C44.9103 31.1198 45.1665 30.7669 45.5118 30.5186C45.8571 30.2702 46.2731 30.1395 46.6984 30.1458H49.0343C49.5565 30.1446 50.0568 29.9361 50.4254 29.5663C50.7939 29.1965 51.0006 28.6956 51 28.1735V28.1735Z" stroke="#748A9D" stroke-width="2" stroke-linecap="round" stroke-linejoin="round"/>
</svg>
