<svg width="19" height="19" viewBox="0 0 19 19" fill="none" xmlns="http://www.w3.org/2000/svg">
<path d="M3.83136 12.3326C5.39616 12.3326 6.66468 11.0641 6.66468 9.49933C6.66468 7.93453 5.39616 6.66602 3.83136 6.66602C2.26657 6.66602 0.998047 7.93453 0.998047 9.49933C0.998047 11.0641 2.26657 12.3326 3.83136 12.3326Z" stroke="white" stroke-width="1.25" stroke-linecap="round" stroke-linejoin="round"/>
<path d="M15.1653 6.66663C16.7301 6.66663 17.9987 5.39811 17.9987 3.83332C17.9987 2.26852 16.7301 1 15.1653 1C13.6005 1 12.332 2.26852 12.332 3.83332C12.332 5.39811 13.6005 6.66663 15.1653 6.66663Z" stroke="white" stroke-width="1.25" stroke-linecap="round" stroke-linejoin="round"/>
<path d="M15.1653 18.0001C16.7301 18.0001 17.9987 16.7316 17.9987 15.1668C17.9987 13.602 16.7301 12.3335 15.1653 12.3335C13.6005 12.3335 12.332 13.602 12.332 15.1668C12.332 16.7316 13.6005 18.0001 15.1653 18.0001Z" stroke="white" stroke-width="1.25" stroke-linecap="round" stroke-linejoin="round"/>
<path d="M6.38086 8.27213L12.6142 5.06104" stroke="white" stroke-width="1.25" stroke-linecap="round" stroke-linejoin="round"/>
<path d="M6.38086 10.728L12.6142 13.9391" stroke="white" stroke-width="1.25" stroke-linecap="round" stroke-linejoin="round"/>
</svg>
