<svg width="23" height="23" viewBox="0 0 23 23" fill="none" xmlns="http://www.w3.org/2000/svg">
<g clip-path="url(#clip0_1334_703)">
<path d="M2.19238 10.0986L2.91113 21.1314L3.70176 20.8439C3.70176 20.8439 3.19863 13.4768 5.06738 12.8299L2.19238 10.0986" fill="#ED4C5C"/>
<path d="M17.7531 17.1422C17.7531 17.1422 16.2078 16.6391 12.6859 17.6453C9.19997 18.6516 7.83434 16.0641 3.95309 6.9C2.12028 2.5875 1.25778 0.2875 3.16247 0H3.05465C2.15622 0.071875 1.61715 0.898438 1.4734 1.15C0.574966 2.76719 -0.862534 4.63594 0.610903 7.72656C0.610903 7.72656 1.94059 12.8656 1.94059 20.9156L2.87497 21.1312C2.87497 21.1312 2.47965 12.2547 3.55778 11.9313C3.55778 11.9313 4.49215 12.9016 7.04372 17.9328C9.37965 22.4969 11.6437 23 13.8718 23H22.1375C22.5687 22.8922 23 22.6047 23 21.4187C23 20.1969 20.2687 18.1125 17.7531 17.1422Z" fill="#3E4347"/>
<path d="M3.95301 6.86406C7.83426 16.0281 9.19989 18.6156 12.6858 17.6094C14.878 16.9984 16.2796 16.9625 17.0702 16.9984C12.2905 14.375 11.7515 13.0812 8.91239 7.04375C5.92958 0.754688 4.81551 0 3.16239 0C1.2577 0.2875 2.1202 2.5875 3.95301 6.86406Z" fill="#94989B"/>
<path d="M3.95332 6.86445C7.83457 16.0285 9.20019 18.616 12.6861 17.6098C12.7939 17.5738 12.9018 17.5379 12.9736 17.5379C8.62519 14.5191 6.46895 7.72695 5.1752 5.49883C4.45645 4.27695 3.52207 3.91758 2.73145 3.8457C3.05488 4.74414 3.4502 5.75039 3.95332 6.86445Z" fill="#D0D0D0"/>
</g>
<defs>
<clipPath id="clip0_1334_703">
<rect width="23" height="23" fill="white"/>
</clipPath>
</defs>
</svg>
