<svg width="98" height="98" viewBox="0 0 98 98" fill="none" xmlns="http://www.w3.org/2000/svg">
<path fill-rule="evenodd" clip-rule="evenodd" d="M5 0C2.23858 0 0 2.23858 0 5V75.4388C0 78.2002 2.23857 80.4388 5 80.4388H75.2011C77.9625 80.4388 80.2011 78.2002 80.2011 75.4388V5C80.2011 2.23858 77.9625 0 75.2011 0H5ZM98 22C98 20.3431 96.6569 19 95 19C93.3431 19 92 20.3431 92 22V88C92 90.2091 90.2091 92 88 92H16C14.3431 92 13 93.3431 13 95C13 96.6569 14.3431 98 16 98H88C93.5228 98 98 93.5228 98 88V22Z" fill="white"/>
</svg>
