<svg width="70" height="70" viewBox="0 0 70 70" fill="none" xmlns="http://www.w3.org/2000/svg">
<path d="M26.717 31.7042C26.4253 31.675 26.0753 31.675 25.7545 31.7042C18.8128 31.4708 13.3003 25.7833 13.3003 18.7833C13.3003 11.6375 19.0753 5.83333 26.2503 5.83333C33.3961 5.83333 39.2003 11.6375 39.2003 18.7833C39.1711 25.7833 33.6586 31.4708 26.717 31.7042Z" stroke="#292D32" stroke-width="5" stroke-linecap="round" stroke-linejoin="round"/>
<path d="M47.8621 11.6667C53.5204 11.6667 58.0704 16.2458 58.0704 21.875C58.0704 27.3875 53.6954 31.8792 48.2412 32.0833C48.0079 32.0542 47.7454 32.0542 47.4829 32.0833" stroke="#292D32" stroke-width="5" stroke-linecap="round" stroke-linejoin="round"/>
<path d="M12.1341 42.4667C5.07575 47.1917 5.07575 54.8917 12.1341 59.5875C20.1549 64.9542 33.3091 64.9542 41.3299 59.5875C48.3882 54.8625 48.3882 47.1625 41.3299 42.4667C33.3382 37.1292 20.1841 37.1292 12.1341 42.4667Z" stroke="#292D32" stroke-width="5" stroke-linecap="round" stroke-linejoin="round"/>
<path d="M53.4912 58.3333C55.5912 57.8958 57.5745 57.05 59.2079 55.7958C63.7579 52.3833 63.7579 46.7542 59.2079 43.3417C57.6037 42.1167 55.6495 41.3 53.5787 40.8333" stroke="#292D32" stroke-width="5" stroke-linecap="round" stroke-linejoin="round"/>
</svg>
