<svg width="120" height="100" viewBox="0 0 120 100" fill="none" xmlns="http://www.w3.org/2000/svg">
<path d="M63.1656 24.9939C61.5076 24.9939 59.9175 25.6525 58.7451 26.8249C57.5727 27.9973 56.9141 29.5874 56.9141 31.2455C56.9141 32.9035 57.5727 34.4936 58.7451 35.666C59.9175 36.8384 61.5076 37.497 63.1656 37.497H88.1719C89.8299 37.497 91.42 36.8384 92.5924 35.666C93.7648 34.4936 94.4234 32.9035 94.4234 31.2455C94.4234 29.5874 93.7648 27.9973 92.5924 26.8249C91.42 25.6525 89.8299 24.9939 88.1719 24.9939H63.1656ZM63.1656 81.258C61.5076 81.258 59.9175 81.9166 58.7451 83.089C57.5727 84.2614 56.9141 85.8515 56.9141 87.5095C56.9141 89.1675 57.5727 90.7577 58.7451 91.9301C59.9175 93.1025 61.5076 93.7611 63.1656 93.7611H88.1719C89.8299 93.7611 91.42 93.1025 92.5924 91.9301C93.7648 90.7577 94.4234 89.1675 94.4234 87.5095C94.4234 85.8515 93.7648 84.2614 92.5924 83.089C91.42 81.9166 89.8299 81.258 88.1719 81.258H63.1656Z" fill="white"/>
<path d="M63.1656 6.23901C61.5076 6.23901 59.9175 6.89766 58.7451 8.07006C57.5727 9.24245 56.9141 10.8326 56.9141 12.4906C56.9141 14.1486 57.5727 15.7387 58.7451 16.9111C59.9175 18.0835 61.5076 18.7421 63.1656 18.7421H113.178C114.836 18.7421 116.426 18.0835 117.599 16.9111C118.771 15.7387 119.43 14.1486 119.43 12.4906C119.43 10.8326 118.771 9.24245 117.599 8.07006C116.426 6.89766 114.836 6.23901 113.178 6.23901H63.1656ZM63.1656 62.5031C61.5076 62.5031 59.9175 63.1617 58.7451 64.3341C57.5727 65.5065 56.9141 67.0966 56.9141 68.7546C56.9141 70.4127 57.5727 72.0028 58.7451 73.1752C59.9175 74.3476 61.5076 75.0062 63.1656 75.0062H113.178C114.836 75.0062 116.426 74.3476 117.599 73.1752C118.771 72.0028 119.43 70.4127 119.43 68.7546C119.43 67.0966 118.771 65.5065 117.599 64.3341C116.426 63.1617 114.836 62.5031 113.178 62.5031H63.1656Z" fill="white"/>
<path d="M6.25156 0C4.59355 0 3.00344 0.658646 1.83104 1.83104C0.658645 3.00344 0 4.59355 0 6.25156V37.5094C0 39.1674 0.658645 40.7575 1.83104 41.9299C3.00344 43.1023 4.59355 43.7609 6.25156 43.7609H37.5094C39.1674 43.7609 40.7575 43.1023 41.9299 41.9299C43.1023 40.7575 43.7609 39.1674 43.7609 37.5094V6.25156C43.7609 4.59355 43.1023 3.00344 41.9299 1.83104C40.7575 0.658646 39.1674 0 37.5094 0H6.25156V0ZM6.25156 56.2391C4.59355 56.2391 3.00344 56.8977 1.83104 58.0701C0.658645 59.2425 0 60.8326 0 62.4906V93.7484C0 95.4065 0.658645 96.9966 1.83104 98.169C3.00344 99.3414 4.59355 100 6.25156 100H37.5094C39.1674 100 40.7575 99.3414 41.9299 98.169C43.1023 96.9966 43.7609 95.4065 43.7609 93.7484V62.4906C43.7609 60.8326 43.1023 59.2425 41.9299 58.0701C40.7575 56.8977 39.1674 56.2391 37.5094 56.2391H6.25156V56.2391Z" fill="white"/>
</svg>
