<svg width="45" height="50" viewBox="0 0 45 50" fill="none" xmlns="http://www.w3.org/2000/svg">
<path d="M29.3754 43.75V39.5833C29.3754 37.3732 28.6016 35.2536 27.2244 33.6908C25.8472 32.128 23.9792 31.25 22.0315 31.25H9.17978C7.23207 31.25 5.36414 32.128 3.9869 33.6908C2.60966 35.2536 1.83594 37.3732 1.83594 39.5833V43.75" stroke="#1B0B0B" stroke-width="2" stroke-linecap="round" stroke-linejoin="round"/>
<path d="M15.335 22.9167C19.9383 22.9167 23.67 19.1857 23.67 14.5833C23.67 9.98096 19.9383 6.25 15.335 6.25C10.7317 6.25 7 9.98096 7 14.5833C7 19.1857 10.7317 22.9167 15.335 22.9167Z" stroke="#1B0B0B" stroke-width="2" stroke-linecap="round" stroke-linejoin="round"/>
<path d="M36.7188 16.6667V29.1667" stroke="#1B0B0B" stroke-width="2" stroke-linecap="round" stroke-linejoin="round"/>
<path d="M42.2267 22.9167H31.2109" stroke="#1B0B0B" stroke-width="2" stroke-linecap="round" stroke-linejoin="round"/>
</svg>
