<svg width="70" height="70" viewBox="0 0 70 70" fill="none" xmlns="http://www.w3.org/2000/svg">
<path d="M35.3507 37.275C35.1466 37.2459 34.8841 37.2459 34.6507 37.275C29.5174 37.1 25.4341 32.9 25.4341 27.7375C25.4341 22.4584 29.6924 18.1709 35.0007 18.1709C40.2799 18.1709 44.5674 22.4584 44.5674 27.7375C44.5382 32.9 40.4841 37.1 35.3507 37.275Z" stroke="#292D32" stroke-width="5" stroke-linecap="round" stroke-linejoin="round"/>
<path d="M54.6575 56.525C49.4658 61.2792 42.5825 64.1667 34.9992 64.1667C27.4158 64.1667 20.5325 61.2792 15.3408 56.525C15.6325 53.7833 17.3825 51.1 20.5033 49C28.495 43.6917 41.5617 43.6917 49.495 49C52.6158 51.1 54.3658 53.7833 54.6575 56.525Z" stroke="#292D32" stroke-width="5" stroke-linecap="round" stroke-linejoin="round"/>
<path d="M35.0002 64.1667C51.1085 64.1667 64.1668 51.1083 64.1668 35C64.1668 18.8917 51.1085 5.83334 35.0002 5.83334C18.8919 5.83334 5.8335 18.8917 5.8335 35C5.8335 51.1083 18.8919 64.1667 35.0002 64.1667Z" stroke="#292D32" stroke-width="5" stroke-linecap="round" stroke-linejoin="round"/>
</svg>
