<svg width="107" height="101" viewBox="0 0 107 101" fill="none" xmlns="http://www.w3.org/2000/svg">
<path d="M100.733 27H6.60016C4.93814 27 3.34419 27.6602 2.16896 28.8355C0.993732 30.0107 0.333496 31.6046 0.333496 33.2667V94.0667C0.333496 95.7287 0.993732 97.3226 2.16896 98.4979C3.34419 99.6731 4.93814 100.333 6.60016 100.333H100.733C102.396 100.333 103.989 99.6731 105.165 98.4979C106.34 97.3226 107 95.7287 107 94.0667V33.2667C107 31.6046 106.34 30.0107 105.165 28.8355C103.989 27.6602 102.396 27 100.733 27V27ZM100.334 93.6667H7.00016V33.6667H100.334V93.6667Z" fill="white"/>
<path d="M94.1421 3.66671C94.1421 2.78265 93.7909 1.93481 93.1658 1.30968C92.5407 0.684563 91.6928 0.333374 90.8087 0.333374H17.4754C16.5914 0.333374 15.7435 0.684563 15.1184 1.30968C14.4933 1.93481 14.1421 2.78265 14.1421 3.66671V7.00004H94.1421V3.66671Z" fill="white"/>
<path d="M100.737 17.0017C100.737 16.1176 100.386 15.2698 99.7608 14.6446C99.1357 14.0195 98.2879 13.6683 97.4038 13.6683H10.7371C9.85309 13.6683 9.00524 14.0195 8.38012 14.6446C7.755 15.2698 7.40381 16.1176 7.40381 17.0017V20.335H100.737V17.0017Z" fill="white"/>
<path d="M36.3963 82.9665C37.3201 83.5656 38.3953 83.8893 39.4963 83.8998C40.2897 83.898 41.0737 83.7276 41.7963 83.3998L74.3629 68.8665C75.3697 68.4291 76.2267 67.707 76.8286 66.7892C77.4306 65.8713 77.7513 64.7975 77.7513 63.6999C77.7513 62.6022 77.4306 61.5284 76.8286 60.6105C76.2267 59.6927 75.3697 58.9706 74.3629 58.5332L41.7963 43.9999C40.9345 43.6171 39.9908 43.4555 39.0507 43.5296C38.1107 43.6038 37.204 43.9113 36.4129 44.4244C35.6217 44.9375 34.9711 45.6399 34.52 46.468C34.0689 47.296 33.8316 48.2236 33.8296 49.1665V78.2332C33.8313 79.1731 34.0668 80.0979 34.5148 80.9242C34.9629 81.7505 35.6094 82.4523 36.3963 82.9665V82.9665ZM38.4963 49.1665C38.4952 48.9991 38.5377 48.8343 38.6195 48.6882C38.7013 48.5421 38.8196 48.4198 38.9629 48.3332C39.1374 48.2849 39.3218 48.2849 39.4963 48.3332C39.6279 48.3032 39.7646 48.3032 39.8963 48.3332L72.4629 62.8332C72.6467 62.9083 72.8028 63.0382 72.9102 63.2052C73.0175 63.3722 73.0708 63.5682 73.0629 63.7665C73.0687 63.9603 73.0141 64.151 72.9066 64.3123C72.7991 64.4736 72.644 64.5974 72.4629 64.6665L39.8963 79.1998C39.7544 79.2818 39.5934 79.3249 39.4296 79.3249C39.2658 79.3249 39.1048 79.2818 38.9629 79.1998C38.8238 79.1087 38.7088 78.9854 38.6275 78.8403C38.5463 78.6953 38.5013 78.5327 38.4963 78.3665V49.1665Z" fill="white"/>
</svg>
