<svg width="13" height="13" viewBox="0 0 13 13" fill="none" xmlns="http://www.w3.org/2000/svg">
<path fill-rule="evenodd" clip-rule="evenodd" d="M11.9474 0.513572C12.1874 0.273644 12.5699 0.272233 12.819 0.512866C13.0611 0.75491 13.0611 1.14585 12.8197 1.38719L1.38723 12.819C1.27361 12.9326 1.10987 12.9997 0.950372 12.9997C0.7944 12.9997 0.640546 12.9362 0.516334 12.8211C0.273555 12.5692 0.273555 12.186 0.514217 11.9454L2.39858 10.0613H2.37952C1.44016 10.0613 0.75629 9.39794 0.629254 8.36767C0.487398 7.33739 0.515628 5.57322 0.629254 4.63468C0.762642 3.66085 1.48321 2.99117 2.37952 2.99117H3.59977L5.92875 1.08587C6.21176 0.845942 6.71284 0.619422 7.1003 0.613071C7.80605 0.613071 8.45534 1.10633 8.68824 1.89668C8.77999 2.22905 8.81598 2.56001 8.84421 2.87827L8.89997 3.32919C8.90914 3.39835 8.91761 3.46468 8.92467 3.53525L11.9474 0.513572ZM8.25456 7.48727C8.34983 7.39412 8.56297 7.32709 8.65895 7.35178C8.91796 7.41741 8.96878 7.7893 8.96454 8.08145C8.95255 8.92966 8.92431 9.5196 8.87915 9.88443L8.84739 10.185L8.84684 10.1906C8.81666 10.493 8.78544 10.806 8.69565 11.1398C8.46064 11.9288 7.8304 12.4411 7.11406 12.4411C7.09077 12.4411 7.06748 12.4411 7.04348 12.4404C6.64756 12.4404 6.21846 12.2033 5.97498 11.9965L5.10761 11.3254C4.77802 11.0805 4.87541 10.6896 5.06032 10.4631C5.1984 10.2944 6.85798 8.77096 7.72965 7.97077C8.02526 7.6994 8.23025 7.51122 8.25456 7.48727Z" fill="#CCC7D1"/>
</svg>
