<svg width="50" height="50" viewBox="0 0 50 50" fill="none" xmlns="http://www.w3.org/2000/svg">
<path d="M37.584 28.2291C36.709 29.0832 36.209 30.3124 36.334 31.6249C36.5215 33.8749 38.584 35.5207 40.834 35.5207H44.7923V37.9999C44.7923 42.3124 41.2715 45.8333 36.959 45.8333H13.0423C8.72982 45.8333 5.20898 42.3124 5.20898 37.9999V23.9791C5.20898 19.6666 8.72982 16.1458 13.0423 16.1458H36.959C41.2715 16.1458 44.7923 19.6666 44.7923 23.9791V26.9791H40.584C39.4173 26.9791 38.3548 27.4374 37.584 28.2291Z" stroke="#292D32" stroke-width="2" stroke-linecap="round" stroke-linejoin="round"/>
<path d="M5.20898 25.8541V16.3334C5.20898 13.8542 6.72982 11.6458 9.04232 10.7708L25.584 4.52078C28.1673 3.54161 30.9382 5.45834 30.9382 8.22917V16.1458" stroke="#292D32" stroke-width="2" stroke-linecap="round" stroke-linejoin="round"/>
<path d="M46.9982 29.1044V33.3962C46.9982 34.542 46.0815 35.4794 44.9148 35.5211H40.8315C38.5815 35.5211 36.519 33.8753 36.3315 31.6253C36.2065 30.3128 36.7065 29.0836 37.5815 28.2294C38.3523 27.4378 39.4148 26.9795 40.5815 26.9795H44.9148C46.0815 27.0212 46.9982 27.9586 46.9982 29.1044Z" stroke="#292D32" stroke-width="2" stroke-linecap="round" stroke-linejoin="round"/>
<path d="M14.584 25H29.1673" stroke="#292D32" stroke-width="2" stroke-linecap="round" stroke-linejoin="round"/>
</svg>
