<svg width="24" height="23" viewBox="0 0 24 23" fill="none" xmlns="http://www.w3.org/2000/svg">
<path d="M6.96875 16.5312H16.3125V22.2812H6.96875V16.5312Z" fill="#E8E8E8"/>
<path d="M9.125 17.9688H14.1562V19.0469H9.125V17.9688ZM9.125 20.8438H14.1562V21.9219H9.125V20.8438Z" fill="#62727A"/>
<path d="M9.125 19.7656H14.1562V20.8438H9.125V19.7656Z" fill="white"/>
<path d="M14.5156 19.4062H15.9531V20.125H14.5156V19.4062Z" fill="#62727A"/>
<path d="M14.5156 18.6875H15.9531V19.4062H14.5156V18.6875Z" fill="white"/>
<path d="M14.5156 17.6094H15.9531V18.3281H14.5156V17.6094Z" fill="#62727A"/>
<path d="M14.5156 16.8906H15.9531V17.6094H14.5156V16.8906Z" fill="white"/>
<path d="M14.5156 21.2031H15.9531V21.9219H14.5156V21.2031Z" fill="#62727A"/>
<path d="M14.5156 20.4844H15.9531V21.2031H14.5156V20.4844Z" fill="white"/>
<path d="M7.32812 19.4062H8.76562V20.125H7.32812V19.4062Z" fill="#62727A"/>
<path d="M7.32812 18.6875H8.76562V19.4062H7.32812V18.6875Z" fill="white"/>
<path d="M7.32812 17.6094H8.76562V18.3281H7.32812V17.6094Z" fill="#62727A"/>
<path d="M7.32812 16.8906H8.76562V17.6094H7.32812V16.8906Z" fill="white"/>
<path d="M7.32812 21.2031H8.76562V21.9219H7.32812V21.2031Z" fill="#62727A"/>
<path d="M7.32812 20.4844H8.76562V21.2031H7.32812V20.4844Z" fill="white"/>
<path d="M6.96875 0.71875H16.3125V6.46875H6.96875V0.71875Z" fill="#E8E8E8"/>
<path d="M9.125 2.15625H14.1562V3.23438H9.125V2.15625Z" fill="#62727A"/>
<path d="M9.125 1.07812H14.1562V2.15625H9.125V1.07812ZM9.125 3.95312H14.1562V5.03125H9.125V3.95312Z" fill="white"/>
<path d="M14.5156 3.59375H15.9531V4.3125H14.5156V3.59375Z" fill="#62727A"/>
<path d="M14.5156 2.875H15.9531V3.59375H14.5156V2.875Z" fill="white"/>
<path d="M14.5156 1.79688H15.9531V2.51562H14.5156V1.79688Z" fill="#62727A"/>
<path d="M14.5156 1.07812H15.9531V1.79688H14.5156V1.07812Z" fill="white"/>
<path d="M14.5156 5.39062H15.9531V6.10938H14.5156V5.39062Z" fill="#62727A"/>
<path d="M14.5156 4.67188H15.9531V5.39062H14.5156V4.67188Z" fill="white"/>
<path d="M7.32812 3.59375H8.76562V4.3125H7.32812V3.59375Z" fill="#62727A"/>
<path d="M7.32812 2.875H8.76562V3.59375H7.32812V2.875Z" fill="white"/>
<path d="M7.32812 1.79688H8.76562V2.51562H7.32812V1.79688Z" fill="#62727A"/>
<path d="M7.32812 1.07812H8.76562V1.79688H7.32812V1.07812Z" fill="white"/>
<path d="M7.32812 5.39062H8.76562V6.10938H7.32812V5.39062Z" fill="#62727A"/>
<path d="M7.32812 4.67188H8.76562V5.39062H7.32812V4.67188Z" fill="white"/>
<path d="M19.1875 10.0625H18.1094V12.9375H19.1875C19.4031 12.9375 19.5469 12.7938 19.5469 12.5781V10.4219C19.5469 10.2422 19.3672 10.0625 19.1875 10.0625Z" fill="#E8E8E8"/>
<path d="M18.1094 10.6016H19.5469V10.9609H18.1094V10.6016ZM18.1094 11.3203H19.5469V11.6797H18.1094V11.3203ZM18.1094 12.0391H19.5469V12.3984H18.1094V12.0391Z" fill="#62727A"/>
<path d="M11.6406 18.6875C15.6102 18.6875 18.8281 15.4695 18.8281 11.5C18.8281 7.53045 15.6102 4.3125 11.6406 4.3125C7.67108 4.3125 4.45312 7.53045 4.45312 11.5C4.45312 15.4695 7.67108 18.6875 11.6406 18.6875Z" fill="#62727A"/>
<path d="M11.6404 17.6451C15.0344 17.6451 17.7857 14.8938 17.7857 11.4998C17.7857 8.10584 15.0344 5.35449 11.6404 5.35449C8.24647 5.35449 5.49512 8.10584 5.49512 11.4998C5.49512 14.8938 8.24647 17.6451 11.6404 17.6451Z" fill="#3E4347"/>
<path d="M11.6408 12.183C12.0179 12.183 12.3236 11.8773 12.3236 11.5002C12.3236 11.1231 12.0179 10.8174 11.6408 10.8174C11.2637 10.8174 10.958 11.1231 10.958 11.5002C10.958 11.8773 11.2637 12.183 11.6408 12.183Z" fill="#E8E8E8"/>
<path d="M12 8.73262L11.8203 8.08574V7.04355C11.8203 5.7498 11.4609 5.7498 11.4609 7.04355V8.08574L11.2812 8.73262V10.817C11.2812 11.3561 11.9641 11.3561 11.9641 10.817L12 8.73262Z" fill="#E8E8E8"/>
<path d="M11.1514 11.6312L11.4928 11.04L14.449 12.7478L14.1076 13.339L11.1514 11.6312Z" fill="#E8E8E8"/>
<path d="M11.6406 11.8594C11.8391 11.8594 12 11.6985 12 11.5C12 11.3015 11.8391 11.1406 11.6406 11.1406C11.4421 11.1406 11.2812 11.3015 11.2812 11.5C11.2812 11.6985 11.4421 11.8594 11.6406 11.8594Z" fill="#62727A"/>
<path d="M11.6406 5.71387C11.8391 5.71387 12 5.55297 12 5.35449C12 5.15601 11.8391 4.99512 11.6406 4.99512C11.4421 4.99512 11.2812 5.15601 11.2812 5.35449C11.2812 5.55297 11.4421 5.71387 11.6406 5.71387Z" fill="white"/>
<path d="M8.5498 6.54004C8.74828 6.54004 8.90918 6.37914 8.90918 6.18066C8.90918 5.98219 8.74828 5.82129 8.5498 5.82129C8.35133 5.82129 8.19043 5.98219 8.19043 6.18066C8.19043 6.37914 8.35133 6.54004 8.5498 6.54004Z" fill="white"/>
<path d="M6.32178 8.76855C6.52026 8.76855 6.68115 8.60766 6.68115 8.40918C6.68115 8.2107 6.52026 8.0498 6.32178 8.0498C6.1233 8.0498 5.9624 8.2107 5.9624 8.40918C5.9624 8.60766 6.1233 8.76855 6.32178 8.76855Z" fill="white"/>
<path d="M5.49512 11.8594C5.69359 11.8594 5.85449 11.6985 5.85449 11.5C5.85449 11.3015 5.69359 11.1406 5.49512 11.1406C5.29664 11.1406 5.13574 11.3015 5.13574 11.5C5.13574 11.6985 5.29664 11.8594 5.49512 11.8594Z" fill="white"/>
<path d="M6.32178 14.9502C6.52026 14.9502 6.68115 14.7893 6.68115 14.5908C6.68115 14.3923 6.52026 14.2314 6.32178 14.2314C6.1233 14.2314 5.9624 14.3923 5.9624 14.5908C5.9624 14.7893 6.1233 14.9502 6.32178 14.9502Z" fill="white"/>
<path d="M8.26208 16.6743C8.36989 16.4946 8.54958 16.4587 8.72927 16.5665C8.90896 16.6743 8.94489 16.854 8.87302 17.0337C8.76521 17.2134 8.58552 17.2493 8.40583 17.1415C8.22614 17.0337 8.15427 16.8181 8.26208 16.6743ZM11.2808 17.6446C11.2808 17.4649 11.4246 17.2853 11.6402 17.2853C11.8558 17.2853 11.9996 17.429 11.9996 17.6446C11.9996 17.8243 11.8558 18.004 11.6402 18.004C11.4605 18.004 11.2808 17.8603 11.2808 17.6446Z" fill="white"/>
<path d="M14.731 17.1777C14.9294 17.1777 15.0903 17.0168 15.0903 16.8184C15.0903 16.6199 14.9294 16.459 14.731 16.459C14.5325 16.459 14.3716 16.6199 14.3716 16.8184C14.3716 17.0168 14.5325 17.1777 14.731 17.1777Z" fill="white"/>
<path d="M16.8154 14.8781C16.6357 14.7703 16.5998 14.5906 16.7076 14.4109C16.8154 14.2312 16.9951 14.1953 17.1748 14.3031C17.3545 14.4109 17.3904 14.5906 17.2826 14.7703C17.1748 14.9141 16.9592 14.9859 16.8154 14.8781ZM17.7857 11.8594C17.6061 11.8594 17.4264 11.7156 17.4264 11.5C17.4264 11.2844 17.5701 11.1406 17.7857 11.1406C17.9654 11.1406 18.1451 11.2844 18.1451 11.5C18.1451 11.6797 18.0014 11.8594 17.7857 11.8594Z" fill="white"/>
<path d="M16.959 8.76855C17.1575 8.76855 17.3184 8.60766 17.3184 8.40918C17.3184 8.2107 17.1575 8.0498 16.959 8.0498C16.7605 8.0498 16.5996 8.2107 16.5996 8.40918C16.5996 8.60766 16.7605 8.76855 16.959 8.76855Z" fill="white"/>
<path d="M14.731 6.54004C14.9294 6.54004 15.0903 6.37914 15.0903 6.18066C15.0903 5.98219 14.9294 5.82129 14.731 5.82129C14.5325 5.82129 14.3716 5.98219 14.3716 6.18066C14.3716 6.37914 14.5325 6.54004 14.731 6.54004Z" fill="white"/>
</svg>
