<svg width="27" height="26" viewBox="0 0 27 26" fill="none" xmlns="http://www.w3.org/2000/svg">
<path d="M13.5 25C20.1274 25 25.5 19.6274 25.5 13C25.5 6.37258 20.1274 1 13.5 1C6.87258 1 1.5 6.37258 1.5 13C1.5 19.6274 6.87258 25 13.5 25Z" stroke="#C4C4C4" stroke-width="2" stroke-linecap="round" stroke-linejoin="round"/>
<path d="M13.4999 15.6673C14.9727 15.6673 16.1666 14.4734 16.1666 13.0007C16.1666 11.5279 14.9727 10.334 13.4999 10.334C12.0272 10.334 10.8333 11.5279 10.8333 13.0007C10.8333 14.4734 12.0272 15.6673 13.4999 15.6673Z" stroke="#C4C4C4" stroke-width="2" stroke-linecap="round" stroke-linejoin="round"/>
<path d="M16.1666 13.0007L25.1666 10.334M13.4999 15.6673V25.0007V15.6673ZM10.8333 13.0007L1.83325 10.334L10.8333 13.0007Z" stroke="#C4C4C4" stroke-width="2" stroke-linecap="round" stroke-linejoin="round"/>
</svg>
