<svg width="25" height="25" viewBox="0 0 25 25" fill="none" xmlns="http://www.w3.org/2000/svg">
<path d="M5.39893 0.5C4.20545 0.5 3.06086 0.974106 2.21695 1.81802C1.37303 2.66193 0.898926 3.80653 0.898926 5V17C0.898926 18.1935 1.37303 19.3381 2.21695 20.182C3.06086 21.0259 4.20545 21.5 5.39893 21.5H10.7989C10.5536 21.0206 10.3562 20.5182 10.2094 20H5.39893C4.60328 20 3.84022 19.6839 3.27761 19.1213C2.715 18.5587 2.39893 17.7957 2.39893 17V6.5H20.3989V9.8105C20.9224 9.959 21.4234 10.1555 21.8989 10.4V5C21.8989 3.80653 21.4248 2.66193 20.5809 1.81802C19.737 0.974106 18.5924 0.5 17.3989 0.5H5.39893ZM2.39893 5C2.39893 4.20435 2.715 3.44129 3.27761 2.87868C3.84022 2.31607 4.60328 2 5.39893 2H17.3989C18.1946 2 18.9576 2.31607 19.5203 2.87868C20.0829 3.44129 20.3989 4.20435 20.3989 5H2.39893ZM17.5264 9.5225C17.4601 9.50675 17.3921 9.4992 17.3239 9.5H10.7239C10.5673 9.49765 10.4132 9.53946 10.2792 9.62063C10.1452 9.70181 10.0368 9.81907 9.96643 9.959C9.90394 10.0954 9.88742 10.2484 9.91934 10.395C9.95125 10.5416 10.0299 10.6739 10.1434 10.772V10.778C10.3014 10.9235 10.5092 11.0029 10.7239 11H13.4044C14.6192 10.1432 16.044 9.6325 17.5264 9.5225ZM4.76593 9.665C4.68694 9.84982 4.6471 10.049 4.64893 10.25C4.65343 10.4552 4.693 10.6581 4.76593 10.85C4.83509 11.0268 4.94327 11.1858 5.08243 11.315C5.22343 11.45 5.38543 11.555 5.56243 11.633C5.74772 11.7122 5.94743 11.752 6.14893 11.75C6.35103 11.7592 6.55234 11.7191 6.73543 11.633C6.91405 11.5529 7.07668 11.4411 7.21543 11.303C7.35463 11.1655 7.46476 11.0015 7.53923 10.8206C7.61371 10.6397 7.65101 10.4456 7.64893 10.25C7.64909 10.0492 7.60932 9.85032 7.53193 9.665C7.45753 9.48361 7.34558 9.32002 7.20343 9.185C7.06256 9.053 6.90024 8.94597 6.72343 8.8685C6.54216 8.78975 6.34656 8.74941 6.14893 8.75C5.9467 8.74323 5.74574 8.78435 5.56243 8.87C5.20541 9.02319 4.92046 9.30707 4.76593 9.6635V9.665ZM4.64893 16.25C4.64647 16.0541 4.6836 15.8597 4.75809 15.6785C4.83258 15.4973 4.9429 15.333 5.08243 15.1955C5.22183 15.059 5.38435 14.9483 5.56243 14.8685C5.74552 14.7822 5.94664 14.741 6.14893 14.7485C6.34672 14.7478 6.54246 14.7886 6.72343 14.8685C6.90043 14.9435 7.06243 15.0515 7.20343 15.1835C7.34593 15.3185 7.45843 15.4835 7.53193 15.6635C7.68562 16.0305 7.68816 16.4433 7.53899 16.8122C7.38982 17.181 7.10102 17.476 6.73543 17.633C6.55234 17.7191 6.35103 17.7592 6.14893 17.75C5.94743 17.752 5.74772 17.7122 5.56243 17.633C5.38518 17.5563 5.22273 17.4492 5.08243 17.3165C4.94294 17.1864 4.83473 17.0264 4.76593 16.8485C4.693 16.6566 4.65343 16.4537 4.64893 16.2485V16.25ZM21.8989 23.363C21.1618 23.8555 20.3349 24.1979 19.4655 24.3708C18.596 24.5437 17.701 24.5436 16.8316 24.3706C15.9622 24.1976 15.1353 23.8551 14.3983 23.3626C13.6612 22.87 13.0284 22.2371 12.5359 21.5C12.0435 20.7629 11.701 19.936 11.5281 19.0665C11.3552 18.1971 11.3553 17.3021 11.5283 16.4327C11.7013 15.5632 12.0438 14.7364 12.5364 13.9993C13.0289 13.2623 13.6618 12.6295 14.3989 12.137C15.8876 11.1424 17.7104 10.78 19.4663 11.1294C21.2222 11.4787 22.7674 12.5113 23.7619 14C24.7565 15.4887 25.119 17.3114 24.7696 19.0673C24.4202 20.8232 23.3876 22.3684 21.8989 23.363ZM18.6799 14.219C18.575 14.1138 18.4413 14.0422 18.2956 14.0131C18.15 13.9841 17.9989 13.9989 17.8617 14.0558C17.7245 14.1127 17.6073 14.209 17.5249 14.3326C17.4425 14.4562 17.3987 14.6015 17.3989 14.75V17H15.1489C14.95 17 14.7593 17.079 14.6186 17.2197C14.4779 17.3603 14.3989 17.5511 14.3989 17.75C14.3989 17.9489 14.4779 18.1397 14.6186 18.2803C14.7593 18.421 14.95 18.5 15.1489 18.5H17.3989V20.75C17.3989 20.9489 17.4779 21.1397 17.6186 21.2803C17.7593 21.421 17.95 21.5 18.1489 21.5C18.3478 21.5 18.5386 21.421 18.6793 21.2803C18.8199 21.1397 18.8989 20.9489 18.8989 20.75V18.5H21.1489C21.3478 18.5 21.5386 18.421 21.6793 18.2803C21.8199 18.1397 21.8989 17.9489 21.8989 17.75C21.8989 17.5511 21.8199 17.3603 21.6793 17.2197C21.5386 17.079 21.3478 17 21.1489 17H18.8989V14.75C18.8991 14.6514 18.8799 14.5538 18.8423 14.4627C18.8047 14.3716 18.7495 14.2888 18.6799 14.219Z" fill="#1B0B0B" fill-opacity="0.8"/>
</svg>
