<svg width="11" height="10" viewBox="0 0 11 10" fill="none" xmlns="http://www.w3.org/2000/svg">
<path fill-rule="evenodd" clip-rule="evenodd" d="M4.85218 0.75949C4.51701 0.75949 4.23187 0.9924 4.15183 1.30632H6.84317C6.76313 0.9924 6.47799 0.75949 6.14282 0.75949H4.85218ZM7.60355 1.30632H8.59405C9.64457 1.30632 10.5 2.17214 10.5 3.23543C10.5 3.23543 10.47 3.68555 10.46 4.31238C10.459 4.362 10.435 4.41061 10.3954 4.43998C10.1548 4.6177 9.93472 4.76453 9.91471 4.77466C9.08429 5.33162 8.11931 5.72352 7.09129 5.91845C7.02426 5.93162 6.95823 5.89668 6.92421 5.83693C6.63607 5.33769 6.0978 5.01263 5.4975 5.01263C4.9012 5.01263 4.35793 5.33415 4.06128 5.83389C4.02676 5.89263 3.96173 5.92655 3.8952 5.91389C2.87569 5.71845 1.91071 5.32706 1.08529 4.77972L0.605053 4.44555C0.565033 4.42023 0.54002 4.37466 0.54002 4.32403C0.525013 4.0658 0.5 3.23543 0.5 3.23543C0.5 2.17214 1.35543 1.30632 2.40595 1.30632H3.39145C3.48649 0.572149 4.1018 0 4.85218 0H6.14282C6.8932 0 7.5085 0.572149 7.60355 1.30632ZM10.3299 5.40762L10.3099 5.41774C9.2994 6.09622 8.08379 6.54685 6.80815 6.73419C6.62806 6.75951 6.44797 6.64305 6.39795 6.46078C6.28789 6.04559 5.93272 5.77217 5.5075 5.77217H5.5025H5.4925C5.06728 5.77217 4.71211 6.04559 4.60205 6.46078C4.55203 6.64305 4.37194 6.75951 4.19185 6.73419C2.91621 6.54685 1.7006 6.09622 0.690095 5.41774C0.685093 5.41268 0.635068 5.3823 0.595048 5.40762C0.550025 5.43293 0.550025 5.49369 0.550025 5.49369L0.585043 8.07596C0.585043 9.13925 1.43547 10 2.48599 10H8.509C9.55953 10 10.41 9.13925 10.41 8.07596L10.45 5.49369C10.45 5.49369 10.45 5.43293 10.405 5.40762C10.3799 5.39243 10.3499 5.39749 10.3299 5.40762ZM5.87269 7.52913C5.87269 7.74178 5.7076 7.90887 5.4975 7.90887C5.2924 7.90887 5.12231 7.74178 5.12231 7.52913V6.87597C5.12231 6.66837 5.2924 6.49622 5.4975 6.49622C5.7076 6.49622 5.87269 6.66837 5.87269 6.87597V7.52913Z" fill="white"/>
</svg>
